<?xml version="1.0" encoding="utf-8"?>
<!-- Generator: Adobe Illustrator 21.0.2, SVG Export Plug-In . SVG Version: 6.00 Build 0)  -->
<svg version="1.1" id="Layer_1" xmlns="http://www.w3.org/2000/svg" xmlns:xlink="http://www.w3.org/1999/xlink" x="0px" y="0px"
	 viewBox="0 0 102 20" style="enable-background:new 0 0 102 20;" xml:space="preserve">
<g>
	<path d="M1.1,10.8V0.9h5.2c3.2,0,5.2,1.8,5.2,4.8c0,3.3-2.1,5.1-5.8,5.1H1.1z M2,0.3c-0.7,0-1.1,0-1.5-0.1c0.1,0.6,0.1,1.1,0.1,2
		v16c0,0.7,0,1.3-0.1,2h0.7c-0.1-0.7-0.1-1.3-0.1-2v-6.9h4.6c4,0,6.4-2.2,6.4-5.7c0-3.3-2.2-5.3-5.6-5.3H2z"/>
	<path d="M17,10.2V0.9h5c3.4,0,5.2,1.5,5.2,4.5c0,3.2-2,4.9-5.6,4.9H17z M23.1,10.6c3.2-0.5,4.7-2.4,4.7-5.3c0-3.2-2-5-5.7-5h-3.8
		c-0.9,0-1.4,0-2-0.1c0.1,0.4,0.1,0.7,0.1,2v16c0,0.7,0,1.3-0.1,2h0.7c-0.1-0.7-0.1-1.3-0.1-2v-7.5h5.5l4.5,7.4
		c0.4,0.7,0.8,1.3,1,2.1h1c-0.5-0.7-0.9-1.4-1.3-2.1L23.1,10.6z"/>
	<path d="M43.5,2.3c0.4-0.7,0.7-1.3,1.2-2h-0.9c-0.3,0.7-0.7,1.3-1,2l-4.9,9.2l-5.2-9.2c-0.4-0.7-0.8-1.3-1.1-2h-0.9
		c0.5,0.7,0.9,1.3,1.2,2l5.6,9.8v6.1c0,0.7,0,1.3-0.1,2h0.7c-0.1-0.7-0.1-1.3-0.1-2v-6L43.5,2.3z"/>
	<path d="M48.1,11.8L52,1l3.8,10.8H48.1z M53.1,2.3c-0.2-0.7-0.5-1.3-0.7-2h-0.9c-0.2,0.7-0.4,1.3-0.7,2l-5.6,15.9
		c-0.2,0.7-0.5,1.3-0.8,2h0.8c0.2-0.7,0.4-1.3,0.6-2l2.1-5.9H56l2.1,5.9c0.2,0.7,0.5,1.3,0.6,2h0.8c-0.3-0.7-0.6-1.3-0.8-2L53.1,2.3
		z"/>
	<path d="M77.3,2.3c0-0.7,0-1.3,0.1-2h-0.7c0.1,0.7,0.1,1.3,0.1,2v16.9L65.4,2.3c-0.5-0.7-0.9-1.3-1.3-2H63C63,1,63,1.7,63,2.3v15.9
		c0,0.7,0,1.3-0.1,2h0.7c-0.1-0.7-0.1-1.3-0.1-2V0.8c0.4,0.5,0.7,1,1.1,1.5l10.7,15.9c0.5,0.7,0.8,1.3,1.2,2h0.8
		c-0.1-0.7-0.1-1.3-0.1-2V2.3z"/>
	<path d="M83.4,0.3c0.1,0.7,0.1,1.3,0.1,2v15.9c0,0.7,0,1.3-0.1,2h0.7c-0.1-0.7-0.1-1.3-0.1-2V2.3c0-0.7,0-1.3,0.1-2H83.4z"/>
	<path d="M92.2,10.3l7.6-7.9c0.6-0.7,1.3-1.3,2.1-2h-1.1c-0.5,0.6-1.1,1.3-1.7,2l-7.6,8l8,7.9c0.7,0.7,1.3,1.3,1.9,2h1.2
		c-0.8-0.6-1.5-1.3-2.2-2L92.2,10.3z M90.2,0.3c0.1,0.7,0.1,1.3,0.1,2v15.9c0,0.7,0,1.3-0.1,2H91c-0.1-0.7-0.1-1.3-0.1-2V2.3
		c0-0.7,0-1.3,0.1-2H90.2z"/>
</g>
</svg>
