<?xml version="1.0" encoding="utf-8"?>
<!-- Generator: Adobe Illustrator 21.0.2, SVG Export Plug-In . SVG Version: 6.00 Build 0)  -->
<svg version="1.1" id="Layer_1" xmlns="http://www.w3.org/2000/svg" xmlns:xlink="http://www.w3.org/1999/xlink" x="0px" y="0px"
	 viewBox="0 0 110 18.2" style="enable-background:new 0 0 110 18.2;" xml:space="preserve">
<g>
	<path d="M4.2,12.1v6.1H0V0h6.4c1.3,0,2.4,0.2,3.3,0.5s1.7,0.7,2.3,1.3c0.6,0.5,1,1.2,1.3,1.9c0.3,0.7,0.4,1.5,0.4,2.3
		c0,0.9-0.1,1.7-0.4,2.5c-0.3,0.8-0.7,1.4-1.3,1.9c-0.6,0.5-1.4,1-2.3,1.3s-2,0.5-3.3,0.5H4.2z M4.2,8.9h2.2c1.1,0,1.9-0.3,2.4-0.8
		c0.5-0.5,0.7-1.3,0.7-2.2c0-0.4-0.1-0.8-0.2-1.1C9.2,4.5,9,4.2,8.7,3.9c-0.3-0.2-0.6-0.4-1-0.6C7.4,3.2,6.9,3.2,6.4,3.2H4.2V8.9z"
		/>
	<path d="M20.1,11.4v6.7h-4.2V0h5.9c1.3,0,2.4,0.1,3.4,0.4c0.9,0.3,1.7,0.6,2.3,1.1c0.6,0.5,1,1.1,1.3,1.7c0.3,0.7,0.4,1.4,0.4,2.1
		c0,0.6-0.1,1.1-0.2,1.7c-0.2,0.5-0.4,1-0.7,1.5S27.4,9.3,27,9.7c-0.5,0.3-1,0.6-1.6,0.9c0.3,0.1,0.5,0.3,0.8,0.5
		c0.2,0.2,0.5,0.5,0.6,0.8l3.9,6.3h-3.8c-0.7,0-1.2-0.3-1.5-0.8l-3-5.3c-0.1-0.2-0.3-0.4-0.5-0.5c-0.2-0.1-0.4-0.2-0.7-0.2H20.1z
		 M20.1,8.5h1.7c0.6,0,1.1-0.1,1.5-0.2c0.4-0.1,0.7-0.3,1-0.6c0.3-0.3,0.4-0.6,0.6-0.9c0.1-0.3,0.2-0.7,0.2-1.1
		c0-0.8-0.3-1.4-0.8-1.9c-0.5-0.4-1.3-0.7-2.4-0.7h-1.7V8.5z"/>
	<path d="M40.9,11.3v6.9h-4.2v-6.9L30.1,0h3.7c0.4,0,0.7,0.1,0.9,0.3s0.4,0.4,0.5,0.7l2.6,5.3C38,6.6,38.2,7,38.4,7.4
		c0.2,0.4,0.3,0.7,0.5,1.1c0.1-0.4,0.3-0.7,0.4-1.1c0.2-0.4,0.4-0.7,0.6-1.2l2.5-5.3c0.1-0.1,0.1-0.2,0.2-0.3
		c0.1-0.1,0.2-0.2,0.3-0.3c0.1-0.1,0.2-0.2,0.4-0.2C43.4,0,43.6,0,43.8,0h3.7L40.9,11.3z"/>
	<path d="M65.2,18.2h-3.3c-0.4,0-0.7-0.1-0.9-0.3c-0.2-0.2-0.4-0.4-0.5-0.7l-1.1-3.2h-6.9l-1.1,3.2c-0.1,0.2-0.3,0.4-0.5,0.6
		c-0.2,0.2-0.5,0.3-0.9,0.3h-3.3l7-18.2h4.3L65.2,18.2z M53.5,11.2h5l-1.7-5c-0.1-0.3-0.3-0.7-0.4-1.1S56.2,4.2,56,3.7
		c-0.1,0.5-0.3,1-0.4,1.4S55.3,6,55.2,6.3L53.5,11.2z"/>
	<path d="M69.3,0c0.1,0,0.2,0,0.3,0.1s0.2,0.1,0.3,0.2s0.2,0.2,0.3,0.3l8.6,10.9c0-0.3-0.1-0.7-0.1-1c0-0.3,0-0.6,0-0.9V0h3.7v18.2
		h-2.2c-0.3,0-0.6-0.1-0.8-0.2c-0.2-0.1-0.4-0.3-0.7-0.5L70.3,6.6c0,0.3,0,0.6,0.1,0.9c0,0.3,0,0.6,0,0.9v9.7h-3.7V0h2.2
		C69,0,69.2,0,69.3,0z"/>
	<path d="M90.2,18.2H86V0h4.2V18.2z"/>
	<path d="M98,7.4h0.7c0.6,0,1.1-0.2,1.3-0.6l4.1-5.9c0.2-0.3,0.5-0.5,0.8-0.7c0.3-0.1,0.6-0.2,1-0.2h3.7l-5.4,7.3
		c-0.4,0.5-0.8,0.9-1.2,1.1c0.3,0.1,0.6,0.3,0.9,0.5c0.3,0.2,0.5,0.5,0.7,0.8l5.5,8.4h-3.8c-0.2,0-0.4,0-0.6,0s-0.3-0.1-0.4-0.2
		c-0.1-0.1-0.2-0.1-0.3-0.2c-0.1-0.1-0.2-0.2-0.3-0.3l-4.1-6.3c-0.2-0.2-0.3-0.4-0.6-0.5c-0.2-0.1-0.5-0.1-0.9-0.1h-1v7.7h-4.2V0H98
		V7.4z"/>
</g>
</svg>
