<?xml version="1.0" encoding="utf-8"?>
<!-- Generator: Adobe Illustrator 21.0.2, SVG Export Plug-In . SVG Version: 6.00 Build 0)  -->
<svg version="1.1" id="Layer_1" xmlns="http://www.w3.org/2000/svg" xmlns:xlink="http://www.w3.org/1999/xlink" x="0px" y="0px"
	 viewBox="0 0 160 40" style="enable-background:new 0 0 160 40;" xml:space="preserve">
<style type="text/css">
	.st0{fill:#FFFFFF;}
	.st1{fill:#615E5D;}
</style>
<polygon class="st0" points="133.6,17.9 140.3,5 121.6,19.4 130.6,22.1 123.8,35 142.6,20.6 "/>
<path class="st1" d="M159.7,24.9c-0.6-2.4-2.1-4.5-4.5-6.4c-1.5-1.1-3.2-2-5.3-2.7l0,0l-0.4-0.1l-4.9-1.4l5.6-10.7l-8.1-2.4L140.2,5
	l-13.3-4.1c-2.1-0.7-4.3-1-6.6-0.9c-2.3,0-4.3,0.4-6.2,1c-1.9,0.6-3.8,1.6-5.3,2.7s-2.8,2.6-3.6,4.1c-1.3,2.3-1.5,4.7-0.9,7.2
	c0.6,2.4,2.1,4.5,4.5,6.4c1.5,1.1,3.2,2,5.3,2.7l0,0l0.4,0.1l4.9,1.4l-5.6,10.7l8.1,2.4l2.1-3.8l13.3,4.1c2.1,0.7,4.3,1,6.6,0.9
	c2.3,0,4.3-0.4,6.2-1c1.9-0.6,3.8-1.6,5.3-2.7s2.8-2.6,3.6-4.1C160.1,29.7,160.3,27.3,159.7,24.9 M114.2,16.2
	c-0.8-0.9-1.3-1.7-1.5-2.7c-0.2-1,0-2,0.6-3c0.4-0.7,0.9-1.4,1.7-2c0.8-0.6,1.5-1,2.6-1.3c0.9-0.3,1.9-0.4,3-0.6
	c1.1,0,2.1,0.1,3.2,0.4l1.7,0.6L114.2,16.2z M123.8,35l6.8-12.8l-9-2.7l18.8-14.4l-6.8,12.8l9,2.7L123.8,35z M150.9,29.6
	c-0.4,0.7-0.9,1.4-1.7,2c-0.8,0.6-1.5,1-2.6,1.3c-0.9,0.3-1.9,0.4-3,0.6c-1.1,0-2.1-0.1-3.2-0.4l-1.7-0.6l11.3-8.7
	c0.8,0.9,1.3,1.7,1.5,2.7C151.4,27.6,151.2,28.6,150.9,29.6"/>
<path class="st1" d="M5.6,3.2c3.4,0,5.1,2,5.1,4s-1.7,4-5.1,4H2.3v4H0V3.2H5.6z M5.6,9.4c1.9,0,2.8-1.1,2.8-2.3
	c0-1.1-0.9-2.3-2.8-2.3H2.3v4.5H5.6z"/>
<path class="st1" d="M20.3,4.9C21.8,3.7,23.7,3,25.9,3s4.3,0.7,5.6,1.8c1.5,1.1,2.3,2.6,2.3,4.3s-0.9,3.3-2.3,4.3
	c-1.5,1.1-3.4,1.8-5.6,1.8s-4.3-0.7-5.6-1.8c-1.5-1.1-2.3-2.6-2.3-4.3C17.8,7.4,18.8,6,20.3,4.9 M29.9,6c-1.1-0.9-2.4-1.3-4.1-1.3
	c-1.5,0-3,0.4-3.9,1.3c-1.1,0.9-1.7,1.8-1.7,3.1s0.6,2.3,1.7,3.1c1.1,0.9,2.4,1.3,3.9,1.3c1.5,0,3-0.4,4.1-1.3
	c0.9-0.9,1.7-1.8,1.7-3.1C31.6,8,31,6.9,29.9,6"/>
<path class="st1" d="M50,9.4c-0.9,2-1.9,4-2.6,5.7h-1.7L40.2,3.2h2.4l3.8,8.5L49,6.1h1.9l2.6,5.5c1.3-2.8,2.6-5.8,3.8-8.5h2.4
	l-5.3,11.9H53L50,9.4z"/>
<polygon class="st1" points="69.1,13.4 76.5,13.4 76.5,15.1 66.9,15.1 66.9,3.2 76.5,3.2 76.5,4.9 69.1,4.9 69.1,8.3 76.3,8.3 
	76.3,10 69.1,10 "/>
<path class="st1" d="M87,9.1h2.6c1.9,0,2.8-1,2.8-2.1c0-1-0.9-2-2.8-2h-3.6v10.2h-2.3V3.2h5.8C93,3.2,94.7,5,94.7,7
	c0,1.7-1.3,3.3-4.1,3.7l4.9,4.4h-3l-5.8-5.3V9.1H87z"/>
<path class="st1" d="M5.6,17.1c3.4,0,5.1,2,5.1,4S9,25,5.6,25H2.3v4H0V17.1C0,17.1,5.6,17.1,5.6,17.1z M5.6,23.3
	c1.9,0,2.8-1.1,2.8-2.3c0-1.1-0.9-2.3-2.8-2.3H2.3v4.5H5.6z"/>
<path class="st1" d="M16.7,22.9h2.6c1.9,0,2.8-1,2.8-2.1c0-1-0.9-2-2.8-2h-3.6V29h-2.3V17.1h5.8c3.4,0,5.1,1.8,5.1,3.8
	c0,1.7-1.3,3.3-4.1,3.7l4.9,4.4h-3l-5.8-5.3v-0.9C16.3,22.9,16.7,22.9,16.7,22.9z"/>
<path class="st1" d="M28.9,18.8c1.5-1.1,3.4-1.8,5.6-1.8c2.3,0,4.3,0.7,5.6,1.8c1.5,1.1,2.3,2.6,2.3,4.3s-0.9,3.3-2.3,4.3
	c-1.5,1.1-3.4,1.8-5.6,1.8c-2.3,0-4.3-0.7-5.6-1.8c-1.5-1.1-2.3-2.6-2.3-4.3C26.5,21.3,27.4,19.8,28.9,18.8 M38.7,19.9
	c-1.1-0.9-2.4-1.3-4.1-1.3c-1.5,0-3,0.4-3.9,1.3c-1.1,0.9-1.7,1.8-1.7,3.1s0.6,2.3,1.7,3.1s2.4,1.3,3.9,1.3c1.5,0,3-0.4,4.1-1.3
	c0.9-0.9,1.7-1.8,1.7-3.1C40.4,21.8,39.6,20.8,38.7,19.9"/>
<path class="st1" d="M52.2,23.8c0,3.6-3.8,5.1-8.5,5.1v-1.6c3.6,0,6.2-1.1,6.2-3.6v-5h-4.3v-1.7h6.6V23.8z"/>
<polygon class="st1" points="57.5,27.3 64.8,27.3 64.8,29 55.2,29 55.2,17.1 64.8,17.1 64.8,18.8 57.5,18.8 57.5,22.2 64.6,22.2 
	64.6,23.9 57.5,23.9 "/>
<path class="st1" d="M69.5,18.8c1.3-1.1,3.4-1.7,5.4-1.7c3.6,0,6.4,1.7,7.3,4.4H80c-0.8-1.8-2.8-2.7-5.1-2.7c-1.5,0-2.8,0.4-3.9,1.3
	c-0.9,0.9-1.7,1.8-1.7,3.1c0,1.1,0.6,2.3,1.7,3c0.9,0.9,2.4,1.3,3.9,1.3c2.4,0,4.3-1,5.3-2.8h2.3c-0.9,2.7-3.8,4.5-7.5,4.5
	c-2.1,0-4.1-0.7-5.4-1.7c-1.3-1.1-2.3-2.6-2.3-4.3C67.3,21.3,68.2,19.9,69.5,18.8"/>
<polygon class="st1" points="88.7,29 88.7,18.7 84,18.7 84,17.1 95.8,17.1 95.8,18.7 90.9,18.7 90.9,29 "/>
</svg>
