<?xml version="1.0" encoding="utf-8"?>
<!-- Generator: Adobe Illustrator 21.0.2, SVG Export Plug-In . SVG Version: 6.00 Build 0)  -->
<svg version="1.1" id="Layer_1" xmlns="http://www.w3.org/2000/svg" xmlns:xlink="http://www.w3.org/1999/xlink" x="0px" y="0px"
	 viewBox="0 0 160 48" style="enable-background:new 0 0 160 48;" xml:space="preserve">
<style type="text/css">
	.st0{fill:#615E5D;}
</style>
<polyline class="st0" points="21.6,16.4 25.6,16.4 25.6,22.2 30.3,22.2 30.3,16.4 34.3,16.4 34.3,31.8 30.3,31.8 30.3,25.8 
	25.6,25.8 25.6,31.8 21.6,31.8 21.6,16.4 "/>
<path class="st0" d="M41.6,16.2h3.8l5.8,15.6h-4.1l-0.2-0.4l-0.2-0.6l-0.2-0.4l-0.2-0.4l-0.2-0.6l-0.2-0.4h-5.3l-0.2,0.4l-0.4,1
	l-0.2,0.4l-0.4,1h-4L41.6,16.2 M45,25.6l-0.4-1L44.4,24l-0.6-1.6l-0.2-0.6l-0.2-0.6l-0.4,1l-0.2,0.6L42.2,25L42,25.6H45z"/>
<polyline class="st0" points="52.7,16.4 56.3,16.4 56.8,17.4 57.6,18.5 59.7,21.7 60.4,22.8 61.9,24.8 61.9,16.4 65.7,16.4 
	65.7,31.8 62.3,31.8 60.8,29.7 60,28.7 59.3,27.7 58.5,26.7 58,25.6 56.5,23.6 56.5,31.8 52.7,31.8 52.7,16.4 "/>
<path class="st0" d="M75.3,32c-0.6,0-1.1,0-1.5-0.2c-0.6,0-0.9-0.2-1.5-0.4c-0.4-0.2-0.9-0.4-1.3-0.6s-0.8-0.6-1.1-1
	c-0.4-0.4-0.6-0.8-0.9-1.2c-0.2-0.4-0.6-0.8-0.8-1.4c-0.2-0.4-0.4-1-0.4-1.6c-0.2-0.6-0.2-1-0.2-1.6l0,0c0-0.6,0-1,0.2-1.6
	c0-0.6,0.2-1,0.4-1.4c0.2-0.4,0.4-1,0.6-1.4c0.2-0.4,0.6-0.8,0.9-1.2c0.4-0.4,0.8-0.6,1.1-1c0.4-0.2,0.8-0.6,1.3-0.8
	c0.4-0.2,0.9-0.4,1.5-0.4c0.6-0.2,0.9-0.2,1.5-0.2c0.6,0,1.1,0,1.7,0.2c0.6,0,0.9,0.2,1.5,0.4c0.4,0.2,0.9,0.4,1.3,0.6
	c0.4,0.2,0.8,0.6,1.1,1l-1.1,1.4l-1.1,1.4c-0.2-0.2-0.6-0.4-0.8-0.6c-0.2-0.2-0.6-0.4-0.8-0.4c-0.2-0.2-0.6-0.2-0.9-0.2
	s-0.6,0-0.9,0c-0.2,0-0.6,0-0.8,0c-0.2,0-0.4,0.2-0.8,0.2c-0.2,0.2-0.4,0.2-0.6,0.4c-0.2,0.2-0.4,0.4-0.6,0.4
	c-0.2,0.2-0.4,0.4-0.4,0.6c-0.2,0.2-0.2,0.4-0.4,0.6c0,0.2-0.2,0.6-0.2,0.8c0,0.2,0,0.6,0,0.8l0,0c0,0.2,0,0.6,0,0.8
	c0,0.2,0.2,0.6,0.2,0.8c0.2,0.2,0.2,0.6,0.4,0.8c0.2,0.2,0.2,0.4,0.4,0.6c0.2,0.2,0.4,0.4,0.6,0.4c0.2,0.2,0.4,0.2,0.6,0.4
	c0.2,0.2,0.4,0.2,0.8,0.2c0.2,0,0.6,0,0.8,0c0.4,0,0.9,0,1.3-0.2c0.4-0.2,0.8-0.2,0.9-0.4V25h-2.6v-3.1h6.2v7
	c-0.4,0.4-0.8,0.6-1.1,0.8c-0.4,0.2-0.9,0.6-1.3,0.8c-0.6,0.2-1.1,0.4-1.7,0.4C76.6,32,75.9,32,75.3,32"/>
<path class="st0" d="M91.5,32c-0.6,0-1.1,0-1.5-0.2c-0.6-0.2-0.9-0.2-1.3-0.4c-0.4-0.2-0.9-0.4-1.3-0.8c-0.4-0.2-0.8-0.6-1.1-1
	c-0.4-0.4-0.6-0.8-0.9-1.2c-0.2-0.4-0.6-0.8-0.8-1.4c-0.2-0.4-0.4-1-0.4-1.4c0-0.6-0.2-1-0.2-1.6l0,0c0-0.6-0.8-1-0.6-1.6
	c0-0.6,0.2-1,0.4-1.4c0.2-0.4,0.4-1,0.8-1.4c0.2-0.4,0.6-0.8,0.9-1.2c0.4-0.4,0.8-0.6,1.1-1c0.4-0.2,0.8-0.6,1.3-0.8
	c0.4-0.2,0.9-0.4,1.5-0.4c0.6-0.2,0.9-0.2,1.5-0.2c0.6,0,0.9,0,1.5,0.2c0.6,0,0.9,0.2,1.5,0.4c0.4,0.2,0.9,0.4,1.3,0.8
	c0.4,0.2,0.8,0.6,1.1,1c0.4,0.4,0.6,0.8,0.9,1.2c0.2,0.4,0.6,0.8,0.8,1.4c0.2,0.4,0.4,1,0.4,1.4c0,0.6,0.9,1,0.9,1.6l0,0
	c0,0.6,0,1-0.2,1.6s-0.2,1-0.4,1.4c-0.2,0.4-0.4,1-0.8,1.4c-0.2,0.4-0.6,0.8-0.9,1.2c-0.4,0.4-0.8,0.6-1.1,1
	c-0.4,0.2-0.8,0.6-1.3,0.8c-0.4,0.2-0.9,0.4-1.5,0.4C92.4,31.8,91.9,32,91.5,32 M91.5,28.1c0.2,0,0.6,0,0.8,0c0.2,0,0.4-0.2,0.8-0.2
	c0.2-0.2,0.4-0.2,0.6-0.4c0.2-0.2,0.4-0.4,0.6-0.4l0.2-0.2c0,0,0.2-0.2,0.2-0.4c0-0.2,0.2-0.2,0.2-0.4c0-0.2,0.2-0.2,0.2-0.4
	c0-0.2,0.2-0.4,0.2-0.8c0-0.2,0-0.6,0-0.8l0,0c0-0.2-0.8-0.6-0.9-0.8c0-0.2-0.2-0.6-0.2-0.8c0-0.2,0-0.2-0.2-0.4
	c0-0.2-0.2-0.2-0.2-0.4c0-0.2-0.2-0.2-0.2-0.4c0-0.2-0.2-0.2-0.2-0.2c-0.2-0.2-0.4-0.4-0.6-0.4c-0.2-0.2-0.4-0.2-0.6-0.4
	c-0.2-0.2-0.4-0.2-0.8-0.2c-0.2,0-0.6,0-0.8,0c-0.2,0-0.6,0-0.8,0c-0.2,0-0.4,0.2-0.8,0.2c-0.2,0.2-0.4,0.2-0.6,0.4
	c-0.2,0.2-0.4,0.4-0.6,0.4c-0.2,0.2-0.4,0.4-0.4,0.6c-0.2,0.2-0.2,0.4-0.4,0.6c0,0.2-0.2,0.4-0.2,0.8c0,0.2,0.8,0.6,0.8,0.8l0,0
	c0,0.2,0,0.6,0,0.8c0,0.2,0.2,0.6,0.2,0.8c0,0.2,0.2,0.4,0.4,0.6c0.2,0.2,0.2,0.4,0.4,0.6c0.2,0.2,0.4,0.4,0.6,0.4
	c0.2,0.2,0.4,0.2,0.6,0.4c0.2,0.2,0.4,0.2,0.8,0.2C90.9,28.1,91.1,28.1,91.5,28.1z"/>
<polyline class="st0" points="98.6,16.2 102.8,16.2 103.2,17.4 103.5,18.5 103.9,19.5 104.5,20.5 104.8,21.7 105.2,22.8 105.6,23.8 
	106,24.8 109,16.2 113.3,16.2 107.7,31.8 104.1,31.8 100,20.1 99.2,18.3 98.6,16.2 "/>
<polyline class="st0" points="114.8,16.4 125.7,16.4 125.7,19.9 118.6,19.9 118.6,22.4 125.2,22.4 125.2,25.6 118.6,25.6 
	118.6,28.1 125.9,28.1 125.9,31.8 114.8,31.8 114.8,16.4 "/>
<path class="st0" d="M140.8,31.8h-4.1l-0.4-0.6l-0.4-0.6l-0.4-0.6l-0.4-0.6l-0.8-1l-0.4-0.6l-0.4-0.6h-2.3v4.5h-3.2V16.2h7h0.2h0.2
	h0.2h0.2h0.2h0.2h0.2h0.2c0,0,0.2,0,0.2,0.2c0,0,0.2,0,0.2,0.2c0,0,0.2,0,0.2,0.2c0,0,0.2,0,0.2,0.2c0,0,0.2,0,0.2,0.2
	c0,0,0.2,0,0.2,0.2l0.2,0.2l0.2,0.2l0.2,0.2c0,0,0,0.2,0.2,0.2s0,0.2,0.2,0.2c0,0,0,0.2,0.2,0.2c0,0,0,0.2,0.2,0.2
	c0,0,0,0.2,0.2,0.2c0,0,0,0.2,0.2,0.2v0.2v0.2v0.2v0.2v0.2v0.2v0.2v0.2v0.2c0,0.2,0,0.2,0,0.4c0,0.2,0,0.2,0,0.4c0,0.2,0,0.2,0,0.4
	c0,0.2,0,0.2,0,0.4c0,0.2,0,0.2-0.2,0.4c0,0.2,0,0.2-0.2,0.4c0,0.2,0,0.2-0.2,0.4c0,0.2-0.2,0.2-0.2,0.4c0,0.2-0.2,0.2-0.2,0.2
	l-0.2,0.2l-0.2,0.2l-0.2,0.2l-0.2,0.2l-0.2,0.2l-0.2,0.2l-0.2,0.2l0.9,1.4l0.4,0.6l0.9,1.4l0.9,1.4L140.8,31.8 M134.6,23.8
	L134.6,23.8c0.2,0,0.2,0,0.4,0h0.2h0.2c0,0,0,0,0.2,0c0,0,0,0,0.2,0c0,0,0,0,0.2-0.2c0,0,0,0,0.2-0.2c0,0,0,0,0.2-0.2c0,0,0,0,0-0.2
	c0,0,0,0,0-0.2v-0.2v-0.2v-0.2v-0.2v-0.2v-0.2v-0.2v-0.2v-0.2v-0.2v-0.2c0,0,0,0,0-0.2c0,0,0,0-0.2-0.2c0,0,0,0-0.2-0.2
	c0,0,0,0-0.2-0.2c0,0,0,0-0.2,0c0,0,0,0-0.2,0h-0.2H135h-0.2h-0.2h-2.8v3.7h2.8V23.8z"/>
<path class="st0" d="M160,48H1.3V22.6L0,20.3V0h158.7v18.9l1.3,2.3V48 M5.8,42.9h149.5V22.6l-1.3-2.3V5.1H4.5v13.7l1.3,2.3L5.8,42.9
	L5.8,42.9z"/>
</svg>
