<?xml version="1.0" encoding="utf-8"?>
<!-- Generator: Adobe Illustrator 21.0.2, SVG Export Plug-In . SVG Version: 6.00 Build 0)  -->
<svg version="1.1" id="Layer_1" xmlns="http://www.w3.org/2000/svg" xmlns:xlink="http://www.w3.org/1999/xlink" x="0px" y="0px"
	 viewBox="0 0 128 126" style="enable-background:new 0 0 128 126;" xml:space="preserve">
<style type="text/css">
	.st0{fill:#615E5D;}
</style>
<path class="st0" d="M74.8,46.5c2,0,2.9-1.5,2.9-3.6c0-2.4-1.1-4.3-3.2-4.3c-1.7,0-3,1.5-3,3.9C71.5,44.8,73,46.5,74.8,46.5"/>
<path class="st0" d="M92,86.7h2.6c2.7,0,3.6-0.1,3.9-0.3c0.2,0,0.2-0.1,0.2-0.7c0-1-0.8-2.2-2.9-2.2c-2.1,0-4.1,1.9-4.1,3.1
	C91.7,86.5,91.7,86.7,92,86.7"/>
<path class="st0" d="M75.4,59.5c3.2,0,5.1-1.8,5.1-3.7c0-2.1-1.5-3-4.1-3h-1.2c-1.1,0-2.6,0-3,0.4c-0.9,0.4-1.7,1.6-1.7,3
	C70.8,57.9,72.3,59.5,75.4,59.5"/>
<path class="st0" d="M121.8,60l-0.3-0.4v-1l-0.5-0.6l-0.2-0.6l0.2-1.5l-0.5-2.1l0.3-1.2l-0.8-1.6l-0.2-2.4l-1.1-0.6l0.3-0.4v-0.6
	l-0.6-1v-0.6l-0.6-1l-0.9-3.1l-0.9-0.9l0.2-0.7l-1.1-1.6l0.2-0.7l-0.8-0.4L114,35l-1.8-3.3l-0.9-0.4l0.2-0.6l-1.7-2.4l-0.9-0.7
	l-0.6-0.9l-1.4-1.3l-0.6-0.9l-0.2-0.6h-0.6l-0.6-1.2l-1.4-0.6l-1.1-1.3l-0.6-0.1l-0.2-0.6l-0.8-0.7h-0.6l-0.3-0.6l-2-1.6l-3.3-2.2
	l-0.6-0.1L93.7,14l-4.2-2.4L87,10.7l-1.2-0.9l-2.1-0.3l-1.1-0.6l-1.4-0.3l-0.6,0.1l-0.5-0.4l-2.1-0.6l-0.6-0.3h-1.4l-0.9-0.3
	l-0.9,0.1L73.8,7l-2.1-0.1l-0.9-0.4l-0.6,0.1l-2.3-0.1l-0.6,0.1l-0.9-0.6l-1.7,0.4l-0.6-0.4l-0.6,0.1l-1.4-0.1l-0.5,0.3l-4.7,0.1
	L55,7l-0.6-0.3l-1.7,0.7h-1.8L49.8,8h-1.5l-0.9,0.7l-0.6-0.1l-0.5,0.3h-0.5l-1.1,0.7h-0.6l-1.7,0.9l-0.8-0.1l-0.6,0.4l-1.1,0.6h-0.6
	l-1.7,1.2l-0.8,0.1l-1.4,1h-0.9L34,14.7L32.5,15l-0.2,0.6L31.9,16l-1.4,0.4L29.2,18h-0.5l-2.4,1.6l-1.1,1.3l-1.4,0.6l-0.3,0.6
	L22,23.9l-0.2,0.7l-1.4,1l-0.9,1.6L18.7,28l-0.3,0.6l-0.8,0.9l0.2,0.6L17.2,30l-2.1,3l-0.2,0.6L14,34.3l-0.5,0.6v0.6l-0.5,0.6v0.6
	l-1.4,2.1l-0.3,1.2l0.2,0.9l-0.9-0.1l-2.4,6.8l0.2,0.7L8,48.7l0.2,0.7l-0.5,0.4l-0.6,3.6l0.2,1.2l-0.3,0.6l-0.6,7l0.2,1L5.9,64
	l0.6,1L6,66.5l0.3,0.6l0.2,2.1l0.3,1.3l-0.3,0.6L7.2,72l-0.2,1.2l0.8,1.8l-0.2,0.6l0.5,1.3v1.2L9,80l-0.2,0.6l0.6,0.6l-0.2,0.7
	l0.5,0.1l0.3,0.4l-0.2,0.6l0.6,0.9l0.6,1.8l1.1,2.4l0.6,0.6v0.7l0.6,0.6l0.2,0.7l1.2,1.9l0.2,0.6l1.7,1.6l1.5,2.4l0.6,0.6l0.3,1
	l0.6,0.3l2.1,2.4l0.6,0.3l0.9,1.5l0.8,0.1l2.1,2.4l2.3,1.3l1.5,1.3l0.3,0.6h0.8v0.6h0.9l2,1.3l2.1,1.2l1.4,0.3l0.2,0.6l0.6,0.6
	l0.6,0.1l0.8-0.1l0.9,0.7l0.6,0.1l0.3,0.6l0.9,0.4h0.6l0.9,0.6l3.9,1.2L48,118l0.6-0.1l1.7,0.4l0.6-0.1l1.2,0.6l1.4,0.3h0.9l1.1,0.6
	l1.7-0.1l0.6,0.1l0.6-0.1l2,0.6l0.3-0.6l0.6,0.3l3.3,0.1l0.6-0.3l2.1,0.1l0.6-0.3l0.8,0.6l1.8-0.9l0.6,0.3l3.3-0.6l1.2,0.1l0.5-0.4
	l3.2-0.6l0.6-0.3l0.6,0.1l0.6-0.4l1.2-0.1l4.4-1.8l0.6-0.1l0.9-0.6h0.6l1.4-0.9l1.4-0.3l1.4-1.2l0.6-0.1l0.5-0.6L95,111l1.2-0.3
	l1.2-1.5l2-0.9l3-3.1h0.6l0.6-1.2l0.6-0.1l2.1-1.5v-1l1.8-1.9l1.5-2.1l0.8-0.4l0.6-1.3l1.1-1.6l0.6-0.1l0.8-1.9l1.4-1.9v-0.4
	l0.8-0.9l0.6-0.1l0.2-1.3l0.9-1.6l-0.2-0.6l0.8-1v-0.6l0.9-1.6l0.2-0.6l0.6-1.3l0.2-1.6l0.8-1.8l-0.2-0.6l0.5-1l0.2-1.3l0.5-1
	l-0.2-0.9l0.3-0.6l0.2-1.3l-0.2-2.5l0.5-2.5l-0.5-0.6l0.2-0.6l-0.2-0.6l0.2-1.5L121.8,60z M103.9,54.8l0.2-0.3l-0.2-1v-0.3l0.2-0.3
	l0.3,0.4l0.6,1.8v0.7l0.2,0.6V57l0.3-0.4l0.2-0.4l0.2-0.3l0.5-0.9l0.2-0.1v-0.3l0.5-1l0.3-1.2l0.2-1.2v-0.6v-0.9v-0.3v-0.4l-0.3-0.7
	v-0.1h0.2l0.3,0.4l0.3,0.6v0.3v0.1l0.2,0.3l0.6,1.6l0.2,0.7l0.2,0.4l0.2,1.8l0.2,0.6l-0.2,0.6l-0.2,1.2l-0.2,0.6v0.1l-0.2,0.6
	l-0.3,0.6v0.3l-0.2,0.1v0.3l-0.2,0.3l-0.2,0.4l-0.2,0.1v0.3v0.1l0,0l0,0c-0.2-0.3-0.2-0.4-0.3-0.6l0,0l0,0c0,0,0-0.1-0.2-0.1
	c-0.2-0.3-0.5-0.4-0.6-0.6l0,0c0,0-0.2-0.1-0.3-0.1c-0.2,0-0.2-0.1-0.3-0.1h-0.2l0,0c-0.2,0-0.2-0.1-0.3-0.1
	c-0.2-0.1-0.3-0.1-0.3-0.1s0,0-0.2,0c-0.2-0.1-0.3-0.1-0.5-0.1l0,0c0,0,0,0-0.2,0c-0.6-0.1-1.2-0.1-1.7-0.1l0,0l0,0v-0.1l0.2-0.4
	l0.2-0.3l0.5-1.2L103.9,54.8z M102.6,48.2l0.3,1l0.2,0.3v0.3l0.3,1.3v0.3l-0.2,0.7L103,53l-0.2,0.6l-0.2,0.4l-0.2,0.7l-0.3,0.6
	l-0.3,0.4v0.4l-0.3,0.6l-0.2,0.1v0.1l-0.2,0.3l-0.3,0.4v0.3l-0.2,0.3l-0.6,1.5l-0.2,2.4H100l-0.3-0.6L99.5,61l-0.3-0.9v-0.7
	l-0.2-0.4l0.2-0.7v-0.9l0.3-1V56l0.2-0.3l0.3-1l0.2-0.3l0.2-0.1V54l-0.2-0.1l0.2-0.1l0.2-0.3l0.5-0.3v-0.3l0.2-0.6l0.6-1.3l0.3-0.7
	l0.2-1l0.2-0.3l-0.2-0.1v-0.4l-0.2-0.3v-0.3v-0.1h0.2L102.6,48.2z M101.3,62.3c-0.2,0-0.2,0-0.3,0h-0.2V62l0.2-0.3l0.5-1.2l0.3-0.3
	v-0.1h0.2l0.2-0.1l0.2-0.6v-0.1c0.2,0.1,0.3,0.3,0.8,0.4c0.2,0.1,0.5,0.1,0.6,0.1h0.2c0,0,0.2,0.1,0.3,0.3l0,0
	c0.3,0.1,0.8,0.6,0.8,1.2c0,0.1,0,0.3,0,0.6c0,0,0,0-0.2,0.1l-0.2,0.1c-0.2,0.1-0.2,0.1-0.3,0.1c-0.3,0.1-0.6,0.1-0.9,0.1h-0.6
	c-0.2,0-0.3,0-0.3,0c-0.2,0-0.2,0-0.3,0l0,0L101.3,62.3L101.3,62.3z M100.6,37.1l-0.3-0.6v-0.6v-0.1l0.3,0.1l0.2,0.3l0.3,0.6
	l0.5,0.9l0.3,0.7l0.2,0.3l0.2,0.6l0.3,1.2v0.3v0.3l0.2,0.3v0.3v1.2v0.3l-0.3,1.9l-0.2,0.6l-0.2,0.1l-0.2,0.6l-0.2,0.3l-0.2,0.4
	l-0.2,0.1l-0.2,0.6l-0.3,0.6v0.3l-0.2,0.4l-0.2,0.3l-0.2,0.1l-0.3,0.4l-0.2,0.1v0.1v0.1l-0.2,0.1h-0.2v0.3l-0.2,0.1h-0.2v0.3
	l-0.3,0.4l-0.3,0.6l-0.2,0.6l-0.3,0.1v0.1l-0.2,0.3v0.1L98,54l-0.3,0.1l0.2,0.1l0.2,0.3l-0.2,0.3h-0.2v0.3l-0.3,0.1V56l-0.2,0.3v0.1
	l-0.2,0.1L97,57.1l-0.2,1.3l0.2,1.9l-0.3-0.1L96.5,60l-0.2-0.3l-0.3-0.6l-0.2-0.6l-0.2-0.3v-0.3L95.5,57v-0.3l0.2-0.3l-0.3-0.3V56
	v-0.4l0.2-0.1l-0.3-0.1v-0.1v-0.3l0.2-0.1L95.2,54v-0.1l0.2-0.4l-0.2-0.9l0.3-1.3l0.3-1v-0.3l0.3-0.1l-0.2-0.3l0.3-0.9l0.3-0.4v-0.3
	l0.6-1.2l0.3-0.7l0.3-0.1v-0.3l0.2-0.3l0.3-0.4l0.9-1.9l0.8-2.1l0.2-1.2v-1.2V38L100.6,37.1z M95,45.7L95,45.7L95,45.7L95,45.7
	L95,45.7v-0.3l0,0l0,0l0,0l0,0h-0.2l-0.2,0.1v0.1v0.1l-0.2,0.4l0,0v0.1v0.3V47v0.1l0,0l0,0l-0.3-0.7l0,0v-0.1v-0.1l0,0V46v-0.3v-0.4
	v-0.1l0,0V45v-0.1l0,0l0,0v-0.3v-0.1l0.2-0.4l0.2-0.1l0,0l0,0h0.2v-0.3v-0.1v-0.1V43v-0.1v-0.1v-0.1l0,0v-0.3V42l0,0l-0.2-0.1l0,0
	l0,0l0.2,0.1l0.2,0.3v0.1v0.1L95,43v0.1h0.2V43l0.2-0.3l0.2-0.1v-0.1l0.2-0.3V42v-0.1l0.2-0.3l0.2-0.1v-0.1l0.2-0.4l0.2-0.4v-0.4
	v-0.3v-0.4V39v-0.1l-0.2-0.3l0,0l0,0l0.2,0.1l0.2,0.3v0.1l0,0l0.2,0.1l0.3,0.7v0.3l0.2,0.1v0.7v0.3v0.1v0.1l0.2,0.4v0.1v0.1l0.2,0.4
	v0.1v0.3v0.3v0.3v0.1v0.3l-0.2,0.3L97,45v0.1l-0.2,0.1l0,0v0.1v0.1l-0.2,0.1v0.1L96.5,46l-0.2,0.6v0.9l0,0l-0.2-0.3l-0.2-0.3
	l-0.2-0.3v-0.3v-0.1v-0.3v-0.1v0.1l-0.2,0.3l-0.2,0.3v0.1v0.1l-0.2,0.1l0,0V47l-0.2,0.1v0.1v0.1l-0.2,0.4v0.3v0.4l0,0v0.1v0.3v0.1
	l0,0L95,49.1l-0.2-0.3l0,0l-0.2-0.1v-0.1l0,0v-0.1l0,0v-0.1v-0.3l-0.2-0.3v-0.3L94.4,47v-0.4L95,45.7z M94,30.4V30l0.3-1l0.2-0.1
	v-0.1v-0.1l0.2-0.3l0.2-0.3h0.2V28l-0.2,0.4v0.3v0.1v0.6l0.2,0.4l0.2,0.7l0.3,0.7l0.3,0.1v0.1l0.2,0.1l0.3,0.4l0.2,0.1l0.2,0.3
	l0.3,0.4v0.1l0.2,0.1l0.2,0.3l0.2,0.1l0.2-0.1v-0.3v-0.7v-0.1v-0.1l0.2-0.4l0.2-0.1l0,0v0.1v0.3l0,0l0.2,0.4l0.2,0.3l0,0v0.1
	l0.2,0.1l0.2,0.1v0.3l0.2,0.1l0.2,0.1l0.2,0.4l0.2,0.1h0.2v0.1l0.2,0.1l0.3,0.6l0.2,0.1v0.3h0.2l0,0v0.1v0.1h0.2l0.2,0.1l0.2,0.6
	v0.3v0.1l0,0v0.3V38v0.1l-0.2,1l0,0h-0.2L99.7,39v-0.4L99.5,38v-0.1l0,0l-0.3-0.6l-0.2-0.1V37l-0.2-0.1h-0.2h-0.2V37h0.2l0,0v0.3
	l-0.2,0.1v0.1h0.2l0,0v0.3l0.2,0.7v0.6v0.4v0.3v0.4v0.1v0.1v0.1l0,0V41l-0.2,0.1v0.1l-0.2,0.6L98.5,42h-0.2v-0.3v-0.3l-0.2-0.3V41
	L98,40.4l-0.2-0.4l-0.3-0.7V39v-0.1l-0.2-0.1v-0.1v-0.1l-0.2-0.1l-0.2-0.1V38l-0.3-0.3l-0.2-0.3l-0.2-0.3L96.4,37l-0.2-0.3l-0.2-0.1
	l-0.2-0.3l-0.2-0.1l-0.3-0.3l-0.2-0.1v-0.1L95,35.2V35l-0.2-0.1l-0.2-0.3l-0.2-0.1v-0.1l-0.2-0.1V34l-0.2-0.4l-0.2-0.3v-0.1L94,32.8
	l-0.2-0.7l-0.2-0.3v-0.4v-1L94,30.4z M92.3,58.9l0.2-0.3l0.3-0.3l0.2-0.3l0.3-0.4l0.5-0.3l0.3-0.4l0.9-0.7H95l0.2,0.1v1l0.2,0.4
	l-0.2,0.1l0.3,0.3v0.3l0.2,0.6l0.3,0.6v0.1l1.4,2.1l0.2,0.3l0.3,0.3l0.2,0.3l0.3,0.4l0.2,0.3l0.6,1l0.3,0.9l0.2,0.1v0.3l0.2,0.4v0.3
	l0.2,0.1l0.2,0.6V68l-0.2,0.3l0.2,0.3v0.3l-0.2,0.7v0.6h-0.6L98.8,70l-0.2,0.1l-0.3,0.4h0.3l0.2-0.1l-0.2-0.3l0.2,0.1v0.1v0.1h0.2
	l0.2-0.1h0.2l0.2,0.1v0.1l-0.2,0.6v0.3l-0.2,0.1V72l-0.2,0.3l-0.2,0.1h-0.2L98.5,73l-0.3,0.6l-0.5,0.6l-0.3-0.1v0.1l0.2,0.1v0.1
	L97,75.2l-0.3,0.1l-0.2,0.3L96.4,76l-1.2,0.9H95h-0.2l-0.5,0.3l-0.3,0.1H94l-0.5,0.3h-0.3l-0.2-0.1v-0.1v-0.1l0.3-0.1l1.4-1.9h0.2
	H95v-0.1v-0.3l0.5-1h0.3h0.2v-0.1l-0.3-0.1v-0.1l0.2-0.1l0.2-0.1l0.2-0.6l0.2-0.7l-0.2-0.4l0.3-0.3v-0.1l-0.2-0.1l-0.3,0.1V70
	l-0.2-0.4l-0.2-0.1l-0.3,0.4l-0.8,1.6l-0.5,0.6v0.3l-0.6,1l-0.2,0.3l-0.3,0.1l-0.2,0.3l-0.3,0.4L92,75.2l-0.2,0.3l-0.5,0.3l-0.6,0.6
	l-1.7,0.9H89l-0.3,0.1h-0.3l-0.2-0.1v-0.1l0.3-0.3l0.2-0.3l0.8-0.9l0.2-0.4l0.3-0.1v-0.1l0.3-0.3v-0.1l0.5-0.7v-0.1l0.2-0.1l0.2-0.3
	V73l0.2-0.1v-0.3l0.3-0.7v-0.3l0.2-0.6l0.2-0.4v-0.3V70l0.2-0.3l-0.2-0.3l0.2-0.3l-0.2-0.3v-1.9l-0.2-0.3v-0.3l-0.3-2.1V64l-0.2-0.6
	V62l0.2-1.2l0.2-0.7l0.3-0.6L92.3,58.9z M87.5,71.8v-0.4v-0.1l-0.2,0.1l-0.2,0.4l-0.3,0.4v0.3l-0.2,0.1L86.6,73v0.1v0.1l-0.2,0.1
	v0.1v0.1l-0.2,0.9v0.4v0.7V76v0.3l0.2,0.4V77h-0.2l-0.2-0.1l-0.3-0.6v-0.1l-0.2-0.3v-0.3l0,0v-0.1l-0.2-0.1v-0.1l-0.2-0.4l-0.2-0.4
	v-0.4l-0.2-0.6v-0.9V72l0,0h0.2v-0.1l-0.2-0.1v-0.3v-0.1h0.2l-0.2-0.1h-0.2h-0.2l-0.2,0.1v0.1l-0.2,0.1l-0.3,0.7H84v0.1L83.9,73v0.4
	l-0.2,0.1h-0.2l0,0l-0.5-1.2v-0.1v-0.1v-0.3l0,0v-0.1v-0.4l0.2-0.7l0.2-0.1h0.2l-0.2-0.1V70l0,0h0.2v-0.4l0.2-0.1l0.3-0.7l0.2-0.3
	v-0.1h0.2l0.2-0.1v-0.4l0.2-0.1l0.2-0.1v-0.3l0.2-0.1v-0.3v-0.1v-0.1v-0.4v-0.4v-0.1L84.8,65c0.2,0,0.2,0,0.3,0l0.3,0.4v0.3l0.2,0.1
	l0.2,0.9v0.3H86l0.2-0.1l0.2-0.4l0.2-0.3V66l0.3-0.6l0.2-0.3L87,65l0.2-0.3c0,0,0,0,0.2,0c0.2,0.1,0.2,0.1,0.3,0.1l0,0h0.6l0,0
	c0,0,0.2,0,0.2-0.1c0.2,0,0.2,0,0.3,0l0,0c0.3,0.1,0.6,0.1,0.9,0.3l0.2,0.4l0.2,0.1v0.3l0.2,0.9v0.3l-0.2,0.4V68l-0.2,0.4l-0.2,0.3
	l-0.2,0.4l-0.2,0.4l-0.2,0.3v0.3L89,70.3h-0.2v0.1l-0.2,0.1l-0.2,0.3v0.1l-0.2,0.1l-0.5,1l-0.2,1.6h-0.2l-0.2-0.4L87.3,73L87,72.4
	V72L87.5,71.8z M82.8,68.1L82.8,68.1l-0.3,0.4v0.1l-0.2,0.1l-0.5,1l-0.2,1.5h-0.2l-0.2-0.4l-0.2-0.4L81,69.9v-0.4v-0.3v-0.4v-0.6
	l0.2-0.6v-0.1l0.2-0.1l0.2-0.7l0.2-0.1h0.2v-0.1l0.2-0.1l0.2-0.1v-0.3l0.3-0.1v-0.1l0.2-0.4L83,64l0.2-0.4l0.2-0.7l0.2-0.1l-0.2-0.1
	v-0.3L83.1,62v-0.1v-0.1h0.2l0.3,0.6l0.2,0.7l0.2,0.1v0.3l0.2,0.9v0.3l-0.2,0.4v0.4L83.7,66l-0.2,0.3l-0.2,0.4l-0.2,0.4l-0.2,0.3
	v0.3L82.8,68.1L82.8,68.1L82.8,68.1z M75.4,64.4c-0.6,0-1.1,0-1.7,0c-0.5-0.6-0.9-1-1.5-1.6c1.1,0,2.1,0,3.3,0c0.9,0,1.8,0,2.7,0
	c1.1,0,2.1,0.1,3,0c0.3,0,0.8,0,1.1,0c0.2,0,0.3,0,0.5,0l-0.2,0.7L82.5,64l-0.2,0.4c-0.5,0-1.1,0-1.5,0
	C79.2,64.4,77.4,64.4,75.4,64.4 M79.1,64.9c-0.6,0.9-1.2,1.8-2,2.7c0.5-0.7,1.1-1.6,1.7-2.7H79.1z M72.6,62.6L72.6,62.6L72.6,62.6
	L72.6,62.6L72.6,62.6z M72.9,62.6C72.7,62.8,72.7,62.6,72.9,62.6 M73,62.6c0.5,0,1.1,0,1.5,0c-0.2,0-0.3,0-0.5,0
	C73.6,62.8,73.3,62.8,73,62.6 M75.3,62.6C75.3,62.8,75.3,62.8,75.3,62.6C75.1,62.8,75.3,62.6,75.3,62.6 M75.7,62.6
	C75.9,62.6,75.6,62.6,75.7,62.6C75.4,62.6,75.7,62.8,75.7,62.6 M77.6,62.6C77.6,62.8,77.4,62.8,77.6,62.6
	C77.4,62.8,77.4,62.6,77.6,62.6 M78.2,62.8C78.3,62.8,78.2,62.8,78.2,62.8L78.2,62.8 M78.3,62.8c0,0,0.3,0,0.5,0
	C78.9,62.8,78.5,62.8,78.3,62.8 M78.9,62.8c0,0,0.3,0,0.5,0C79.4,62.8,79.1,62.8,78.9,62.8 M87.5,62.8c0.2,0,0.2,0.1,0.3,0.1
	c0-0.1,0-0.1,0.2-0.3c0.2,0,0.5,0,0.6,0s0.2,0.1,0.3,0.3c0.2,0,0.2,0,0.3,0c0,0.1-0.3,0.1-0.5,0.3c0.3-0.1,0.8-0.4,1.4-0.6
	c0.3,0,0.6,0,0.9,0v0.7l0.2,0.6v0.3v0.4c-0.8,0.1-1.4,0-2-0.3c-0.2,0.1-0.5,0-0.6-0.1c-0.2,0,0,0.1-0.2,0.1h-0.5
	c-0.2,0-0.2-0.1-0.2-0.3c-0.3,0.1-0.8,0.1-1.2,0.3c-0.8,0.1-1.5,0-2.4-0.1l0,0L84,63.4v-0.3l-0.2-0.1v-0.3c0.2,0,0.3,0,0.5,0
	c0.2,0,0.3,0,0.5,0c0.3,0,0.5-0.1,0.8-0.1c0.6,0,1.1,0.1,1.5,0.1c0,0-0.2,0-0.2,0.1C87,62.8,87.3,62.8,87.5,62.8 M88.5,60.6
	L88.5,60.6v-0.4l-0.2-0.6v-0.1h0.2l0.3,0.3l0.2,0.4v0.1v0.1l0.2,0.1l0.5,1.2V62l-0.5,0.3c0,0-0.2-0.1-0.3-0.1h-0.2h-0.2l0,0
	c0,0,0,0-0.2,0l0.2-0.6v-0.4V60.6z M84,55.8c1.5-3,1.7-3.9,1.7-4.5c0-0.3-0.2-1.3-1.7-1.9h2.1c2.4,0,4.2,0,5.7,0
	c-3.6,1.2-5.6,4.5-7.5,7.6L84,57.4c-1.1,1.6-2.1,3.1-3.3,4.7h-0.5C81.8,60.1,83.1,57.9,84,55.8 M68.5,55.7c0.6-0.6,1.5-1.5,2.4-2.4
	c0.3-0.3,0.6-0.6,0.3-0.9c-1.4-0.3-2.6-1.5-2.6-2.7c0-0.1,0.2-0.3,0.6-0.6c0.6-0.4,1.2-1,1.8-1.6c0.2-0.1,0.3-0.4,0.3-0.6
	c-1.2-0.6-2.6-1.9-2.6-4.2c0-3,2.6-5.2,5.7-5.2c1.4,0,2.6,0.3,3.3,0.7c1.1,0.4,1.4,0.6,2.1,0.6h2.9c0.5,0.1,0.3,1.3-0.2,1.5h-2.6
	c0,0.6,0,1.2,0,1.8c0,2.4-1.5,5.5-5.9,5.5c-0.6,0-1.1,0-1.5-0.1c-0.5,0.3-1.5,0.9-1.5,1.9c0,0.7,0.8,1.5,2.4,1.5
	c1.2,0,2.6-0.1,4.2-0.1c2,0,5,0.3,5,3.9c0,3.7-4.2,6.5-8.7,6.5c-4.4,0-5.9-2.2-5.9-4C68.2,56.4,68.4,56,68.5,55.7 M60.8,37.5
	c3.9,0,7.1,2.8,7.1,7.1s-3,7.4-7.4,7.4c-0.5,0-0.8,0-1.2-0.1c1.5,1,5.9,4.6,9.9,8.6l0,0c2.1,2.1,4.2,4.3,5.6,6.4l0,0
	c0,0.1,0.2,0.1,0.2,0.3c1.5,2.1,1.1,1.8,2.6,4.3c3.3,5.9,8.6,7.1,11.7,7.1c1.1,0,2-0.1,3-0.4c-1.8,1-5.6,1.9-7.1,2.4
	c-0.9,0.1-5.3,0.9-8.3-0.7s-4.1-5.5-4.4-6.5c-4.4,4.5-8.6,6.5-12.8,6.5c-8.1,0-11.9-5.5-11.9-10.7c0-1.5,0.3-2.8,0.8-4
	c0.8,0,1.5,0,2.3,0c-0.2,0.7-0.2,1.3-0.2,2.1c0,6.4,4.5,11,11,11c3.8,0,7.7-1.8,10.8-4.9c-0.9-3.1-2-5.8-3.3-7.9l0,0
	c-0.6-1-1.4-2.1-2.1-3l0,0c-3.3-4.2-6.8-6.5-8.6-8c-2.4-2.1-3.6-4-4.4-5.5c-0.6-1-0.9-2.2-0.9-3.6C53.5,40.7,56.8,37.5,60.8,37.5
	 M61.7,62.5c0,0.1-0.2,0-0.3,0C61.6,62.5,61.6,62.6,61.7,62.5 M30,28.8c1.7,0,2.9,0.1,4.4,0.1c1.4,0,2.6,0,4.1-0.1
	c0.2,0.1,0.3,0.7,0,0.9h-0.6c-2,0.1-2.1,0.7-2.1,4.3v4c0,1,0,1,1.8,1h9.9c1.7,0,1.8,0,1.8-1v-4c0-3.6,0-4.2-2.1-4.3h-0.6
	c-0.2-0.1-0.2-0.7,0-0.9c1.7,0,2.9,0.1,4.2,0.1s2.6,0,4.1-0.1c0.2,0.1,0.3,0.7,0,0.9h-0.8c-2,0.1-2.1,0.7-2.1,4.3v12.5
	c0,3.6,0,4,2.1,4.3l0.9,0.1c0.2,0.1,0.2,0.7,0,0.9c-1.7,0-2.9-0.1-4.2-0.1c-1.5,0-2.7,0-4.2,0.1c-0.2-0.1-0.3-0.6,0-0.9l0.6-0.1
	c2.1-0.3,2.1-0.7,2.1-4.3v-4.9c0-1,0-1-1.8-1h-9.9c-1.7,0-1.8,0-1.8,1v4.9c0,3.6,0.2,4.2,2.1,4.3l1.1,0.1c0.2,0.1,0.2,0.7,0,0.9
	c-2,0-3-0.1-4.4-0.1c-1.5,0-2.7,0-4.1,0.1c-0.2-0.1-0.3-0.6,0-0.9l0.6-0.1c2-0.3,2-0.7,2-4.3V34.1c0-3.6-0.3-4.2-2.1-4.3H30
	C29.7,29.5,29.8,28.8,30,28.8 M56.2,56.8C54.5,58.2,52.9,60,52,62c-0.6,0-1.1,0-1.7,0C51.7,60,53.8,58.3,56.2,56.8 M18.7,29.2
	L18.7,29.2h-0.5H18.7z M21.2,70.3c-0.9,0.1-1.8,0.1-2.7,0.3c-0.9,0.1-1.8,0.1-2.7,0.3c-0.6,0-1.1-0.1-1.5-0.3
	c-0.3-0.1-0.6-0.1-0.9-0.4c0-0.1,0-0.3-0.2-0.3c0-0.1,0-0.3,0-0.3c0.2,0.1,0,0,0,0l0,0c0-0.7,0-1.5,0-2.2c0.2-1.9,0.2-4,0.2-6.2
	c0-1.5,0-3,0.2-4.5c0-0.3,0-0.6,0.2-0.7c0-0.1,0.3-0.3,0.5-0.4c0.2-0.1,0.5-0.1,0.8-0.1c0.3-0.1,0.6-0.1,0.8-0.1
	c0.3,0,0.8,0.1,1.4,0.3c2.1,0.4,4.4,0.7,6.6,1c1.7,0.3,3.6,0.6,5.3,0.9c0.8,0.1,1.5,0.6,2.1,1c0.5,0.4,1.1,1,1.4,1.6
	c0.2,0.3,0.5,0.6,0.6,1c0.2,0.3,0.3,0.7,0.3,1.2c0,0.3,0,0.6-0.2,0.7c0.2,0,0.5,0.1,0.6,0.3c1.2,0,3-0.1,4.7-0.3c0.6,0,1.4,0,2-0.1
	c0.5,0,0.9-0.1,1.5-0.1c0.6,0,1.2,0,1.8,0c1.8,0,3.9,0,5.9,0c1.5,0,2.9,0,4.5,0c1.2,0,2.4-0.1,3.6-0.3c0.3,0,0.8,0,1.1,0.1h0.2
	c0.3,0,0.5,0.1,0.8,0.1c0,0.1-0.3,0-0.3,0.1c0.2-0.1,0.6,0,0.9-0.1c0.2,0,0.2-0.1,0.3-0.1c0.3,0,0.6,0,0.6,0.1
	c0.2,0,0.2-0.1,0.2-0.1c0.2,0.1,0.5,0,0.5,0.3c0.2,0,0.3,0,0.5-0.1c0,0.1-0.2,0.1-0.3,0.1s-0.2,0-0.3,0.1c0.2,0.1,0.3,0,0.6-0.1
	c0.5-0.1,1.2-0.4,1.8-0.4s1.2,0,1.8,0.1c0.2,0,0,0,0.2,0c0.2,0.1,0.3,0,0.6,0.1c0.2,0,0,0,0.2,0c0.2,0,0.2,0,0.3,0l0,0l0,0
	c0.5,0.6,0.9,1.2,1.2,1.8c-0.5,0-0.8,0-1.2,0c-1.7,0-3,0.4-4.4-0.1c-0.2,0.1-0.8,0.3-0.9,0c-0.2,0-0.2,0.1-0.3,0.1s-0.3,0-0.5,0
	c-0.2,0-0.2-0.1-0.3-0.1c-0.3,0.1-0.5,0-0.8,0c-0.2,0-0.3,0.1-0.5,0.1c-0.2,0-0.6,0-0.8,0.1c-0.3,0-0.5,0-0.8,0
	c-0.2,0-0.3-0.1-0.5-0.1c-0.2,0-0.3,0-0.5,0c-0.6,0-1.2-0.1-1.8-0.1c-1.4-0.1-2.7,0-4.1,0c-1.7,0-3.5,0-5.1,0c-1.4,0-3.6,0-5.6,0
	c-0.9,0-1.7-0.1-2.6-0.1c-0.8,0-1.7-0.1-2.4-0.1c-0.6,0-1.2,0-1.8,0c-0.2,0-0.2,0.1-0.3,0.1c0.2,0.7-0.2,1.3-0.5,1.9
	c-0.5,0.9-1.2,1.8-2,2.5c-0.6,0.4-1.2,0.7-2,0.9c-0.5,0.1-0.9,0.1-1.2,0.1C25.8,69.9,23.5,70,21.2,70.3 M40.5,77.9
	c-0.3-1.6-0.8-3-2.6-3.4c-0.8-0.1-2.1-0.1-3.6-0.1h-2.3c-1.1,0-1.1,0-1.1,1.5v7.7c0,1,0.2,1,1.2,1h2.6c1.5,0,2.7,0,3.2-0.1
	c0.5-0.1,0.8-0.3,0.9-1.3l0.3-1.5c0.2-0.1,0.8-0.1,0.9,0c0,0.9-0.2,2.4-0.2,3.7c0,1.3,0.2,2.7,0.2,3.6c-0.2,0.1-0.8,0.1-0.9,0
	l-0.3-1.5c-0.2-0.6-0.5-1.2-1.2-1.3c-0.5-0.1-1.5-0.1-2.9-0.1h-2.6c-1.1,0-1.2,0-1.2,1v5c0,3.9,0,4.5,2.3,4.6l1.2,0.1
	c0.2,0.1,0.2,0.7,0,0.9c-2.3,0-3.5-0.1-5-0.1c-1.7,0-2.9,0-4.7,0.1c-0.2-0.1-0.3-0.7,0-0.9l0.9-0.1c2.1-0.3,2.3-0.7,2.3-4.6V78.8
	c0-3.9,0-4.3-2.3-4.6h-0.6c-0.2-0.1-0.2-0.7,0-0.9c1.5,0,2.9,0.1,4.4,0.1h6.8c2.4,0,4.5,0,5-0.1c0,1.6,0,3.4,0.2,4.7
	C41.3,77.9,40.7,78.1,40.5,77.9 M48.2,97.2c-1.1,0-2.1-0.1-3.3-0.1c-1.2,0-2.3,0-3.3,0.1c-0.3-0.1-0.3-0.7,0-0.9l0.8-0.1
	c1.2-0.1,1.4-0.4,1.4-3V78.1c0-1.9,0-2.2-1.1-2.8l-0.3-0.1c-0.2-0.1-0.2-0.6,0-0.7c0.9-0.3,2.4-0.7,3.8-1.5c0.2,0,0.3,0,0.3,0.1
	c0,1-0.2,2.7-0.2,4.2v15.9c0,2.4,0,2.8,1.4,3l0.8,0.1C48.5,96.6,48.3,97.1,48.2,97.2 M59,97.7c-0.9,0-1.8-0.3-2.4-1.2
	C56.5,96.3,56.3,96,56,96c-0.3,0-0.8,0.3-1.5,0.7s-1.7,0.9-2.7,0.9c-1.1,0-2-0.3-2.6-0.9c-0.8-0.6-1.2-1.5-1.2-2.5
	c0-1.5,0.8-2.2,3-3.1l4.4-1.6c0.6-0.1,0.6-0.4,0.6-1v-1.6c0-1.3-0.5-3.1-2.7-3.1c-1.1,0-2.3,0.4-2.4,1.6c0,0.6,0,1-0.3,1.2
	c-0.6,0.4-1.5,0.7-2.1,0.7c-0.3,0-0.5-0.1-0.5-0.4c0-1.9,4.2-4.5,6.9-4.5c2.7,0,3.9,1.5,3.9,4.3l-0.2,6.4c0,1.6,0.3,3.1,1.7,3.1
	c0.3,0,0.8-0.1,0.9-0.1c0.2-0.1,0.3-0.3,0.5-0.3c0.2,0,0.3,0.1,0.3,0.4C62.2,96.2,60.8,97.7,59,97.7 M73.9,118h-0.3v-0.3h0.3V118z
	 M89.6,97.2c-1.2,0-2.3-0.1-3.6-0.1c-1.4,0-2.3,0-3.3,0.1c-0.3-0.1-0.3-0.7,0-0.9l0.6-0.1c1.4-0.1,1.4-0.6,1.4-3.1v-5.3
	c0-2.5-1.1-3.7-3.5-3.7c-1.4,0-2.6,0.6-3,1.3c-0.5,0.6-0.6,0.9-0.6,2.2v5.6c0,2.7,0,3,1.4,3.1l0.8,0.1c0.3,0.1,0.2,0.7,0,0.9
	c-1.1,0-2.3-0.1-3.5-0.1c-1.4,0-2.3,0-3.3,0.1c-0.3-0.1-0.3-0.7,0-0.9l0.6-0.1c1.4-0.1,1.4-0.6,1.4-3.1v-5.3c0-2.4-1.1-3.7-3.5-3.7
	c-1.5,0-2.6,0.6-3.2,1.3c-0.3,0.4-0.6,0.9-0.6,2.1v5.6c0,2.7,0.2,3,1.4,3.1l0.6,0.1c0.3,0.1,0.2,0.7-0.2,0.9c-1.1,0-2.1-0.1-3.3-0.1
	c-1.4,0-2.4,0-3.6,0.1c-0.3-0.1-0.3-0.7,0-0.9l0.9-0.1c1.4-0.1,1.4-0.6,1.4-3.1v-6.4c0-1.5,0-1.6-1.1-2.2l-0.3-0.1
	c-0.2-0.1-0.2-0.6,0-0.6c0.9-0.3,3-1.2,3.8-1.8c0.2,0,0.3,0,0.5,0.3c-0.2,0.9-0.2,1.3-0.2,1.8c0,0.1,0.2,0.4,0.5,0.4
	c1.4-1,3.2-1.9,5-1.9c1.8,0,2.9,0.6,3.9,2.2c0.3,0,0.6,0,0.9-0.3c1.5-1,3.3-1.9,5-1.9c3,0,4.4,2.1,4.4,4.5v6.2c0,2.7,0,3,1.4,3.1
	l0.9,0.1C89.9,96.5,89.8,97.1,89.6,97.2 M95.6,97.7c-2.4,0-4.4-1-5.4-2.4c-1.1-1.5-1.5-3.1-1.5-4.7c0-4.5,3-8.3,7.4-8.3
	c3.2,0,5.3,2.2,5.3,4.3c0,0.4,0,0.7-0.2,0.9s-0.6,0.3-2.3,0.3h-6.8c-0.9,0-1.1,0.1-1.1,1c0,3.7,2.3,6.8,6.2,6.8
	c1.2,0,2.3-0.3,3.5-1.8c0.3-0.1,0.6,0.1,0.6,0.4C100.3,96.8,97.6,97.7,95.6,97.7 M101.9,65l-0.5,1.2l-0.2,0.1v0.3l-0.2,0.9l0.2,0.6
	l-0.2,0.3H101l-0.2-0.1l-0.6-1.6v-0.1v-0.3v-0.4l-0.2-0.1v-0.3v-0.1L101.9,65L101.9,65z M106.5,63.8l-0.3,0.3l-0.3,0.6l-0.2,0.6
	l-0.5,0.6l-0.2,0.3l-0.2,0.3l-0.3,0.3v0.1v0.3l-0.3,0.3v0.3v0.3l-0.3,1.2l-0.2,0.6v0.9l0.2,0.1l-0.2,0.4l0.2,0.6v0.4h-0.2l-0.2-0.3
	l-0.5-0.9v-0.1l-0.3-0.3v-0.3l-0.2-0.1v-0.1l-0.2-0.1l-0.2-0.3l-0.2-0.6l-0.2-0.6V68l-0.2-0.9l0.2-1.2v-0.4l0.2-0.1l0.2,0.1v-0.1
	l-0.3-0.3l0,0c0.2,0,0.5,0,0.6,0l0,0h0.2l0,0h0.2c0.6,0,1.2-0.1,1.7-0.3s0.8-0.4,0.9-0.7l0.2-0.1c0.2-0.1,0.2-0.1,0.3-0.3
	c0,0,0,0,0-0.1L106.5,63.8z M113.8,66c0,0.3,0,0.6,0,0.9c0,0.9,0,1.6-0.2,2.5c0,0.6-0.2,1.3-0.2,1.9c0,0.9-0.2,1.9-0.2,3
	c0,0.7-0.2,1.5-0.2,2.4c0,0.4,0,0.9-0.5,0.7c-0.2-0.3,0-0.7,0-1c0-0.1,0-0.3,0-0.4v-0.1c0-0.1,0-0.3,0-0.4c0-0.1,0-0.1,0-0.3
	c0,0,0,0.1,0,0v-0.1c0-0.4,0-0.9,0-1.3s0.2-1,0-1.6c0-0.6,0-1,0-1.6c0-0.7,0-1.6,0-2.5c0-0.4,0-0.9,0-1.5c0-0.4,0-0.9,0-1.3
	c0-0.1,0-0.4,0-0.4c-0.2-0.3-0.6-0.6-1.1-0.6c-0.3,0-0.6,0-0.9,0c-0.2,0-0.3,0-0.3,0c-0.8-0.1-1.7-0.1-2.3-0.4
	c-0.8-0.3-1.2-0.9-1.5-1.6v-0.1c0,0.3,0,0.6-0.2,0.9c0,0.1-0.2,0.1-0.2,0.1s-0.2,0.1-0.2,0.3c-0.2,0.1-0.3,0.3-0.3,0.4
	c-0.3,0.3-0.5,0.4-0.8,0.6c-0.5,0.1-0.9,0.3-1.5,0.3l0,0c0,0,0,0-0.2,0c-0.3,0-0.6,0-0.9,0l-2.6,0.1c1.1,0,2.4-0.1,2.6-0.1l-2.9,0.1
	h0.2c-0.2,0-0.5,0-0.6,0l-0.6-1l-0.2-0.3l-0.3-0.4c0.5,0,0.9,0,1.4,0c0.2,0,2,0,2.6,0l0,0l0,0l0,0c0.3,0,0.5,0,0.6,0
	c0.6,0,1.2,0,1.7-0.1c0.2,0,0.3-0.1,0.5-0.3s0.3-0.3,0.5-0.4c0-0.1,0-0.7,0-0.9c-0.2-0.6-0.6-1.2-1.1-1.5c-0.2-0.1-0.3-0.3-0.5-0.3
	c-0.2-0.1-0.5,0-0.8-0.1c-0.2,0-0.5-0.3-0.6-0.3c0-0.1,0.2-0.1,0.3-0.1c0.3-0.1,0.5-0.1,0.9-0.1c0.2,0,0.3,0.1,0.5,0.1
	c0.3,0,0.5,0.1,0.6,0.1l0,0c0.2,0,0.3,0.1,0.5,0.3c0.2,0,0.3,0.1,0.5,0.1c0.2,0,0.3,0.1,0.5,0.1l0.2,0.1c0.2,0.1,0.3,0.3,0.5,0.6
	c0,0,0,0.1,0.2,0.1c0.2,0.1,0.2,0.3,0.3,0.4c0,0.1,0,0.1,0.2,0.3c0,0.1,0,0.1,0,0.3s0.3,0.4,0.5,0.6L108,62h0.2c0,0,0,0.1,0.2,0.1
	h0.2c0,0,0.2,0,0.2,0.1c0.6,0.3,1.7,0.4,2.7,0.4c0.3,0,0.6,0,0.8,0s0.2,0,0.3,0c0.6,0,1.1,0.4,1.4,0.7c0.2,0.1,0.3,0.4,0.5,0.9
	C113.8,65.2,113.8,65.6,113.8,66"/>
<path class="st0" d="M29.5,67.5c0.6-0.4,1.2-1.2,1.5-2.1l0.2-0.1c0.3-0.4,0.3-0.6,0.3-0.9l-0.2-0.7l-0.5-0.1l0.3-0.4v-0.1h0.2
	l0.3-0.6c0,0,0,0,0-0.1c0-0.1-0.2-0.4-0.3-0.7l0,0c-0.2-0.3-0.3-0.6-0.5-0.7c-0.3-0.6-0.8-1-1.2-1.3c-0.5-0.4-0.9-0.6-1.4-0.7
	c-1.7-0.3-3.5-0.6-5.3-0.9l-0.8-0.1c-2-0.3-4.1-0.6-6-0.9c-0.2,0-0.5-0.1-0.6-0.1s-0.3-0.1-0.5-0.1h-0.2c-0.2,0-0.2,0-0.3,0.1
	c-0.2,0-0.3,0-0.5,0.1l0,0c0,0,0,0,0,0.1c0,0.9,0,1.6-0.2,2.5c0,0.6,0,1.3,0,1.9c0,1,0,2.2-0.2,3.3c0,1,0,2.1-0.2,3
	c0,0.3,0,0.6,0,0.9s0,0.7,0,1c0.2,0,0.2,0,0.3,0.1c0.3,0.1,0.5,0.1,0.6,0.1c0,0,0,0,0.2,0c0.6,0,1.1-0.1,1.8-0.1
	c0.3,0,0.6,0,0.9-0.1c0.3,0,0.6,0,1.1-0.1c0.6,0,1.1-0.1,1.7-0.1c0.6,0,1.2-0.1,1.8-0.1c1.7-0.1,3.2-0.3,4.7-0.6c0.2,0,0.3,0,0.5,0
	c0.3,0,0.5,0,0.8-0.1C28.6,68.1,29.2,67.8,29.5,67.5"/>
<path class="st0" d="M55.9,90.7c-0.2,0-0.9,0.1-1.5,0.3c-2.3,0.7-3.3,1.3-3.3,2.7c0,0.6,0.5,2.2,2.3,2.2c0.8,0,2-0.6,2.3-0.9
	c0.5-0.4,0.5-0.9,0.5-1.8l0.2-2.2C56.2,90.8,56,90.7,55.9,90.7"/>
<path class="st0" d="M61,51.1c3,0,4.1-3.1,4.1-5.8c0-3-1.2-6.7-4.5-6.7c-2.3,0-4.1,2.2-4.1,5.9C56.5,47.6,57.8,51.1,61,51.1"/>
<path class="st0" d="M128,61.7l-0.5-1l-0.2-1.3l0.3-1.3l-0.3-0.6l-0.2-2.4l-0.3-1l-0.2-2.7l-0.2-0.3l0.2-0.4l-0.6-0.6l0.2-0.6
	l-0.2-1l-0.6-1l-0.2-1.3l0.2-0.9l-0.8-0.7l0.2-0.6l-0.9-2.8l-0.6-0.9l0.2-0.6l-0.6-0.9l-0.2-0.6l-0.6-1l-0.6-1.8l-0.5-0.3v-0.6
	l-0.6-0.4l-0.2-0.9l-0.6-0.3l-0.3-0.6l0.2-0.7l-0.9-0.7l0.2-0.3l-1.7-1.6l-1.2-2.1l-0.8-0.9l-0.5-0.9l-0.6-0.1l-0.2-0.6l-0.8-0.6
	l-0.3-0.6l-0.6-0.4l-0.8-1.2l-0.9-0.9l-0.3-0.6l-0.8-0.3l-1.8-2.2l-0.6-0.1l-1.2-1.2l-1.2-0.6l-0.8-0.9l-2.3-1.5l-0.3-0.6H101
	l-0.8-1l-0.6-0.1l-0.8-0.9l-0.6-0.1l-1.1-0.7l-0.6-0.1l-0.2-0.6L94.4,8l-1.2-0.6l-0.5-0.6l-1.2-0.3l-0.3-0.4h-0.6l-0.8-0.6l-0.6,0.1
	l-0.5-0.4l-1.7-0.4l-1.5-1.2l-1.4-0.1l-0.9-0.6h-0.6l-0.9-0.4l-0.6,0.1l-0.6-0.3l-1.4-0.1l-0.6,0.1L76,1l-4.2-0.4l-0.6-0.3l-0.6,0.3
	L70,0.4l-0.6,0.1L69,0.3L67.9,0l-0.8,0.3l-0.6-0.1h-1.5L64.5,0l-1.4,0.4l-0.6-0.3H61L60.4,0l-0.2,0.4h-3.2L56.3,1l-0.5-0.3l-2.4,0.6
	l-0.6-0.1l-0.2,0.4l-5.6,0.9L47,2.8l-2.1,0.3l-1.2,0.6l-0.5-0.3l-2.4,0.9l-0.6-0.1l-1.5,1l-1.4,0.1l-0.5,0.6L36,6.1l-2.3,1.5L32.4,8
	L31,9.5l-0.6-0.3l-1.4,0.7l-1.8,1.5l-0.6,0.1l-0.2,0.6l-0.8,0.1l-0.2,0.6l-0.8,0.6l-1.2,0.6l-1.8,1.5l0.2,0.7l-0.3,0.3v-0.9
	l-1.5,1.8l-1.7,1.2l-0.8,1.2l-0.6,0.3l-1.4,1.6L15.2,22l-0.5,0.4l-0.5,1.3l-0.9,0.6l-0.6,1l-1.4,1l0.5,1.2h-0.8l-0.5,0.3l-0.2,0.6
	l0.2,0.6l-0.9,0.7L9,30.7l-0.5,1.2l-0.8,0.7l-0.3,1.2l-0.6,0.3l-0.2,0.7l-0.5,0.4V37l-0.8,0.4l0.9,1.3L7.5,39l0.2,0.4l-1.2-0.1
	L6.2,39l-0.8,0.1l0.3-0.4l-0.2-0.6L5,38.6l-0.2,0.7l0.6,0.9l-0.9-0.1L4.7,41l-0.5,0.4l-0.6,1.3L3.2,43L3,44.7h0.8L3.5,45l-0.6,0.1
	l-0.6,2.4l-0.6,0.4l-0.3,1.9l0.2,0.6l0.3,0.3l-0.8,0.6l-0.6,3.3l0.2,2.5l-0.5,0.7l0.3,0.7L0,59.2l0.2,1.2L0,61.7l0.3,1.2L0,63.5
	l0.3,1.8l-0.2,0.6l0.3,0.6l-0.3,1.6l0.9,1.2l-0.8,0.1l0.6,4.3l0.2,2.4l0.5,0.4l0.6,1.8v1.3L2.6,80l0.2,0.6l-0.2,0.6l0.3,1.2l0.8,0.9
	l0.2,1.3l0.6,0.6l0.5,2.1l1.4,2.1l0.6,0.3l-0.5,0.7l1.2,0.1l-0.2,0.6l-0.6-0.3v0.6L7.7,92l0.2,1.3l1.1,2.1l0.9,0.1v1.2l1.7,2.7
	l0.8-0.6l0.3,0.3l-0.6,0.3l0.2,0.7l1.4,1.2l0.6,1.2l1.4,0.1l-0.5,0.7l0.6,0.9l1.2,0.1l-0.2,1.3h1.2l-0.2,0.6l2.1,1.8l0.8,0.9
	l0.9,0.1l0.2,0.7l0.8-0.1v0.7l0.3,0.3l0.9,0.1l0.2,0.6l1.4,1l-0.2,0.6l0.9,0.1l1.4,1.5l0.8,0.1l0.5,0.6h0.8l0.8,0.9l0.9,0.1l0.9,0.7
	l3.2,1.9h0.5l2.7,1.3l1.4,0.4h0.8l1.5,1l1.4,0.4h0.9l0.5,0.4l1.4,0.4l1.4,0.1l0.9,0.6h1.4l0.5,0.3l1.1,0.1l0.6,0.3l0.6-0.6l0.5,0.1
	l0.6-0.1l0.5,0.4l1.1,0.4h2.9l0.6,0.4l1.2-0.1l3.3,0.3l1.2-0.1l0.8,0.3l2.4-0.6l0.5,0.3h0.6l1.2-0.6l0.6,0.1l1.4-0.1l0.6,0.1
	l0.8-0.6l0.8,0.1l1.7-0.3l0.6,0.1l1.8-0.9l0.5-0.4v0.6l1.4,0.1l0.5-0.1l1.2-0.1l1.7-0.9l2.4-0.7l1.1-0.6l0.8-0.1l0.6-0.4l1.4-0.1
	l1.7-0.9l0.8-0.1l1.7-0.9h0.6l3.8-2.4l0.8-0.1l1.8-1.5l0.8-0.1l0.2-0.6l0.3-0.3l1.4-0.1l0.6-1h0.9l0.3-0.9l1.7-0.9l0.9-0.9l1.1-0.6
	l0.3-0.6l1.7-1.2l0.3-0.6l0.9-0.7l0.2-0.7l0.5-0.4l0.2-0.6l0.9-0.4l1.4-1.6l0.9-0.9v-0.7l2.4-2.7l0.6-1.3l0.9-0.7l-0.2-0.7l0.9-0.7
	l0.2-0.7l1.4-1.6l-0.2-0.6l1.1-1.5l-0.2-1.2l1.1-0.6l0.5-2.1h0.5v-0.9l0.6-1.2v-0.6l0.8-1l1.4-6.4l0.5-0.7l-0.2-0.6l0.8-2.4l0.2-4.2
	l0.5-0.6l-0.2-2.4L128,61.7z M123.9,44.1l0.6,0.1l0.2,0.6l-0.6,0.3l-0.2-0.6V44.1z M120.8,40.2l0.6,0.1v0.4l-0.6-0.1V40.2z
	 M117.8,32.9l0.3,0.3h-0.3V32.9z M69.3,0.7h0.3L69.3,1V0.7z M65.2,2.4L65.2,2.4h0.5l-0.2,0.3l-0.5-0.1V2.4
	C65.1,2.4,65.2,2.4,65.2,2.4z M61.7,1.6h0.5v0.3h-0.5V1.6z M56.2,3.6v0.3l-0.3-0.1L56.2,3.6z M52,3.3h0.3v0.3H52V3.3z M42.9,4.2
	L42.9,4.2L42.9,4.2L42.9,4.2L42.9,4.2z M36,9.9L36,9.9l-0.3-0.1L36,9.9z M35.2,7.4L35.5,8h-0.5L35.2,7.4z M32.8,8.6L33,9.2l-0.2,0.4
	l-0.3-0.4L32.8,8.6z M30.6,11.4L30.6,11.4H31l-0.2,0.3L30.6,11.4L30.6,11.4z M25.9,15.4l0.6,0.1l-0.6,0.1V15.4z M22.7,17.1H23v0.1
	L22.7,17.1L22.7,17.1z M23.3,18.3L23,19l-0.2-0.4L23,18L23.3,18.3z M21.8,17.5h0.3V18h-0.5L21.8,17.5z M20.9,20.9l-0.5,0.4l-0.2-0.4
	H20.9z M19.7,19.7l-0.2,0.6l-0.5-0.6H19.7z M16.9,22.6l0.5,0.3L16.4,23L16.9,22.6z M14.8,24.6l0.3,0.4h-0.3V24.6z M15.1,25.8
	l1.2-0.3v0.9l-1.5-0.1L15.1,25.8z M13.4,27l0.3,1h-0.6L13,27.2L13.4,27z M13.3,28.8l-0.6,0.9l-0.3-1L13.3,28.8z M12.6,30.3l0.3-0.4
	l0.3,0.6l-0.9,0.1L12.6,30.3z M10.1,32.9v-0.6l0.2-0.4l0.6,0.1l-0.2,0.6L10.1,32.9l-0.3,0.6l-0.3-0.1L10.1,32.9z M10.2,34.6
	l-0.5,0.3l0.2-0.6L10.2,34.6z M9.3,33.7L9.5,34l-0.3,0.1L9.3,33.7z M9.5,35.9l0.6-0.1l-0.3,0.4l0.2,0.6l-0.6-0.1l-0.5-0.6L9.5,35.9z
	 M8.1,33.2l0.3-0.4L9,32.9l-0.3,0.7l-0.6,0.1V33.2z M8.9,36.1l-0.5-0.1l0.2-0.1L8.9,36.1z M7.1,37.4L7.5,37l0.6,0.1l0.3,0.4H7.8
	L7.1,37.4z M6.2,40.7L6,41.3l-0.5-0.6H6.2z M5.4,41.9l0.2,0.6H5.3L5.4,41.9z M4.7,43.6l1.1,0.1l-0.2,0.6H4.5L4.7,43.6z M4.7,47.8
	l0.2,0.4l-0.6,0.1l-0.2-0.6H4.7z M1.8,49.6h0.5v0.3H1.8V49.6z M1.2,56.8l0.2-0.3l0.2,0.3H1.2z M1.5,64.1h0.3l-0.3,0.6V64.1z
	 M1.8,69.8l0.5-0.1V70L1.8,69.8z M2,64v-0.3l0.6,0.1L2,64z M2.4,74.1l-0.2-0.6h0.6l0.3,0.3L2.4,74.1z M2.4,56.5l-0.6,0.3L2,56.2
	l0.5-0.4L3,55.7L2.4,56.5z M3.6,68.4V69l-0.5-0.6H3.6z M3.9,75.4L4.4,76L3.9,75.4L3.9,75.4z M3.5,77.2L3.8,77v1.2l0.5,1l-0.6-0.1
	l-0.3-0.6L3.5,77.2z M4.1,80.7L3.5,81l0.2-0.6l-0.2-0.6h0.6V80.7z M4.4,82.4L4.4,82.4l-0.2-0.6h0.2V82.4z M4.2,77l0.2-0.7L5,76.1
	l-0.2,0.6L4.2,77z M5.4,79.5L5,80.1v-0.9L5.4,79.5z M5.1,83l0.3,0.4l-0.6,0.3L5.1,83z M5.9,86.1l-0.8,0.1l0.2-0.6L5.4,85L6,85.2
	L5.9,86.1z M6.6,86.5L6.6,86.5l-0.2-0.3h0.2V86.5z M6,83.7L6,83.7l0.5-0.1L6,83.7z M8.1,91l-0.5-0.3h0.6L8.1,91z M7.7,89.9v-0.4
	l0.6-0.1L7.7,89.9z M8.9,93.2H8.4v-0.7L8.9,92l-0.5-0.3L8.6,91h0.6L9,91.9l0.5,0.7L8.9,93.2z M9.8,93.8l1.1,0.3l-0.6,0.1L9.8,93.8
	L9.8,93.8z M10.4,95.6L11,96l0.2,0.4l-0.6-0.1L10.4,95.6z M11,97.1l0.2-0.6l0.6,0.3l0.2,0.6L11,97.1z M12,96.5l-0.8-1.6l0.5,0.1
	l0.9,1.6L12,96.5z M22.1,108.9l-0.6-0.3l-0.3-0.6l0.9,0.3V108.9z M23.3,107.9v-0.3l0.3,1.5L23.3,107.9z M30.9,113.8l0.5-0.6l0.2,0.6
	H30.9z M32.2,116.4v-0.4l0.5,0.1L32.2,116.4z M42.2,121.1l-0.3-0.6h0.5L42.2,121.1z M57.8,122.7l0.2-0.6l0.3,0.6H57.8z M59.3,124.4
	l-0.2-0.4l1.2-0.6L59.3,124.4z M72.1,123.3l-0.2-0.4l0.6,0.1L72.1,123.3z M74.7,122.6L74.7,122.6l-0.2-0.4l0.3,0.1L74.7,122.6z
	 M76.2,123.5l-0.2-0.6l0.6,0.1l0.2,0.6L76.2,123.5z M80.4,121.4v-0.3l0.3,0.3H80.4z M89.4,119.3l-0.5-0.6l0.6,0.1L89.4,119.3z
	 M99.8,112l0.2-0.3l0.5,0.1L99.8,112z M102.9,109.4h-0.3v-0.3h0.3V109.4z M107.1,106.1v-0.3l0.3,0.3H107.1z M110.5,101.8l-0.6-0.1
	l0.6-0.1V101.8z M115.5,96.9l-0.6-0.1l0.6-0.1V96.9z M118.5,91l-0.2-0.4l0.3-0.1l0.2,0.4L118.5,91z M122.1,87.3l-0.6-0.6h0.6V87.3z
	 M123,81.3L123,81.3h0.5H123z M123.9,64.4l0.3,1.8l-0.5,0.3v2.7l-0.5,0.6l-0.2,1.3l0.3,0.6l-0.6,0.9v0.9l-0.5,0.7l-0.6,4.3l-0.5,0.6
	l-0.2,1.3l-0.5,0.6l-0.5,1.3l-0.5,0.4v0.7l-1.4,2.8l-0.3,1.2l-0.9,1.5l-1.4,3.4l-0.8,0.1v0.9l-0.6,0.4l-0.2,0.7l-0.6,0.3l-0.8,0.9
	l-0.3,1l0.2,0.6l-0.8,0.1l-1.1,0.7V99l-0.9,0.9l-0.2,0.7l-1.7,1.3l-0.2,0.7l-0.8,0.3l-1.2,1.5l-2.6,2.5l-0.6,0.1l-0.8,0.7h-0.5
	l-0.9,1.2l-0.6,0.1v0.7h-0.8l-3,2.1l-0.9,0.9l-1.2,0.6l-0.9,0.7h-0.8l-2.1,1.6l-1.2,0.3l-0.3,0.4l-0.6-0.1l-1.1,0.6H87l-0.2,0.6
	l-1.7,0.1l-1.1,0.6l-0.6,0.1l-0.9,0.6l-0.8-0.1l-1.1,0.6l-1.5,0.1l-1.2,0.4l-0.5,0.4l-0.8-0.1l-2,0.6l-1.4-0.1l-2.1,0.9l-2.1-0.3
	l-1.4,0.4H67l-0.6-0.1l-0.6,0.3l-1.2-0.3l-0.9,0.6l-0.6-0.3l-2,0.1l-1.1-0.3l-1.4,0.1l-1.4-0.1l-0.6-0.3l-0.6,0.1h-2.3l-0.6-0.3
	l-2.6-0.6l-0.5-0.4l-0.6,0.1l-0.6-0.1l-0.6,0.1l-0.6-0.6l-0.8,0.1l-1.4-0.3l-0.6,0.1l-1.4-0.9l-0.6,0.1l-0.6-0.4l-2-0.7l-0.6-0.4
	l-1.4-0.1l-1.4-0.6l-0.2-0.6l-0.8-0.1l-1.5-0.9H34l-1.4-1.2l-0.6-0.1l-0.2-0.7h-1.2l-0.5-0.9l-0.9,0.1l-0.3-0.6l-1.5-1.2l-0.9-0.9
	l-1.2-0.6l-0.8-0.9l-0.6,0.1l-2.1-2.4l-1.1-0.6l-0.8-0.1l-0.2-0.6l-0.9-0.9l-0.2-0.6l-2.6-2.8l-0.3-0.6l-0.6-0.4l-0.2-0.6l-0.8-1.2
	L14,97.4l-0.9-1l-0.6-0.1l0.6-0.3l-0.6-1.2l-1.7-1.6l-0.2-1.5l-1.2-1.2l0.2-0.6l-0.8-1.6l-0.5-0.4l0.5-1.2L8,85.3v-0.6l-1.2-3
	l0.2-0.4l-1.2-3.1v-1.3l-0.2-0.6L5,75.8v-0.7l-0.3-0.4l0.2-0.6l-0.3-1.8l-0.6-0.9l0.3-1.5l-0.6-3.3L3.9,66l-0.6-1.2l0.5-0.4
	l-0.2-1.2v-0.4l0.5-0.9l-0.2-0.6l0.2-3.7L4.4,57l0.2-3.7L5,53l0.2-1.2L5,51.2l0.8-1.6v-1.2l1.1-4l0.6-0.3v-0.7l0.9-1.5v-0.7l0.6-1.9
	l1.1-1.6l2.4-4.7l-0.5-1.3l0.8,0.6l0.5-0.3l0.2-0.6l0.6-0.4l0.6-1l0.9-0.9l0.2-0.6l0.9-0.9l0.2-0.6l2.1-2.4l0.2-1.2l0.2,0.6l0.2-0.4
	l0.6-0.1l0.2-0.7l1.4-0.7l0.2-0.6l1.2-1.3l0.8-0.1l1.5-1l0.6-0.9l1.4-0.6l0.6-1.2l0.6-0.1l1.8-1.3l0.6-0.1l0.2-0.9h0.9l2.1-1.6
	l0.8-0.1l0.6-0.6l1.4-0.4l0.3-0.6l1.4-0.3l0.3-0.6L39,9.3l0.5-0.6L40.5,8l0.9,0.3l0.3-0.4l0.9-0.6l2.1-0.1l0.9-0.9l0.9,0.1l2.9-1
	l0.5,0.1l1.7-0.7h2.1l0.5-0.1l0.6,0.1L55.4,4L56,4.2l3.3-0.3l1.2,0.3l0.6-0.4l0.8,0.1l0.8-0.1L64,3.9l2.4-0.3L67,3.9L68.4,4L69,3.7
	l1.7,0.6l0.6-0.1l0.3-0.4l0.6,0.1l0.3,0.6L75.3,5l0.6-0.1l1.4,0.4l0.6-0.1l1.1,0.6l1.4,0.1l0.3,0.6h0.6l0.5,0.3l0.8-0.3L83.4,7
	l0.2,0.4l5,1.6l0.2,0.6l0.6,0.1l2.1,1l0.6-0.1l3.2,1.9l0.2,0.6l0.8,0.1l2.1,1.5l0.8,0.1l0.2,0.6l0.6,0.1l1.2,0.9l0.6,0.1l2,1.3
	l0.2,0.7l1.5,1h0.6l0.2,0.6l0.6,0.3l1.2,1.9l0.6,0.3l0.2,0.7l0.9,0.7h0.6l0.2,0.6l2.6,3.1l0.2,0.7l2.1,2.7v0.4l3.2,5.5l0.3-0.7
	l0.5,0.6l-0.5,0.4l0.9,2.4v0.6l0.9,1.9l-0.2,0.6l0.8,1l0.2,1.3l0.6,0.1v2.1l0.6,0.9l0.6,0.1l-0.6,0.7l0.2,0.6l0.5,0.3l0.2,0.6l0.3,4
	l0.5,1.3l-0.2,2.4l0.2,1.3l-0.2,0.7l0.8,1.3l-0.9,1.6L123.9,64.4z M124.5,49l0.2-0.4l0.3,0.6L124.5,49z M125.6,57.9l-0.2-0.6
	l0.2-0.6l0.5,0.6L125.6,57.9z M126.5,62.2l-0.5-0.3l0.2-0.6l0.3,0.3V62.2z"/>
</svg>
