<?xml version="1.0" encoding="utf-8"?>
<!-- Generator: Adobe Illustrator 21.0.2, SVG Export Plug-In . SVG Version: 6.00 Build 0)  -->
<svg version="1.1" id="Layer_1" xmlns="http://www.w3.org/2000/svg" xmlns:xlink="http://www.w3.org/1999/xlink" x="0px" y="0px"
	 viewBox="0 0 158 64" style="enable-background:new 0 0 158 64;" xml:space="preserve">
<style type="text/css">
	.st0{fill:#615E5D;}
	.st1{clip-path:url(#SVGID_2_);fill:#615E5D;}
	.st2{clip-path:url(#SVGID_4_);fill:#615E5D;}
</style>
<path class="st0" d="M155.2,14.6L155.2,14.6l-9.1,2.2c0-2.4,0.2-5.2,1.1-7.1h-5.4c-0.7,1.7-0.7,6.9-0.7,11.2c0,2.6,0,8.2,0,8.2h15.1
	c1.1-1.5,1.9-3.2,1.9-5.6C158,19,155.6,15.1,155.2,14.6 M153.2,25.2h-7.1v-4.5l6.9-1.9c0.4,0.9,0.6,2.2,0.6,4.1
	C153.5,23.9,153.4,24.6,153.2,25.2z"/>
<path class="st0" d="M109.9,29.3c0.2,0,0.2,0,0.4,0c2.8-0.4,4.8-1.9,6.3-3l-1.7-3.5c-1.1,0.7-2,1.5-3.5,1.9
	c-0.6,0.2-1.1,0.4-1.9,0.6c-1.3,0.2-2.4,0.2-3,0.2c-0.2,0-0.2,0-0.2,0c-0.4-0.6-0.7-1.3-0.9-2.2l0,0l0,0c0,0,0.2,0,0.4,0
	s0.2,0,0.4-0.2c2.2-0.6,9.1-2.2,9.9-2.4c0.2-0.6,0.4-1.3,0.6-2.2c0.2-0.7,0.2-1.7,0.2-2.8c0-0.7-0.2-1.7-0.4-2.4
	c-0.4-1.5-0.9-2.8-1.1-3.4H102c-0.4,0.7-1.9,5.8-1.9,8.6c0,5.4,2,9,3.3,10.6C105,29.5,107.8,29.7,109.9,29.3 M106.1,14L106.1,14
	c0.2-0.4,0.2-0.6,0.2-0.7h5.4c0.7,1.9,0.7,4.1,0.7,4.7l-1.9,0.4l-5.2,1.1c0-0.4,0-0.6,0-0.9C105.4,17.2,105.8,15.5,106.1,14z"/>
<polyline class="st0" points="48.3,13.6 48.3,29.1 53.3,29.1 53.3,13.6 58.4,14 58.6,9.7 43.7,9.7 43.9,14 48.3,13.6 "/>
<path class="st0" d="M80.7,34.1h5v-5c0,0,9.7,0,10,0c0.4-1.1,1.9-5.8,1.9-10.1c0-3.4-0.9-6.7-1.7-9h-5c0,0-3.9,1.3-5,1.7
	c0-1.1-0.2-2.1-0.2-2.1h-5.4c0,0,0.6,2.4,0.6,7.3C80.7,22.4,80.7,34.1,80.7,34.1 M85.7,15.1l6.1-1.3c0,0,0.7,1.9,0.7,5
	c0,2.6-0.4,5.2-0.6,6.2h-6.1v-9.9H85.7z"/>
<g>
	<g>
		<defs>
			<rect id="SVGID_1_" width="158" height="64"/>
		</defs>
		<clipPath id="SVGID_2_">
			<use xlink:href="#SVGID_1_"  style="overflow:visible;"/>
		</clipPath>
		<path class="st1" d="M137.4,9.7h-5.2c0,0,0.2,4.1,0,8.2c-0.2,3.4-0.7,6-1.1,7.3l0,0h-4.5c-0.4-1.5-0.9-3.7-1.1-6.5
			c-0.4-3.7,0-6.3-0.2-9h-5.4c-0.2,4.1,0,13.4,3,19.4h8.7c-0.6,1.7-1.7,3.5-1.7,3.5h5c0,0,0.7-1.1,1.7-3.2c1.5-3.4,1.9-4.3,1.9-4.3
			h-2.4C137.6,19.6,137.6,12.9,137.4,9.7"/>
	</g>
</g>
<g>
	<g>
		<defs>
			<rect id="SVGID_3_" width="158" height="64"/>
		</defs>
		<clipPath id="SVGID_4_">
			<use xlink:href="#SVGID_3_"  style="overflow:visible;"/>
		</clipPath>
		<path class="st2" d="M24.2,0c-3.2,0-6.3,0-6.3,0s-2.2,6-5.4,9.5L7.1,0.4H0.6l8.4,14c-0.6,0.4-1.1,1.1-1.9,2.1
			c-2.4,3-5.9,8-7.1,12.7c3.2,0,6.7,0,6.7,0s1.7-5.8,5.2-9.7l5.8,9.7h6.5L15.2,14C16.9,11.8,22.3,5.2,24.2,0"/>
	</g>
</g>
<path class="st0" d="M64.3,29.1h11.3c0.6-1.5,1.9-5.2,1.9-9.7l0,0l0,0c0-4.5-1.5-8.2-1.9-9.7H61.7c-0.6,1.5-1.9,5.2-1.9,9.7l0,0l0,0
	c0,4.5,1.5,8.2,1.9,9.7H64.3 M65.1,19.4L65.1,19.4c0-2.6,0.6-4.7,0.9-5.8h5.4c0.4,1.1,0.9,3.2,0.9,5.8s-0.6,4.7-0.9,5.8H66
	C65.6,24.1,65.1,22,65.1,19.4z"/>
<path class="st0" d="M34.9,36.2c0,0,2.4-3.7,4.1-9.1c0.6-1.5,0.9-3.2,1.3-5l0,0c1.3-6.7,0.9-12.3,0.9-12.3h-5.2c0,2.6-0.2,5.2-0.6,9
	c0,0.4,0,0.7-0.2,1.1c-0.4,1.9-0.7,3.7-1.3,5.4h-2.8c-0.6-1.5-1.3-3.5-1.7-6.5c-0.7-4.3-0.9-6.5-1.1-9.1h-5.6
	c0,4.1,1.3,13.4,4.3,19.4h5.4c-1.3,3.4-2.6,5.4-2.6,5.4L34.9,36.2"/>
<path class="st0" d="M121.4,51.5c-1.7,0.7-2.2,1.1-3,2.1c1.3-1.9,2.8-4.1,4.1-6c0,0,0,0-0.2,0h-3.2c0,0,0.6,0-0.2,1.1l0,0l0,0
	c-0.2,0.4-1.1,0.9-3,1.5c0.4-1.5-0.4-2.6-1.9-2.6c-0.9,0-1.7,0.2-2,0.4c0.6-0.7,1.1-1.5,1.5-2.1c0.6-0.7,1.7-2.1,2.6-2.4
	c-0.9,0-1.1,0-2.8,0c-0.4,0.2-0.6,0.4-1.3,1.3c-0.9,1.1-2,3-3.5,4.9c-0.4,0.4-0.7,0.9-1.7,1.9c-0.9,1.3-3,2.6-3.7,2.8
	c0.2-0.4,2.4-3.5,3.7-5.2c0.7-0.9,0.4-1.7-0.7-1.7c-0.6,0-3,0.9-4.1,1.7c-1.3,0.7-2.8,2.4-3.9,3.7c0-0.2,0.4-0.7,0.6-0.7
	c0.9-1.3,1.7-2.4,2.6-3.5c0.6-0.7,0.6-1.1,0.4-1.1c-0.6,0-1.3,0-2.6,0c0.6,0,0.2,0.9-0.6,2.1c-0.2,0.4-0.7,1.1-1.3,1.9
	c-0.6,0.7-3.3,2.8-4.8,2.8l0.7-0.9c0.9-1.3,2.8-3.9,4.1-5.8c-0.4,0-3.2,0-3.2,0s0.6,0-0.2,1.1c-0.4,0.4-0.7,1.1-1.3,1.9
	c-1.3,1.9-4.5,3.9-5.4,3.5l0.6-0.7c0.2-0.4,0.6-0.7,0.9-1.3c0.4,0,0.6,0,0.7,0c0.9-0.6,1.7-1.5,1.7-1.5s-0.6,0-1.5,0
	c0.7-0.9,1.5-2.1,2-3c-0.4,0-3.2,0-3.2,0s0.6,0-0.2,1.1c-0.4,0.6-0.9,1.3-1.5,2.1c-1.1,0.2-2.4,0.7-3.2,1.5c0.7-0.9,1.7-2.2,2.2-3.2
	c0.4-0.4,0.7-0.9,1.1-1.5c-0.7,0-1.7,0-2.8,0c0.2,0.4,0.2,0.6-0.7,1.7l0,0l-0.2,0.2c-0.4,0.6-0.7,0.9-1.9,2.6
	c-0.4,0.6-1.3,1.9-1.5,2.1l-0.4,0.6c0,0,0.2,1.1,1.1,1.5c0.6-0.7,1.1-1.5,1.7-2.1c0.9-0.9,2.2-1.5,3.3-1.9c-0.6,0.7-0.9,1.3-0.9,1.3
	c0,0.9,0.6,1.3,1.3,1.9c1.5,0,3-0.7,3.9-1.7c0.2,0.9,0.9,1.5,1.5,1.7c1.5-0.2,2.8-0.9,3.5-1.7v0.2c0,0,0.2,1.7,1.7,1.9
	c0.6-0.9,1.9-2.6,3.3-4.1c2.2-1.9,3.7-2.4,3.9-2.2c-0.4,0.4-3,3.7-3.5,4.3c0,0.7,0.4,1.5,1.5,1.9c0.7-0.2,1.5-0.4,2-0.7
	c-0.7,1.1-1.3,1.9-1.9,2.6c-4.3,6.2-6.9,6-6.9,6s4.5,0.7,9.1-6c0.6-0.9,3-4.1,5.2-7.3c0.4-0.4,1.7-1.7,3-1.7c0.7,0,1.9,0.4,0.7,2.1
	c-4.1,1.1-5.2,1.7-5.6,3c-0.2,0.7,0.2,2.1,1.7,2.1c2.2,0,3.5-1.5,5.2-3.9c0.7-0.2,1.5-0.6,2.2-0.7c-0.9,1.3-1.7,2.4-1.9,2.6
	c0,0.7,0.7,1.7,1.5,1.7c1.1-1.1,2.2-2.2,5.2-3.2c2.2-0.7,5.4-0.4,5.4-0.4l1.5-1.5C129,50.6,124.9,49.8,121.4,51.5 M110.6,54.9
	c-0.7,0.2-1.3,0.2-1.3-0.2c0-0.7,2-1.3,3.2-1.5h0.2C111.9,53.9,111.3,54.5,110.6,54.9z"/>
<path class="st0" d="M59.5,47.6h-2.4c0,0,0.4,0.4,0.2,0.9c-0.2-0.2-0.4-0.7-1.9-0.7c-1.9,0-3.5,1.3-5,3.4c-0.2,0.2-0.2,0.4-0.4,0.6
	l0,0c-1.1,1.9-3.9,3-5,2.8l0.7-0.9c0.2-0.4,0.7-0.9,1.1-1.5c0.6,0,0.9,0.2,0.9,0.2l1.3-1.3c0,0-0.6,0-1.3-0.2
	c0.7-1.1,1.7-2.2,2.2-3.2c-0.4,0-3.2,0-3.2,0s0.6,0-0.2,1.1c-0.4,0.4-0.7,1.1-1.3,1.9c-0.6,0-1.3,0-2-0.2c0.4-0.6,0.7-0.9,0.9-1.5
	c0.4-0.4,0.7-0.9,0.9-1.3c-0.7,0-1.7,0-2.8,0c0.2,0.4,0.2,0.6-0.7,1.7l0,0l-0.2,0.2c-0.2,0.4-0.4,0.6-0.7,0.9c-0.6,0-1.1,0-1.7,0
	c-3.3,0-4.6,0.6-4.6,0.6s-1.1,1.5-1.5,2.1c1.7-0.7,4.1-0.9,6.5-1.1c0,0,0,0.2-0.2,0.2c-0.4,0.6-0.9,1.3-1.1,1.5l-0.7,0.9
	c0,0,0.2,1.3,1.3,1.7c0.6-0.7,1.5-2.2,2-2.8l0.7-1.1c0.2-0.2,0.2-0.2,0.4-0.4c0.7,0,1.5,0,2,0c-0.7,1.1-1.3,2.1-1.5,2.2
	c0,0.9,0.2,1.5,1.1,2.1c1.9,0,4.1-1.1,5.2-2.2c0,1.1,0.6,1.9,1.5,1.9c1.3,0,2.2-0.7,3.2-1.5c0,0.9,0.6,1.5,1.7,1.5s1.9-1.1,1.9-1.1
	S56.3,55,56,55c-0.4,0-0.6,0-0.6-0.6c0-0.4,0.6-1.1,1.1-2.1c0.7-1.3,2-3,2.4-3.5C60,48,59.5,47.6,59.5,47.6 M53.2,50.6
	c1.1-1.3,1.9-1.9,3-1.9c0.6,0,0.6,0.6,0.6,0.7c-0.2,0.2-0.2,0.4-0.4,0.6c-0.6,0.7-1.1,1.5-1.7,2.2c-0.7,0.9-2.2,2.4-3.3,2.4
	C50.7,54.7,51.7,52.4,53.2,50.6z"/>
<path class="st0" d="M121.6,46.1c0.7-0.2,2-0.6,2-1.5c0-0.7-0.2-0.9-0.2-0.9s0,0.4-1.1,0.7c-0.6,0.2-1.5,0.6-1.9,0.7
	c-1.3,0.6-1.1,1.3-0.7,2.1C119.2,46.8,120.5,46.5,121.6,46.1"/>
<path class="st0" d="M97.2,44.4c-0.6,0.2-1.5,0.6-1.9,0.7c-1.3,0.6-1.1,1.3-0.7,2.1c-0.2-0.4,1.1-0.9,2.2-1.3c0.7-0.2,2-0.6,2-1.5
	c0-0.7-0.2-0.9-0.2-0.9S98.5,43.8,97.2,44.4"/>
<path class="st0" d="M78.8,41.2c1.5-1.7,2.4-1.7,2.4-1.7s-1.5,0-3.7,0c-0.6,0-0.7,0.4-1.3,0.9c-0.7-0.2-1.7-0.2-2.6-0.2
	c-5,0-8.7,2.4-8.7,5.4s2.8,3.4,2.8,3.4l2-1.7c-0.9-0.2-2-0.7-2-1.9c0-1.9,2.6-3.9,6.3-3.9c0.6,0,0.9,0,1.5,0.2
	c-0.4,0.4-0.6,0.9-0.9,1.3c-1.1,1.5-2.2,3.2-4.5,6.3c-0.9,1.3-1.7,2.4-2.4,3.2c-0.2-0.2-0.4-0.2-0.6-0.4c-0.6-0.6-1.7-0.7-2.6-0.7
	c-1.7,0-3.2,1.5-3.2,2.8c0,1.1,0.9,2.2,2.2,2.2c1.1,0,2.6,0.4,4.6-1.7c0.9,0.9,2,1.7,4.3,1.7c6.5,0,10-6,10-9.5
	C82.7,44.6,81.6,42.4,78.8,41.2 M65.6,55c-1.7,0.9-1.9-0.6-1.7-1.3c0.6-0.9,1.5-1.5,2.6-0.9c0.2,0.2,0.4,0.2,0.6,0.4
	C66.5,53.9,66.2,54.5,65.6,55z M72.1,54.3c-1.3,0-1.9,0-2.8-0.6c0.4-0.4,0.7-0.9,1.3-1.5c2.6-3.4,2.4-3.2,6.5-8.8
	c0.2-0.4,0.4-0.6,0.6-0.7c1.9,1.1,2.4,3,2.4,4.5C80.1,50,76.2,54.3,72.1,54.3z"/>
</svg>
