<?xml version="1.0" encoding="utf-8"?>
<!-- Generator: Adobe Illustrator 21.0.2, SVG Export Plug-In . SVG Version: 6.00 Build 0)  -->
<svg version="1.1" id="Layer_1" xmlns="http://www.w3.org/2000/svg" xmlns:xlink="http://www.w3.org/1999/xlink" x="0px" y="0px"
	 viewBox="0 0 214 60" style="enable-background:new 0 0 214 60;" xml:space="preserve">
<style type="text/css">
	.st0{fill:#615E5D;}
</style>
<path class="st0" d="M38.2,53.2L38,52.7c8.8-4.2,14.8-13,14.8-23.7c0-14.3-11.3-25.8-24.9-25.8C14.1,3.1,3,14.9,3,29
	c0,10.4,6,19.6,14.8,23.7l-0.3,0.5C8.8,49,2.5,39.9,2.5,29c0-14.6,11.3-26.3,25.4-26.3S53.3,14.3,53.3,29
	C53.3,39.7,47.3,49,38.2,53.2 M27.9,0C12.6,0,0,13,0,29c0,11.7,6.8,21.9,16.3,26.3l0.5-1.3C7.5,49.8,1.3,40.2,1.3,29
	c0-15.1,11.8-27.4,26.4-27.4S54.1,13.8,54.1,29c0,11.2-6.3,20.6-15.6,25l0.5,1.3c9.8-4.4,16.3-14.6,16.3-26.3C55.6,13,43.3,0,27.9,0
	z M30.9,14.6V13h-2.5v-2.6h-1.5V13h-2.5v1.6h2.5v5.7h1.5v-5.7H30.9z M28.9,20.9L28.9,20.9l1,11c0.3,0,0.3,0,0.5,0L28.9,20.9z
	 M26.4,15.1h-0.5l-9.3,7.3c0,0.3,0.3,0.3,0.3,0.5L26.4,15.1z M22.4,28.4l4.3-11v-0.8l-4.5,11C22.1,27.9,22.1,27.9,22.4,28.4
	C22.4,28.2,22.4,28.4,22.4,28.4z M14.1,25.3l1.5-1.3c0-0.3,0-0.5,0-0.5l-1.5,1.3C14.1,24.8,14.1,25,14.1,25.3z M33.7,27.4l-4.5-11
	v0.8l4.3,11c0,0,0,0,0-0.3C33.4,27.9,33.4,27.7,33.7,27.4z M13.6,20.3c0.3-0.3,0.3-0.5,0.5-0.8h0.3h0.3c0,0,0,0,0,0.3l10.6-4.7h-0.8
	l-11.6,5c0,0.3-0.3,0.5-0.3,0.8L13.6,20.3z M26.7,15.9v-0.5l-5.3,7.3l0.3,0.3L26.7,15.9z M18.1,27.7l2.3-3.1c0-0.3,0-0.5,0-0.8
	l-2.5,3.4C17.9,27.1,17.9,27.1,18.1,27.7C18.1,27.4,18.1,27.4,18.1,27.7z M27.2,20.9L27.2,20.9l-1.8,11c0.3,0,0.3,0,0.5,0L27.2,20.9
	z M15.3,30.5l-8,11c0.3,0.3,0.3,0.5,0.5,0.8l8.3-11.5h-0.3C15.6,30.5,15.3,30.5,15.3,30.5z M11.6,26.6l-7.3,5.7c0,0.3,0,0.5,0,0.8
	l7.5-6C11.6,26.9,11.6,26.9,11.6,26.6L11.6,26.6z M24.1,13.6L24.1,13.6l-12.8-2.1c0,0.3,0,0.3-0.3,0.5L24.1,13.6z M27.4,10.2l-0.8-6
	c-0.3,0-0.3,0-0.5,0l0.8,5.7L27.4,10.2L27.4,10.2z M29.2,4.2c-0.3,0-0.3,0-0.5,0l-0.8,6h0.3L29.2,4.2z M26.7,12l-5-6.8
	c-0.3,0-0.3,0-0.5,0l5.5,7.3V12z M26.7,10.4l-2.3-6c-0.3,0-0.3,0-0.5,0l2.8,6.5C26.7,11,26.7,10.4,26.7,10.4z M29.2,11.2l2.8-6.5
	c-0.3,0-0.3,0-0.5,0l-2.3,6C29.2,10.7,29.2,11.2,29.2,11.2z M29.2,12.5l5.5-7.3c-0.3,0-0.3,0-0.5,0l-5,6.8V12.5z M31.2,12.5L41,8.3
	c-0.3,0-0.3-0.3-0.5-0.3l-10.3,4.4H31.2z M29.7,12.5l7.8-6.3C37.2,6.3,37.2,6,37,6l-7.8,6.5H29.7z M4.5,23.5c0,0.3,0,0.5-0.3,0.8
	l4.8-2.1c-0.3-0.3-0.3-0.3-0.3-0.5L4.5,23.5z M14.1,15.9c0.3-0.3,0.3-0.3,0.5-0.5l-3.5,0.5c0,0.3,0,0.3,0,0.5L14.1,15.9z M16.1,15.7
	L16.1,15.7l8-1v-0.3l-7.8,1C16.3,15.4,16.3,15.4,16.1,15.7L16.1,15.7z M26.4,12.5l-8-6.5c-0.3,0-0.3,0.3-0.5,0.3l8,6.3H26.4z
	 M9.3,16.7c0-0.3,0-0.3,0-0.5H8.5c0,0.3,0,0.3,0,0.5H9.3z M13.6,48.8c0.3,0.3,0.5,0.3,0.8,0.5l4.3-11.2c-0.3,0-0.5-0.3-0.5-0.3
	L13.6,48.8z M25.1,12.5L15.1,8.1c-0.3,0-0.3,0.3-0.5,0.3l10.1,4.2H25.1z M41.5,49c0.3-0.3,0.5-0.3,0.8-0.5l-4.5-11
	c-0.3,0-0.3,0.3-0.5,0.3L41.5,49z M39.5,15.7L39.5,15.7l-8-1.3v0.3L39.5,15.7L39.5,15.7L39.5,15.7z M31.4,13.3L31.4,13.3L44.3,12
	c0-0.3,0-0.3-0.3-0.5L31.4,13.3z M44.8,16.4c0-0.3,0-0.3,0-0.5L41,15.4c0.3,0.3,0.3,0.3,0.5,0.5L44.8,16.4z M34.5,22.4l-5.5-7.3v0.5
	l5.3,7C34.5,22.7,34.5,22.7,34.5,22.4z M47.3,16.7c0-0.3,0-0.3,0-0.5h-0.8c0,0.3,0,0.3,0,0.5H47.3z M35.2,24.3l2.3,3.1
	c0,0,0,0,0-0.3c0,0,0-0.3,0.3-0.3l-2.5-3.4C35.2,23.7,35.2,24,35.2,24.3z M40,30.5l8.3,11.2c0.3-0.3,0.3-0.5,0.5-0.8l-8-10.7
	C40.5,30.5,40.2,30.5,40,30.5L40,30.5z M51.3,24.3c0-0.3,0-0.5-0.3-0.8l-4-1.8c0,0.3-0.3,0.3-0.3,0.5L51.3,24.3z M44,27.1l7.3,6
	c0-0.3,0-0.5,0-0.8L44,26.6v0.3C44,26.6,44,26.9,44,27.1z M29.7,15.1h-0.5l9.6,7.8c0-0.3,0-0.3,0.3-0.5L29.7,15.1z M41.7,25
	c0-0.3,0-0.5,0-0.8L40.2,23c0,0.3,0,0.5,0,0.5L41.7,25z M41.5,19.6C41.5,19.6,41.7,19.6,41.5,19.6c0.5,0.3,0.5,0.5,0.8,0.8l0.8,0.3
	c0-0.3-0.3-0.5-0.3-0.8l-11.6-4.7h-0.8L41,19.8l0,0C41.2,19.6,41.5,19.6,41.5,19.6z M27.7,43.8c0.5,0,0.8,0,1,0.3l0,0l-1,0.3l-1-0.3
	h-0.3C26.9,43.8,27.4,43.8,27.7,43.8z M25.1,39.1L25.1,39.1L25.1,39.1C25.1,39.1,24.9,39.1,25.1,39.1c-0.3,0-0.5,0-0.8,0
	c-0.3,0-0.3,0-0.3,0s0.3,0,0.3-0.3c-0.3,0-0.3,0-0.5,0c-0.3,0-0.3,0-0.5-0.3v0.3c0,0,0,0,0,0.3l0,0c0,0-0.3-0.3-0.5-0.5
	c0-0.3,0-0.5,0-0.5s0,0,0.3,0s0.3-0.3,0.8-0.3C24.6,37.8,24.9,38.6,25.1,39.1C24.9,38.9,24.9,39.1,25.1,39.1L25.1,39.1z M24.1,38.9
	C24.1,38.9,24.1,38.6,24.1,38.9l-0.5-0.5c-0.3,0-0.3,0-0.5,0.3c0.3,0,0.3,0,0.5,0C23.9,38.6,24.1,38.9,24.1,38.9z M30.7,39.1
	c0,0,0-0.3,0.3-0.5c0-0.3,0.5-1,1.3-1c0.5,0,0.5,0.3,0.8,0.3c0,0,0,0,0.3,0c0,0,0,0.3,0,0.5c0,0.5-0.5,0.5-0.5,0.5l0,0
	c0,0,0,0,0-0.3v-0.3c0,0-0.3,0.3-0.5,0.3c-0.3,0-0.3,0-0.5,0c0.3,0.3,0.3,0.3,0.3,0.3h-0.3c-0.3,0-0.5,0-0.5,0
	C30.9,38.9,30.9,38.9,30.7,39.1L30.7,39.1C30.2,39.4,30.2,39.4,30.7,39.1C30.4,39.1,30.7,39.1,30.7,39.1z M31.9,38.6
	c0.3,0,0.3,0,0.5,0C32.2,38.6,32.2,38.3,31.9,38.6C31.9,38.3,31.7,38.6,31.9,38.6c-0.3,0-0.3,0-0.5,0.3
	C31.7,38.9,31.7,38.6,31.9,38.6z M26.7,57.4c0,1,0,2.1,0.8,2.6c-0.8-0.3-1.3-0.3-2.5-0.8c-0.8-0.5-1.8-1.3-2-1.8c0,0,0,0.5,0,1
	c-2-1-3.5-2.9-3.5-5c0-3.1,2.8-5,2.8-7.3c1.3,2.3,0.3,3.7,2.5,5.5c0-0.3,0-0.8,0-1c1,1.3,2.3,1.8,2.3,4.2c0,1.3-0.5,1.8-0.5,3.1
	C26.2,57.7,26.4,57.4,26.7,57.4z M22.9,55.8c-0.5-0.3-0.5-0.8-0.5-0.8s0.3,0.3,0.5,0c-0.5-0.5-1.5-1.3-1.5-3.4
	C20.6,53,20.9,55.3,22.9,55.8z M30.2,38.3c0.8-1.3,1.5-1.6,2.5-1.3c-0.3-0.3-0.8-0.8-1.5-0.8c-0.3,0-0.8,0-1,0.3
	c0.3-0.3,0.5-0.5,1-0.8c0.5-0.3,0.8-0.3,1-0.3c0,0,0-0.3,0-0.8c0-0.8-0.3-1-0.3-1s-0.5-0.3-1-0.3c-0.5,0-0.8,0.3-1,0.3
	c0.3-0.3,0.5-0.5,0.8-0.5h-0.3c-0.3,0-0.8,0-1,0.3c-0.3,0-1,0.5-1,1.3c0-0.3,0-0.8,0.3-1l0,0c-0.3,0.3-0.8,0.3-1,0.3c0,0,0,0-0.3,0
	c0,0,0.3,0.3,0,0.5c0-0.5-0.5-0.5-0.8-0.5c0,0.3,0.3,0.5,0.3,0.8V35c0-1-1.3-1.6-1.8-1.6c0.3,0.3,0.5,0.5,0.5,0.5
	c-0.3-0.3-0.8-0.5-1.5-0.5c-0.8,0-1.3,0.8-1.3,1.6c0.3-0.3,0.5-0.5,1.3-0.8c-0.8,0.3-1,0.8-1,1.6c1,0,1.8,0.5,2,0.8
	c-1.3-0.5-2-0.3-2.5,0.5c1.3-0.3,2,0.3,2.5,1.3c0-0.3,0.3-0.5,0.3-0.8c0.5,0.3,0.8,1,1,1.6c0.3-0.3,0.3-0.5,0.3-0.5
	c0.3,0.3,0.8,1,1,2.1c0.3-1,0.8-1.8,1-2.1c0,0.3,0,0.3,0.3,0.5c0.3-0.8,0.8-1.3,1-1.6C30.2,37.8,30.2,38.1,30.2,38.3z M36.2,32.9
	l1.5-0.3l1.8-0.5c0,0,0,0.5,0,0.8c0,0.5-0.3,1-0.3,1.6c-0.3,0.8-0.8,1.3-1.3,1.8v0.5l0,0c-1.5,1-3.8,1.3-3.8,1.3
	c-0.5,0-0.8,0.3-0.8,0.8c0,0.5,0.3,1,0.3,1s-0.3,1-0.5,1.6c0,1,0,2.3-0.3,3.7c0.3,1,0,2.1,0.3,2.6c1,1.8,2.8,2.9,2.8,5.7
	c0,1.3-0.5,2.3-1.3,2.9c0.3-0.3,0.3-0.8,0-1c-0.3,1.6-1.3,2.3-2.5,2.9c0.5-0.3,0.8-1,0.5-1.3c-1,1.6-4.3,1.6-4.8,2.9
	c-0.3-0.3-0.3-0.8-0.3-1.3c0-1.3,0.8-2.3,1.3-3.1c0.5-0.5,1-0.8,1.5-1.3c0.3,0.3,0,0.8,0,1c0.5-0.5,1.3-1.6,1.5-2.6
	c0,0.3,0.3,0.5,0.3,0.8c0.3-0.5,0.5-1,0.5-1.3c0-1.6-0.8-2.3-0.8-3.9c0-0.3,0-0.5,0.3-0.8c-1.8,0.8-2.3,3.1-3.5,4.4
	c0-0.5-0.3-1-0.3-1c0,0.8-0.3,1.6-0.5,1.6c-0.8-1.8-2.8-2.1-3.5-4.2c0,0.3-0.3,0.5-0.3,0.8c-0.3-2.1-1.3-3.9-1.5-5.7
	c0-0.5,0-1,0-1.6c0-0.3-0.5-1.8-0.5-1.8s0.3-0.8,0.3-1c0-0.5,0-0.5-0.5-0.5c-1.3,0-3-0.8-3.8-1.6c0,0,0,0,0-0.3v-0.5
	c-1.3-1-1.8-2.3-1.8-3.4c0-0.5,0.3-0.8,0.3-0.8l2,0.5c0,0,2.5,0.3,3.3,0.5c0.5,0.3,0.5,0.5,1,0.3c0-0.5-0.3-0.5-0.5-0.8
	c-0.3,0-0.3-0.3-0.5-0.3c-1.5-1-4.3-1.8-5.3-2.3c-3-1.3-3.5-3.1-4-3.9c-0.3-0.8-1.3-2.6-1.3-2.6s-0.5-0.5-0.8-0.8
	c-0.8-0.8-1.5-1.6-1.8-2.9c-1-0.3-1.3-1.6-1.3-2.6c0-0.8,0.3-1.6,0.5-1.8l0,0c0,1.3,0.3,2.6,0.5,3.7c0.3,1,1,2.3,1.8,2.9
	c0-2.1-1-3.4-1-5.7c0-1,0-1.6,0.3-2.6c0.3-0.8,0.5-1.6,1.3-2.1l0,0c-0.5,1.3-0.5,2.6-0.5,3.7c0,1.8,0.5,2.9,1.3,2.9
	c1.5,0,4-3.4,4.5-4.2l0,0c0.3,0.8-0.3,1.6-0.3,1.6c-0.3,0.3-1.8,2.1-2.8,3.4c-0.5,0.8-1,1.8-1.3,2.9c-0.3,1.3,0,2.6,0.8,3.9
	c0-1.6,0.3-4.4,1.5-5.5l0,0c-0.3,1-0.3,1.8-0.3,2.6c0,1-0.3,2.3,0,3.4c0.3,1.8,1.5,2.9,3,3.4c-0.8-1.8-1-4.4-1-7l0,0
	c0.5,0.3,0.8,2.1,0.8,2.1c0.3,1,0.5,2.1,0.8,3.1c0.8,1.3,1.8,2.3,3.3,2.9c-0.5-2.3,0-5.2-0.3-7.6l0,0c0.3,0,0.5,0.5,0.5,0.8
	c0.3,0.5,0.3,1.6,0.3,2.1c0,1,0.3,2.1,0.3,2.9c0.5,1.8,1.3,2.9,2.3,3.9c1.3,0,2.8,0.3,3.5,0.5c1-0.3,2.3-0.5,3.5-0.5
	c1.3-0.8,2-2.1,2.3-3.9c0.3-0.8,0.3-1.8,0.3-2.9c0-0.8,0.3-1.6,0.3-2.1c0-0.3,0.3-0.5,0.5-0.8l0,0c-0.3,2.3,0.3,5.5-0.3,7.6
	c1.5-0.5,2.5-1.3,3.3-2.9c0.5-0.8,0.8-1.8,0.8-3.1c0-0.3,0.3-1.8,0.8-2.1l0,0c0,2.6-0.3,5.2-1,7c1.5-0.5,2.8-1.6,3-3.4
	c0.3-1,0-2.3,0-3.4c0-1-0.3-1.8-0.3-2.6l0,0c1.3,1,1.3,3.9,1.5,5.5c0.8-1.3,0.8-2.6,0.8-3.9c-0.3-1-0.8-2.1-1.3-2.9
	c-0.8-1.3-2.5-2.9-2.8-3.4c-0.3-0.3-0.5-0.8-0.3-1.6l0,0c0.5,0.8,2.8,4.2,4.5,4.2c0.8,0,1.3-1,1.3-2.9c0-1.3-0.3-2.3-0.5-3.7l0,0
	c0.5,0.3,1,1.3,1.3,2.1c0.3,0.8,0.3,1.6,0.3,2.6c0,2.1-1,3.7-1,5.7c0.8-0.5,1.5-1.8,1.8-2.9c0.3-1,0.5-2.3,0.5-3.7l0,0
	c0.3,0.3,0.5,1,0.5,1.8c0,1-0.3,2.3-0.5,3.4c-0.5,1.3-1,2.1-1.8,2.9c-0.3,0.3-0.8,0.8-0.8,0.8s-0.8,1.8-1.3,2.6
	c-0.3,0.8-1,2.6-4,3.9c-1,0.5-3.8,1.3-5.3,2.3c-0.3,0-0.5,0.3-0.5,0.3c-0.3,0.3-0.5,0.5-0.8,0.8C33.9,33.9,35,33.1,36.2,32.9z
	 M30.2,47.2c-0.8,0.3-1.3,0-2.3,0h-0.3c-1,0-1.5,0.3-2.3,0c0.3,0.5,0.5,1.3,1,1.6c0.3,0.3,1,0.3,1.5,0.3c0.5,0,1,0,1.5-0.3
	c0.3-0.3,0.5-0.5,0.5-0.8c-1.5,0.8-2.8-0.3-2.8-0.3s1,0.3,2.3,0C29.9,47.7,29.9,47.5,30.2,47.2z M33.2,35.7c0-0.3,0-0.5,0-0.5
	c0-0.8-0.5-2.3-2-2.3l0,0c0.3,0,0.8,0.3,1,0.5c-0.5,0-1-0.3-1.3-0.3c-1.3,0-2,0.5-2.8,0.5c-0.5,0-1.3-0.5-2-0.5c0.3,0,0.5,0,1.3,0.3
	c-0.5-0.3-1-0.5-1.5-0.5c-2.5,0-3.3,1.3-3.3,2.6c0,0.3,0,0.5,0,0.5c-0.8-0.3-1.3-1-1.8-1.3c-0.3-0.3-2-1-2-1l-1.5-0.3l-1.3-0.3
	l0.3,1c0,0,0,0,0,0.3c0.3,0.3,0.5,0.8,1,1.3c0.8,0.8,2.3,1.3,2.3,1.3s-1.3-0.8-1.8-1.3c-0.3-0.5-0.8-1.3-0.8-1.3l2,0.5
	c0,0,0.5,1,1.3,1.8c0.5,0.5,1.5,1,1.5,1s-0.8-0.5-1-0.5c0.3,0,0.8,0.3,1,0.3c0.3,0,0.3,0,0.3,0c0,0.3,0,0.5,0,0.5
	c0,0.3,0.3,0.5,0.3,0.8c0,0.5-0.3,1-0.3,1.3c0,0.3,0.3,0.5,0.3,1c0.3,0.5,0.3,1,0.3,1.8c0,1.8,1.3,2.9,1.3,2.9
	c-0.3-0.5-0.8-1.3-0.8-2.1c-0.3-0.8,0-1.8,0-2.3c0.5,0.5,1,0.5,1.5,0.8c0.3,0.3,0.5,0.8,0.5,1.3c0,0,0.3-0.5,0.3-0.8
	c0.3,0.5,0,1.3-0.3,2.3l0,0c0,0.3-0.3,0.8,0,1c0,0,0,0.3,0,0.5c0.3,0.5,1.5,0.3,1.8,0.3c0.3-0.3,0.3-0.8,0-1c0,0.3,0,0.5-0.5,0.3
	c-0.5,0-0.5-0.3-0.5-0.5c0-0.5,0.5-0.8,0.8-0.8l1.3,0.3l1.3-0.3c0.3,0,0.8,0.3,0.8,0.8c0,0.3,0,0.5-0.5,0.5c-0.5,0-0.5,0-0.5-0.3
	c-0.3,0.3-0.3,0.8,0,1c0.5,0.3,1.3,0.3,1.5-0.3c0.3-0.3,0.3-0.5,0.3-0.5c0-1.3-0.8-2.3-0.3-3.4c0,0.3,0.3,0.8,0.3,0.8
	c0-0.5,0.3-1.3,0.5-1.3c0.5-0.3,1-0.5,1.5-0.8c0,0.8,0,1.8,0,2.6c-0.3,0.8-0.5,1.6-0.8,1.8c0,0,1.3-1,1.3-2.6c0-0.8,0-1.3,0.3-2.1
	c0.3-0.3,0.3-0.8,0.3-1c0-0.5-0.3-0.8-0.3-1.3c0-0.3,0.3-0.8,0.3-0.8c0-0.3,0-0.3,0-0.5c0.5,0.3,0.8,0,1.3-0.3
	c-0.5,0-0.8-0.5-0.8-0.5s0.8-0.3,1.3-0.8s1.3-1.8,1.3-1.8l2-0.5c0,0-0.5,1-0.8,1.3c-0.5,0.5-1.8,1.3-1.8,1.3s1.5-0.5,2.3-1
	c0.5-0.3,0.8-1,1-1.3c0,0,0,0,0-0.3v-1l-1.8,0.5l-1,0.3c0,0-1,0.5-1.5,0.8C34.5,34.7,33.9,35.5,33.2,35.7z M22.6,33.1
	c0-0.3,0.5-0.5,0.8-0.5c-0.5-0.3-0.8-0.3-1-0.8c-0.3-0.3-0.8-1.6-0.8-1.6l-0.3-1c0,0,0,0.5,0,1c0,0.3,0.3,1,0.3,1s-1.3-0.3-2.3-0.8
	c-0.3-0.3-0.8-0.5-1-0.8c-0.5-0.5-1-1.3-1-1.3s0.3,0.5,0.5,1c0.3,0.3,0.8,1,0.8,1s-1.8-0.5-2.3-0.8c-0.5-0.3-1.8-1-1.8-1l1.8,1.3
	l4.5,1.6l1.8,1C22.1,32.3,22.6,33.1,22.6,33.1z M41.5,28.4c0,0-1.3,0.8-1.8,1c-0.5,0.3-2.3,0.8-2.3,0.8s0.5-0.8,0.8-1
	c0.3-0.5,0.5-1,0.5-1s-0.8,1-1,1.3c-0.3,0.3-0.8,0.5-1,0.8c-1.3,0.5-2.3,0.8-2.3,0.8s0.3-0.5,0.3-1c0-0.3,0-1,0-1l-0.5,1
	c0,0-0.5,1.3-0.8,1.6c-0.3,0.3-0.5,0.5-1,0.8c0.3,0,0.5,0.3,0.8,0.5c0-0.3,0.8-0.8,0.8-0.8l1.8-1l4.5-1.6L41.5,28.4z M90,18
	l-0.5-0.3l1-3.7l2,0.8L90,18z M96.1,15.1l-2-0.8L93,18l0.5,0.3L96.1,15.1z M95.8,37.6l1.3,0.3l-2,3.4l-3.8-1c0,0,0.3-2.3,0.3-2.6
	c0-0.3,0-0.8,0-0.8l-1,1.3l-1.8,3.1l-4.8-1l0.3-1.3c0,0,0-10.2,0-10.7c0-0.5-0.3-1.6-0.3-1.6l2.8-1c0,0,0,0-0.3-0.3
	c-1-0.5-1.5-1.3-1.8-1.6c-0.3-0.3-0.5-1-0.5-1l3.3-1.8l2-2.3l6.8,2.6c0,0-0.3,0.3-0.3,0.5c-0.3,0.3-0.3,0.8-0.3,0.8V37L95.8,37.6z
	 M91.5,34.7v-9.4l-3.3,1.6V37l1.8,0.5L91.5,34.7z M92.8,24l-4.5-1.3c0,0,0,0.3,0.3,0.5c0.3,0.5,0.8,0.8,1.3,1c0.5,0,0.8,0,1.3,0
	C91.8,24.3,92.8,24,92.8,24z M103.1,18.8l7.3,2.6c0,0-0.5,0.5-0.5,1.3s0,7.8,0,7.8v12l-2.5,0.8l-2.3,2.3c0,0-2.5-1.3-3.8-1.3
	c-1.5,0-1.5,0-2,0.3c-0.5,0.3-0.8,1.3-0.8,1.3l-1-0.3c0,0,0.8-1.6,1.8-2.6c0.8-0.8,1.5-1.6,2.3-1.8c0.8-0.3,1-0.3,1-0.3v-0.3
	l-4.3-0.8c0,0,0.3-1,0.5-2.1c0-1,0-7.6,0-7.6V24l-0.8-1.6l3-1.3L103.1,18.8z M106.1,35.5l-3,5.5l3,0.8V35.5z M106.6,24l-4-1.6V37
	l1.3,0.5l2.3-4.2v-6.8c0-0.5-0.3-1.6-0.3-1.6L106.6,24z M121.2,36.5l1.3,0.3l-2.5,4.7l-7.5-1.8l0.3-2.1c0,0,0-10.2,0-12
	c0-1.8-0.5-3.1-0.5-3.1l2.5-0.8l2.5-2.9L122,24l-0.5,0.8l-5,9.4v2.6l4,1L121.2,36.5z M116.9,32.3l2.8-5.5l-2.8-3.4V32.3z
	 M131.8,18.8h-1l-3,5.5v-2.9l0.5-1.3l-3.5-1.3c0,0-0.8,1-1,1.8c-0.5,0.8-1,1.6-1,1.6l1.8,0.5c0,0,0,10.4,0,13.6
	c0,3.1-0.5,3.7-0.5,3.7l5.8,1.6l2.8-4.4l-1.8-0.5l-0.3,1.3L128,37v-11c0,0,1-1.8,1.3-2.1s0.3-0.5,0.3-0.5s0.5,1.6,0.8,2.6
	c0.3,1,0.5,1.8,0.5,2.3c0,0.5-0.8,1.6-0.8,1.6l0.8,0.8c0,0,0.3-0.3,1-1c0.5-0.5,1-1.6,1.5-2.6s0-2.9,0-2.9L131.8,18.8z M155.4,23
	c0-1,0.8-2.6,0.8-2.6l-5-1.8l-3.3,6.5c0,0,0-1,0-2.3s0.5-2.3,0.5-2.3l-5-1.8l-3.3,6c0,0,0-1.6,0-2.6c0-0.8,0.5-2.1,0.5-2.1l-3.8-1.6
	l-2,3.1l1.8,0.8c0,0,0,13,0,14.6c0,1.8-0.5,2.9-0.5,2.9l4,1l1.8-3.4l-1.3-0.5v-11l2.3-4.2l1.8,0.8V24c0,0,0,9.7,0,12
	c0,2.6-0.5,3.1-0.5,3.1l4,1l1.8-3.4l-1.3-0.5V25.8l2.5-4.4l1.3,0.5c0,0,0,11.5,0,13.8c0,2.3-0.5,3.1-0.5,3.1l4.3,1.3l1.8-3.4
	l-1.5-0.5C155.4,37.6,155.4,25,155.4,23 M167,36.3l1.3,0.3l-2.5,4.7l-7.5-1.8l0.3-2.1c0,0,0-10.2,0-12c0-1.8-0.5-3.1-0.5-3.1l3-0.5
	l2.5-2.9l4.8,5.2l-0.5,0.8l-5,9.4v2.6l4,1L167,36.3z M162.7,32.3l2.8-5.5l-2.8-3.4V32.3z M174.3,21.9l0.8-1.6l-4-1.6l-2,3.7l1.8,0.8
	c0,0,0,8.6,0,12.5s-0.5,4.7-0.5,4.7l4.3,1l2-3.4l-1.8-0.5C174.3,37.3,174.3,21.9,174.3,21.9 M175.3,15.1l-2-0.8l-1,3.7l0.5,0.3
	L175.3,15.1z M187.6,15.4l-0.8-0.5c0,0,0,0-0.8,0.8c-0.8,0.5-1.5,0-1.5,0l-2.3-1.6l-2.3,2.3l-3,1l0.5,1.8v26.6h1.5c0,0,0-0.5,0.3-1
	s0.5-0.8,1-1c0.5-0.3,1-0.3,1-0.3v-17v-8.3c0,0,0.8,0.3,1.5,0.5c0.8,0.3,2.3-0.5,2.3-0.5L187.6,15.4z M189.4,14.9l-2.8,3.9l-2.5,2.9
	h1.5c0,0,0,12.5,0,14.6c0,2.3-0.5,3.4-0.5,3.4l4.3,1.3l2-3.4l-1.8-0.5V21.4h2.3l1.5-3.1h-3.8L189.4,14.9z M211.2,30.5
	c0,0,0.3-0.3,1-1c0.5-0.5,1-1.6,1.5-2.6c0.3-0.5,0.3-1,0.3-1.6c0-0.8,0-1.3,0-1.3l-1.5-5.7h-1.3l-2.8,5.2v-2.9l0.5-1.3l-3.5-1.3
	c0,0-0.8,1-1,1.8c-0.5,0.8-1,1.6-1,1.6l1.8,0.5c0,0,0,10.4,0,13.6s-0.5,3.7-0.5,3.7l5.8,1.6l2.8-4.4l-1.5-0.5l-0.3,1.3l-2.5-0.8v-11
	c0,0,1-1.8,1.3-2.1c0-0.3,0.3-0.5,0.3-0.5s0.5,1.6,0.8,2.6c0.3,1,0.5,1.8,0.5,2.3s-0.8,1.6-0.8,1.6L211.2,30.5z M202.2,36.3l1.3,0.5
	l-2.5,4.7l-7.5-1.8l0.3-2.3c0,0,0-10.2,0-12c0-1.8-0.5-3.1-0.5-3.1l2.8-0.8l2.5-2.9l4.8,5.2l-0.5,0.8l-5,9.4v2.6l4,1L202.2,36.3z
	 M197.7,32.1l2.8-5.5l-2.8-3.4V32.1z M82.7,15.1H70.9v-0.8h-1.3V23l1.5-4.2h0.3c0,0,3.3,0,3.5,0s0.8,0,1,0s2.8-0.5,2.8-0.5l0,0
	c0,0,0,0-1,0.8c-1,0.8-1.3,0.8-1.3,0.8l0.3,1v3.4h-3v-0.8h-1.5v7.3l1-3.4l0.3-0.5h3.3v7.3c0,0,0,6.5,0,7c0,0.3-0.3,0-0.3,0
	s-5.5-6.8-5.8-7.6c-0.3-0.5-0.3-0.8-0.3-0.8l0.3-0.8h-0.8c0,0,0,0-0.3,0.3c-0.3,0.5-1,1-1.3,3.1c0,0.3,0,0.8,0,1c0,1.8,1,2.6,1,2.6
	l5.3,6.8l3.8-2.9l3.3-1.3c-0.3-0.8-0.3-3.1-0.3-3.1V24.5c0-0.3,0-3.1,0-5.2s0-2.1,0.5-2.6l1-0.3L82.7,15.1L82.7,15.1z"/>
</svg>
