<?xml version="1.0" encoding="utf-8"?>
<!-- Generator: Adobe Illustrator 21.0.2, SVG Export Plug-In . SVG Version: 6.00 Build 0)  -->
<svg version="1.1" id="Layer_1" xmlns="http://www.w3.org/2000/svg" xmlns:xlink="http://www.w3.org/1999/xlink" x="0px" y="0px"
	 viewBox="0 0 130 170" style="enable-background:new 0 0 130 170;" xml:space="preserve">
<style type="text/css">
	.st0{fill:#615E5D;}
</style>
<path class="st0" d="M55.7,149h-3.1c-0.5,0-0.6,0.3-0.6,0.6v19.7c0,0.3,0.2,0.6,0.6,0.6h3.1c0.5,0,0.6-0.3,0.6-0.6v-19.7
	C56.4,149.1,56.1,149,55.7,149"/>
<path class="st0" d="M109.4,118.7H98.2c-0.3,0-0.6,0.1-0.6,0.6v3c0,0.4,0.3,0.6,0.6,0.6h3.4v16c0,0.4,0.3,0.6,0.6,0.6h3.1
	c0.5,0,0.6-0.3,0.6-0.6v-16h3.4c0.5,0,0.6-0.3,0.6-0.6v-3C110,118.9,109.5,118.7,109.4,118.7"/>
<path class="st0" d="M64.5,139v-7.7H69v7.7c0,0.4,0.3,0.6,0.6,0.6h3.1c0.5,0,0.6-0.3,0.6-0.6v-19.7c0-0.3-0.2-0.6-0.6-0.6h-3.1
	c-0.5,0-0.6,0.3-0.6,0.6v7.7h-4.4v-7.7c0-0.4-0.3-0.6-0.6-0.6h-3.1c-0.5,0-0.6,0.3-0.6,0.6V139c0,0.3,0.2,0.6,0.6,0.6h3.1
	C64.4,139.6,64.5,139.3,64.5,139"/>
<path class="st0" d="M11.9,118.7H9.3h-6H0.8c-0.5,0-0.8,0.1-0.8,0.7v19.4c0,0.3,0.2,0.6,0.6,0.6h3.1c0.5,0,0.6-0.3,0.6-0.6v-16h4.1
	v16c0,0.4,0.3,0.6,0.6,0.6h3.1c0.5,0,0.6-0.3,0.6-0.6v-19.4C12.7,118.9,12.4,118.7,11.9,118.7"/>
<path class="st0" d="M33,139v-19.4c0-0.6-0.3-0.7-0.8-0.7h-2.6h-0.9h-2.6c-3.1,0-4.7,1.5-4.7,4.6v6.2c0,1,0.2,4.4-0.6,5.9
	c-0.5,1-1.2,1.2-1.7,1.5c-0.3,0.1-0.5,0.4-0.3,1c0.2,0.3,0.6,1.3,0.8,1.6c0.2,0.3,0.5,0.6,0.9,0.4c0.8-0.1,2-0.4,2.9-1.3
	c1.1-1,2.3-2.1,2.3-8.6V124c0-1.3,0.9-1.3,1.8-1.3h1.2v-0.4V139c0,0.4,0.3,0.6,0.6,0.6h3.1C32.9,139.6,33,139.2,33,139"/>
<path class="st0" d="M75.9,149h-3.1c-0.5,0-0.6,0.3-0.6,0.6v7.7h-4.4v-7.7c0-0.4-0.3-0.6-0.6-0.6h-3.1c-0.5,0-0.6,0.3-0.6,0.6v19.7
	c0,0.3,0.2,0.6,0.6,0.6h3.1c0.5,0,0.6-0.3,0.6-0.6v-7.7h4.4v7.7c0,0.4,0.3,0.6,0.6,0.6h3.1c0.5,0,0.6-0.3,0.6-0.6v-19.7
	C76.5,149.2,76.3,149,75.9,149"/>
<path class="st0" d="M83.7,139.6h8.1c0.5,0,0.8-0.3,0.8-0.7v-3c0-0.4-0.2-0.6-0.6-0.6h-7v-3.9h4.7c0.5,0,0.8-0.1,0.8-0.7v-2.8
	c0-0.4-0.2-0.7-0.8-0.7H88h-1.8h-1.2v-4.4h6.3c0.5,0,0.6-0.1,0.6-0.6v-2.8c0-0.4-0.2-0.7-0.8-0.7h-7h-0.3h-2.4
	c-0.5,0-0.8,0.3-0.8,0.7v19.6c0,0.3,0.2,0.7,0.6,0.7H83.7L83.7,139.6z"/>
<path class="st0" d="M44.5,132.2l1.7-6.4l0.3-1.5l0.3,1.5l1.7,6.4H44.5z M54.5,138.7l-5.7-19.4c-0.2-0.4-0.5-0.7-0.9-0.7h-0.2h-2.4
	h-0.2c-0.5,0-0.8,0.1-0.9,0.7l-5.7,19.4c-0.2,0.4,0.2,0.9,0.5,0.9h2.9c0.6,0,0.8-0.1,0.9-0.6l0.8-2.7h6h0.2l0.8,2.7
	c0.2,0.4,0.3,0.6,0.9,0.6h2.9C54.3,139.6,54.6,139.2,54.5,138.7"/>
<path class="st0" d="M119.2,132.2l1.7-6.4l0.3-1.5l0.3,1.5l1.7,6.4H119.2z M129.1,138.7l-5.7-19.4c-0.2-0.4-0.5-0.7-0.9-0.7h-0.2
	h-2.4h-0.2c-0.5,0-0.8,0.1-0.9,0.7l-5.7,19.4c-0.2,0.4,0.2,0.9,0.5,0.9h2.9c0.6,0,0.8-0.1,0.9-0.6l0.8-2.7h6h0.2l0.8,2.7
	c0.2,0.4,0.3,0.6,0.9,0.6h2.9C128.9,139.6,129.3,139.2,129.1,138.7"/>
<path class="st0" d="M92.7,163.3c0,1.8-1.1,2.8-2.8,2.8c-1.7,0-2.8-1-2.8-2.8c0-1.5,0-6.8,0-8c0-1.8,1.2-2.7,2.8-2.7
	c1.5,0,2.8,1,2.8,2.8C92.7,157,92.7,162,92.7,163.3 M89.9,148.7c-4.1,0-7.2,2.2-7.2,6.8c0,3,0,3.4,0,7.4c0,4.7,2.9,7.1,7.2,7.1
	c4.3,0,7.2-2.5,7.2-7.1c0-3.3,0-3.3,0-7.1C97.1,151.2,93.9,148.7,89.9,148.7"/>
<path class="st0" d="M45.1,163.6c-0.8-3-2.6-4.3-4.4-4.6h0.2c2.3-0.6,3.1-2.2,3.7-4.3c0.5-1.6,1.5-5,1.5-5c0.2-0.4,0-0.9-0.6-0.9
	h-2.9c-0.5,0-0.6,0.1-0.8,0.6c0,0-1.2,4.2-1.5,5.3c-0.5,1.5-1.2,2.1-2.3,2.1h-1.2v-7.3c0-0.4-0.3-0.6-0.6-0.6H33
	c-0.5,0-0.6,0.3-0.6,0.6v19.7c0,0.3,0.2,0.6,0.6,0.6h3.1c0.5,0,0.6-0.3,0.6-0.6v-7.9h1.1c1.1,0,2.9,0.7,3.2,2.7
	c0.3,1.5,1.2,5.2,1.2,5.2c0.2,0.4,0.3,0.6,0.9,0.6H46c0.3,0,0.6-0.3,0.5-0.7C46.5,169.1,45.6,165.3,45.1,163.6"/>
<path class="st0" d="M104.3,5.8c4.6-6.2,13.3-7.6,19.7-3.3c6.4,4.4,7.8,12.9,3.4,19.1c-4.6,6.2-13.3,7.6-19.7,3.3
	C101.3,20.6,99.7,12,104.3,5.8"/>
<path class="st0" d="M24.5,58.2c0-21.6,18.2-39.1,40.5-39.1s40.4,17.6,40.2,39.3c0,21.6-18.2,39.1-40.5,39.1
	C42.4,97.5,24.3,79.9,24.5,58.2"/>
</svg>
