<?xml version="1.0" encoding="utf-8"?>
<!-- Generator: Adobe Illustrator 21.0.2, SVG Export Plug-In . SVG Version: 6.00 Build 0)  -->
<svg version="1.1" id="Layer_1" xmlns="http://www.w3.org/2000/svg" xmlns:xlink="http://www.w3.org/1999/xlink" x="0px" y="0px"
	 viewBox="0 0 122 140" style="enable-background:new 0 0 122 140;" xml:space="preserve">
<style type="text/css">
	.st0{fill:#615E5D;}
</style>
<path class="st0" d="M25.8,65.4L5.4,46.1l21.4-17l17.1,4.3L46,48.1L25.8,65.4z M6.9,46.3l18.8,17.9L44.7,48l-2-13.4l-15.9-4
	L6.9,46.3z"/>
<path class="st0" d="M37,56l-21.6-0.1V38.6L27,32.7l9.9,5.7L37,56z M16.3,54.7L36,54.9l-0.1-16L27,33.7L16.5,39v15.7H16.3z"/>
<polygon class="st0" points="49.7,45.9 49.7,55.3 55.3,55.3 55.3,56.4 48.6,56.4 48.6,45.9 "/>
<path class="st0" d="M57.6,50.9c0-0.4,0.1-0.7,0.3-1c0.1-0.3,0.4-0.4,0.7-0.7c0.3-0.1,0.6-0.3,1-0.4c0.3-0.1,0.7-0.1,1-0.1
	c0.4,0,0.7,0,1.1,0.1c0.4,0.1,0.7,0.1,1,0.4c0.3,0.1,0.6,0.4,0.7,0.7s0.3,0.6,0.3,1v4c0,0.1,0,0.3,0.1,0.4c0.1,0.1,0.3,0.1,0.4,0.1
	h0.1h0.1v0.9c-0.1,0-0.3,0.1-0.4,0.1c-0.1,0-0.3,0-0.4,0c-0.3,0-0.6-0.1-0.9-0.4s-0.3-0.6-0.4-1.1c-0.3,0.3-0.4,0.6-0.7,0.7
	c-0.3,0.1-0.4,0.3-0.7,0.4c-0.3,0.1-0.4,0.1-0.7,0.1c-0.3,0-0.4,0-0.7,0s-0.6,0-0.9-0.1c-0.3-0.1-0.6-0.3-0.7-0.4
	c-0.1-0.1-0.4-0.4-0.4-0.7c-0.1-0.3-0.1-0.6-0.1-0.9c0-0.4,0.1-0.7,0.4-1c0.3-0.3,0.6-0.6,1-0.7c0.4-0.1,0.9-0.3,1.3-0.4
	c0.4-0.1,0.9-0.3,1.3-0.3c0.4-0.1,0.7-0.3,1-0.4c0.3-0.1,0.4-0.3,0.4-0.6c0-0.4-0.1-0.7-0.4-1c-0.3-0.1-0.9-0.3-1.4-0.3
	c-0.4,0-0.9,0.1-1.1,0.3c-0.3,0.1-0.6,0.4-0.6,0.9h-1.7L57.6,50.9L57.6,50.9z M62.5,52.1c-0.1,0.1-0.4,0.3-0.6,0.4
	c-0.3,0.1-0.6,0.1-0.9,0.3c-0.3,0.1-0.6,0.1-0.9,0.3c-0.3,0.1-0.6,0.1-0.9,0.3c-0.3,0.1-0.4,0.3-0.6,0.4c-0.1,0.1-0.3,0.4-0.3,0.6
	c0,0.1,0,0.4,0.1,0.6c0.1,0.1,0.1,0.3,0.3,0.4c0.1,0.1,0.3,0.1,0.4,0.1c0.1,0,0.3,0,0.4,0c0.4,0,1-0.1,1.4-0.4
	c0.4-0.3,0.9-0.7,1.1-1.3v-1.7H62.5z"/>
<path class="st0" d="M66.7,48.7h1.1v1.1c0.4-0.4,0.9-0.9,1.3-1c0.4-0.1,1-0.3,1.4-0.3c0.7,0,1.3,0.1,1.7,0.6c0.4,0.4,0.6,1,0.6,1.7
	v5.4h-1.1V51c0-0.6-0.1-0.9-0.4-1.1c-0.3-0.1-0.6-0.3-1-0.3c-0.3,0-0.7,0-1,0.1c-0.3,0.1-0.6,0.3-0.9,0.4c-0.3,0.1-0.4,0.4-0.6,0.7
	c-0.1,0.3-0.1,0.6-0.1,0.9v4.6h-1.1v-7.6L66.7,48.7L66.7,48.7z"/>
<path class="st0" d="M76.8,46.6v2.3H78v1h-1.1v4.9c0,0.3,0.1,0.6,0.3,0.7c0.1,0.1,0.4,0.1,0.6,0.1s0.3,0,0.6,0v0.9
	c-0.3,0.1-0.6,0.1-1,0.1c-0.1,0-0.4,0-0.6-0.1c-0.1,0-0.3-0.1-0.6-0.3c-0.1-0.1-0.3-0.3-0.3-0.4c-0.1-0.1-0.1-0.4-0.1-0.7v-5.3h-1.3
	v-1h1.1v-2.3L76.8,46.6L76.8,46.6z"/>
<path class="st0" d="M81.7,47h-1.1v-1.3h1.1V47z M81.7,56.4h-1.1v-7.6h1.1V56.4z"/>
<path class="st0" d="M90.9,56.6c0,0.6-0.1,1-0.3,1.4c-0.1,0.4-0.4,0.7-0.7,1c-0.3,0.3-0.7,0.4-1,0.6c-0.4,0.1-0.9,0.1-1.3,0.1
	c-0.7,0-1.4-0.1-1.9-0.6c-0.6-0.4-1-1-1.3-1.7h1.1c0.1,0.4,0.4,0.9,0.9,1c0.3,0.1,0.7,0.3,1.1,0.3c0.3,0,0.6,0,0.9-0.1
	c0.3-0.1,0.4-0.3,0.7-0.4c0.1-0.1,0.3-0.4,0.4-0.7c0.1-0.3,0.1-0.6,0.1-0.9v-1.3c-0.3,0.4-0.6,0.7-1,1c-0.4,0.1-0.7,0.3-1.1,0.3
	c-0.6,0-1-0.1-1.4-0.3c-0.4-0.1-0.7-0.4-1.1-0.9c-0.3-0.4-0.6-0.7-0.7-1.3c-0.1-0.4-0.3-1-0.3-1.6c0-0.6,0.1-1,0.3-1.6
	c0.1-0.4,0.4-0.9,0.7-1.3c0.3-0.4,0.7-0.6,1-0.9c0.4-0.1,0.9-0.3,1.4-0.3c0.3,0,0.7,0.1,1.1,0.3c0.4,0.1,0.9,0.4,1.1,1v-1.1h1.1
	L90.9,56.6L90.9,56.6z M89.6,52.4c0-0.4,0-0.7-0.1-1.1c-0.1-0.3-0.3-0.7-0.4-0.9c-0.1-0.3-0.4-0.4-0.7-0.6c-0.3-0.1-0.6-0.3-0.9-0.3
	c-0.3,0-0.7,0.1-1,0.3c-0.3,0.1-0.6,0.4-0.7,0.6c-0.1,0.3-0.4,0.6-0.4,1c-0.1,0.3-0.1,0.7-0.1,1.1c0,0.4,0,0.9,0.1,1.1
	c0.1,0.4,0.3,0.7,0.4,1c0.1,0.3,0.4,0.4,0.7,0.7c0.3,0.1,0.6,0.3,1,0.3c0.3,0,0.6-0.1,0.9-0.3c0.3-0.1,0.4-0.4,0.7-0.6
	c0.1-0.3,0.3-0.6,0.4-1C89.6,53.4,89.6,53,89.6,52.4L89.6,52.4z"/>
<path class="st0" d="M92.9,52.6c0-0.6,0.1-1,0.3-1.6c0.1-0.4,0.4-0.9,0.7-1.3c0.3-0.4,0.7-0.6,1.1-0.9c0.4-0.1,1-0.3,1.6-0.3
	s1,0.1,1.6,0.3c0.4,0.1,0.9,0.4,1.1,0.9c0.3,0.3,0.6,0.7,0.7,1.3c0.1,0.4,0.3,1,0.3,1.6c0,0.6-0.1,1-0.3,1.6
	c-0.1,0.4-0.4,0.9-0.7,1.3c-0.3,0.4-0.7,0.6-1.1,0.9c-0.4,0.1-1,0.3-1.6,0.3s-1-0.1-1.6-0.3c-0.4-0.1-0.9-0.4-1.1-0.9
	c-0.3-0.4-0.6-0.7-0.7-1.3C93,53.6,92.9,53.1,92.9,52.6 M94,52.6c0,0.4,0,0.9,0.1,1.1c0.1,0.4,0.3,0.7,0.4,1
	c0.1,0.3,0.4,0.4,0.7,0.6c0.3,0.1,0.6,0.3,1,0.3c0.4,0,0.7-0.1,1-0.3c0.3-0.1,0.6-0.4,0.7-0.6c0.1-0.3,0.4-0.6,0.4-1
	c0.1-0.3,0.1-0.7,0.1-1.1c0-0.4,0-0.9-0.1-1.1c-0.1-0.4-0.3-0.7-0.4-1c-0.1-0.3-0.4-0.4-0.7-0.6c-0.3-0.1-0.6-0.3-1-0.3
	c-0.4,0-0.7,0.1-1,0.3c-0.3,0.1-0.6,0.4-0.7,0.6c-0.1,0.3-0.4,0.6-0.4,1C94.2,51.9,94,52.1,94,52.6"/>
<path class="st0" d="M102.1,48.7h1.1v1.1c0.4-0.4,0.9-0.9,1.3-1c0.4-0.1,1-0.3,1.4-0.3c0.7,0,1.3,0.1,1.7,0.6c0.4,0.4,0.6,1,0.6,1.7
	v5.4h-1.1V51c0-0.6-0.1-0.9-0.4-1.1c-0.3-0.1-0.6-0.3-1-0.3c-0.3,0-0.7,0-1,0.1c-0.3,0.1-0.6,0.3-0.9,0.4c-0.3,0.1-0.4,0.4-0.6,0.7
	c-0.1,0.3-0.1,0.6-0.1,0.9v4.6h-1.1v-7.6L102.1,48.7L102.1,48.7z"/>
<path class="st0" d="M111.7,52.7c0,0.4,0.1,0.7,0.1,1c0.1,0.3,0.3,0.6,0.6,0.9c0.1,0.3,0.4,0.4,0.7,0.6c0.3,0.1,0.6,0.3,0.9,0.3
	c1.1,0,1.9-0.6,2.3-1.6h1c-0.1,0.4-0.3,0.7-0.4,1c-0.1,0.3-0.4,0.6-0.7,0.9c-0.3,0.3-0.6,0.4-1,0.4c-0.4,0.1-0.7,0.1-1.1,0.1
	c-0.6,0-1-0.1-1.4-0.3c-0.4-0.3-0.9-0.6-1.1-0.9c-0.3-0.4-0.6-0.9-0.7-1.3c-0.1-0.4-0.3-1-0.3-1.6c0-0.6,0.1-1,0.3-1.4
	c0.1-0.4,0.4-0.9,0.7-1.3c0.3-0.3,0.7-0.6,1.1-0.9c0.4-0.1,1-0.3,1.4-0.3c0.6,0,1,0.1,1.4,0.3c0.4,0.1,0.9,0.4,1.1,0.7
	c0.3,0.3,0.6,0.7,0.7,1.1c0.1,0.4,0.3,1,0.3,1.4v0.4h-5.9V52.7z M116.4,51.9c0-0.3,0-0.6-0.1-0.9c-0.1-0.3-0.3-0.6-0.4-0.7
	c-0.1-0.1-0.4-0.4-0.7-0.4c-0.3-0.1-0.6-0.1-1-0.1c-0.3,0-0.6,0-0.9,0.1c-0.3,0.1-0.6,0.3-0.7,0.6c-0.1,0.1-0.4,0.4-0.4,0.7
	c-0.1,0.3-0.1,0.6-0.1,0.9L116.4,51.9L116.4,51.9z"/>
<path class="st0" d="M60.9,140l-0.4-0.1L0,104.9l0.1-70l0.4-0.1L61.2,0L122,35.1v0.4l-0.1,69.6L60.9,140z M1.7,104l59.4,34.3
	l59.5-34l0.1-68.3L61.4,1.7l-59.5,34L1.7,104z"/>
<path class="st0" d="M48.7,67v-4.6h1.6c0.3,0,0.6,0,0.9,0s0.4,0.1,0.7,0.3c0.3,0.1,0.4,0.4,0.6,0.7c0.1,0.3,0.1,0.7,0.1,1.1
	c0,0.3,0,0.7-0.1,0.9c-0.1,0.3-0.1,0.4-0.3,0.7c-0.1,0.1-0.3,0.3-0.4,0.4c-0.1,0.1-0.3,0.1-0.6,0.3c-0.1,0-0.4,0.1-0.7,0.1L48.7,67
	L48.7,67z M49.5,66.4h1c0.3,0,0.6,0,0.7-0.1c0.1,0,0.3-0.1,0.4-0.3c0.1-0.1,0.3-0.3,0.3-0.6c0.1-0.3,0.1-0.6,0.1-0.9
	c0-0.4-0.1-0.9-0.3-1.1c-0.1-0.3-0.3-0.4-0.6-0.6c-0.1,0-0.4-0.1-0.9-0.1h-1v3.7H49.5z"/>
<polygon class="st0" points="55.6,67 55.6,62.4 58.9,62.4 58.9,63 56.2,63 56.2,64.4 58.8,64.4 58.8,64.9 56.2,64.9 56.2,66.4 
	59.1,66.4 59.1,67 "/>
<path class="st0" d="M61.6,65.6h0.6c0,0.3,0.1,0.4,0.1,0.6c0.1,0.1,0.3,0.3,0.4,0.4c0.1,0.1,0.4,0.1,0.7,0.1c0.3,0,0.4,0,0.6-0.1
	c0.1,0,0.3-0.1,0.4-0.3c0.1-0.1,0.1-0.3,0.1-0.4c0-0.1,0-0.3-0.1-0.4s-0.3-0.1-0.4-0.3c-0.1,0-0.4-0.1-0.9-0.3
	c-0.4-0.1-0.7-0.1-0.9-0.3c-0.3-0.1-0.4-0.3-0.4-0.4c-0.1-0.1-0.1-0.4-0.1-0.6c0-0.3,0-0.4,0.1-0.7c0.1-0.1,0.3-0.3,0.6-0.4
	c0.3-0.1,0.6-0.1,0.9-0.1s0.6,0,0.9,0.1c0.3,0.1,0.4,0.3,0.6,0.4c0.1,0.1,0.3,0.4,0.3,0.7h-0.6c0-0.3-0.1-0.6-0.3-0.7
	s-0.4-0.3-0.9-0.3c-0.4,0-0.6,0-0.9,0.1c-0.1,0.1-0.3,0.3-0.3,0.4c0,0.1,0,0.3,0.1,0.4c0.1,0.1,0.4,0.3,0.9,0.3
	c0.4,0.1,0.9,0.1,1,0.3c0.3,0.1,0.4,0.3,0.6,0.4c0.1,0.1,0.1,0.4,0.1,0.7s0,0.4-0.1,0.7c-0.1,0.3-0.3,0.4-0.6,0.6
	c-0.3,0.1-0.6,0.1-0.9,0.1c-0.4,0-0.7,0-1-0.1s-0.6-0.3-0.7-0.6C61.8,66.1,61.6,65.9,61.6,65.6"/>
<rect x="68.4" y="62.4" class="st0" width="0.6" height="4.6"/>
<path class="st0" d="M74.3,65.1v-0.6h2v1.7c-0.3,0.3-0.6,0.4-0.9,0.6c-0.3,0.1-0.6,0.1-1,0.1c-0.4,0-0.9-0.1-1.3-0.3
	c-0.4-0.1-0.7-0.4-0.9-0.9c-0.1-0.4-0.3-0.7-0.3-1.3c0-0.4,0.1-0.9,0.3-1.3c0.1-0.4,0.4-0.7,0.9-0.9c0.3-0.1,0.7-0.3,1.1-0.3
	c0.3,0,0.6,0,0.9,0.1c0.3,0.1,0.4,0.3,0.6,0.4c0.1,0.1,0.3,0.4,0.3,0.7l-0.6,0.1c0-0.3-0.1-0.4-0.3-0.6c-0.1-0.1-0.3-0.3-0.4-0.3
	c-0.1-0.1-0.4-0.1-0.6-0.1c-0.3,0-0.6,0-0.7,0.1C73.3,62.9,73,62.9,73,63c-0.1,0.1-0.3,0.3-0.3,0.4c-0.1,0.3-0.1,0.6-0.1,0.9
	c0,0.4,0,0.7,0.1,1c0.1,0.3,0.3,0.4,0.6,0.6c0.3,0.1,0.6,0.1,0.9,0.1c0.3,0,0.6,0,0.7-0.1c0.3-0.1,0.4-0.1,0.6-0.3v-0.9h-1.1V65.1z"
	/>
<polygon class="st0" points="79.3,67 79.3,62.4 79.9,62.4 82.3,66 82.3,62.4 82.9,62.4 82.9,67 82.3,67 79.9,63.4 79.9,67 "/>
<path class="st0" d="M85.7,65.6h0.6c0,0.3,0.1,0.4,0.1,0.6c0.1,0.1,0.3,0.3,0.4,0.4c0.1,0.1,0.4,0.1,0.7,0.1c0.3,0,0.4,0,0.6-0.1
	c0.1,0,0.3-0.1,0.4-0.3c0.1-0.1,0.1-0.3,0.1-0.4c0-0.1,0-0.3-0.1-0.4s-0.3-0.1-0.4-0.3c-0.1,0-0.4-0.1-0.9-0.3
	c-0.4-0.1-0.7-0.1-0.9-0.3c-0.3-0.1-0.4-0.3-0.4-0.4c-0.1-0.1-0.1-0.4-0.1-0.6c0-0.3,0-0.4,0.1-0.7c0.1-0.1,0.3-0.3,0.6-0.4
	c0.3-0.1,0.6-0.1,0.9-0.1c0.3,0,0.6,0,0.9,0.1c0.3,0.1,0.4,0.3,0.6,0.4c0.1,0.1,0.1,0.4,0.3,0.7h-0.6c0-0.3-0.1-0.6-0.3-0.7
	c-0.1-0.1-0.4-0.3-0.9-0.3c-0.4,0-0.6,0-0.9,0.1c-0.1,0.1-0.3,0.3-0.3,0.4c0,0.1,0,0.3,0.1,0.4c0.1,0.1,0.4,0.3,0.9,0.3
	c0.4,0.1,0.9,0.1,1,0.3c0.3,0.1,0.4,0.3,0.6,0.4C89,64.7,89,65,89,65.3s0,0.4-0.1,0.7c-0.1,0.3-0.3,0.4-0.6,0.6
	c-0.3,0.1-0.6,0.1-0.9,0.1c-0.4,0-0.7,0-1-0.1c-0.3-0.1-0.6-0.3-0.7-0.6C85.9,66.1,85.7,65.9,85.7,65.6"/>
<rect x="92.9" y="65.9" class="st0" width="1" height="0.9"/>
<path class="st0" d="M24.4,91.4l2.4-6.3h0.9l2.6,6.3h-1l-0.7-1.9h-2.6l-0.7,1.9H24.4z M26.2,88.7h2.2L27.7,87
	c-0.1-0.6-0.3-1-0.4-1.3c-0.1,0.4-0.1,0.9-0.3,1.1L26.2,88.7z"/>
<path class="st0" d="M31.7,91.4v-4.6h0.7v0.7c0.1-0.3,0.3-0.6,0.4-0.6c0.1-0.1,0.3-0.1,0.4-0.1c0.3,0,0.6,0.1,0.9,0.3l-0.3,0.7
	c-0.1-0.1-0.4-0.1-0.6-0.1s-0.3,0-0.4,0.1c-0.1,0.1-0.3,0.3-0.3,0.4c-0.1,0.3-0.1,0.6-0.1,0.9v2.4h-0.7L31.7,91.4L31.7,91.4z"/>
<path class="st0" d="M37.1,90.7l0.1,0.7c-0.3,0-0.4,0-0.6,0c-0.3,0-0.4,0-0.7-0.1c-0.1-0.1-0.3-0.1-0.3-0.3c0-0.1-0.1-0.4-0.1-0.9
	v-2.6H35V87h0.6v-1.1l0.7-0.4V87H37v0.6h-0.7v2.7c0,0.3,0,0.4,0,0.4s0,0.1,0.1,0.1c0,0,0.1,0,0.3,0C36.8,90.7,37,90.7,37.1,90.7"/>
<path class="st0" d="M38.7,85h0.7v0.9h-0.7V85z M38.7,86.9h0.7v4.6h-0.7V86.9z"/>
<path class="st0" d="M41.1,90l0.7-0.1c0,0.3,0.1,0.6,0.4,0.7c0.1,0.1,0.4,0.3,0.9,0.3c0.3,0,0.6-0.1,0.9-0.3
	c0.1-0.1,0.3-0.3,0.3-0.6c0-0.1-0.1-0.3-0.3-0.4c-0.1,0-0.4-0.1-0.9-0.3c-0.6-0.1-1-0.3-1.1-0.4c-0.3-0.1-0.4-0.3-0.4-0.4
	c-0.1-0.1-0.1-0.4-0.1-0.6c0-0.1,0-0.4,0.1-0.6c0.1-0.1,0.3-0.3,0.4-0.4c0.1-0.1,0.3-0.1,0.4-0.3c0.1,0,0.4-0.1,0.7-0.1
	c0.4,0,0.7,0,1,0.1c0.3,0.1,0.4,0.3,0.6,0.4c0.1,0.1,0.3,0.4,0.3,0.7l-0.7,0.1c0-0.3-0.1-0.4-0.3-0.6c-0.1-0.1-0.4-0.1-0.7-0.1
	s-0.6,0-0.7,0.1c-0.1,0.1-0.3,0.3-0.3,0.4c0,0.1,0,0.1,0.1,0.3c0,0.1,0.1,0.1,0.3,0.1c0.1,0,0.3,0.1,0.7,0.1c0.6,0.1,1,0.3,1.1,0.4
	c0.3,0.1,0.4,0.3,0.6,0.4c0.1,0.1,0.1,0.4,0.1,0.7s-0.1,0.6-0.3,0.7c-0.1,0.3-0.4,0.4-0.7,0.6c-0.3,0.1-0.6,0.1-1,0.1
	c-0.6,0-1-0.1-1.4-0.4C41.4,90.9,41.1,90.4,41.1,90"/>
<path class="st0" d="M49.6,90.9c-0.3,0.3-0.6,0.4-0.9,0.6c-0.3,0.1-0.6,0.1-0.9,0.1c-0.6,0-0.9-0.1-1.1-0.4c-0.3-0.3-0.4-0.6-0.4-1
	c0-0.3,0-0.4,0.1-0.6c0.1-0.1,0.3-0.3,0.4-0.4c0.1-0.1,0.3-0.1,0.6-0.3c0.1,0,0.4-0.1,0.7-0.1c0.6-0.1,1.1-0.1,1.4-0.3
	c0-0.1,0-0.1,0-0.1c0-0.3-0.1-0.6-0.3-0.7c-0.1-0.1-0.4-0.3-0.9-0.3c-0.4,0-0.6,0-0.9,0.1c-0.1,0.1-0.3,0.3-0.4,0.7L46.4,88
	c0-0.3,0.1-0.6,0.3-0.7c0.1-0.1,0.4-0.3,0.7-0.4s0.7-0.1,1-0.1c0.4,0,0.7,0,1,0.1s0.4,0.1,0.6,0.3c0.1,0.1,0.1,0.3,0.3,0.6
	c0,0.1,0,0.4,0,0.7v1c0,0.7,0,1.1,0,1.4c0,0.1,0.1,0.4,0.1,0.6h-0.9C49.7,91.1,49.6,91,49.6,90.9 M49.6,89.1
	c-0.3,0.1-0.7,0.1-1.3,0.3c-0.3,0-0.6,0.1-0.7,0.1c-0.1,0-0.3,0.1-0.3,0.3c-0.1,0.1-0.1,0.3-0.1,0.4c0,0.1,0.1,0.4,0.3,0.6
	c0.1,0.1,0.4,0.1,0.7,0.1s0.6,0,0.9-0.1c0.3-0.1,0.4-0.3,0.6-0.6c0.1-0.1,0.1-0.4,0.1-0.7v-0.4H49.6z"/>
<path class="st0" d="M52.3,91.4v-4.6H53v0.7c0.3-0.6,0.9-0.7,1.4-0.7c0.3,0,0.6,0,0.7,0.1c0.3,0.1,0.4,0.3,0.6,0.4
	c0.1,0.1,0.1,0.3,0.3,0.6c0,0.1,0,0.4,0,0.7v2.9h-0.7v-2.7c0-0.3,0-0.6-0.1-0.7c0-0.1-0.1-0.3-0.3-0.4c-0.1-0.1-0.3-0.1-0.6-0.1
	c-0.3,0-0.6,0.1-0.9,0.3C53.2,88,53,88.4,53,89v2.4H52.3z"/>
<path class="st0" d="M61.4,91.4V85h2.2c0.4,0,0.9,0,1.1,0.1c0.4,0.1,0.7,0.3,0.9,0.4c0.3,0.3,0.6,0.6,0.7,1.1c0.1,0.4,0.3,1,0.3,1.4
	s0,0.9-0.1,1.3c-0.1,0.4-0.3,0.7-0.4,0.9c-0.1,0.3-0.4,0.4-0.6,0.6c-0.1,0.1-0.4,0.3-0.7,0.3c-0.3,0.1-0.6,0.1-1,0.1L61.4,91.4
	L61.4,91.4z M62.2,90.6h1.3c0.4,0,0.7,0,1-0.1c0.3-0.1,0.4-0.1,0.6-0.3c0.1-0.1,0.3-0.4,0.4-0.9c0.1-0.3,0.1-0.7,0.1-1.3
	c0-0.7-0.1-1.1-0.3-1.6c-0.3-0.3-0.4-0.6-0.9-0.7c-0.3-0.1-0.6-0.1-1.1-0.1h-1.3v5L62.2,90.6L62.2,90.6z"/>
<path class="st0" d="M71.7,89.9l0.9,0.1c-0.1,0.4-0.4,0.9-0.7,1.1c-0.3,0.3-0.7,0.4-1.3,0.4c-0.7,0-1.1-0.1-1.6-0.6
	c-0.4-0.4-0.6-1-0.6-1.7s0.1-1.4,0.6-1.9c0.4-0.4,0.9-0.6,1.6-0.6c0.6,0,1.1,0.1,1.4,0.6c0.4,0.4,0.6,1,0.6,1.7v0.1h-3.4
	c0,0.6,0.1,0.9,0.4,1.1c0.3,0.3,0.6,0.4,1,0.4c0.3,0,0.6-0.1,0.7-0.3C71.4,90.4,71.5,90.3,71.7,89.9 M69.1,88.7h2.6
	c0-0.4-0.1-0.7-0.3-0.9c-0.3-0.3-0.6-0.4-1-0.4c-0.3,0-0.7,0.1-0.9,0.4C69.2,87.9,69.1,88.3,69.1,88.7"/>
<path class="st0" d="M73.8,90l0.7-0.1c0,0.3,0.1,0.6,0.4,0.7c0.1,0.1,0.4,0.3,0.9,0.3c0.3,0,0.6-0.1,0.9-0.3
	c0.1-0.1,0.3-0.3,0.3-0.6c0-0.1-0.1-0.3-0.3-0.4c-0.1,0-0.4-0.1-0.9-0.3c-0.6-0.1-1-0.3-1.1-0.4c-0.3-0.1-0.4-0.3-0.6-0.4
	C74,88.3,74,88,74,87.9c0-0.1,0-0.4,0.1-0.6c0.1-0.1,0.3-0.3,0.4-0.4c0.1-0.1,0.3-0.1,0.4-0.3c0.1,0,0.4-0.1,0.7-0.1
	c0.4,0,0.7,0,1,0.1c0.3,0.1,0.4,0.3,0.6,0.4c0.1,0.1,0.3,0.4,0.3,0.7l-0.7,0.1c0-0.3-0.1-0.4-0.3-0.6c-0.1-0.1-0.4-0.1-0.7-0.1
	c-0.3,0-0.6,0-0.7,0.1c-0.1,0.1-0.3,0.3-0.3,0.4c0,0.1,0,0.1,0.1,0.3c0,0.1,0.1,0.1,0.3,0.1c0.1,0,0.3,0.1,0.7,0.1
	c0.6,0.1,1,0.3,1.1,0.4c0.3,0.1,0.4,0.3,0.6,0.4s0.1,0.4,0.1,0.7c0,0.3-0.1,0.6-0.3,0.7c-0.1,0.3-0.4,0.4-0.7,0.6
	c-0.3,0.1-0.6,0.1-1,0.1c-0.6,0-1-0.1-1.4-0.4C74.1,90.9,74,90.4,73.8,90"/>
<path class="st0" d="M79.4,85h0.7v0.9h-0.7V85z M79.4,86.9h0.7v4.6h-0.7V86.9z"/>
<path class="st0" d="M82,91.7l0.7,0.1c0,0.3,0.1,0.4,0.3,0.6c0.1,0.1,0.4,0.3,0.9,0.3c0.4,0,0.6-0.1,0.9-0.3
	c0.1-0.1,0.3-0.3,0.4-0.6c0-0.1,0-0.4,0-1c-0.3,0.4-0.7,0.6-1.3,0.6s-1.1-0.3-1.4-0.7c-0.3-0.4-0.6-1-0.6-1.6c0-0.4,0.1-0.9,0.3-1.1
	c0.1-0.4,0.4-0.7,0.7-0.9c0.3-0.1,0.7-0.3,1-0.3c0.6,0,1,0.3,1.3,0.7V87h0.7v4c0,0.7,0,1.3-0.3,1.6c-0.1,0.3-0.4,0.6-0.7,0.7
	c-0.3,0.1-0.7,0.3-1.1,0.3c-0.6,0-1-0.1-1.3-0.4C82.1,92.6,82,92.3,82,91.7 M82.7,89c0,0.6,0.1,1,0.4,1.3c0.3,0.3,0.6,0.4,0.9,0.4
	c0.3,0,0.7-0.1,0.9-0.4c0.3-0.3,0.4-0.7,0.4-1.3c0-0.6-0.1-1-0.4-1.3c-0.3-0.3-0.6-0.4-0.9-0.4c-0.3,0-0.6,0.1-0.9,0.4
	C82.9,88,82.7,88.4,82.7,89"/>
<path class="st0" d="M87.9,91.4v-4.6h0.7v0.7c0.3-0.6,0.9-0.7,1.4-0.7c0.3,0,0.6,0,0.7,0.1c0.3,0.1,0.4,0.3,0.6,0.4s0.1,0.3,0.3,0.6
	c0,0.1,0,0.4,0,0.7v2.9h-0.7v-2.7c0-0.3,0-0.6-0.1-0.7c0-0.1-0.1-0.3-0.3-0.4c-0.1-0.1-0.3-0.1-0.6-0.1c-0.3,0-0.6,0.1-0.9,0.3
	c-0.3,0.1-0.4,0.6-0.4,1.1v2.4H87.9z"/>
<path class="st0" d="M96.8,89.9l0.9,0.1c-0.1,0.4-0.4,0.9-0.7,1.1c-0.3,0.3-0.7,0.4-1.3,0.4c-0.7,0-1.1-0.1-1.6-0.6
	c-0.4-0.4-0.6-1-0.6-1.7s0.1-1.4,0.6-1.9c0.4-0.4,0.9-0.6,1.6-0.6c0.6,0,1.1,0.1,1.4,0.6c0.4,0.4,0.6,1,0.6,1.7v0.1h-3.4
	c0,0.6,0.1,0.9,0.4,1.1c0.3,0.3,0.6,0.4,1,0.4c0.3,0,0.6-0.1,0.7-0.3C96.5,90.4,96.6,90.3,96.8,89.9 M94.2,88.7h2.6
	c0-0.4-0.1-0.7-0.3-0.9c-0.3-0.3-0.6-0.4-1-0.4c-0.3,0-0.7,0.1-0.9,0.4C94.3,87.9,94.2,88.3,94.2,88.7"/>
<path class="st0" d="M99.3,91.4v-4.6h0.7v0.7c0.1-0.3,0.3-0.6,0.4-0.6c0.1-0.1,0.3-0.1,0.4-0.1c0.3,0,0.6,0.1,0.9,0.3l-0.3,0.7
	c-0.1-0.1-0.4-0.1-0.6-0.1c-0.1,0-0.3,0-0.4,0.1c-0.1,0.1-0.3,0.3-0.3,0.4c-0.1,0.3-0.1,0.6-0.1,0.9v2.4h-0.7L99.3,91.4L99.3,91.4z"
	/>
<path class="st0" d="M29.7,102.7v-6.3H31l1.4,4.4c0.1,0.4,0.3,0.7,0.3,1c0.1-0.3,0.1-0.6,0.3-1l1.6-4.4h1.1v6.3h-0.9v-5.3l-1.9,5.3
	h-0.7l-1.9-5.4v5.4H29.7z"/>
<path class="st0" d="M40.7,102.1c-0.3,0.3-0.6,0.4-0.9,0.6c-0.3,0.1-0.6,0.1-0.9,0.1c-0.6,0-0.9-0.1-1.1-0.4c-0.3-0.3-0.4-0.6-0.4-1
	c0-0.3,0-0.4,0.1-0.6c0.1-0.1,0.3-0.3,0.4-0.4c0.1-0.1,0.3-0.1,0.6-0.3c0.1,0,0.4-0.1,0.7-0.1c0.6-0.1,1.1-0.1,1.4-0.3
	c0-0.1,0-0.1,0-0.1c0-0.3-0.1-0.6-0.3-0.7c-0.1-0.1-0.4-0.3-0.9-0.3c-0.4,0-0.6,0-0.9,0.1c-0.1,0.1-0.3,0.3-0.4,0.7l-0.7-0.1
	c0-0.3,0.1-0.6,0.3-0.7c0.1-0.1,0.4-0.3,0.7-0.4c0.3-0.1,0.7-0.1,1-0.1c0.4,0,0.7,0,1,0.1c0.3,0.1,0.4,0.1,0.6,0.3
	c0.1,0.1,0.1,0.3,0.3,0.6c0,0.1,0,0.4,0,0.7v1c0,0.7,0,1.1,0,1.4c0,0.1,0.1,0.4,0.1,0.6h-0.9C40.7,102.6,40.7,102.4,40.7,102.1
	 M40.6,100.4c-0.3,0.1-0.7,0.1-1.3,0.3c-0.3,0-0.6,0.1-0.7,0.1c-0.1,0-0.3,0.1-0.3,0.3c0,0.1-0.1,0.3-0.1,0.4c0,0.1,0.1,0.4,0.3,0.6
	c0.1,0.1,0.4,0.1,0.7,0.1s0.6,0,0.9-0.1c0.3-0.1,0.4-0.3,0.6-0.6c0.1-0.1,0.1-0.4,0.1-0.7v-0.4H40.6z"/>
<path class="st0" d="M46.3,102.7v-0.6c-0.3,0.4-0.7,0.7-1.3,0.7c-0.4,0-0.7-0.1-1-0.3c-0.3-0.1-0.6-0.4-0.7-0.9S43,101,43,100.4
	c0-0.4,0.1-0.9,0.3-1.3c0.1-0.4,0.4-0.7,0.7-0.9c0.3-0.1,0.7-0.3,1-0.3s0.6,0,0.7,0.1c0.3,0.1,0.4,0.3,0.6,0.4v-2.1H47v6.3H46.3z
	 M43.9,100.4c0,0.6,0.1,1,0.4,1.3c0.3,0.3,0.6,0.4,0.9,0.4s0.6-0.1,0.9-0.4c0.3-0.3,0.3-0.7,0.3-1.3s-0.1-1.1-0.4-1.4
	c-0.3-0.3-0.6-0.4-0.9-0.4s-0.6,0.1-0.9,0.4C44,99.4,43.9,99.9,43.9,100.4"/>
<path class="st0" d="M52,101.3l0.9,0.1c-0.1,0.4-0.4,0.9-0.7,1.1c-0.3,0.3-0.7,0.4-1.3,0.4c-0.7,0-1.1-0.1-1.6-0.6
	c-0.4-0.4-0.6-1-0.6-1.7s0.1-1.4,0.6-1.9s0.9-0.6,1.6-0.6c0.6,0,1.1,0.1,1.4,0.6c0.4,0.4,0.6,1,0.6,1.7v0.1h-3.4
	c0,0.6,0.1,0.9,0.4,1.1c0.3,0.3,0.6,0.4,1,0.4c0.3,0,0.6-0.1,0.7-0.3C51.8,101.9,52,101.6,52,101.3 M49.6,100h2.6
	c0-0.4-0.1-0.7-0.3-0.9c-0.3-0.3-0.6-0.4-1-0.4c-0.3,0-0.7,0.1-0.9,0.4C49.7,99.3,49.6,99.6,49.6,100"/>
<rect x="57.9" y="96.4" class="st0" width="0.9" height="6.3"/>
<path class="st0" d="M60.9,102.7v-4.6h0.7v0.7c0.3-0.6,0.9-0.7,1.4-0.7c0.3,0,0.6,0,0.7,0.1c0.3,0.1,0.4,0.3,0.6,0.4
	s0.1,0.3,0.3,0.6c0,0.1,0,0.4,0,0.7v2.9h-0.7v-2.7c0-0.3,0-0.6-0.1-0.7c0-0.1-0.1-0.3-0.3-0.4c-0.1-0.1-0.3-0.1-0.6-0.1
	c-0.3,0-0.6,0.1-0.9,0.3c-0.3,0.1-0.4,0.6-0.4,1.1v2.4H60.9z"/>
<polygon class="st0" points="69.8,102.7 69.8,96.4 74.1,96.4 74.1,97.1 70.7,97.1 70.7,99.1 73.7,99.1 73.7,99.9 70.7,99.9 
	70.7,102.7 "/>
<path class="st0" d="M75.8,102.7v-4.6h0.7v0.7c0.1-0.3,0.3-0.6,0.4-0.6c0.1-0.1,0.3-0.1,0.4-0.1c0.3,0,0.6,0.1,0.9,0.3L78,99.1
	C77.8,99,77.6,99,77.4,99c-0.1,0-0.3,0-0.4,0.1c-0.1,0.1-0.3,0.3-0.3,0.4c-0.1,0.3-0.1,0.6-0.1,0.9v2.4h-0.7V102.7z"/>
<path class="st0" d="M82.4,102.1c-0.3,0.3-0.6,0.4-0.9,0.6c-0.3,0.1-0.6,0.1-0.9,0.1c-0.6,0-0.9-0.1-1.1-0.4c-0.3-0.3-0.4-0.6-0.4-1
	c0-0.3,0-0.4,0.1-0.6c0.1-0.1,0.3-0.3,0.4-0.4c0.1-0.1,0.3-0.1,0.6-0.3c0.1,0,0.4-0.1,0.7-0.1c0.6-0.1,1.1-0.1,1.4-0.3
	c0-0.1,0-0.1,0-0.1c0-0.3-0.1-0.6-0.3-0.7c-0.1-0.1-0.4-0.3-0.9-0.3c-0.4,0-0.6,0-0.9,0.1c-0.1,0.1-0.3,0.3-0.4,0.7l-0.7-0.1
	c0-0.3,0.1-0.6,0.3-0.7s0.4-0.3,0.7-0.4c0.3-0.1,0.7-0.1,1-0.1c0.4,0,0.7,0,1,0.1c0.3,0.1,0.4,0.1,0.6,0.3c0.1,0.1,0.1,0.3,0.3,0.6
	c0,0.1,0,0.4,0,0.7v1c0,0.7,0,1.1,0,1.4c0,0.1,0.1,0.4,0.1,0.6h-0.9C82.6,102.6,82.4,102.4,82.4,102.1 M82.4,100.4
	c-0.3,0.1-0.7,0.1-1.3,0.3c-0.3,0-0.6,0.1-0.7,0.1s-0.3,0.1-0.3,0.3c-0.1,0.1-0.1,0.3-0.1,0.4c0,0.1,0.1,0.4,0.3,0.6
	c0.1,0.1,0.4,0.1,0.7,0.1s0.6,0,0.9-0.1c0.3-0.1,0.4-0.3,0.6-0.6c0.1-0.1,0.1-0.4,0.1-0.7v-0.4H82.4z"/>
<path class="st0" d="M85.2,102.7v-4.6h0.7v0.7c0.3-0.6,0.9-0.7,1.4-0.7c0.3,0,0.6,0,0.7,0.1c0.3,0.1,0.4,0.3,0.6,0.4
	s0.1,0.3,0.3,0.6c0,0.1,0,0.4,0,0.7v2.9h-0.7v-2.7c0-0.3,0-0.6-0.1-0.7c0-0.1-0.1-0.3-0.3-0.4c-0.1-0.1-0.3-0.1-0.6-0.1
	c-0.3,0-0.6,0.1-0.9,0.3c-0.3,0.1-0.4,0.6-0.4,1.1v2.4H85.2z"/>
<path class="st0" d="M93.8,101.1l0.7,0.1c-0.1,0.6-0.3,1-0.6,1.3c-0.3,0.3-0.7,0.4-1.3,0.4c-0.6,0-1.1-0.1-1.6-0.6
	c-0.4-0.4-0.6-1-0.6-1.7c0-0.4,0.1-0.9,0.3-1.3c0.1-0.4,0.4-0.7,0.7-0.9c0.3-0.1,0.7-0.3,1.1-0.3c0.4,0,0.9,0.1,1.3,0.4
	c0.3,0.3,0.6,0.6,0.6,1l-0.7,0.1c0-0.3-0.1-0.6-0.4-0.7c-0.1-0.1-0.4-0.3-0.7-0.3c-0.4,0-0.7,0.1-1,0.4c-0.3,0.3-0.4,0.7-0.4,1.3
	s0.1,1,0.3,1.3c0.3,0.3,0.6,0.4,0.9,0.4c0.3,0,0.6-0.1,0.7-0.3C93.5,101.7,93.6,101.4,93.8,101.1"/>
<path class="st0" d="M98.9,101.3l0.9,0.1c-0.1,0.4-0.4,0.9-0.7,1.1c-0.3,0.3-0.7,0.4-1.3,0.4c-0.7,0-1.1-0.1-1.6-0.6
	c-0.4-0.4-0.6-1-0.6-1.7s0.1-1.4,0.6-1.9c0.4-0.4,0.9-0.6,1.6-0.6c0.6,0,1.1,0.1,1.4,0.6c0.4,0.4,0.6,1,0.6,1.7v0.1h-3.4
	c0,0.6,0.1,0.9,0.4,1.1c0.3,0.3,0.6,0.4,1,0.4c0.3,0,0.6-0.1,0.7-0.3C98.6,101.9,98.9,101.6,98.9,101.3 M96.5,100h2.6
	c0-0.4-0.1-0.7-0.3-0.9c-0.3-0.3-0.6-0.4-1-0.4c-0.3,0-0.7,0.1-0.9,0.4C96.6,99.3,96.5,99.6,96.5,100"/>
<rect x="59.2" y="78.4" class="st0" width="4" height="1.3"/>
<rect x="35" y="118.6" class="st0" width="2.3" height="0.7"/>
<polygon class="st0" points="41.9,121 41.9,115 46.3,115 46.3,115.7 42.7,115.7 42.7,117.6 46,117.6 46,118.3 42.7,118.3 
	42.7,120.3 46.4,120.3 46.4,121 "/>
<path class="st0" d="M47.7,119.7l0.7-0.1c0,0.3,0.1,0.6,0.3,0.7c0.1,0.1,0.4,0.3,0.7,0.3s0.6,0,0.7-0.1c0.1-0.1,0.3-0.3,0.3-0.4
	c0-0.1,0-0.3-0.3-0.4c-0.1,0-0.3-0.1-0.7-0.3c-0.6-0.1-0.9-0.3-1.1-0.3c-0.1-0.1-0.4-0.3-0.4-0.4c-0.1-0.1-0.1-0.4-0.1-0.6
	c0-0.1,0-0.4,0.1-0.6c0.1-0.1,0.1-0.3,0.4-0.4c0.1-0.1,0.3-0.1,0.4-0.3c0.1,0,0.4-0.1,0.6-0.1c0.3,0,0.6,0,0.9,0.1
	c0.3,0.1,0.4,0.3,0.6,0.4c0.1,0.1,0.1,0.4,0.3,0.7l-0.7,0.1c0-0.3-0.1-0.4-0.3-0.6c-0.1-0.1-0.4-0.1-0.7-0.1s-0.6,0-0.7,0.1
	c-0.1,0.1-0.3,0.3-0.3,0.4c0,0.1,0,0.1,0.1,0.3c0,0.1,0.1,0.1,0.3,0.1c0.1,0,0.3,0.1,0.7,0.1c0.6,0.1,0.9,0.3,1.1,0.3
	c0.1,0.1,0.4,0.3,0.4,0.4c0.1,0.1,0.1,0.4,0.1,0.6c0,0.3-0.1,0.4-0.3,0.7c-0.1,0.3-0.3,0.4-0.6,0.6c-0.3,0.1-0.6,0.1-0.9,0.1
	c-0.6,0-1-0.1-1.3-0.3C48,120.6,47.9,120.3,47.7,119.7"/>
<path class="st0" d="M54.6,120.4l0.1,0.7c-0.1,0-0.4,0-0.6,0c-0.3,0-0.4,0-0.6-0.1c-0.1-0.1-0.3-0.1-0.3-0.3c0-0.1-0.1-0.4-0.1-0.9
	v-2.4h-0.6v-0.6h0.6v-1.1l0.7-0.4v1.6h0.7v0.6h-0.7v2.6c0,0.1,0,0.3,0,0.4c0,0,0,0.1,0.1,0.1c0,0,0.1,0,0.3,0
	C54.3,120.4,54.5,120.4,54.6,120.4"/>
<rect x="56.3" y="119.7" class="st0" width="1.1" height="1.1"/>
<path class="st0" d="M65.7,120.3v0.7h-4c0-0.1,0-0.3,0.1-0.6c0.1-0.3,0.3-0.6,0.4-0.9c0.3-0.3,0.6-0.6,1-0.9c0.7-0.6,1.1-1,1.3-1.3
	c0.3-0.3,0.3-0.6,0.3-0.9c0-0.3-0.1-0.6-0.3-0.7c-0.1-0.1-0.4-0.3-0.9-0.3c-0.3,0-0.6,0.1-0.9,0.3c-0.1,0.1-0.3,0.6-0.3,0.9
	l-0.7-0.1c0-0.6,0.3-1,0.6-1.3c0.3-0.3,0.9-0.4,1.4-0.4s1,0.1,1.4,0.4c0.3,0.3,0.6,0.7,0.6,1.1c0,0.3,0,0.4-0.1,0.7
	c-0.1,0.3-0.3,0.4-0.4,0.7c-0.3,0.3-0.6,0.6-1.1,1c-0.4,0.4-0.7,0.6-0.9,0.7c-0.1,0.1-0.3,0.3-0.3,0.4h2.7L65.7,120.3L65.7,120.3z"
	/>
<path class="st0" d="M67.1,118.1c0-0.7,0.1-1.3,0.3-1.7c0.1-0.4,0.4-0.7,0.7-1c0.3-0.3,0.7-0.3,1.1-0.3c0.3,0,0.6,0,0.9,0.1
	c0.3,0.1,0.4,0.3,0.6,0.6c0.1,0.3,0.3,0.6,0.4,0.9c0.1,0.3,0.1,0.9,0.1,1.4c0,0.7-0.1,1.3-0.3,1.7c-0.1,0.4-0.4,0.7-0.7,1
	c-0.3,0.3-0.7,0.3-1.1,0.3c-0.6,0-1-0.1-1.4-0.6C67.4,120,67.1,119.3,67.1,118.1 M67.8,118.1c0,1,0.1,1.6,0.3,2
	c0.3,0.3,0.6,0.4,0.9,0.4c0.3,0,0.6-0.1,0.9-0.4c0.3-0.3,0.3-1,0.3-2c0-1-0.1-1.6-0.3-2c-0.3-0.3-0.6-0.4-0.9-0.4
	c-0.3,0-0.6,0.1-0.9,0.4C68,116.4,67.8,117.1,67.8,118.1"/>
<path class="st0" d="M75.3,121h-0.7v-4.6c-0.1,0.1-0.4,0.3-0.7,0.6c-0.3,0.1-0.6,0.3-0.7,0.4v-0.7c0.4-0.1,0.7-0.4,1.1-0.7
	c0.3-0.3,0.6-0.6,0.7-0.9h0.4L75.3,121L75.3,121z"/>
<path class="st0" d="M81.7,120.3v0.7h-4c0-0.1,0-0.3,0.1-0.6c0.1-0.3,0.3-0.6,0.4-0.9c0.3-0.3,0.6-0.6,1-0.9c0.7-0.6,1.1-1,1.3-1.3
	c0.3-0.3,0.3-0.6,0.3-0.9c0-0.3-0.1-0.6-0.3-0.7c-0.1-0.1-0.4-0.3-0.9-0.3c-0.3,0-0.6,0.1-0.9,0.3c-0.1,0.1-0.3,0.6-0.3,0.9
	l-0.7-0.1c0-0.6,0.3-1,0.6-1.3c0.3-0.3,0.9-0.4,1.4-0.4s1,0.1,1.4,0.4c0.3,0.3,0.6,0.7,0.6,1.1c0,0.3,0,0.4-0.1,0.7
	s-0.3,0.4-0.4,0.7c-0.3,0.3-0.6,0.6-1.1,1c-0.4,0.4-0.7,0.6-0.9,0.7c-0.1,0.1-0.3,0.3-0.3,0.4h2.7L81.7,120.3L81.7,120.3z"/>
<rect x="86" y="118.6" class="st0" width="2.3" height="0.7"/>
<rect x="59.2" y="108" class="st0" width="4" height="1.3"/>
</svg>
