<?xml version="1.0" encoding="utf-8"?>
<!-- Generator: Adobe Illustrator 21.0.2, SVG Export Plug-In . SVG Version: 6.00 Build 0)  -->
<svg version="1.1" id="Layer_1" xmlns="http://www.w3.org/2000/svg" xmlns:xlink="http://www.w3.org/1999/xlink" x="0px" y="0px"
	 viewBox="0 0 157 36" style="enable-background:new 0 0 157 36;" xml:space="preserve">
<style type="text/css">
	.st0{fill:#615E5D;}
</style>
<path class="st0" d="M140.2,18.3c-3.9,1-5.7,3-5.7,6.2c0,3.8,2,5.6,6.3,5.6c2.8,0,5.7-1.2,8.7-3.6v-9.3c-0.7,0-1.5,0-2.4,0.2
	C145.5,17.5,143.1,17.7,140.2,18.3 M144.1,34.4c-1.5,0.6-3.1,0.8-5.2,0.8c-2.8,0-5.2-1-7-3c-1.8-2-2.8-4.4-2.8-7.4
	c0-4.6,2-7.8,5.9-9.7c2.6-1.2,7.4-2,14.6-2.4v-0.8c0-2.4-0.7-4-2.2-5c-1.3-0.8-3.1-1.2-5.7-1.2c-2.8,0-6.1,1-9.4,3.2h-0.4V3.2
	c1.8-1,4.2-1.8,7-2.2c0.9-0.2,1.8-0.2,2.8-0.2c4.2,0,7.6,0.8,9.6,2.4c2.2,1.8,3.5,4.8,3.5,8.8v10.7c0,1.4,0,2.2,0,2.8
	c0,1.2,0.2,2,0.4,2.8c0.4,1,0.9,1.6,1.8,2.2l-2.6,5.4c-2.4-1.8-4.1-3.6-4.6-5.6l-0.4,0.4C147.4,32.6,145.5,33.8,144.1,34.4
	 M117.7,8.4c1.5-3.6,3.5-6.2,5.9-7.8l3.3,4.8c-1.5,0.6-3,2.6-4.4,5.8l-11.1,24.1l-14.2-33l5.7-1.4l4.8,12.5
	c1.5,3.8,2.8,7.2,3.7,10.1L117.7,8.4z M72.2,18.3c0,3.2,0.9,6,2.8,8.2c1.7,2,3.7,3,5.9,3c2.6,0,4.8-1.2,6.6-3.6
	c1.7-2.2,2.4-4.6,2.4-7.6c0-3.6-0.9-6.6-2.6-8.8C85.7,7.2,83.3,6,80.5,6c-2.4,0-4.4,1.2-6.1,3.4C73,11.7,72.2,14.7,72.2,18.3
	 M67,18.3c0-5.4,1.3-9.9,4.1-13.1c2.4-3,5.7-4.4,10-4.4c4.6,0,8.1,1.6,10.7,4.8c2.4,3,3.5,7.2,3.5,12.5c0,5-1.1,9.1-3.5,12.1
	c-2.4,3.2-6.1,4.8-10.7,4.8c-3,0-5.5-0.8-7.8-2.4c-2.2-1.6-3.9-3.8-5-6.8C67.4,23.7,67,21.1,67,18.3 M64.1,24.7
	c0,3.2-1.3,5.6-3.7,7.4C57.8,34,54.5,35,50.1,35c-5,0-8.1-0.4-9.8-1.4v-6.2h0.2c2.6,1.4,6.3,2,11.1,2c4.6,0,7-1.2,7-3.8v-0.8
	c0-1.6-0.7-2.6-2.2-3.2c-1.1-0.4-2.4-0.8-4.2-1.2c-2-0.4-3.5-0.8-4.4-1c-4.6-1.4-7.8-4.4-7.6-9.1c0.2-4.8,3.1-7.8,7.2-9.3
	c1.5-0.6,3.1-0.8,5.4-0.8c3.7,0,7,0.8,10.2,2.4v6h-0.2c-2.4-2-5.9-3-10.2-3c-3,0-5,0.8-6.1,2.4c-0.4,0.4-0.6,1-0.6,1.4
	c0,1.6,0.6,2.6,1.8,3.4c0.6,0.2,1.8,0.6,3.9,1c1.5,0.2,3.1,0.6,5.2,1.2c2.4,1,4.2,2,5.5,3.6C63.4,20.5,64.1,22.3,64.1,24.7 M20.9,35
	h1.8c0.4-6.6,4.2-12.3,9.6-14.7v-2.2C25.9,20.7,21.1,27.4,20.9,35 M27.9,35c0.2-3.4,1.8-6.4,4.4-8.2V35H27.9z M24.4,35
	c0.4-5.6,3.5-10.5,7.9-12.7v2.2c-3.3,2-5.7,6-6.1,10.5L24.4,35L24.4,35z M0,26.7V35h4.4C4.1,31.6,2.4,28.6,0,26.7 M0,18.1
	c6.5,2.6,11.1,9.1,11.5,16.9H9.6C9.2,28.4,5.4,22.7,0,20.3V18.1z M0,22.3c4.4,2.2,7.6,7,7.9,12.7H6.1C5.7,30.6,3.5,26.5,0,24.5V22.3
	z M25.7,14.7c-1.8,0-3.5-1.6-3.5-3.8c0-2,1.5-3.8,3.5-3.8c1.8,0,3.5,1.6,3.5,3.8C29.2,13.1,27.7,14.7,25.7,14.7 M6.5,14.7
	c-1.8,0-3.5-1.6-3.5-3.8C3,8.8,4.4,7,6.5,7C8.3,7,10,8.6,10,10.9C10,13.1,8.3,14.7,6.5,14.7 M27.5,0h4.6v16.3
	C24.8,18.9,19.4,26.3,19,35.2h-5.9C12.7,26.3,7.4,18.9,0,16.3V0h4.6c4.6,3.6,8.3,8.6,10.5,14.7l0.9,2.2l0.9-2.2
	C19.2,8.6,22.9,3.6,27.5,0 M16.1,11.9c2-4.6,5-8.6,8.5-11.9h-17C11.3,3.2,14,7.2,16.1,11.9"/>
</svg>
