<?xml version="1.0" encoding="utf-8"?>
<!-- Generator: Adobe Illustrator 21.0.2, SVG Export Plug-In . SVG Version: 6.00 Build 0)  -->
<svg version="1.1" id="Layer_1" xmlns="http://www.w3.org/2000/svg" xmlns:xlink="http://www.w3.org/1999/xlink" x="0px" y="0px"
	 viewBox="0 0 160 55" style="enable-background:new 0 0 160 55;" xml:space="preserve">
<style type="text/css">
	.st0{fill:#615E5D;}
</style>
<path class="st0" d="M137.1,2.6c-2.1,0-3.9,0.8-5.5,2.4s-2.3,3.4-2.3,5.7s0.8,4.2,2.3,5.9c1.5,1.6,3.2,2.4,5.5,2.4
	c2.1,0,3.9-0.8,5.3-2.4c1.5-1.6,2.3-3.4,2.3-5.9c0-2.2-0.8-4.2-2.3-5.7C140.8,3.4,139.1,2.6,137.1,2.6 M144.6,17.6
	c-0.6,0.8-1.3,1.4-2.1,2c-1.7,1.2-3.6,1.8-5.5,1.8c-2.6,0-5.1-1-7-3s-2.8-4.7-2.8-7.5s0.9-5.5,2.8-7.5s4.3-3,7-3
	c2.1,0,3.9,0.6,5.5,1.8c0.8,0.6,1.5,1.2,2.1,2V0.4h2.3v21.2h-2.3V17.6z M106.4,12.5l-1.3,1.4v7.3h-2.3V0h2.3v10.5L114.9,0h3.2
	l-10,10.7l9.8,10.5h-3.2L106.4,12.5z M85,17.4L91,0h2.4l-7.3,21.2h-1.9L76,0.2h2.6L85,17.4z M66.7,0.2v21.2h-2.3V0.2H66.7z M45.7,19
	h8.5v2.4H43.4V0.2h2.3V19z M23.1,2.6c-2.1,0-3.9,0.8-5.5,2.4c-1.5,1.6-2.3,3.4-2.3,5.9c0,2.2,0.8,4.2,2.3,5.9
	c1.5,1.6,3.2,2.4,5.5,2.4c2.1,0,3.9-0.8,5.5-2.4c1.5-1.6,2.3-3.4,2.3-5.9c0-2.2-0.8-4.2-2.3-5.9C26.9,3.4,25.2,2.6,23.1,2.6z
	 M113.7,32.2l-1.9,4.2h3.9L113.7,32.2z M96.6,30.7v4h1.9c0.8,0,1.3,0,1.7-0.2c0.4-0.2,0.6-0.4,0.9-0.8c0.2-0.4,0.4-0.6,0.4-1
	c0-0.4-0.2-0.8-0.4-1c-0.2-0.2-0.6-0.6-0.8-0.6c-0.4-0.2-0.9-0.2-1.7-0.2L96.6,30.7L96.6,30.7z M69.4,32.2l-1.9,4.2h3.9L69.4,32.2z
	 M16.4,30.7v4h1.9c0.8,0,1.3,0,1.7-0.2c0.4-0.2,0.6-0.4,0.9-0.8c0.2-0.4,0.4-0.6,0.4-1c0-0.4-0.2-0.8-0.4-1
	c-0.2-0.4-0.6-0.6-0.8-0.6c-0.4-0.2-0.9-0.2-1.7-0.2L16.4,30.7L16.4,30.7z M126.3,41.5h7.3l-7.3-8.9V41.5z M109.6,41.5h8.5l-1.7-3.8
	h-4.9L109.6,41.5z M96.6,41.5h4.7L97.4,36h-0.8V41.5z M65.2,41.5h8.5L72,37.6h-4.9L65.2,41.5z M16.4,41.5h4.7L17.1,36h-0.6v5.5H16.4
	z M0,41.5h15.2V29.7h2.3c1.3,0,2.1,0,2.6,0.2c0.8,0.2,1.3,0.4,1.7,1c0.4,0.6,0.6,1.2,0.6,2c0,0.6-0.2,1.2-0.4,1.6
	c-0.4,0.4-0.8,0.8-1.3,1c-0.6,0.2-1.3,0.4-2.3,0.4l3.9,5.5H29V29.7h6.6v1.2h-5.5v3.6h5.3v1.2h-5.3v4.7h5.3v1h7
	c-0.2,0-0.2-0.2-0.4-0.2c-0.6-0.4-1.1-1-1.5-2l0.9-0.6c0.8,1.2,1.5,2,2.4,2c0.4,0,0.8,0,1.1-0.2s0.6-0.4,0.8-0.8
	c0.2-0.4,0.2-0.6,0.2-1c0-0.4-0.2-0.8-0.4-1.2c-0.4-0.6-0.9-1.2-1.9-1.8c-0.9-0.8-1.5-1.2-1.7-1.6c-0.4-0.6-0.6-1.2-0.6-1.8
	c0-0.6,0.2-1,0.4-1.4s0.6-0.8,0.9-1c0.4-0.2,0.9-0.4,1.3-0.4c0.6,0,1.1,0.2,1.5,0.4c0.4,0.2,0.9,0.8,1.5,1.6l-0.9,0.8
	c-0.4-0.6-0.8-1-1.1-1.2c-0.4-0.2-0.6-0.2-0.9-0.2s-0.8,0.2-1.1,0.4c-0.4,0.2-0.4,0.6-0.4,1c0,0.2,0,0.6,0.2,0.8
	c0.2,0.2,0.4,0.4,0.6,0.8c0.2,0.2,0.6,0.6,1.5,1.2c0.9,0.8,1.7,1.4,2.1,2c0.4,0.6,0.6,1.2,0.6,1.8c0,0.8-0.4,1.6-0.9,2.2
	c-0.2,0.2-0.6,0.4-0.8,0.6h9.6V31.1h-2.6v-1.2H59v1.2h-2.4v10.5h7.5l5.3-11.7h0.2l5.3,11.7h8.1c-0.2,0-0.4-0.2-0.6-0.2
	c-0.6-0.4-1.1-1-1.3-1.8c-0.2-0.4-0.2-1.2-0.2-2.4v-7.1H82v7.1c0,0.8,0,1.4,0,1.6c0,0.4,0.2,0.8,0.4,1.2c0.2,0.4,0.6,0.6,0.9,0.8
	c0.4,0.2,0.9,0.4,1.3,0.4s0.8,0,1.1-0.2c0.4-0.2,0.6-0.4,0.9-0.6c0.2-0.2,0.4-0.6,0.6-1c0-0.2,0.2-1,0.2-1.8v-7.1h1.1v7.1
	c0,1-0.2,1.8-0.4,2.6c-0.2,0.6-0.6,1.2-1.1,1.6c-0.2,0.2-0.4,0.2-0.6,0.4h9V30.5h2.3c1.3,0,2.1,0,2.6,0.2c0.8,0.2,1.3,0.4,1.7,1
	c0.4,0.6,0.6,1.2,0.6,2c0,0.6-0.2,1.2-0.4,1.6c-0.4,0.4-0.8,0.8-1.3,1c-0.6,0.2-1.3,0.4-2.3,0.4l3.9,5.5h5.6l5.3-11.7h0.2l5.3,11.7
	h6V30.5h0.2l7.5,9.1v-9.1h1.1v11.7h8.5V31.7h-2.4v-1.2h6.2v1.2h-2.4v10.5H160v0.8H0.2L0,41.5L0,41.5z M23.1,0.2c2.6,0,5.1,1,7,3
	s2.8,4.7,2.8,7.5s-0.9,5.5-2.8,7.5c-1.9,2-4.3,3-7,3s-5.1-1-7-3c-1.9-2-2.8-4.7-2.8-7.5s0.9-5.5,2.8-7.5C18,1.2,20.3,0.2,23.1,0.2z"
	/>
<path class="st0" d="M113.7,52.2l-1.9-4.2h3.9L113.7,52.2z M96.6,53.4v-4h1.9c0.8,0,1.3,0,1.7,0.2c0.4,0.2,0.6,0.4,0.9,0.8
	c0.2,0.4,0.4,0.6,0.4,1c0,0.4-0.2,0.8-0.4,1c-0.2,0.4-0.6,0.6-0.8,0.6c-0.4,0.2-0.9,0.2-1.7,0.2L96.6,53.4L96.6,53.4z M69.4,52.2
	l-1.9-4.2h3.9L69.4,52.2z M16.4,53.4v-4h1.9c0.8,0,1.3,0,1.7,0.2c0.4,0.2,0.6,0.4,0.9,0.8c0.2,0.4,0.4,0.6,0.4,1
	c0,0.4-0.2,0.8-0.4,1c-0.2,0.4-0.6,0.6-0.8,0.6c-0.4,0.2-0.9,0.2-1.7,0.2L16.4,53.4L16.4,53.4z M126.3,42.9h7.3l-7.3,8.9V42.9z
	 M109.6,42.9h8.5l-1.7,3.8h-4.9L109.6,42.9z M96.6,42.9h4.7l-3.9,5.5h-0.8V42.9z M65.2,42.9h8.5L72,46.7h-4.9L65.2,42.9z M16.4,42.9
	h4.7l-3.9,5.5h-0.6v-5.5H16.4z M0,42.9h15.2v11.7h2.3c1.3,0,2.1,0,2.6-0.2c0.8-0.2,1.3-0.4,1.7-1s0.6-1.2,0.6-2
	c0-0.6-0.2-1.2-0.4-1.6c-0.4-0.4-0.8-0.8-1.3-1s-1.3-0.4-2.3-0.4l3.9-5.5H29v11.7h6.6v-1.2h-5.5v-3.6h5.3v-1.2h-5.3v-4.7h5.3v-1h7
	c-0.2,0-0.2,0.2-0.4,0.2c-0.6,0.4-1.1,1-1.5,2l0.9,0.6c0.8-1.2,1.5-2,2.4-2c0.4,0,0.8,0,1.1,0.2c0.4,0.2,0.6,0.4,0.8,0.8
	c0.2,0.4,0.2,0.6,0.2,1c0,0.4-0.2,0.8-0.4,1.2c-0.4,0.6-0.9,1.2-1.9,1.8c-0.9,0.8-1.5,1.2-1.7,1.6c-0.4,0.6-0.6,1.2-0.6,1.8
	c0,0.6,0.2,1,0.4,1.4c0.2,0.4,0.6,0.8,0.9,1c0.4,0.2,0.9,0.4,1.3,0.4c0.6,0,1.1-0.2,1.5-0.4c0.4-0.2,0.9-0.8,1.5-1.6l-0.9-0.8
	c-0.4,0.6-0.8,1-1.1,1.2s-0.6,0.2-0.9,0.2s-0.8-0.2-1.1-0.4c-0.4-0.2-0.4-0.6-0.4-1c0-0.2,0-0.6,0.2-0.8c0.2-0.2,0.4-0.4,0.6-0.8
	c0.2-0.2,0.6-0.6,1.5-1.2c0.9-0.8,1.7-1.4,2.1-2s0.6-1.2,0.6-1.8c0-0.8-0.4-1.6-0.9-2.2c-0.2-0.2-0.6-0.4-0.8-0.6h9.6v10.5h-2.6v1.2
	H59v-1.2h-2.4V42.7h7.5l5.3,11.7h0.2l5.3-11.7h8.1c-0.2,0-0.4,0.2-0.6,0.2c-0.6,0.4-1.1,1-1.3,1.8c-0.2,0.4-0.2,1.2-0.2,2.4v7.1H82
	v-7.1c0-0.8,0-1.4,0-1.6c0-0.4,0.2-0.8,0.4-1.2c0.2-0.4,0.6-0.6,0.9-0.8c0.4-0.2,0.9-0.4,1.3-0.4s0.8,0,1.1,0.2s0.6,0.4,0.9,0.6
	c0.2,0.2,0.4,0.6,0.6,1c0,0.2,0.2,1,0.2,1.8v7.1h1.1v-7.1c0-1-0.2-1.8-0.4-2.6c-0.2-0.6-0.6-1.2-1.1-1.6c-0.2-0.2-0.4-0.2-0.6-0.4h9
	v11.7h2.3c1.3,0,2.1,0,2.6-0.2c0.8-0.2,1.3-0.4,1.7-1c0.4-0.6,0.6-1.2,0.6-2c0-0.6-0.2-1.2-0.4-1.6c-0.4-0.4-0.8-0.8-1.3-1
	c-0.6-0.2-1.3-0.4-2.3-0.4l3.9-5.5h5.6l5.3,11.7h0.2l5.3-11.7h6v11.7h0.2l7.5-9.1v9.1h1.1V42.1h8.5v10.5h-2.4v1.2h6.2v-1.2h-2.4
	V42.1H160v-0.8H0.2L0,42.9L0,42.9z"/>
</svg>
