<?xml version="1.0" encoding="utf-8"?>
<!-- Generator: Adobe Illustrator 21.0.2, SVG Export Plug-In . SVG Version: 6.00 Build 0)  -->
<svg version="1.1" id="Layer_1" xmlns="http://www.w3.org/2000/svg" xmlns:xlink="http://www.w3.org/1999/xlink" x="0px" y="0px"
	 viewBox="0 0 160 44" style="enable-background:new 0 0 160 44;" xml:space="preserve">
<style type="text/css">
	.st0{fill:#615E5D;}
</style>
<path class="st0" d="M60.4,5.4H59c0,0-0.2,0-0.2-0.2V4.8c0,0,0-0.2,0.2-0.2h3.6c0,0,0.2,0,0.2,0.2v0.4c0,0,0,0.2-0.2,0.2h-1.3v5
	c0,0,0,0.2-0.2,0.2h-0.6c0,0-0.2,0-0.2-0.2V5.4z"/>
<path class="st0" d="M69.8,4.8C69.8,4.6,69.9,4.6,69.8,4.8l0.8-0.2c0,0,0.2,0,0.2,0.2v2.4h3V4.8c0,0,0-0.2,0.2-0.2h0.6
	c0,0,0.2,0,0.2,0.2v5.8c0,0,0,0.2-0.2,0.2h-0.6c0,0-0.2,0-0.2-0.2V8h-3v2.4c0,0,0,0.2-0.2,0.2h-0.6c0,0-0.2,0-0.2-0.2V4.8z"/>
<path class="st0" d="M82.2,4.8C82.2,4.6,82.4,4.6,82.2,4.8l3.4-0.2c0,0,0.2,0,0.2,0.2v0.4c0,0,0,0.2-0.2,0.2h-2.4v1.8h2.3
	c0,0,0.2,0,0.2,0.2v0.4c0,0,0,0.2-0.2,0.2h-2.3v1.8h2.6c0,0,0.2,0,0.2,0.2v0.4c0,0,0,0.2-0.2,0.2h-3.2c0,0-0.2,0-0.2-0.2V4.8H82.2z"
	/>
<path class="st0" d="M100.4,10.4l2.4-5.8h0.2l0,0h0.2l2.4,5.8c0,0.2,0,0.2-0.2,0.2h-0.6c-0.2,0-0.2,0-0.2-0.2l-0.6-1.2h-2.6
	c-0.2,0.4-0.4,0.8-0.6,1.2c0,0,0,0.2-0.2,0.2h-0.6C100.4,10.6,100.4,10.6,100.4,10.4 M104.2,8.6L103,6.2l0,0l-0.9,2.4H104.2z"/>
<path class="st0" d="M112.8,4.8C112.8,4.6,112.8,4.6,112.8,4.8l2.3-0.2c0.9,0,1.9,0.8,1.9,1.8c0,0.8-0.6,1.4-1.1,1.8l1.1,2.2
	c0,0.2,0,0.2-0.2,0.2h-0.6H116l-1.1-2.4h-1.3v2.2c0,0,0,0.2-0.2,0.2h-0.6c0,0-0.2,0-0.2-0.2L112.8,4.8L112.8,4.8z M115.1,7.6
	c0.6,0,0.9-0.4,0.9-1s-0.4-1-0.9-1h-1.5v2H115.1z"/>
<path class="st0" d="M125.2,5.4h-1.3c0,0-0.2,0-0.2-0.2V4.8c0,0,0-0.2,0.2-0.2h3.6c0,0,0.2,0,0.2,0.2v0.4c0,0,0,0.2-0.2,0.2h-1.3v5
	c0,0,0,0.2-0.2,0.2h-0.6c0,0-0.2,0-0.2-0.2C125.2,10.4,125.2,5.4,125.2,5.4z"/>
<path class="st0" d="M145,4.4c1.7,0,3,1.4,3,3.2c0,1.8-1.3,3-3,3c-1.7,0-3-1.4-3-3C142.1,5.8,143.5,4.4,145,4.4 M145,9.8
	c1.1,0,2.1-1,2.1-2.2s-0.9-2.2-2.1-2.2s-2.1,1-2.1,2.2S143.8,9.8,145,9.8"/>
<path class="st0" d="M155.3,4.8C155.3,4.6,155.3,4.6,155.3,4.8l3.4-0.2c0,0,0.2,0,0.2,0.2v0.4c0,0,0,0.2-0.2,0.2h-2.6v2h2.3
	c0,0,0.2,0,0.2,0.2V8c0,0,0,0.2-0.2,0.2h-2.3v2.2c0,0,0,0.2-0.2,0.2h-0.6c0,0-0.2,0-0.2-0.2L155.3,4.8L155.3,4.8z"/>
<path class="st0" d="M60.2,19.1C60.2,19.1,60.2,18.9,60.2,19.1l0.4-0.2c0,0,0.2,0,0.2,0.2l2.3,5.2l0,0l2.3-5.2c0,0,0-0.2,0.2-0.2
	h0.2c0.2,0,0.2,0,0.2,0.2l1.3,7.4c0,0.2,0,0.2-0.2,0.2H66c0,0-0.2,0-0.2-0.2l-0.6-4.2l0,0l-1.9,4.2c0,0,0,0.2-0.2,0.2H63
	c0,0-0.2,0-0.2-0.2l-1.9-4.2l0,0l-0.6,4.2c0,0,0,0.2-0.2,0.2h-0.9c-0.2,0-0.2,0-0.2-0.2L60.2,19.1z"/>
<path class="st0" d="M70.5,19.3c0-0.2,0-0.2,0.2-0.2h0.9c0.2,0,0.2,0,0.2,0.2v4.4c0,1,0.6,1.6,1.5,1.6s1.5-0.8,1.5-1.6v-4.4
	c0-0.2,0-0.2,0.2-0.2H76c0.2,0,0.2,0,0.2,0.2v4.6c0,1.6-1.3,3-2.8,3c-1.7,0-2.8-1.4-2.8-3C70.5,23.9,70.5,19.3,70.5,19.3z"/>
<path class="st0" d="M79.7,25.7l0.4-0.6c0-0.2,0.2-0.2,0.4,0c0,0,0.9,0.6,1.5,0.6c0.6,0,0.9-0.4,0.9-0.8c0-0.6-0.4-1-1.3-1.4
	c-0.9-0.4-1.9-1-1.9-2.4c0-1,0.8-2,2.3-2c1.1,0,1.9,0.6,2.1,0.8c0.2,0,0.2,0.2,0,0.4l-0.4,0.6c0,0.2-0.2,0.2-0.4,0.2
	c0,0-0.9-0.6-1.5-0.6s-0.9,0.4-0.9,0.8c0,0.6,0.4,0.8,1.3,1.2c0.9,0.4,2.3,1,2.3,2.4c0,1.2-0.9,2.2-2.4,2.2c-1.3,0-2.1-0.6-2.3-0.8
	C79.5,25.9,79.5,25.9,79.7,25.7"/>
<path class="st0" d="M87.8,19.3c0-0.2,0.2-0.2,0.2-0.2h0.9c0.2,0,0.2,0.2,0.2,0.2v3l2.6-3.2l0.2-0.2h1.1c0.2,0,0.4,0.2,0.2,0.4
	l-2.6,3.2l2.8,3.6c0.2,0.2,0,0.4-0.2,0.4h-1.1c-0.2,0-0.2,0-0.2,0l-2.6-3.6v3.4c0,0.2-0.2,0.2-0.2,0.2h-0.9c-0.2,0-0.2-0.2-0.2-0.2
	L87.8,19.3L87.8,19.3z"/>
<path class="st0" d="M96.6,19.3c0-0.2,0-0.2,0.2-0.2h4.1c0.2,0,0.2,0,0.2,0.2v0.8c0,0.2,0,0.2-0.2,0.2h-3v1.8h2.6
	c0.2,0,0.2,0,0.2,0.2v1c0,0.2,0,0.2-0.2,0.2H98v2h3c0.2,0,0.2,0,0.2,0.2v0.8c0,0.2,0,0.2-0.2,0.2h-4.1c-0.2,0-0.2,0-0.2-0.2V19.3z"
	/>
<path class="st0" d="M105.9,20.3h-1.5c-0.2,0-0.2,0-0.2-0.2v-0.8c0-0.2,0-0.2,0.2-0.2h4.5c0.2,0,0.2,0,0.2,0.2v0.8
	c0,0.2,0,0.2-0.2,0.2h-1.5v6.2c0,0.2,0,0.2-0.2,0.2h-0.9c-0.2,0-0.2,0-0.2-0.2v-6.2H105.9z"/>
<path class="st0" d="M112.1,19.3c0-0.2,0-0.2,0.2-0.2h4.1c0.2,0,0.2,0,0.2,0.2v0.8c0,0.2,0,0.2-0.2,0.2h-3v1.8h2.6
	c0.2,0,0.2,0,0.2,0.2v1c0,0.2,0,0.2-0.2,0.2h-2.6v2h3c0.2,0,0.2,0,0.2,0.2v0.8c0,0.2,0,0.2-0.2,0.2h-4.1c-0.2,0-0.2,0-0.2-0.2
	C112.1,26.5,112.1,19.3,112.1,19.3z"/>
<path class="st0" d="M120.3,19.3c0-0.2,0-0.2,0.2-0.2h4.1c0.2,0,0.2,0,0.2,0.2v0.8c0,0.2,0,0.2-0.2,0.2h-3v1.8h2.6
	c0.2,0,0.2,0,0.2,0.2v1c0,0.2,0,0.2-0.2,0.2h-2.6v2h3c0.2,0,0.2,0,0.2,0.2v0.8c0,0.2,0,0.2-0.2,0.2h-4.1c-0.2,0-0.2,0-0.2-0.2V19.3z
	"/>
<path class="st0" d="M128.6,19.3c0-0.2,0-0.2,0.2-0.2h3c1.3,0,2.3,1,2.3,2.4c0,1-0.6,1.8-1.5,2.2l1.3,2.6c0,0.2,0,0.4-0.2,0.4h-1.1
	h-0.2l-1.3-2.8h-1.1v2.8c0,0.2,0,0.2-0.2,0.2h-0.9c-0.2,0-0.2,0-0.2-0.2L128.6,19.3L128.6,19.3z M131.6,22.5c0.6,0,0.9-0.6,0.9-1.2
	c0-0.6-0.6-1-0.9-1h-1.7v2.2H131.6z"/>
<path class="st0" d="M137.4,19.3c0-0.2,0-0.2,0.2-0.2h0.9c0.2,0,0.2,0,0.2,0.2v7.2c0,0.2,0,0.2-0.2,0.2h-0.9c-0.2,0-0.2,0-0.2-0.2
	V19.3z"/>
<path class="st0" d="M142.9,19.1c0-0.2,0-0.2,0.2-0.2h0.2l4.3,4.8l0,0v-4.6c0-0.2,0-0.2,0.2-0.2h0.9c0.2,0,0.2,0,0.2,0.2v7.4
	c0,0.2-0.2,0.2-0.2,0.2h-0.2l-4.3-5l0,0v4.6c0,0.2,0,0.2-0.2,0.2h-0.9c-0.2,0-0.2,0-0.2-0.2V19.1z"/>
<path class="st0" d="M156.2,18.9c0.9,0,1.9,0.4,2.4,1c0,0,0,0.2,0,0.4l-0.6,0.8h-0.2c-0.4-0.4-0.9-0.6-1.5-0.6
	c-1.3,0-2.3,1.2-2.3,2.6c0,1.4,0.9,2.6,2.3,2.6c0.6,0,0.9-0.2,1.3-0.2v-1H157c-0.2,0-0.2,0-0.2-0.2v-0.8c0-0.2,0-0.2,0.2-0.2h2.1
	c0.2,0,0.2,0,0.2,0.2v2.8v0.2c0,0-1.1,0.8-2.6,0.8c-2.1,0-3.8-1.8-3.8-4C152.5,20.7,154.2,18.9,156.2,18.9"/>
<rect x="57.7" y="14.9" class="st0" width="102.3" height="0.6"/>
<rect x="57.7" y="29.9" class="st0" width="102.3" height="0.6"/>
<path class="st0" d="M58.8,35.2C58.8,35,59,35,58.8,35.2l2.3-0.2c0,0,0.2,0,0.2,0.2v0.4c0,0,0,0.2-0.2,0.2h-1.7V37h1.5
	c0,0,0.2,0,0.2,0.2v0.4c0,0,0,0.2-0.2,0.2h-1.5V39h1.7c0,0,0.2,0,0.2,0.2v0.4c0,0,0,0.2-0.2,0.2h-2.3c0,0-0.2,0-0.2-0.2L58.8,35.2
	L58.8,35.2z"/>
<path class="st0" d="M63.4,37l-1.1-1.8c0,0,0-0.2,0.2-0.2H63c0,0,0,0,0.2,0l0.8,1.4l0,0l0.8-1.4l0,0h0.6c0.2,0,0.2,0,0.2,0.2
	L64.3,37l1.1,2c0,0,0,0.2-0.2,0.2h-0.4c0,0,0,0-0.2,0l-0.9-1.6l0,0l-0.9,1.6c0,0,0,0-0.2,0h-0.4c-0.2,0-0.2,0-0.2-0.2L63.4,37z"/>
<path class="st0" d="M67.9,35c0.6,0,0.9,0.2,1.3,0.6v0.2L69,36c0,0,0,0-0.2,0c-0.2-0.2-0.6-0.4-0.9-0.4c-0.8,0-1.3,0.8-1.3,1.6
	c0,0.8,0.6,1.6,1.3,1.6c0.4,0,0.8-0.2,0.9-0.4H69l0.2,0.2v0.2c-0.4,0.4-0.9,0.6-1.3,0.6c-1.1,0-2.1-1-2.1-2.2
	C65.8,36,66.7,35,67.9,35"/>
<path class="st0" d="M70.3,35.2C70.3,35,70.3,35,70.3,35.2l2.3-0.2c0,0,0.2,0,0.2,0.2v0.4c0,0,0,0.2-0.2,0.2h-1.7V37h1.5
	c0,0,0.2,0,0.2,0.2v0.4c0,0,0,0.2-0.2,0.2h-1.5V39h1.7c0,0,0.2,0,0.2,0.2v0.4c0,0,0,0.2-0.2,0.2h-2.3c0,0-0.2,0-0.2-0.2L70.3,35.2
	L70.3,35.2z"/>
<path class="st0" d="M73.9,35.2C73.9,35,73.9,35,73.9,35.2l0.6-0.2c0,0,0.2,0,0.2,0.2v3.4h1.5c0,0,0.2,0,0.2,0.2v0.4
	c0,0,0,0.2-0.2,0.2h-2.1c0,0-0.2,0-0.2-0.2V35.2z"/>
<path class="st0" d="M76.9,35.2C76.9,35,76.9,35,76.9,35.2l0.6-0.2c0,0,0.2,0,0.2,0.2v3.4h1.5c0,0,0.2,0,0.2,0.2v0.4
	c0,0,0,0.2-0.2,0.2h-2.1c0,0-0.2,0-0.2-0.2V35.2z"/>
<path class="st0" d="M79.9,35.2C79.9,35,80.1,35,79.9,35.2l2.3-0.2c0,0,0.2,0,0.2,0.2v0.4c0,0,0,0.2-0.2,0.2h-1.7V37H82
	c0,0,0.2,0,0.2,0.2v0.4c0,0,0,0.2-0.2,0.2h-1.5V39h1.7c0,0,0.2,0,0.2,0.2v0.4c0,0,0,0.2-0.2,0.2h-2.3c0,0-0.2,0-0.2-0.2L79.9,35.2
	L79.9,35.2z"/>
<path class="st0" d="M83.5,35C83.5,35,83.7,35,83.5,35l0.2-0.2l2.4,3l0,0V35c0,0,0-0.2,0.2-0.2h0.4c0,0,0.2,0,0.2,0.2v4
	c0,0,0,0.2-0.2,0.2h-0.2l-2.4-3l0,0V39c0,0,0,0.2-0.2,0.2h-0.4c0,0-0.2,0-0.2-0.2L83.5,35L83.5,35z"/>
<path class="st0" d="M89.9,35c0.6,0,0.9,0.2,1.3,0.6v0.2L91,36c0,0,0,0-0.2,0c-0.2-0.2-0.6-0.4-0.9-0.4c-0.8,0-1.3,0.8-1.3,1.6
	c0,0.8,0.6,1.6,1.3,1.6c0.4,0,0.8-0.2,0.9-0.4H91l0.2,0.2v0.2c-0.4,0.4-0.9,0.6-1.3,0.6c-1.1,0-2.1-1-2.1-2.2
	C87.8,36,88.7,35,89.9,35"/>
<path class="st0" d="M92.3,35.2C92.3,35,92.3,35,92.3,35.2l2.3-0.2c0,0,0.2,0,0.2,0.2v0.4c0,0,0,0.2-0.2,0.2h-1.7V37h1.5
	c0,0,0.2,0,0.2,0.2v0.4c0,0,0,0.2-0.2,0.2h-1.5V39h1.7c0,0,0.2,0,0.2,0.2v0.4c0,0,0,0.2-0.2,0.2h-2.1c0,0-0.2,0-0.2-0.2V35.2z"/>
<path class="st0" d="M99.5,35.6h-0.9c0,0-0.2,0-0.2-0.2V35c0,0,0-0.2,0.2-0.2h2.4c0,0,0.2,0,0.2,0.2v0.4c0,0,0,0.2-0.2,0.2H100V39
	c0,0,0,0.2-0.2,0.2h-0.4c0,0-0.2,0-0.2-0.2L99.5,35.6L99.5,35.6z"/>
<path class="st0" d="M101.9,35.2C101.9,35,101.9,35,101.9,35.2l1.7-0.2c0.8,0,1.1,0.6,1.1,1.2s-0.4,1-0.8,1.2l0.8,1.4
	c0,0,0,0.2-0.2,0.2h-0.4l0,0l-0.8-1.6h-0.8v1.4c0,0,0,0.2-0.2,0.2h-0.4c0,0-0.2,0-0.2-0.2V35.2z M103.4,37c0.4,0,0.8-0.4,0.8-0.8
	s-0.4-0.6-0.8-0.6h-0.9V37C102.5,37,103.4,37,103.4,37z"/>
<path class="st0" d="M105.3,39l1.7-4c0,0,0,0,0.2,0l0,0c0,0,0,0,0.2,0l1.7,4c0,0,0,0.2-0.2,0.2h-0.4h-0.2l-0.4-0.8H106
	c-0.2,0.2-0.2,0.6-0.4,0.8c0,0,0,0-0.2,0L105.3,39C105.3,39.2,105.3,39,105.3,39 M107.9,37.8l-0.8-1.6l0,0l-0.8,1.6H107.9z"/>
<path class="st0" d="M109.8,35.2C109.8,35,110,35,109.8,35.2l0.6-0.2c0,0,0.2,0,0.2,0.2V39c0,0,0,0.2-0.2,0.2H110c0,0-0.2,0-0.2-0.2
	V35.2z"/>
<path class="st0" d="M111.9,35L111.9,35l0.2-0.2l2.4,3l0,0V35c0,0,0-0.2,0.2-0.2h0.4c0,0,0.2,0,0.2,0.2v4c0,0,0,0.2-0.2,0.2h-0.2
	l-2.4-3l0,0V39c0,0,0,0.2-0.2,0.2h-0.4c0,0-0.2,0-0.2-0.2v-4H111.9z"/>
<path class="st0" d="M116.4,35.2C116.4,35,116.4,35,116.4,35.2l0.6-0.2c0,0,0.2,0,0.2,0.2V39c0,0,0,0.2-0.2,0.2h-0.4
	c0,0-0.2,0-0.2-0.2C116.4,39,116.4,35.2,116.4,35.2z"/>
<path class="st0" d="M118.3,35C118.3,35,118.4,35,118.3,35l0.2-0.2l2.4,3l0,0V35c0,0,0-0.2,0.2-0.2h0.4c0,0,0.2,0,0.2,0.2v4
	c0,0,0,0.2-0.2,0.2h-0.2l-2.4-3l0,0V39c0,0,0,0.2-0.2,0.2h-0.4c0,0-0.2,0-0.2-0.2L118.3,35L118.3,35z"/>
<path class="st0" d="M124.7,35c0.6,0,0.9,0.2,1.3,0.6v0.2l-0.2,0.2c0,0,0,0-0.2,0c-0.2-0.2-0.6-0.4-0.9-0.4c-0.8,0-1.3,0.8-1.3,1.6
	c0,0.8,0.6,1.6,1.3,1.6c0.4,0,0.8-0.2,0.8-0.2V38h-0.6c0,0-0.2,0-0.2-0.2v-0.4c0,0,0-0.2,0.2-0.2h0.9c0,0,0.2,0,0.2,0.2
	c0,0.4,0,1,0,1.4l0,0c0,0-0.6,0.4-1.3,0.4c-1.1,0-2.1-1-2.1-2.2C122.6,36,123.5,35,124.7,35"/>
<path class="st0" d="M130.3,35.2C130.3,35,130.3,35,130.3,35.2l1.3-0.2c0.8,0,1.3,0.6,1.3,1.2c0,0.8-0.6,1.4-1.3,1.4h-0.8V39
	c0,0,0,0.2-0.2,0.2h-0.4c0,0-0.2,0-0.2-0.2L130.3,35.2L130.3,35.2z M131.6,37c0.4,0,0.8-0.4,0.8-0.8s-0.4-0.8-0.8-0.8h-0.8v1.4
	L131.6,37L131.6,37z"/>
<path class="st0" d="M133.9,35.2C133.9,35,133.9,35,133.9,35.2l1.7-0.2c0.8,0,1.1,0.6,1.1,1.2s-0.4,1-0.8,1.2l0.8,1.4
	c0,0,0,0.2-0.2,0.2h-0.4l0,0l-0.8-1.6h-0.8v1.4c0,0,0,0.2-0.2,0.2h-0.6c0,0-0.2,0-0.2-0.2L133.9,35.2L133.9,35.2z M135.4,37
	c0.4,0,0.8-0.4,0.8-0.8s-0.4-0.6-0.8-0.6h-0.9V37C134.4,37,135.4,37,135.4,37z"/>
<path class="st0" d="M139.5,35c1.1,0,2.1,1,2.1,2.2c0,1.2-0.9,2.2-2.1,2.2s-2.1-1-2.1-2.2C137.6,36,138.4,35,139.5,35 M139.5,38.6
	c0.8,0,1.5-0.6,1.5-1.6c0-0.8-0.6-1.6-1.5-1.6c-0.8,0-1.5,0.6-1.5,1.6C138.2,38,138.8,38.6,139.5,38.6"/>
<path class="st0" d="M144.4,35c0.6,0,0.9,0.2,1.3,0.6v0.2l-0.2,0.2c0,0,0,0-0.2,0c-0.2-0.2-0.6-0.4-0.9-0.4c-0.8,0-1.3,0.8-1.3,1.6
	c0,0.8,0.6,1.6,1.3,1.6c0.4,0,0.8-0.2,0.8-0.2V38h-0.6c0,0-0.2,0-0.2-0.2v-0.4c0,0,0-0.2,0.2-0.2h0.9c0,0,0.2,0,0.2,0.2
	c0,0.4,0,1,0,1.4l0,0c0,0-0.6,0.4-1.3,0.4c-1.1,0-2.1-1-2.1-2.2C142.3,36,143.3,35,144.4,35"/>
<path class="st0" d="M147,35.2C147,35,147,35,147,35.2l1.7-0.2c0.8,0,1.1,0.6,1.1,1.2s-0.4,1-0.8,1.2l0.8,1.4c0,0,0,0.2-0.2,0.2
	h-0.4l0,0l-0.8-1.6h-0.8v1.4c0,0,0,0.2-0.2,0.2H147c0,0-0.2,0-0.2-0.2L147,35.2L147,35.2z M148.5,37c0.4,0,0.8-0.4,0.8-0.8
	s-0.4-0.6-0.8-0.6h-0.9V37C147.6,37,148.5,37,148.5,37z"/>
<path class="st0" d="M150.4,39l1.7-4c0,0,0,0,0.2,0l0,0c0,0,0,0,0.2,0l1.7,4c0,0,0,0.2-0.2,0.2h-0.4h-0.2l-0.4-0.8h-1.9
	c-0.2,0.2-0.2,0.6-0.4,0.8c0,0,0,0-0.2,0L150.4,39C150.4,39.2,150.4,39,150.4,39 M152.9,37.8l-0.8-1.6l0,0l-0.8,1.6H152.9z"/>
<path class="st0" d="M155.3,35L155.3,35L155.3,35c0.2,0,0.2,0,0.4,0l1.1,3l0,0l1.1-3c0,0,0,0,0.2,0l0,0c0,0,0,0,0.2,0l0.8,4
	c0,0,0,0.2-0.2,0.2h-0.4h-0.2l-0.4-2.8l0,0L157,39c0,0,0,0-0.2,0h-0.2c0,0,0,0-0.2,0l-0.8-2.6l0,0l-0.4,2.6c0,0,0,0-0.2,0h-0.4
	c0,0-0.2,0-0.2-0.2L155.3,35z"/>
<path class="st0" d="M3,22.7L3,22.7c0-0.2-0.2-0.4-0.4-0.4c-0.2,0-0.2,0.2-0.4,0.4c0,0.2,0,0.6-0.2,0.8v0.2c0.2,0,0.4,0.2,0.6,0.2
	C2.8,23.5,3,23.1,3,22.7"/>
<path class="st0" d="M3.6,22.3c0.2-0.2,0.4-0.4,0.6-0.6l-0.2-0.2H3.8c-0.2,0.2-0.4,0.2-0.6,0.4v0.2L3.6,22.3
	C3.4,22.3,3.4,22.3,3.6,22.3"/>
<path class="st0" d="M48.7,22.5c-0.2,0.2-0.4,0.2-0.2,0.4c0.2,0.4,0.2,0.6,0.2,0.8v0.2l0.6-0.2c0-0.2,0-0.2-0.2-0.4
	c0-0.2,0-0.4-0.2-0.6C49.1,22.5,48.9,22.3,48.7,22.5"/>
<path class="st0" d="M47.9,21.5c-0.2-0.2-0.4,0-0.4,0.2c0,0.2,0.2,0.4,0.4,0.6c0,0.2,0.2,0.2,0.4,0.2s0.2,0,0.4-0.2l0.2-0.2
	C48.3,21.7,48.1,21.7,47.9,21.5"/>
<path class="st0" d="M14.9,21.5c0.2,0.2,0.2,0.4,0.4,0.6c0.2,0,0.4,0,0.6-0.2c0.2,0,0-0.2,0-0.4c-0.2-0.2,0-0.4-0.4-0.4
	c-0.2,0-0.6,0-0.8,0l0,0C14.7,21.3,14.9,21.3,14.9,21.5"/>
<path class="st0" d="M36.5,21.1c-0.2,0-0.4,0-0.8,0c-0.2,0.2-0.2,0.4-0.2,0.6c0,0.2,0.2,0.2,0.4,0.2s0.4,0,0.4,0
	C36.5,21.7,36.5,21.5,36.5,21.1L36.5,21.1"/>
<path class="st0" d="M50.8,4.6c0,0-5.1,3.6-11.7,8.2l0,0c0-4.8,0-9.2,0-9.4V3L25.8,0L12.4,3v0.4c0,0,0,4.6,0,9.8c0,0,0,0,0-0.2
	C5.6,8.2,0.2,4.4,0.2,4.6c0,0,5.3,4,11.8,9c-0.2,0-0.4,0.2-0.8,0.4c-0.4,0.4-0.8,0.8-1.1,0.8c-0.4,0.2-0.9,0-1.3,0.2
	c-0.6,0.2-1.1,0.8-1.7,1.2c-0.6,0.4-1.1,0.8-1.7,0.6c-0.4,0-0.9-0.4-0.9-0.8c-0.2-0.6,0-1,0.4-1.4c0.4-0.6,1.1-0.8,1.3-1.4
	c0.2-0.4,0.2-0.8,0-1.2c-0.4-0.4-1.1-0.4-1.7-0.6c-0.4-0.2-0.6-0.4-0.9-0.6c-0.2,0.2-0.2,0.4-0.2,0.6c0,0.6,0.4,1,0.9,1.2
	c0.2,0.2,0.6,0,0.9,0.2l0.2,0.2c0,0,0,0.2-0.2,0.2c-0.4,0.4-0.9,0.8-1.3,1.2c-0.4,0.4-0.4,1.2-0.2,1.8c0.2,0.6,0.9,1.2,1.5,1.2
	c0.4,0,0.9,0,1.3-0.2c0,0,0,0,0.2,0c0,0.4,0,0.8,0,1.2c0,0.4,0.2,0.6,0.4,0.8c0,0.2,0,0.2,0,0.4c-0.4,0.4-0.8,0.6-0.9,0.6H5.6H5.5
	c-0.2,0.2-0.2,0.6-0.4,1c-0.2,0.4-0.6,0.6-0.9,0.8c0,0.2-0.2,0.4-0.4,0.4c-0.2,0.2-0.2,0.2-0.4,0.2c-0.2,0.2-0.2,0.6-0.4,1
	c0.4,0,0.8,0.2,1.1,0c0.4-0.2,0.4-0.6,0.6-0.8c0.2-0.2,0.4,0,0.6,0c0.4,0,0.6-0.2,0.8-0.4s0.4-0.4,0.6-0.4c0.4-0.2,0.9,0,1.3,0
	s0.6,0,0.9,0c0.2-0.2,0.6-0.4,0.8-0.4c0.2-0.2,0.4-0.4,0.6-0.6c0-0.2,0.4-0.4,0.2-0.6l-0.2-0.2c-0.2,0.2-0.2,0.4-0.4,0.6
	c-0.6,0.8-1.3,1-2.3,1c-0.9,0-1.7,0.2-2.3,1H5.1c0-0.2,0-0.2,0.2-0.2c0.6-0.8,1.3-1,2.3-1c0.6,0,0.9-0.2,1.3-0.4
	c0.4-0.2,0.8-0.8,0.9-1.2c0.2-0.6,0.2-1.2,0.2-1.6c0,0,0,0,0.2,0c0,0,0.2,0,0.2,0.2c0,0.6-0.2,1.2,0,1.6c0.4,0.6,1.1,0.2,1.7,0.2
	c0,0,0,0,0.2,0c0,1,0,2,0,2.8c0,2.4,1.7,4.8,3.9,6.8c-1.1,0.8-1.9,1.6-2.4,2c-0.4,0.2-0.6,0.6-0.9,0.8c-1.9-1.8-4.7-2-6.8-0.8
	c-2.3,1-3.2,4.4-3.4,4.8c-0.2,1-0.9,3.2-1.1,4c-0.2,0-0.6,0.2-0.8,0.4c-0.4,0.4-0.6,0.8-0.8,1.2c0,0.4,0.2,0.8,0.4,1
	C0.6,43.8,0.9,44,1.5,44c0.4,0,0.9-0.2,1.3-0.4c0.4-0.4,0.6-0.8,0.8-1.2v-0.2c0.9-0.2,2.6-1.6,4.1-2.6c0.2-0.2,0.4-0.2,0.4-0.4
	c1.1,1,2.4,1.6,3.6,1.6c0.4,0,0.8-0.2,1.1-0.4l0.2-0.2c0.9-0.8,1.5-2,1.5-3.2s-0.2-2.4-0.9-3.4c0.4-0.2,0.6-0.6,0.9-0.8
	c0.6-0.4,1.5-1.2,2.6-2l0,0c3.8,3.2,8.3,5.4,8.6,5.6l0,0h0.2h0.2c0.4-0.2,4.7-2.2,8.3-5.4c0.9,0.8,1.7,1.4,2.3,1.8
	c0.4,0.2,0.6,0.4,0.9,0.8c-0.8,1-1.1,2.2-1.1,3.4s0.6,2.4,1.5,3.2l0.2,0.2c0.4,0.2,0.8,0.4,1.1,0.4c0.9,0,2.3-0.6,3.6-1.6
	c0.2,0.2,0.4,0.2,0.4,0.4c1.3,1.2,3.2,2.4,4.1,2.6v0.2c0,0.4,0.2,1,0.8,1.2c0.4,0.2,0.8,0.4,1.3,0.4c0.4,0,0.8-0.2,1.1-0.4
	c0.2-0.2,0.4-0.6,0.4-1s-0.2-1-0.8-1.2C50,41.2,49.6,41,49.4,41c-0.2-0.8-0.8-3-1.1-4c-0.2-0.4-1.1-3.8-3.4-4.8
	c-2.3-1.8-5.1-1.6-7,0.2c-0.4-0.2-0.6-0.4-0.9-0.8c-0.6-0.4-1.3-1-2.3-1.8l0,0c2.3-2,4.1-4.6,4.1-7c0-0.8,0-1.8,0-2.6
	c0.2,0,0.2,0,0.4,0c0.4,0,0.8,0,1.1,0s0.8-0.2,0.9-0.6c0.2-0.6,0-1,0-1.6l0,0h0.2c0.2,0.4,0.2,1,0.2,1.6c0,0.4,0.2,0.8,0.4,1.2
	c0.4,0.6,1.1,1,1.9,0.8c0.9,0,1.7,0.4,2.1,1l0,0l0,0c-0.4-0.4-0.9-0.8-1.5-0.8c-0.6-0.2-1.1,0.2-1.7,0c-0.6-0.2-1.1-1-1.3-1.6l0,0
	c0,0,0,0,0,0.2v0.6c0.2,0.4,0.2,1,0.8,1.2c0.4,0.2,0.8,0.6,1.1,0.4c0.8-0.2,1.5,0,2.1,0.4c0.2,0.2,0.4,0.4,0.6,0.4
	c0.2,0,0.6,0,0.8-0.2c0.4-0.2,0.6,0.4,0.8,0.6c0.2,0.2,0.8,0.2,0.9,0.2l0,0c0-0.4-0.2-0.6-0.2-1c-0.4,0-0.6-0.4-0.9-0.8
	c-0.2-0.2-0.6-0.4-0.6-0.8c0-0.2,0-0.4-0.2-0.6c0-0.2-0.2-0.4-0.4-0.4c-0.4,0-0.8,0-0.9-0.4c-0.2-0.2,0-0.6,0-0.8
	c0.2-0.4,0.2-0.8,0-1c0-0.2-0.2-0.4-0.2-0.6s0.2,0,0.4,0c0.4,0.2,0.9,0,1.3-0.2c0.6-0.2,0.9-1,0.9-1.6c0-1-0.8-1.6-1.3-2.2
	c-0.2-0.2-0.2-0.2-0.4-0.4c0-0.4,0.4-0.2,0.6-0.2c0.2,0,0.4-0.2,0.6-0.2c0.6-0.4,0.6-1,0.6-1.6v-0.2c0,0-0.2,0.2-0.4,0.2
	c-0.4,0.2-0.8,0.2-1.1,0.4c-0.4,0.2-0.9,0.4-1.1,1c0,0.2,0,0.6,0.2,0.8c0.6,0.8,1.5,1.4,1.7,2.4c0,0.4-0.2,0.8-0.4,1
	c-0.4,0.2-1.1,0.2-1.5,0c-0.9-0.4-1.7-1.2-2.6-1.6c-0.6-0.2-1.3-0.2-1.9-0.6c-0.4-0.2-0.8-0.6-1.1-0.8c-0.2,0-0.4,0-0.6-0.2l0,0
	C45.7,8.4,50.8,4.6,50.8,4.6 M2.4,42.6c-0.4,0.4-1.1,0.4-1.5,0c-0.2-0.2-0.2-0.4-0.2-0.4c0-0.2,0.2-0.6,0.4-0.8
	C1.3,41.2,1.7,41,2.1,41c0.2,0,0.4,0,0.6,0.2c0.2,0.2,0.2,0.4,0.2,0.4C2.8,42.2,2.6,42.4,2.4,42.6 M2.6,40.6c0.4-2.2,1.7-4.6,2.6-6
	c0.2,0.8,0.6,1.4,1.1,2.2C6.2,37,6,37,6,37.2C3.8,39,2.8,40,2.6,40.6 M7.1,38.4c-2.1,1.8-3.4,2.4-3.9,2.6c0,0,0-0.2-0.2-0.2l0,0
	c0.2-0.4,0.9-1.2,3.2-3.2c2.6-2.2,3.8-2.8,4.1-2.8l0,0C10.5,35.2,9.8,36.4,7.1,38.4 M13.5,36.4c0,0.6-0.2,1-0.4,1.6
	c-0.2-1.2-0.9-2.4-2.1-3.6c-1.1-1.2-2.6-2.2-3.8-2.4c1.7-0.6,3.8,0,5.1,1.4C13.2,34.2,13.7,35.2,13.5,36.4 M49.4,41.4
	c0.2,0.2,0.4,0.6,0.4,0.8c0,0.2,0,0.4-0.2,0.4c-0.4,0.4-0.9,0.2-1.5,0c-0.2-0.2-0.4-0.6-0.4-0.8c0-0.2,0-0.4,0.2-0.4
	c0.2-0.2,0.4-0.2,0.6-0.2C48.9,41.2,49.3,41.2,49.4,41.4 M45.5,34.6c0.9,1.4,2.3,3.8,2.6,6C47.9,40,47,39,44.7,37.2
	c-0.2-0.2-0.2-0.2-0.4-0.4C44.9,36,45.3,35.2,45.5,34.6 M47.6,41L47.6,41L47.6,41c-0.8,0-2.1-0.8-4.1-2.4c-2.6-2.2-3.4-3.2-3.4-3.4
	l0,0c0.4,0,1.3,0.4,4.1,2.8C46.8,39.6,47.4,40.6,47.6,41 M38.4,33.2c1.3-1.4,3.4-1.8,5.1-1.4c-1.1,0.2-2.6,1.2-3.8,2.4
	c-1.1,1.2-1.9,2.6-2.1,3.6c-0.2-0.4-0.4-1-0.4-1.6C37,35.2,37.4,34.2,38.4,33.2 M13.3,20.1c0.2,0,0.2,0,0.4,0c0.2,0,0.6,0,0.8,0
	c0,0,0-0.2,0-0.4c0-0.2-0.2-0.4,0-0.4h0.2c0,0.2,0.2,0.4,0.2,0.6c0.2,0.4,0.6,0.6,0.9,0.8c0.4,0.2,0.6,0.6,0.6,1
	c0,0.2-0.2,0.4-0.4,0.4c-0.2,0.2-0.6,0.2-0.9,0.2c-0.4-0.2-0.6-0.8-0.8-1c-0.2-0.2-0.4-0.2-0.6-0.2s-0.4,0-0.6,0
	C13.3,20.9,13.3,20.5,13.3,20.1 M38,22.7c0,5.6-10.7,11.3-12.4,12.1c-1.5-0.8-12.4-6.4-12.4-12.1c0-0.2,0-0.4,0-0.8
	c0,0.2,0.2,0.2,0.2,0.4c0.2,0.2,0.4,0,0.6,0.2s0.2,0.4,0.4,0.6c0.2,0.2,0.6,0.2,0.8,0.2c0.6-0.2,1.1-0.4,1.7-0.8h0.6
	c0.2,0,0.6,0,0.6-0.2c0,0,0-0.2,0.2-0.2c1.7,2.6,4.5,4.4,7.9,4.4c3.2,0,6.2-1.8,7.7-4.4v0.2c0.2,0.2,0.4,0,0.6,0
	c0.2,0,0.2,0.4,0.4,0.4c0.4,0.2,0.9,0.2,1.3,0.4c0.2,0,0.6,0.2,0.8,0s0.4-0.4,0.4-0.8c0-0.2,0.2,0,0.4-0.2c0.2-0.2,0.4-0.4,0.4-0.6
	C38,22.1,38,22.3,38,22.7 M18.2,17.5L18.2,17.5L18.2,17.5c0.2,0.6,0.2,1.2-0.2,1.6v0.2c0.4,0.2,0.6,0,0.9-0.2c0.4,0,0.6,0,0.9-0.2
	l0,0c-0.2,0.2-0.4,0.6-0.4,0.8c-0.2,0.2-0.6,0.4-0.6,0.8c0,0.2,0.2,0,0.4,0c0,0,0,0,0,0.2l-0.2,0.4c-0.2,0.2,0,0.4,0,0.6
	c0,0.2,0.2,0.2,0.4,0.2c0.4,0,0.8-0.2,0.9-0.2c0.4-0.2,0.8-0.2,1.1,0c0.4,0,0.8-0.2,0.9-0.6c0.2,0,0.4,0.2,0.4,0.2
	c0.4,0.4,0.9,0.8,1.7,0.6l0,0v-0.2l-0.4-0.2c-0.2-0.2-0.6-0.4-0.8-0.8c0-0.2-0.2-0.6-0.4-0.8c0-0.2-0.2-0.2-0.2-0.4l0,0
	c0.4,0.2,0.8,0.6,0.9,1c0.4,0.4,0.8,0.8,1.3,0.8l0,0c0,0,0,0,0-0.2l-0.4-0.2c-0.6-0.4-0.8-0.8-0.9-1.4c-0.2-0.2-0.4-0.2-0.4-0.4
	c-0.4-1-0.6-2-0.8-3.2c0-0.2-0.2-0.6-0.2-0.8c-0.4-0.8-0.9-1.4-1.5-2.2c0,0-0.2,0-0.2-0.2L19,11.1c-0.2-0.2-0.2-0.2-0.4-0.2
	c1.7-2.4,4.3-4,7.3-4c3.2,0,5.8,1.8,7.3,4.2c-1.1,1-2.4,1.8-3.4,3c-0.8,0.8-0.9,1.8-1.3,3c-0.4,1.6-0.6,3.2-2.1,4.2v0.2
	c0.4,0.2,0.8,0,0.9-0.4c0.2-0.4,0.6-0.8,0.9-1.2l0,0l0,0c-0.2,0.4-0.4,0.6-0.6,1c-0.2,0.4-0.6,0.8-0.8,1l0,0l0,0
	c0.8,0,1.1-0.6,1.7-1H29c0.2,0.2,0.4,0.4,0.8,0.4c0.4,0,0.6,0,0.9,0c0.4,0.2,0.8,0.4,1.3,0.4c0.2,0,0.4-0.2,0.6-0.4
	c0-0.2,0-0.4,0-0.6c0.2,0,0.2,0,0.4,0c0,0,0,0,0-0.2c0-0.4-0.4-0.6-0.6-1c-0.2-0.4-0.8-0.8-0.8-1.2c0,0,0,0,0.2,0
	c0.4,0.2,0.6,0.6,1.1,0.6c0.4,0,0.6,0,0.9,0c0,0,0,0,0-0.2c-0.2-0.4-0.2-0.6-0.4-1c-0.2-0.4-0.2-1,0-1.4c0,0,0,0,0.2,0
	c0,0,0.2,0,0.2,0.2c0,0.8,0,1.4,0.6,2c0.2,0.4,0.6,0.4,0.8,0.6c0,0.2,0.2,0.4,0,0.4l-0.6,0.8c-0.2,0.2-0.2,0.4-0.2,0.6
	c0,0.2,0,0.4,0,0.6l0,0c-0.2-0.2-0.2-0.6-0.2-1l0.6-1l0,0c-0.2,0-0.4-0.2-0.4-0.2l-0.2,0.2l-0.6,1.2c0,0.2,0,0.2,0,0.4v0.2
	c-1.5,2.8-4.3,4.6-7.5,4.6s-6-1.8-7.5-4.4c0,0,0,0,0-0.2c0.2-0.2,0-0.4,0-0.8c-0.2-0.4-0.4-0.8-0.6-1.2c-0.2,0-0.2-0.2-0.4-0.2
	c0,0-0.2,0-0.2,0.2l0.6,1.4c0,0.2,0,0.2,0,0.4s-0.2,0.6-0.4,0.8c0,0,0,0-0.2,0c0-0.2,0.2-0.6,0.2-1l-0.6-1.2c0-0.2-0.2-0.4-0.2-0.4
	s0-0.2,0.2-0.2s0.6,0,0.8-0.4C17.9,18.5,18,18.1,18.2,17.5 M17.9,13.9H18c0.2,0,0.2,0.2,0.4,0.4c0.2,0.4,0.2,0.8,0,1.2l0,0
	c0-0.4-0.2-0.8-0.2-1C18,14.3,17.7,14.1,17.9,13.9 M21.4,20.5C21.4,20.5,21.6,20.5,21.4,20.5c0.2,0.2,0.2,0.4,0,0.6
	c-0.2,0-0.4,0-0.6,0c0,0-0.2,0,0,0C21.1,20.9,21.2,20.5,21.4,20.5 M21.2,17.5c0.2-0.2,0.2-0.6,0.4-0.4c0.2,0.2,0.2,0.4,0.4,0.6
	c0.2,0.4,0.4,0.6,0.4,1.2c0,0,0,0.2-0.2,0.2l0,0c0-0.2,0-0.4-0.2-0.6s-0.4-0.4-0.6-0.4c-0.2,0-0.2,0.2-0.4,0.4l0,0
	C21.1,17.9,21.2,17.7,21.2,17.5 M34,13.1c0,0,0.2,0,0.4,0c0,0.2,0,0.2,0,0.2c-0.4,0.4-0.8,0.6-0.9,1c0,0.2-0.2,0.2-0.2,0.4l0,0
	c0-0.2,0-0.4,0-0.6C33.3,13.9,33.7,13.3,34,13.1 M30.6,18.1c-0.2,0-0.2,0.2-0.4,0.2c-0.2,0.2-0.6,0.4-0.6,0.8c0,0.2,0,0.2-0.2,0.4
	h-0.2c0-0.4,0-0.8,0.4-1c0.2-0.2,0.4-0.6,0.8-0.8C30.6,17.7,30.6,17.7,30.6,18.1c0.2,0,0.2,0.2,0.4,0.4v0.2c0,0,0,0.2-0.2,0
	C30.6,18.3,30.8,17.9,30.6,18.1 M30.8,21.1c-0.2,0-0.2,0-0.4,0c-0.2,0-0.2-0.2-0.2-0.4c0,0,0,0,0-0.2c0.2,0,0.4,0,0.4,0.2
	C30.8,20.9,31,21.1,30.8,21.1 M38.2,21.5C38,21.5,38,21.3,38.2,21.5h-0.9c-0.4,0-0.4,0.4-0.6,0.8c0,0.2-0.2,0.2-0.4,0.2
	c-0.4-0.2-0.9-0.2-1.1-0.6c0-0.2,0-0.2,0-0.4c0.2-0.2,0.4-0.6,0.8-0.8c0.4,0,0.8-0.4,0.9-0.6c0.2-0.2,0-0.4,0.2-0.4h0.2
	c0,0.2,0,0.4-0.2,0.6c0.4,0,0.8,0,1.1,0C38.2,20.7,38.2,21.1,38.2,21.5 M37.8,12.7c-0.4-0.2-0.9-0.4-1.5-0.4c-0.4,0-0.4-0.4-0.8-0.6
	c-0.4-0.4-0.9-0.6-1.5-0.6c-0.2,0-0.4,0.2-0.6,0.4C31.8,8.8,29,7,25.8,7s-6,1.8-7.7,4.4c-0.4-0.2-0.9,0-1.3,0
	c-0.4,0.2-0.8,0.6-1.1,0.8c-0.6,0.4-1.3,0.4-1.9,0.8c-0.2,0.2-0.4,0.4-0.6,0.6c0-4.2,0-8.2,0-9.4l12.4-2.8L38,3.8c0,1.2,0,4.8,0,8.8
	C38,12.7,38,12.7,37.8,12.7"/>
</svg>
