<?xml version="1.0" encoding="utf-8"?>
<!-- Generator: Adobe Illustrator 21.0.2, SVG Export Plug-In . SVG Version: 6.00 Build 0)  -->
<svg version="1.1" id="Layer_1" xmlns="http://www.w3.org/2000/svg" xmlns:xlink="http://www.w3.org/1999/xlink" x="0px" y="0px"
	 viewBox="0 0 160 87" style="enable-background:new 0 0 160 87;" xml:space="preserve">
<style type="text/css">
	.st0{fill:#615E5D;}
</style>
<path class="st0" d="M38.8,80.6c0,0-0.4-0.2-1.1-0.2c-0.8,0-1.1,0.2-1.1,0.2s-0.6,0.6-0.6,2.5s0.6,2.9,1.9,2.9
	c0.6,0,1.1-0.2,1.1-0.2l0.2-1.2h0.8l-0.2,1.7c0,0-0.8,0.4-1.9,0.4c-1.9,0-3-1.4-3-3.7c0-2.3,1.1-3.7,3-3.7c1.1,0,1.9,0.4,1.9,0.4
	l0.2,1.7h-0.8L38.8,80.6"/>
<path class="st0" d="M45.4,79.7c1.7,0,2.8,1.4,2.8,3.7c0,2.3-1.1,3.7-2.8,3.7c-1.7,0-2.8-1.4-2.8-3.7C42.5,81,43.7,79.7,45.4,79.7
	 M45.5,86.2c0.6,0,1.1-0.2,1.1-0.2s0.6-0.8,0.6-2.7c0-1.9-0.6-2.9-1.7-2.9c-0.6,0-1.1,0.2-1.1,0.2s-0.6,0.6-0.6,2.7
	C43.7,85.3,44.2,86.2,45.5,86.2z"/>
<path class="st0" d="M55.1,80.6c0,0-0.4-0.2-1.1-0.2c-0.8,0-1.1,0.2-1.1,0.2s-0.6,0.6-0.6,2.5s0.6,2.9,1.9,2.9
	c0.6,0,1.1-0.2,1.1-0.2l0.2-1.2h0.6l-0.2,1.7c0,0-0.8,0.4-1.9,0.4c-1.9,0-3-1.4-3-3.7c0-2.3,1.1-3.7,3-3.7c1.1,0,1.9,0.4,1.9,0.4
	l0.2,1.7h-0.8L55.1,80.6"/>
<polyline class="st0" points="61.4,86.4 61.4,86.8 58.9,86.8 58.9,86.4 59.7,86.2 59.7,80.4 58.9,80.2 58.9,79.8 61.4,79.8 
	61.4,80.2 60.6,80.4 60.6,82.9 61.4,82.7 63.2,80.4 62.5,80.2 62.5,79.8 64.7,79.8 64.7,80.2 64,80.4 62.1,83.1 64.2,86.2 
	64.9,86.4 64.9,86.8 63.2,86.8 61.4,83.5 60.6,83.5 60.6,86.2 61.4,86.4 "/>
<polyline class="st0" points="71.3,86.4 71.3,86.8 68.7,86.8 68.7,86.4 69.4,86.2 69.4,80.4 68.1,80.4 67.7,81.8 67.2,81.8 
	67.2,79.8 72.6,79.8 72.8,81.8 72.1,81.8 71.9,80.4 70.6,80.4 70.6,86.2 71.3,86.4 "/>
<path class="st0" d="M78.5,79.8L78.5,79.8l2.3,6.6h0.8v0.4h-2.6v-0.6l0.8-0.2L79,84.7h-2.4L76,86.2h0.8v0.6h-2.3v-0.6l0.8-0.2
	l2.3-6.4h0.9 M76.8,84.1h2.1l-0.8-2.5c0-0.2-0.2-0.4-0.2-0.6l0,0c0,0.2-0.2,0.4-0.2,0.6L76.8,84.1z"/>
<polyline class="st0" points="86.4,86.4 86.4,86.8 83.9,86.8 83.9,86.4 84.5,86.2 84.5,80.4 83.9,80.2 83.9,79.8 86.4,79.8 
	86.4,80.2 85.6,80.4 85.6,86.2 86.4,86.4 "/>
<polyline class="st0" points="89.2,86.8 89.2,86.4 89.8,86.2 89.8,80.4 89.2,80.2 89.2,79.8 91.6,79.8 91.6,80.2 90.9,80.4 
	90.9,86.2 93.2,86.2 93.5,85.1 94.1,85.1 94.1,86.8 89.2,86.8 "/>
<path class="st0" d="M101.1,86.8v-0.6l0.8-0.2v-5.8h-0.8v-0.6h2.8c1.3,0,2.3,0.8,2.3,1.9c0,0.8-0.4,1.4-0.9,1.5H105l0,0h0.2
	c0.8,0.2,1.1,1,1.1,1.7c0,1.2-0.9,1.9-2.3,1.9H101.1 M102.8,80.4v2.5h0.8c0.6,0,0.9-0.2,0.9-0.2s0.4-0.4,0.4-1.2
	c0-0.8-0.6-1.2-1.5-1.2C103.3,80.4,102.8,80.4,102.8,80.4z M102.8,83.5V86h1.1c0.6,0,0.9-0.2,0.9-0.2s0.4-0.4,0.4-1.2
	c0-1-0.6-1.4-1.5-1.4L102.8,83.5L102.8,83.5z"/>
<path class="st0" d="M112.5,79.8L112.5,79.8l2.3,6.6h0.8v0.4h-2.6v-0.6l0.8-0.2l-0.6-1.4h-2.4l-0.6,1.5h0.8v0.6h-2.3v-0.6l0.8-0.2
	l2.3-6.4h0.9 M110.8,84.1h2.1l-0.8-2.5c0-0.2-0.2-0.4-0.2-0.6l0,0c0,0.2-0.2,0.4-0.2,0.6L110.8,84.1z"/>
<path class="st0" d="M120.4,86.4v0.4H118v-0.6l0.8-0.2v-5.8H118v-0.6h2.8c1.3,0,2.3,0.8,2.3,2.1c0,1-0.6,1.7-1.5,1.9l1.5,2.5h0.8
	v0.6h-1.5l-1.7-3.1h-0.9v2.5L120.4,86.4 M119.9,80.4v2.7h0.9c0.6,0,0.9-0.2,0.9-0.2s0.4-0.4,0.4-1.2c0-1-0.6-1.4-1.5-1.4H119.9z"/>
<polyline class="st0" points="35.4,34.4 35.4,33.4 30.1,33.4 30.1,34.6 31.6,34.6 31.6,40.2 25.2,40.2 25.2,34.8 26.9,34.4 
	26.9,33.4 21.5,33.4 21.5,34.6 23,34.6 23,47.4 21.5,47.8 21.5,48.9 26.9,48.9 26.9,47.8 25.2,47.6 25.2,41.8 31.6,41.8 31.6,47.4 
	30.1,47.8 30.1,48.9 35.4,48.9 35.4,47.8 33.9,47.6 33.9,34.8 35.4,34.4 "/>
<polyline class="st0" points="42.5,34.4 42.5,33.4 37.3,33.4 37.3,34.6 38.8,34.6 38.8,47.4 37.3,47.8 37.3,48.9 42.5,48.9 
	42.5,47.8 41,47.6 41,34.8 42.5,34.4 "/>
<polyline class="st0" points="54.4,35 55,37.7 56.5,37.7 56.3,33.4 44.4,33.4 44,37.7 45.5,37.7 46.1,35 49.1,35 49.1,47.4 
	47.6,47.8 47.6,48.9 53.1,48.9 53.1,47.8 51.4,47.6 51.4,35 54.4,35 "/>
<path class="st0" d="M64.2,34.8c1.5,0,2.4,0.6,2.4,0.6l0.6,2.5h1.5l-0.2-3.7c0,0-1.5-1-4-1c-4.1,0-6.6,2.9-6.6,7.9s2.6,7.9,6.6,7.9
	c2.3,0,4-1,4-1l0.2-3.9h-1.5l-0.6,2.5c0,0-1.1,0.6-2.3,0.6c-2.6,0-4-2.1-4-6.4s1.3-5.6,1.3-5.6S62.5,34.8,64.2,34.8"/>
<polyline class="st0" points="84.5,34.4 84.5,33.4 79,33.4 79,34.6 80.7,34.6 80.7,40.2 74.3,40.2 74.3,34.8 75.8,34.4 75.8,33.4 
	70.4,33.4 70.4,34.6 72.1,34.6 72.1,47.4 70.4,47.8 70.4,48.9 75.8,48.9 75.8,47.8 74.3,47.6 74.3,41.8 80.7,41.8 80.7,47.4 
	79,47.8 79,48.9 84.5,48.9 84.5,47.8 83,47.6 83,34.8 84.5,34.4 "/>
<path class="st0" d="M92.6,34.8c1.5,0,2.4,0.6,2.4,0.6l0.6,2.5h1.5l-0.2-3.7c0,0-1.5-1-4-1c-4.1,0-6.6,2.9-6.6,7.9s2.6,7.9,6.6,7.9
	c2.3,0,4-1,4-1l0.2-3.9h-1.5L95,46.8c0,0-1.1,0.6-2.3,0.6c-2.6,0-4-2.1-4-6.4s1.3-5.6,1.3-5.6S91.1,34.8,92.6,34.8"/>
<path class="st0" d="M104.8,33.3c-3.6,0-6.2,2.9-6.2,7.9s2.4,7.9,6.2,7.9c3.6,0,6.2-2.9,6.2-7.9C111,36.2,108.4,33.3,104.8,33.3
	 M107.1,46.8c0,0-0.9,0.6-2.3,0.6c-2.4,0-3.8-1.9-3.8-6.4c0-4.3,1.3-5.6,1.3-5.6s0.9-0.6,2.3-0.6c2.4,0,3.8,1.9,3.8,6.4
	C108.4,45.4,107.1,46.8,107.1,46.8z"/>
<path class="st0" d="M118.4,49.1c3.6,0,6.2-2.9,6.2-7.9s-2.4-7.9-6.2-7.9s-6.2,2.9-6.2,7.9C112.2,46.2,114.6,49.1,118.4,49.1
	 M115.9,35.4c0,0,0.9-0.6,2.3-0.6c2.4,0,3.8,1.9,3.8,6.4c0,4.3-1.3,5.8-1.3,5.8s-0.9,0.6-2.3,0.6c-2.4,0-3.8-1.9-3.8-6.4
	C114.6,36.9,115.9,35.4,115.9,35.4z"/>
<polyline class="st0" points="130.8,41.6 135.3,48.9 138.7,48.9 138.7,47.8 137.2,47.6 132.7,40.6 136.8,34.8 138.3,34.4 
	138.3,33.4 133.4,33.4 133.4,34.6 134.9,34.6 131.2,40 129.5,40.4 129.5,34.8 131,34.4 131,33.4 125.5,33.4 125.5,34.6 127.2,34.6 
	127.2,47.4 125.5,47.8 125.5,48.9 131,48.9 131,47.8 129.5,47.6 129.5,41.6 130.8,41.6 "/>
<path class="st0" d="M3.6,20.3h41.6v2.1H19.8c-5.3,0-5.3,0.4-5.3,1.7c0,0.6,0.6,0.8,1.1,0.8c0.4,0,0.6-0.4,0.6-0.6
	c0-0.2-0.6,0-0.6-0.4c0-0.2,1.9-0.2,4-0.2h26.5v-7.9H16c-4.5,0-4.9,0-4.9-0.4c0-0.2,0.6-0.2,0.6-0.6c0-0.4-0.2-0.8-0.8-0.8
	c-0.6,0-1.1,0.4-1.1,1.2c0,1.2,0,1.5,6.2,1.5h29.2v2.3H3.6c-1.9,0-2.4-0.2-2.4-0.6c0-0.4,0.4-0.2,0.6,0s0.2,0.4,0.4,0.4
	c0.2,0,0.2-0.4,0.2-0.8c0-0.6-0.2-1.2-0.9-1.2s-1.1,0.4-1.1,1.4C0,19.3,0.6,20.3,3.6,20.3"/>
<path class="st0" d="M144.2,24c0,0.6-0.6,0.2-0.6,0.4c0,0.2,0.2,0.6,0.6,0.6c0.6,0,1.1-0.2,1.1-0.8c0-1.4,0.2-1.7-5.3-1.7h-25v-2.1
	h41.6c2.8,0,3.4-1,3.4-1.9c0-1-0.6-1.4-1.1-1.4c-0.8,0-0.9,0.6-0.9,1.2c0,0.6,0.2,0.8,0.2,0.8c0.2,0,0.2-0.2,0.4-0.4
	c0.2-0.2,0.6-0.2,0.6,0c0,0.4-0.6,0.6-2.4,0.6H115V17h29.2c6,0,6.2-0.4,6.2-1.5c0-0.8-0.6-1.2-1.1-1.2s-0.8,0.4-0.8,0.8
	c0,0.4,0.6,0.2,0.6,0.6c0,0.2-0.2,0.4-4.9,0.4h-30.3V24h26.5C142.3,23.8,144.2,23.6,144.2,24"/>
<path class="st0" d="M68.7,8.3c0,0,3.4,2.9,6.2,7.9C74.1,12,71.5,7,71.5,7L68.7,8.3"/>
<path class="st0" d="M91.5,8.3l-2.8-1.2c0,0-2.6,5-3.4,9.3C88.1,11.2,91.5,8.3,91.5,8.3"/>
<path class="st0" d="M83.2,3.9H77c0.9,2.5,2.1,5.6,3.2,8.9C81.1,9.5,82.2,6.4,83.2,3.9"/>
<path class="st0" d="M93.3,13.1c-0.4,0.4-0.6,0.6-0.9,1h1.9c3.6,0,6.6,2.5,6.6,5.6c0,3.1-2.8,5.6-6.6,5.6h-9.8
	c-0.2,0.4-0.4,0.8-0.6,1h10.2c4.1,0,7.5-2.9,7.5-6.6s-3.4-6.6-7.5-6.6L93.3,13.1"/>
<path class="st0" d="M65.9,26.3H76c-0.2-0.4-0.4-0.8-0.6-1h-9.8c-3.6,0-6.6-2.5-6.6-5.6s2.8-5.6,6.6-5.6h1.9c-0.4-0.4-0.6-0.8-0.9-1
	h-0.8c-4.1,0-7.5,2.9-7.5,6.6S61.7,26.3,65.9,26.3"/>
<path class="st0" d="M62.7,7.7c0.2,0,10.2,8.1,14.9,18.8h1.1c-2.1-4.6-5.1-8.9-7.5-11.8c-3-3.5-5.8-6-7.2-7.2l8.7-3.7
	c2.1,5.2,5.3,14.1,7,22.6h0.8c1.7-8.7,4.9-17.4,7-22.6L96,7.5c-1.3,1.2-4.1,3.7-7.2,7.2c-2.6,3.1-5.6,7.2-7.5,11.8h1.1
	C86.9,15.9,97.1,7.9,97.3,7.7L98,7.2L87.7,2.7c0.4-1.2,0.8-2.1,1.1-2.7H71.1c0.2,0.6,0.6,1.5,1.1,2.7L61.9,7.2L62.7,7.7 M86.9,1.2
	c-1.7,4.3-4.9,12.4-7,20.9c-2.1-8.5-5.3-16.6-7-20.9H86.9z"/>
<path class="st0" d="M139.6,60.3H20.5c-5.1,0-5.5,0.6-5.5,1.9c0,0.6,0.6,0.8,1.1,0.8c0.6,0,0.8-0.6,0.8-0.8c0-0.2-0.6,0-0.6-0.4
	c0-0.2,1.9-0.2,4-0.2h119.1c2.1,0,4,0,4,0.2c0,0.6-0.6,0.2-0.6,0.4c0,0.2,0.2,0.8,0.8,0.8c0.6,0,1.1-0.2,1.1-0.8
	C145.1,60.9,144.7,60.3,139.6,60.3"/>
<path class="st0" d="M158.8,54.5c-0.8,0-0.9,0.6-0.9,1.2s0.2,0.8,0.4,0.8s0.2-0.2,0.4-0.4c0.2-0.2,0.6-0.4,0.6,0.2
	c0,0.4-0.6,0.6-2.6,0.6H3.6c-1.9,0-2.6-0.2-2.6-0.6c0-0.4,0.4-0.2,0.6-0.2c0.2,0.2,0.4,0.4,0.4,0.4c0.2,0,0.4-0.4,0.4-0.8
	c0-0.6-0.4-1.2-0.9-1.2c-0.8,0-1.3,0.4-1.3,1.5c0,1,0.6,2.1,3.6,2.1h152.8c3,0,3.6-1,3.6-2.1C160.2,55.1,159.6,54.5,158.8,54.5"/>
<path class="st0" d="M108,16.8v2.3h-5.6c0,0.2,0,0.4,0,0.6c0,0.2,0,0.4,0,0.6h5.6v2.5h-6.4c-0.2,0.4-0.4,0.8-0.6,1h8.1v-7.9h-8.1
	c0.2,0.4,0.4,0.6,0.6,1L108,16.8"/>
<path class="st0" d="M58.5,22.6h-6.4v-2.5h5.6c0-0.2,0-0.4,0-0.6c0-0.2,0-0.4,0-0.6h-5.6v-2.5h6.4c0.2-0.4,0.4-0.8,0.6-1H51v7.9h8.1
	C58.9,23.4,58.7,23,58.5,22.6"/>
<path class="st0" d="M88.1,19.5l-0.4,0.6c0,0-0.6,1-0.9,1.4c1.9-0.8,4.1-1.2,7.3-1.2h6c0-0.2,0-0.4,0-0.6c0-0.2,0-0.4,0-0.6h-6.4
	l0,0c-2.1,0-3.6-0.2-5.1-0.6C88.5,18.9,88.1,19.5,88.1,19.5"/>
<path class="st0" d="M97.7,15.9h-6.8c-0.4,0.4-0.6,0.6-0.9,1h8.8C98.6,16.4,98.2,16,97.7,15.9"/>
<path class="st0" d="M85.3,23.8h12.4c0.4-0.2,0.9-0.6,1.1-1h-13C85.6,23,85.4,23.4,85.3,23.8"/>
<path class="st0" d="M69.1,15.9h-6.8c-0.4,0.2-0.9,0.6-1.1,1H70C69.6,16.4,69.4,16,69.1,15.9"/>
<path class="st0" d="M60,19.7c0,0.2,0,0.4,0,0.6h6c3,0,5.5,0.4,7.3,1.2c-0.4-0.4-0.9-1.4-0.9-1.4l-0.4-0.6c0,0-0.4-0.6-0.8-1
	c-1.5,0.4-3.2,0.6-5.1,0.6l0,0h-6.4C60,19.3,60,19.5,60,19.7"/>
<path class="st0" d="M74.7,23.8c-0.2-0.4-0.4-0.8-0.6-1h-13c0.4,0.4,0.8,0.8,1.1,1H74.7"/>
</svg>
