<?xml version="1.0" encoding="utf-8"?>
<!-- Generator: Adobe Illustrator 21.0.2, SVG Export Plug-In . SVG Version: 6.00 Build 0)  -->
<svg version="1.1" id="Layer_1" xmlns="http://www.w3.org/2000/svg" xmlns:xlink="http://www.w3.org/1999/xlink" x="0px" y="0px"
	 viewBox="0 0 126.2 127.2" style="enable-background:new 0 0 126.2 127.2;" xml:space="preserve">
<style type="text/css">
	.st0{fill:#615E5D;}
</style>
<g>
	<polygon class="st0" points="126.2,72.6 119,72.6 119,7.2 3,7.2 3,0 126.2,0 	"/>
</g>
<g>
	<polygon class="st0" points="125.6,127.2 0,127.2 0,0 7.2,0 7.2,120 118.4,120 118.4,115.7 125.6,115.7 	"/>
</g>
<g>
	<path class="st0" d="M34.5,100.7c-2.7,0-4.6-1.3-4.6-5.8v-0.7c0-4.3,1.7-5.8,4.6-5.8c1.6,0,3,0.4,3.7,0.9v9.9
		C37.3,100,36.2,100.7,34.5,100.7z M33.3,103.3c2.2,0,3.9-0.7,4.7-1.6h0.1l0.3,1.3h2.7V78.9h-3.3v7.9c-0.7-0.4-2.2-1-4.2-1
		c-4.3,0-7.5,2.7-7.5,8.8v0.4C26.4,101.3,30,103.3,33.3,103.3z"/>
</g>
<g>
	<path class="st0" d="M52.4,100.8c-2.4,0-4.4-1.3-4.4-5.8v-0.9c0-3.7,1.6-5.6,4.4-5.6c2.4,0,4.4,1.3,4.4,5.8v0.9
		C56.7,98.8,55.1,100.8,52.4,100.8z M52.4,103.3c4.6,0,7.8-3.2,7.8-8.5v-0.4c0-5.3-2.9-8.4-7.8-8.4c-4.6,0-7.8,3.2-7.8,8.5v0.6
		C44.6,100.3,47.4,103.3,52.4,103.3z"/>
</g>
<g>
	<path class="st0" d="M63.4,103h3.2V89.7c1.1-0.6,2.4-1,3.7-1c2,0,2.7,0.7,2.7,2.6v11.8h3.2V90.7c0-0.4,0-0.6,0-0.9
		c1.3-0.7,2.6-1.2,3.9-1.2c2,0,2.7,0.7,2.7,2.6v11.8h3.3V90.6c0-3.3-1.7-4.6-4.6-4.6c-1.9,0-3.9,0.7-5.6,1.9h-0.1
		c-0.7-1.3-2.2-1.9-4-1.9c-1.9,0-3.7,0.9-5.2,1.7h-0.1v-1.4h-3.2L63.4,103L63.4,103z"/>
</g>
<g>
	<path class="st0" d="M93,95.9l6.6-9.8v9.8H93z M99.6,103.1h3.3v-4.6h3.4v-2.6h-3.4V80.5h-2.4L89.6,96.4v2.2h10
		C99.6,98.5,99.6,103.1,99.6,103.1z"/>
</g>
<g>
	<path class="st0" d="M111.8,95.9l6.6-9.8v9.8H111.8z M118.3,103.1h3.3v-4.6h3.4v-2.6h-3.4V80.5h-2.4l-10.9,15.8v2.2h10V103.1z"/>
</g>
</svg>
