<?xml version="1.0" encoding="utf-8"?>
<!-- Generator: Adobe Illustrator 21.0.2, SVG Export Plug-In . SVG Version: 6.00 Build 0)  -->
<svg version="1.1" id="Layer_1" xmlns="http://www.w3.org/2000/svg" xmlns:xlink="http://www.w3.org/1999/xlink" x="0px" y="0px"
	 viewBox="0 0 180 118" style="enable-background:new 0 0 180 118;" xml:space="preserve">
<style type="text/css">
	.st0{fill:#615E5D;}
</style>
<path class="st0" d="M85.5,105.1c-35.5,3.4-72.6-1.9-77.9-29.5c-2.5-13.7,3.8-28,12.1-37v-4.8C4.9,46.8-3.4,63.2,1.3,82.6
	c6.1,25,37.9,39.1,86.3,34.5c19.3-1.9,44.4-8,61.8-17.5V86.2C133.7,95.4,107.3,103.2,85.5,105.1 M179.2,33.6
	C170.8-7.5,90.8-10,39.4,21.2v3.4C90.8-1.8,163.8-1.6,170.6,36.1c2.3,12.4-4.9,25.5-17.6,33v9.7C168.2,73.3,183.7,55.5,179.2,33.6
	 M146.6,78.6c-7-0.6-9.3-4.8-9.3-9.7V27.5h9.3V78.6z M35.6,79.2c-7-0.6-9.3-4.8-9.3-9.7V42.6h9.3V79.2z M35.6,37.6h-9.3v-8.8h9.3
	V37.6z M91.4,78.8c-7.6,0-10.8-5.3-10.8-10.3V32.7h9.3v9.9h7V50h-7v17.9c0,2.1,1.1,3.4,3.2,3.4h3.8v7.6H91.4 M108.6,63.7
	c0,4.6,3,8.2,8.3,8.2c4,0,6.1-1.1,8.5-3.4L131,74c-3.8,3.4-7.6,5.5-14.4,5.5c-8.9,0-17.3-4.8-17.3-18.7c0-12,7.4-18.7,17.1-18.7
	c9.9,0,15.4,8,15.4,18.3v3.4L108.6,63.7 M116,49.6c-3.2,0-5.7,1.7-6.6,3.8c-0.6,1.3-0.8,2.3-0.8,4h14.2
	C122.5,53.4,120.6,49.6,116,49.6 M53.1,50v28.8h-9.3V42.6h19c8,0,10.8,5.7,10.8,10.9V79h-9.3V53.6c0-2.1-1.1-3.6-3.8-3.6H53.1z"/>
<path class="st0" d="M156.6,34.8c-2.1,0-3.8-1.7-3.8-3.8s1.7-3.8,3.8-3.8s3.8,1.7,3.8,3.8S158.7,34.8,156.6,34.8 M156.6,28.1
	c-1.7,0-3.2,1.5-3.2,3.2s1.3,3.2,3.2,3.2c1.7,0,3.2-1.5,3.2-3.2S158.3,28.1,156.6,28.1 M158.3,33.4h-0.6h-0.2l-0.8-1.7
	c0,0,0,0-0.2,0h-0.2H156v1.5c0,0,0,0.2-0.2,0.2h-0.6c0,0-0.2,0-0.2-0.2v-4c0-0.2,0-0.4,0.2-0.4s0.8,0,1.1,0c1.1,0,1.9,0.4,1.9,1.5
	l0,0c0,0.6-0.4,1.1-0.8,1.3l1.1,1.7C158.5,33.1,158.5,33.1,158.3,33.4C158.5,33.4,158.5,33.4,158.3,33.4 M157.4,30.2
	c0-0.4-0.2-0.6-0.8-0.6h-0.4H156v1.3c0,0,0.4,0,0.6,0C157.2,31,157.4,30.8,157.4,30.2L157.4,30.2z"/>
</svg>
