<?xml version="1.0" encoding="utf-8"?>
<!-- Generator: Adobe Illustrator 21.0.2, SVG Export Plug-In . SVG Version: 6.00 Build 0)  -->
<svg version="1.1" id="Layer_1" xmlns="http://www.w3.org/2000/svg" xmlns:xlink="http://www.w3.org/1999/xlink" x="0px" y="0px"
	 viewBox="0 0 98 147" style="enable-background:new 0 0 98 147;" xml:space="preserve">
<style type="text/css">
	.st0{fill:#615E5D;}
	.st1{fill:#FFFFFE;}
</style>
<path class="st0" d="M65.3,102.7c-4.7,2.4-9.8,0.8-15.8-5.8c-5.2-5.9-11.5-9.7-19.9-10.1v37.6v0.3c0,10.6,8.8,19.2,19.5,19.2
	s19.5-8.6,19.5-19.2v-3.5v-19.9C67.3,101.6,66.3,102.2,65.3,102.7"/>
<path class="st1" d="M42.4,140.4L42.4,140.4c-3.2-1.3-5.8-3.4-7.7-6.1c-2-2.8-3-6.1-3-9.5l0,0v-0.3v-31c0-0.2,0.2-0.5,0.5-0.5
	c0.2,0,0.5,0.2,0.5,0.5v31l0,0v0.3c0,6.5,3.9,12.4,10,14.9c0.2,0.1,0.3,0.3,0.2,0.6C42.8,140.3,42.5,140.4,42.4,140.4"/>
<polyline class="st0" points="0,69.9 0,53.4 1.8,53.4 1.8,68.2 10.3,68.2 10.3,69.9 0,69.9 "/>
<path class="st0" d="M93.7,69.7H98l-4.5-5.5c2.2-0.8,3.7-2.8,3.7-5.2c0-3.1-2.5-5.6-5.6-5.6h-4.7l0,0h-3.5v16.3h3.5v-5h2.8
	L93.7,69.7 M86.8,56.7h4.7c1.3,0,2.3,1,2.3,2.3c0,1.3-1,2.3-2.3,2.3h-4.7V56.7z"/>
<path class="st0" d="M25.9,69.9h2.2l-7.3-16.5H19l-7.3,16.5H14c0,0,0.8-1.8,1.8-4.2h8.4C25.1,68.1,25.9,69.9,25.9,69.9 M16.4,64.1
	c1.6-3.9,3.5-8.2,3.6-8.6c0.1,0.6,2,4.9,3.6,8.6H16.4z"/>
<path class="st0" d="M41.9,61.3c1-0.8,1.6-2,1.6-3.4c0-2.5-2.1-4.4-4.6-4.4h-7.5l0,0h-0.7v16.5h0.8l0,0h8c2.5,0,4.6-2,4.6-4.7
	C44,63.6,43.2,62.1,41.9,61.3 M41.7,57.9c0,1.5-1.3,2.7-2.9,2.7h-6.2V55h6.2C40.5,55.1,41.7,56.4,41.7,57.9z M39.5,68.2h-6.9v-5.8
	h6.9c1.6,0,2.9,1.3,2.9,3C42.3,67,41,68.2,39.5,68.2z"/>
<path class="st1" d="M54.5,87.5c0,2.4-2,4.3-4.4,4.3c-2.4,0-4.4-1.9-4.4-4.3c0-2.4,2-4.3,4.4-4.3C52.6,83.2,54.5,85.2,54.5,87.5"/>
<path class="st0" d="M50.2,92.3c-2.7,0-4.8-2.2-4.8-4.8c0-2.6,2.2-4.8,4.8-4.8c2.7,0,4.8,2.2,4.8,4.8S52.8,92.3,50.2,92.3
	 M50.2,83.7c-2.2,0-4,1.7-4,4c0,2.2,1.7,4,4,4c2.2,0,4-1.7,4-4S52.3,83.7,50.2,83.7z"/>
<path class="st0" d="M61.9,77.2c-3.7,0-6.7-3-6.7-6.6c0-3.6,3-6.6,6.7-6.6c3.7,0,6.7,3,6.7,6.6C68.6,74.2,65.6,77.2,61.9,77.2
	 M61.9,64.8c-3.2,0-5.9,2.6-5.9,5.8c0,3.2,2.7,5.8,5.9,5.8c3.2,0,5.9-2.6,5.9-5.8C67.7,67.4,65.1,64.8,61.9,64.8z"/>
<path class="st0" d="M73.8,53.4h-3.7L65,64.9c1,0.6,2,1.4,2.5,2.4l0.2-0.6H76l1.3,3h3.6L73.8,53.4 M69.3,63.6l2.7-6l2.7,6H69.3z"/>
<path class="st0" d="M56.4,66.4h-5.5v-3.5h5.3c0.1,0,0.2,0,0.5,0c0.8,0.1,1.5,0.8,1.5,1.7c0,0.2,0,0.5-0.1,0.7
	c1-0.8,2.3-1.3,3.6-1.3c-0.2-1.1-0.8-2.2-1.7-2.8c0.7-0.8,1.2-1.9,1.2-3.1c0-2.6-2.2-4.8-4.8-4.8h-8.8v16.3h7.8
	c0.2-1.3,0.7-2.4,1.5-3.4C56.7,66.4,56.6,66.4,56.4,66.4 M50.8,56.5h5c0.9,0,1.6,0.7,1.6,1.6c0,0.9-0.7,1.6-1.6,1.6h-5V56.5z"/>
<path class="st0" d="M54.9,21.4c-2.7,0-4.8-2.2-4.8-4.8s2.2-4.8,4.8-4.8c2.7,0,4.8,2.2,4.8,4.8C59.6,19.3,57.5,21.4,54.9,21.4
	 M54.9,12.7c-2.2,0-4,1.7-4,4c0,2.2,1.7,4,4,4c2.2,0,4-1.7,4-4C58.8,14.6,57.1,12.7,54.9,12.7z"/>
<path class="st0" d="M43.9,16.3c-1.5,0-2.8-1.3-2.8-2.7s1.3-2.7,2.8-2.7c1.5,0,2.8,1.3,2.8,2.7C46.7,15.1,45.4,16.3,43.9,16.3
	 M43.9,11.7c-1,0-2,0.8-2,1.9c0,1,0.8,1.9,2,1.9c1,0,2-0.8,2-1.9S45,11.7,43.9,11.7z"/>
<path class="st0" d="M42,41c-4.6,0-8.4-3.8-8.4-8.3s3.8-8.3,8.4-8.3s8.4,3.8,8.4,8.3C50.4,37.3,46.7,41,42,41 M42,25.2
	c-4.2,0-7.6,3.4-7.6,7.5s3.5,7.5,7.6,7.5s7.6-3.4,7.6-7.5C49.6,28.5,46.2,25.2,42,25.2z"/>
<path class="st0" d="M78.1,0H20.8c-1.4,0-2.5,1.1-2.5,2.5v2.2c0,1.4,1.2,2.5,2.5,2.5h5.8v43.7h1V7.2h43.1v43.7l0,0h1V7.2h6.5
	c1.4,0,2.5-1.1,2.5-2.5V2.5C80.6,1.1,79.4,0,78.1,0 M79.6,4.7c0,0.8-0.7,1.5-1.5,1.5H20.8c-0.8,0-1.5-0.7-1.5-1.5V2.5
	c0-0.8,0.7-1.5,1.5-1.5h57.4c0.8,0,1.5,0.7,1.5,1.5v2.2H79.6z"/>
<path class="st0" d="M70.6,73.9v50.7c0,11.7-9.7,21.3-21.6,21.3s-21.6-9.5-21.6-21.3v-0.1v-0.2V73.8h-1v50.5v0.2c0,0.1,0,0.1,0,0.2
	C26.4,137,36.5,147,49,147s22.6-10,22.6-22.3V73.9H70.6L70.6,73.9"/>
</svg>
