<?xml version="1.0" encoding="utf-8"?>
<!-- Generator: Adobe Illustrator 21.0.2, SVG Export Plug-In . SVG Version: 6.00 Build 0)  -->
<svg version="1.1" id="Layer_1" xmlns="http://www.w3.org/2000/svg" xmlns:xlink="http://www.w3.org/1999/xlink" x="0px" y="0px"
	 viewBox="0 0 158 110" style="enable-background:new 0 0 158 110;" xml:space="preserve">
<style type="text/css">
	.st0{fill:#615E5D;}
</style>
<path class="st0" d="M2.8,71.9V52.8C2.8,52.4,2.6,52,2,52H0.7C0.4,52,0,52.2,0,52.8v20.6c0,0.4,0.2,0.8,0.7,0.8h4.8
	c0.4,0,0.7-0.2,0.7-0.8v-1c0-0.4-0.2-0.8-0.7-0.8L2.8,71.9L2.8,71.9z"/>
<path class="st0" d="M15,66.2h-2.2l1.1-11.1L15,66.2z M15.9,52.8c0-0.4-0.4-0.8-0.7-0.8h-2.6c-0.4,0-0.7,0.2-0.7,0.8L9.5,73.4
	c0,0.4,0.2,0.8,0.7,0.8h1.3c0.4,0,0.7-0.2,0.7-0.8l0.4-5h2.6l0.4,5c0,0.4,0.4,0.8,0.7,0.8h1.3c0.6,0,0.7-0.4,0.7-0.8L15.9,52.8z"/>
<path class="st0" d="M33.8,74.4c0.4,0,0.6-0.2,0.9-0.4l0.9-1c0.2-0.2,0.4-0.6,0.4-1v-3.8c0-0.4-0.2-0.8-0.7-0.8h-1.3
	c-0.4,0-0.7,0.2-0.7,0.8v3.1l-0.6,0.6h-0.9l-0.6-0.6V55.1l0.6-0.6h0.9l0.6,0.6v3.1c0,0.4,0.2,0.8,0.7,0.8h1.3c0.4,0,0.7-0.2,0.7-0.8
	v-3.8c0-0.4-0.2-0.6-0.4-1l-0.9-1c-0.2-0.2-0.6-0.4-0.9-0.4h-3.2c-0.4,0-0.6,0.2-0.9,0.4l-0.9,1c-0.2,0.2-0.4,0.6-0.4,1v17.5
	c0,0.4,0.2,0.6,0.4,1l0.9,1c0.2,0.2,0.6,0.4,0.9,0.4L33.8,74.4L33.8,74.4z"/>
<path class="st0" d="M44.1,54.5l0.6,0.6v16.2l-0.6,0.6h-1.5l-0.6-0.6V55.1l0.6-0.6H44.1z M41.5,52.2c-0.4,0-0.6,0.2-0.9,0.4l-0.9,1
	c-0.2,0.2-0.4,0.6-0.4,1v17.5c0,0.4,0.2,0.6,0.4,1l0.9,1c0.2,0.2,0.6,0.4,0.9,0.4h3.7c0.4,0,0.6-0.2,0.9-0.4l0.9-1
	c0.2-0.2,0.4-0.6,0.4-1V54.5c0-0.4-0.2-0.6-0.4-1l-0.9-1c-0.2-0.2-0.6-0.4-0.9-0.4H41.5z"/>
<path class="st0" d="M60.5,57v16.6c0,0.4,0.2,0.8,0.7,0.8h1.1c0.4,0,0.7-0.2,0.7-0.8V53c0-0.4-0.2-0.8-0.7-0.8h-2.6
	c-0.4,0-0.7,0.2-0.7,0.8l-1.9,17.2L55.3,53c0-0.4-0.4-0.8-0.7-0.8h-2.8c-0.4,0-0.7,0.2-0.7,0.8v20.6c0,0.4,0.2,0.8,0.7,0.8h1.1
	c0.4,0,0.7-0.2,0.7-0.8V57l2,16.6c0,0.4,0.4,0.8,0.7,0.8h1.3c0.4,0,0.7-0.2,0.7-0.8L60.5,57z"/>
<path class="st0" d="M76,57v16.6c0,0.4,0.2,0.8,0.7,0.8h1.1c0.4,0,0.7-0.2,0.7-0.8V53c0-0.4-0.2-0.8-0.7-0.8h-2.6
	c-0.4,0-0.7,0.2-0.7,0.8l-1.9,17.2L70.8,53c0-0.4-0.4-0.8-0.7-0.8h-2.6c-0.4,0-0.7,0.2-0.7,0.8v20.6c0,0.4,0.2,0.8,0.7,0.8h1.1
	c0.4,0,0.7-0.2,0.7-0.8V57l2,16.6c0,0.4,0.4,0.8,0.7,0.8h1.3c0.4,0,0.7-0.2,0.7-0.8L76,57z"/>
<path class="st0" d="M84.9,53c0-0.4-0.2-0.8-0.7-0.8h-1.3c-0.4,0-0.7,0.2-0.7,0.8v20.6c0,0.4,0.2,0.8,0.7,0.8h1.3
	c0.4,0,0.7-0.2,0.7-0.8V53z"/>
<path class="st0" d="M91.1,59.3l3,14.5c0,0.4,0.4,0.6,0.7,0.6h1.7c0.4,0,0.7-0.2,0.7-0.8V53c0-0.4-0.2-0.8-0.7-0.8h-1.1
	c-0.4,0-0.7,0.2-0.7,0.8v14.7l-3-14.7c0-0.4-0.4-0.6-0.7-0.6h-1.7c-0.4,0-0.7,0.2-0.7,0.8v20.6c0,0.4,0.2,0.8,0.7,0.8h1.1
	c0.4,0,0.7-0.2,0.7-0.8V59.3z"/>
<path class="st0" d="M106.3,74.4c0.4,0,0.6-0.2,0.9-0.4l0.9-1c0.2-0.2,0.4-0.6,0.4-1v-8.6c0-0.4-0.2-0.8-0.7-0.8h-2.6
	c-0.4,0-0.7,0.2-0.7,0.8v1c0,0.4,0.2,0.8,0.7,0.8h0.7v6.1l-0.6,0.6H104l-0.6-0.6V55.1l0.6-0.6h1.3l0.6,0.6v2.7
	c0,0.4,0.2,0.8,0.7,0.8h1.3c0.4,0,0.7-0.2,0.7-0.8v-3.4c0-0.4-0.2-0.6-0.4-1l-0.9-1c-0.2-0.2-0.6-0.4-0.9-0.4h-3.3
	c-0.4,0-0.6,0.2-0.9,0.4l-0.9,1c-0.2,0.2-0.4,0.6-0.4,1v17.5c0,0.4,0.2,0.6,0.4,1l0.9,1c0.2,0.2,0.6,0.4,0.9,0.4h3.2L106.3,74.4
	L106.3,74.4z"/>
<path class="st0" d="M118.7,72.6c0-0.4-0.2-0.8-0.7-0.8h-3.3v-7.6h2.8c0.4,0,0.7-0.2,0.7-0.8v-1c0-0.4-0.2-0.8-0.7-0.8h-2.8v-7.2
	h3.3c0.4,0,0.7-0.2,0.7-0.8v-1c0-0.4-0.2-0.8-0.7-0.8h-5.2c-0.4,0-0.7,0.2-0.7,0.8v20.6c0,0.4,0.2,0.8,0.7,0.8h5.4
	c0.4,0,0.7-0.2,0.7-0.8v-0.8L118.7,72.6L118.7,72.6z"/>
<path class="st0" d="M126.8,54.5l0.6,0.6v16.2l-0.6,0.6h-1.5l-0.6-0.6V55.1l0.6-0.6H126.8z M124.2,52.2c-0.4,0-0.6,0.2-0.9,0.4
	l-0.9,1c-0.2,0.2-0.4,0.6-0.4,1v17.5c0,0.4,0.2,0.6,0.4,1l0.9,1c0.2,0.2,0.6,0.4,0.9,0.4h3.7c0.4,0,0.6-0.2,0.9-0.4l0.9-1
	c0.2-0.2,0.4-0.6,0.4-1V54.5c0-0.4-0.2-0.6-0.4-1l-0.9-1c-0.2-0.2-0.6-0.4-0.9-0.4H124.2z"/>
<path class="st0" d="M136.5,53c0-0.4-0.2-0.8-0.7-0.8h-1.3c-0.4,0-0.7,0.2-0.7,0.8v20.6c0,0.4,0.2,0.8,0.7,0.8h1.3
	c0.4,0,0.7-0.2,0.7-0.8V53z"/>
<path class="st0" d="M147.6,54.5c0-0.4-0.2-0.6-0.4-1l-0.9-1c-0.2-0.2-0.6-0.4-0.9-0.4h-3.2c-0.4,0-0.6,0.2-0.9,0.4l-0.9,1
	c-0.2,0.2-0.4,0.6-0.4,1v7.6c0,0.4,0.2,0.6,0.4,1l0.9,1c0.2,0.2,0.6,0.4,0.9,0.4h2.2L145,65v6.5l-0.6,0.6h-1.1l-0.6-0.6v-2.7
	c0-0.4-0.2-0.8-0.7-0.8h-1.3c-0.4,0-0.7,0.2-0.7,0.8v3.4c0,0.4,0.2,0.6,0.4,1l0.9,1c0.2,0.2,0.6,0.4,0.9,0.4h3.3
	c0.4,0,0.6-0.2,0.9-0.4l0.9-1c0.2-0.2,0.4-0.6,0.4-1v-8c0-0.4-0.2-0.6-0.4-1l-1.1-1c-0.2-0.2-0.6-0.4-0.9-0.4h-2.2l-0.6-0.6v-6.3
	l0.6-0.6h0.9l0.6,0.6v2.7c0,0.4,0.2,0.8,0.7,0.8h1.3c0.4,0,0.7-0.2,0.7-0.8v-3.2H147.6z"/>
<path class="st0" d="M157.8,72.6c0-0.4-0.2-0.8-0.7-0.8h-3.3v-7.6h2.8c0.4,0,0.7-0.2,0.7-0.8v-1c0-0.4-0.2-0.8-0.7-0.8h-2.8v-7.2
	h3.3c0.4,0,0.7-0.2,0.7-0.8v-1c0-0.4-0.2-0.8-0.7-0.8h-5.2c-0.4,0-0.7,0.2-0.7,0.8v20.6c0,0.4,0.2,0.8,0.7,0.8h5.4
	c0.4,0,0.7-0.2,0.7-0.8L157.8,72.6L157.8,72.6z"/>
<path class="st0" d="M61.4,89.8c0,1.3-0.4,2.5-1.7,2.5l0,0c-0.7,0-0.7-0.2-0.7-1.1v-3.8h0.9C61,87.3,61.4,88.6,61.4,89.8z
	 M62.7,89.8c0-1.7-0.9-3.1-2.8-3.1h-3v0.4c0.7,0,0.9,0.2,0.9,1.1v3.1c0,1-0.2,1.1-0.9,1.1v0.4h3C61.8,92.8,62.7,91.5,62.7,89.8z"/>
<path class="st0" d="M68.6,89.8c0,1.3-0.4,2.7-1.5,2.7c-1.1,0-1.5-1.3-1.5-2.7s0.4-2.7,1.5-2.7C68.2,87.3,68.6,88.5,68.6,89.8z
	 M69.9,89.8c0-1.7-1.1-3.2-2.8-3.2c-1.7,0-2.8,1.3-2.8,3.2s1.1,3.2,2.8,3.2C68.8,93,69.9,91.7,69.9,89.8z"/>
<path class="st0" d="M78.8,92.8v-0.4c-0.7,0-0.9-0.2-0.9-1.1v-3.1c0-1,0.2-1.1,0.9-1.1v-0.4h-2l-1.7,4.4l-1.7-4.4h-2v0.4
	c0.7,0,0.9,0.2,0.9,1.1v3.1c0,1-0.2,1.1-0.9,1.1v0.4h2.2v-0.4c-0.7,0-0.9-0.2-0.9-1.1v-3.2l1.9,4.8h0.4l1.9-4.8v3.2
	c0,1-0.2,1.1-0.9,1.1v0.4H78.8z"/>
<path class="st0" d="M82.9,90.4h-1.5l0.7-2.1L82.9,90.4z M85.9,92.8v-0.4c-0.7,0-0.9-0.2-1.1-1l-1.9-5h-0.6l-1.9,5
	c-0.2,0.8-0.6,1-1.1,1v0.4h2.2v-0.4c-0.7,0-0.9-0.2-0.7-0.8l0.4-1h1.9l0.4,1c0.2,0.6,0.2,0.8-0.7,0.8v0.4H85.9z"/>
<path class="st0" d="M89.2,92.8v-0.4c-0.7,0-0.9-0.2-0.9-1.1v-3.1c0-1,0.2-1.1,0.9-1.1v-0.4h-3v0.4c0.7,0,0.9,0.2,0.9,1.1v3.1
	c0,1-0.2,1.1-0.9,1.1v0.4H89.2z"/>
<path class="st0" d="M96.6,87.1v-0.4h-2.2v0.4c0.7,0,0.9,0.2,0.9,1.1v2.7l-2.8-4h-1.9v0.4c0.7,0,0.9,0.2,0.9,1.1v3.1
	c0,1-0.2,1.1-0.9,1.1V93h2.2v-0.4c-0.7,0-0.9-0.2-0.9-1.1v-3.1l3.2,4.6h0.6v-4.6C95.7,87.3,95.9,87.1,96.6,87.1z"/>
<path class="st0" d="M102.6,91.3h-0.2v0.2c-0.2,0.6-0.2,0.8-1.1,0.8h-0.4c-0.7,0-0.9-0.2-0.9-1.1v-1.3h0.4c0.9,0,0.9,0,0.9,1h0.2
	v-2.3h-0.2c0,0.8-0.2,1-0.9,1H100v-2.1h0.9c0.9,0,0.9,0.2,1.1,0.8v0.2h0.2v-1.5h-4.5v0.4c0.7,0,0.9,0.2,0.9,1.1v3.1
	c0,1-0.2,1.1-0.9,1.1v0.4h4.6L102.6,91.3z"/>
<path class="st0" d="M67.1,98c0,1.3-0.4,2.5-1.7,2.5l0,0c-0.7,0-0.7-0.2-0.7-1.1v-3.8h0.9C66.6,95.5,67.1,96.8,67.1,98z M68.2,98
	c0-1.7-0.9-3.1-2.8-3.1h-3v0.4c0.7,0,0.9,0.2,0.9,1.1v3.1c0,1-0.2,1.1-0.9,1.1v0.4h3C67.5,101,68.2,99.7,68.2,98z"/>
<path class="st0" d="M75.5,95.3v-0.4h-2.4v0.4c0.7,0,0.9,0.2,0.9,1.1v2.3c0,1.1-0.6,1.7-1.3,1.7c-0.7,0-1.3-0.6-1.3-1.7v-2.3
	c0-1,0.2-1.1,0.9-1.1v-0.4h-3v0.4c0.7,0,0.9,0.2,0.9,1.1v2.3c0,1.5,0.9,2.5,2.2,2.5c1.3,0,2.2-0.8,2.2-2.5v-2.3
	C74.7,95.5,74.7,95.3,75.5,95.3z"/>
<path class="st0" d="M84.4,101v-2.3h-0.2c-0.2,1.3-0.9,1.9-1.7,1.9c-1.3,0-1.7-1.3-1.7-2.7c0-1.1,0.4-2.7,1.7-2.7
	c0.7,0,1.5,0.6,1.7,1.9h0.2v-2.3h-0.2c0,0.2-0.2,0.4-0.2,0.6c-0.4-0.6-0.9-0.8-1.7-0.8c-1.5,0-2.6,1.3-2.6,3.2
	c0,1.7,1.1,3.2,2.6,3.2c0.7,0,1.3-0.2,1.7-0.8c0.2,0,0.2,0.2,0.2,0.6L84.4,101L84.4,101z"/>
<path class="st0" d="M89,98.6h-1.5l0.7-2.1L89,98.6z M91.8,101v-0.4c-0.7,0-0.9-0.2-1.1-1l-1.9-5h-0.6l-1.9,5c-0.2,0.8-0.6,1-1.1,1
	v0.4h2.2v-0.4c-0.7,0-0.9-0.2-0.7-0.8l0.4-1H89l0.4,1c0.2,0.6,0.2,0.8-0.7,0.8v0.4H91.8z"/>
<path class="st0" d="M94.8,95.5c0.9,0,1.1,0.6,1.1,1.3c0,0.8-0.4,1.3-1.1,1.3h-0.4v-2.5L94.8,95.5L94.8,95.5z M97.2,96.8
	c0-1.1-0.7-1.7-2.2-1.7h-2.6v0.4c0.7,0,0.9,0.2,0.9,1.1v3.1c0,1-0.2,1.1-0.9,1.1v0.4h3v-0.4c-0.7,0-0.9-0.2-0.9-1.1v-1.1h0.6
	C96.4,98.6,97.2,97.8,97.2,96.8z"/>
<path class="st0" d="M50.8,108.7h1.5v-0.2c-0.6,0-0.6,0-0.4-0.8l0.2-1.3h0.4c0.6,0,0.6,0,0.6,0.6h0.2l0.2-1.3h-0.2
	c0,0.6-0.2,0.6-0.7,0.6h-0.4l0.4-1.7h0.9c0.6,0,0.6,0.2,0.6,0.4v0.2h0.2l0.2-1h-2.8v0.2c0.6,0,0.6,0,0.4,0.8l-0.6,2.7
	C51.4,108.5,51.4,108.5,50.8,108.7L50.8,108.7z"/>
<path class="st0" d="M54.5,108.7c0.2,0,0.4-0.2,0.4-0.4c0-0.2-0.2-0.4-0.4-0.4c-0.2,0-0.4,0.2-0.4,0.4
	C54.2,108.5,54.2,108.7,54.5,108.7z"/>
<path class="st0" d="M55.6,108.7h3l0.2-1h-0.2v0.2c-0.2,0.4-0.2,0.4-0.7,0.4h-0.6c-0.6,0-0.6,0-0.4-0.8l0.4-2.7
	c0.2-0.6,0.2-0.8,0.7-0.8v-0.2h-1.5v0.2c0.6,0,0.6,0,0.4,0.8l-0.6,2.7C56.2,108.5,56.2,108.5,55.6,108.7L55.6,108.7z"/>
<path class="st0" d="M60.3,108.7c0.2,0,0.6-0.2,0.7-0.4c0,0.2,0.2,0.4,0.4,0.4c0.2,0,0.4,0,0.6-0.2v-0.2l-0.2,0.2
	c-0.2,0-0.2-0.2,0-0.4l0.4-2.5h-0.6c-0.2,0-0.4,0-0.6,0c-0.7,0-1.5,0.6-1.5,1.7C59.3,107.9,59.7,108.7,60.3,108.7z M60.5,108.5
	c-0.4,0-0.6-0.6-0.4-1.3c0.2-0.8,0.6-1.3,0.9-1.3c0.2,0,0.4,0,0.6,0.2l-0.4,1.9C61.2,108.1,60.8,108.5,60.5,108.5z"/>
<path class="st0" d="M62.7,108.7h0.4l0.2-1.1c0.2-1.1,0.6-1.7,0.7-1.7c0,0,0.2,0,0.2,0.2s0,0.2,0.2,0.2s0.4-0.2,0.4-0.4
	c0-0.2,0-0.4-0.4-0.4c-0.4,0-0.6,0.4-0.7,0.8c0.2-0.6,0-0.8-0.4-0.8c-0.2,0-0.4,0-0.6,0.2v0.2l0.2-0.2c0.2,0,0.2,0.2,0,0.4
	L62.7,108.7z"/>
<path class="st0" d="M66,108.7c0.7,0,1.3-0.8,1.5-1.7c0.2-0.8-0.2-1.7-0.9-1.7c-0.7,0-1.3,0.8-1.5,1.7
	C64.9,107.9,65.3,108.7,66,108.7z M66,108.5c-0.6,0-0.6-0.8-0.6-1.5c0.2-0.8,0.4-1.5,0.9-1.5c0.6,0,0.6,0.8,0.6,1.5
	C66.9,107.7,66.6,108.5,66,108.5z"/>
<path class="st0" d="M69.4,108.7c0.4,0,0.7-0.2,1.1-0.6v-0.2c-0.2,0.2-0.6,0.4-0.7,0.4c-0.6,0-0.7-0.4-0.6-1.3s0.6-1.5,0.9-1.5
	c0.2,0,0.2,0.2,0.2,0.2c0,0.2,0,0.4,0.2,0.4c0.2,0,0.2-0.2,0.4-0.2c0-0.2-0.2-0.6-0.7-0.6c-0.6,0-1.3,0.6-1.5,1.7
	C68.2,108.1,68.6,108.7,69.4,108.7z"/>
<path class="st0" d="M73.1,108.7c0.2,0,0.4,0,0.6-0.2v-0.2l-0.2,0.2c0,0-0.2,0-0.2-0.2c0-0.2,0.4-1.5,0.4-2.1s-0.2-0.8-0.6-0.8
	c-0.4,0-0.7,0.4-0.9,0.8l0.4-2.1l-0.9,0.2v0.2c0.4,0,0.4,0.2,0.4,1l-0.6,3.2h0.4l0.2-1.5c0.2-1,0.7-1.3,0.9-1.3
	c0.4,0,0.4,0.2,0.4,0.6c0,0.6-0.4,1.7-0.4,1.9C72.7,108.5,72.9,108.7,73.1,108.7z"/>
<path class="st0" d="M75.3,108.7c0.4,0,0.7-0.2,1.1-0.6v-0.2c-0.2,0.2-0.6,0.4-0.7,0.4c-0.6,0-0.7-0.6-0.7-1
	c0.9-0.2,1.7-0.8,1.7-1.3c0-0.4-0.2-0.8-0.6-0.8c-0.7,0-1.5,1-1.5,2.1C74.4,108.1,74.5,108.7,75.3,108.7z M74.7,107.1
	c0-0.8,0.6-1.5,0.9-1.5c0.2,0,0.4,0.2,0.4,0.6C76,106.4,75.5,106.9,74.7,107.1z"/>
<path class="st0" d="M77.1,109.4c0.6-0.2,0.7-0.8,0.7-1.1c0-0.4-0.2-0.4-0.4-0.4s-0.4,0.2-0.4,0.4s0.2,0.4,0.4,0.4l0,0
	C77.3,108.9,77.3,109,77.1,109.4L77.1,109.4z"/>
<path class="st0" d="M81.4,108.7c0.9,0,1.5-0.6,1.5-1.3c0-0.4-0.4-0.8-0.9-1l0.4-0.2c0.6-0.4,0.7-0.6,0.7-1.1s-0.6-0.8-1.1-0.8
	c-0.9,0-1.3,0.6-1.3,1c0,0.2,0.2,0.4,0.4,0.6l0.2-0.2c0-0.2,0-0.2,0-0.4c0-0.4,0.4-0.8,0.7-0.8c0.4,0,0.7,0.2,0.7,0.6
	c0,0.4-0.2,0.8-0.6,1l-0.6,0.4c-0.2,0.2-0.2,0.2-0.2,0.2s0,0.2,0.2,0.2s0.2-0.2,0.4-0.2c0.4,0,0.6,0.4,0.6,0.8
	c0,0.6-0.2,1.1-0.9,1.1c-0.4,0-0.6-0.2-0.6-0.4c-0.2-0.2-0.2-0.4-0.2-0.4c-0.2,0-0.2,0.2-0.2,0.2C80.3,108.3,80.7,108.7,81.4,108.7z
	"/>
<path class="st0" d="M83.5,108.7h1.5v-0.2c-0.6,0-0.6-0.2-0.4-0.8l0.6-3.4l-1.3,0.2v0.2c0.6,0,0.7,0,0.6,0.8l-0.4,2.3
	C84.2,108.3,84,108.5,83.5,108.7L83.5,108.7z"/>
<path class="st0" d="M87.3,108.7c0.9,0,1.5-0.6,1.5-1.3c0-0.4-0.4-0.8-0.9-1l0.4-0.2c0.6-0.4,0.7-0.6,0.7-1.1s-0.6-0.8-1.1-0.8
	c-0.9,0-1.3,0.6-1.3,1c0,0.2,0.2,0.4,0.4,0.6l0.2-0.2c0-0.2,0-0.2,0-0.4c0-0.4,0.4-0.8,0.7-0.8c0.4,0,0.7,0.2,0.7,0.6
	c0,0.4-0.2,0.8-0.6,1l-0.6,0.4c-0.2,0.2-0.2,0.2-0.2,0.2s0,0.2,0.2,0.2c0.2,0,0.2-0.2,0.4-0.2c0.4,0,0.6,0.4,0.6,0.8
	c0,0.6-0.2,1.1-0.9,1.1c-0.4,0-0.6-0.2-0.6-0.4c-0.2-0.2-0.2-0.4-0.2-0.4c-0.2,0-0.2,0.2-0.2,0.2C86,108.3,86.4,108.7,87.3,108.7z"
	/>
<path class="st0" d="M90.7,108.5c-0.4,0-0.9-0.4-0.6-1.7c0.2-0.4,0.6-0.6,0.9-0.6c0.6,0,0.6,0.4,0.6,1
	C91.6,107.7,91.4,108.5,90.7,108.5z M90.7,108.7c0.9,0,1.5-0.8,1.5-1.7c0-0.8-0.4-1.1-1.1-1.1c-0.4,0-0.7,0.2-0.9,0.4
	c0.2-1,0.6-1.9,1.3-1.9c0.6,0,0.4,0.6,0.7,0.6c0.2,0,0.2,0,0.2-0.2s-0.4-0.6-0.9-0.6c-1.3,0-1.9,1.7-1.9,3.1
	C89.6,108.5,90.1,108.7,90.7,108.7z"/>
<path class="st0" d="M94,108.5c-0.7,0-0.7-1-0.6-2.1c0.2-1,0.6-2.1,1.1-2.1c0.6,0,0.6,1,0.6,2.1C94.9,107.5,94.6,108.5,94,108.5z
	 M94,108.7c0.7,0,1.5-1,1.7-2.3c0.2-1.3-0.2-2.3-0.9-2.3s-1.5,1-1.9,2.3C92.7,107.7,93.1,108.7,94,108.7z"/>
<path class="st0" d="M97.4,108.7L97.4,108.7c0.2-0.2,0.4-0.4,0.4-0.4c0.2,0.2,0.6,0.4,0.9,0.4c0.6,0,1.3-0.4,1.3-1.3
	c0-0.8-0.6-1-0.9-1.3c-0.4-0.2-0.7-0.6-0.7-1c0-0.4,0.4-0.8,0.7-0.8c0.7,0,0.9,0.6,0.7,1.1h0.2l0.2-1.3H100c0,0.2-0.2,0.2-0.2,0.4
	c-0.2-0.2-0.4-0.4-0.7-0.4c-0.6,0-1.1,0.6-1.1,1.1c0,0.8,0.4,1,0.9,1.3c0.4,0.2,0.7,0.6,0.7,1c0,0.6-0.4,1-0.7,1
	c-0.7,0-1.1-0.6-1.1-1.3h-0.2L97.4,108.7z"/>
<path class="st0" d="M101.8,108.7c0.4,0,0.7-0.2,1.1-0.6v-0.2c-0.2,0.2-0.6,0.4-0.7,0.4c-0.6,0-0.7-0.6-0.7-1
	c0.9-0.2,1.7-0.8,1.7-1.3c0-0.4-0.2-0.8-0.6-0.8c-0.7,0-1.5,1-1.5,2.1C100.9,108.1,101.3,108.7,101.8,108.7z M101.4,107.1
	c0-0.8,0.6-1.5,0.9-1.5c0.2,0,0.4,0.2,0.4,0.6C102.6,106.4,102.2,106.9,101.4,107.1z"/>
<path class="st0" d="M105,108.5c-0.4,0-0.6-0.4-0.6-0.8l0.4-1.7c0.2-0.2,0.4-0.2,0.6-0.2c0.6,0,0.6,0.6,0.6,1.3
	C105.7,107.9,105.3,108.5,105,108.5z M103.1,110h1.5v-0.2c-0.4,0-0.6,0-0.4-1l0.2-0.6c0.2,0.2,0.4,0.4,0.7,0.4
	c0.7,0,1.3-0.8,1.3-1.7c0.2-1-0.2-1.7-0.9-1.7c-0.2,0-0.4,0-0.6,0.2l0.2-0.8h-0.4c-0.2,1.1-0.7,2.1-1.1,2.5l0.2,0.2
	c0.2-0.2,0.4-0.6,0.6-1l-0.4,2.5C103.7,109.8,103.5,109.8,103.1,110L103.1,110z"/>
<path class="st0" d="M107,108.7c0.4,0,0.7-0.6,1.1-1.3l0.2,0.8c0,0.4,0.2,0.6,0.6,0.6c0.2,0,0.4-0.2,0.6-0.4h-0.2
	c-0.2,0.2-0.2,0.2-0.4,0.2s-0.2,0-0.2-0.4l-0.2-1.1c0.4-0.8,0.6-1.1,0.7-1.1s0,0.2,0.2,0.4c0.2,0,0.4-0.2,0.4-0.4
	c0-0.2-0.2-0.4-0.4-0.4c-0.4,0-0.7,0.6-0.9,1.1l-0.2-0.6c0-0.4-0.2-0.6-0.6-0.6c-0.2,0-0.4,0.2-0.6,0.4h0.2c0.2-0.2,0.2-0.2,0.4-0.2
	c0.2,0,0.2,0,0.2,0.4l0.2,1c-0.4,0.8-0.7,1.3-0.7,1.3c-0.2,0,0-0.4-0.2-0.4s-0.2,0.2-0.2,0.2C106.6,108.5,106.8,108.7,107,108.7z"/>
<path class="st0" d="M40.8,87.1c10.9-4.2,24.7-6.3,39.1-6.3c14.5,0,28.2,2.3,39.1,6.3h1.9c-11.3-4.6-25.8-7.1-41-7.1
	s-29.7,2.5-41,7.1H40.8z"/>
<path class="st0" d="M41.4,9.2C41.7,9,42.1,9,42.3,9.3c0.2,0.4,0,0.8-0.4,1l-0.6,0.2l-0.6-1.1L41.4,9.2z M42.5,11.1
	c0.6-0.2,0.9-0.2,1.3,0.4c0.2,0.6,0,1-0.6,1.3l-0.7,0.4l-0.7-1.7L42.5,11.1z M44.9,10.9c-0.2-0.6-0.9-1-1.5-1c0.2-0.4,0.4-0.8,0-1.3
	c-0.4-1-1.3-1.1-2.6-0.6l-1.7,0.8l2.6,5.5l2-1C45.1,13,45.4,12,44.9,10.9z"/>
<polygon class="st0" points="49.3,11.2 49,10.5 48.2,10.9 46.7,6.9 47.5,6.5 47.3,5.7 44.5,6.9 44.7,7.6 45.4,7.2 47.1,11.2 
	46.2,11.6 46.5,12.4 "/>
<path class="st0" d="M50.6,3.1l-2-1.1l-0.4,1l2.2,0.6L50.6,3.1z M53.6,9.3l-0.4-1l-2,0.8l-0.6-1.7l1.7-0.6l-0.4-1l-1.7,0.6l-0.4-1.1
	l1.9-0.6l-0.4-1L48.2,5l1.9,5.7L53.6,9.3z"/>
<path class="st0" d="M57.1,4.6c0.2,0.6-0.2,1.1-0.7,1.3l-0.6,0.2L55.3,4l0.6-0.2C56.6,3.6,56.9,3.8,57.1,4.6z M59.9,8l-2.2-1.7
	c0.6-0.6,0.7-1.1,0.6-1.9c-0.2-1.1-1.3-1.7-2.6-1.3l-2,0.6l1.5,5.9l1.3-0.4l-0.6-1.9l0.6-0.2l1.9,1.5L59.9,8z"/>
<polygon class="st0" points="64.3,7.2 64.2,6.3 62.1,6.7 61.8,5 63.6,4.6 63.4,3.6 61.6,4 61.4,2.9 63.4,2.5 63.2,1.3 59.9,1.9 
	61,8 "/>
<path class="st0" d="M70.7,3.4L69,3.6v-1c0-0.8,0.2-1.3,0.7-1.3c0.6,0,0.9,0.4,0.9,1.1V3.4z M72.3,6.3L72,2.7
	c-0.2-1.5-1.3-2.5-2.4-2.3c-1.1,0.2-2,1.1-1.9,2.7l0.4,3.6l1.3-0.2l-0.2-1.9l1.7-0.2L71,6.3L72.3,6.3z"/>
<path class="st0" d="M76.8,2.1c0,0.6-0.4,1.1-1.1,1.1h-0.6V1.1h0.6C76.4,1,76.8,1.3,76.8,2.1z M78.8,5.9l-1.7-2.3
	c0.7-0.4,1.1-1,0.9-1.7c0-1.1-0.9-1.9-2.2-1.9h-2L74,6.1h1.3V4h0.6l1.5,1.9H78.8z"/>
<polygon class="st0" points="83.6,1.1 83.6,0 79.4,0 79.4,1 80.9,1 80.9,6.1 82.2,6.1 82.2,1.1 "/>
<polygon class="st0" points="87.7,6.3 87.7,5.5 87,5.3 87.2,1.1 88.1,1.1 88.1,0.4 85.1,0.2 85.1,1 85.9,1 85.7,5.3 84.7,5.3 
	84.7,6.1 "/>
<path class="st0" d="M92.9,5.1c0.2-1.1-0.7-1.7-1.5-2.1c-0.4-0.2-0.7-0.6-0.7-1s0.4-0.6,0.7-0.6c0.4,0,0.7,0.2,1.3,0.8l0.6-0.8
	c-0.4-0.6-1.1-1-1.7-1c-1.1-0.2-2,0.6-2,1.5c-0.2,1,0.6,1.5,1.1,1.9c0.6,0.4,1.1,0.6,1.1,1.1c0,0.4-0.4,0.6-0.7,0.6
	c-0.6,0-0.9-0.2-1.5-0.8L89,5.7c0.4,0.6,1.1,1,1.9,1C92,6.9,92.9,6.3,92.9,5.1z"/>
<path class="st0" d="M97.5,4.6l-1.7-0.4l0.2-0.8c0.2-0.8,0.6-1.1,1.1-1.1c0.6,0,0.7,0.6,0.6,1.3L97.5,4.6z M98.3,7.8l0.6-3.6
	c0.2-1.5-0.6-2.7-1.7-2.9c-1.1-0.2-2.2,0.6-2.6,2.1L94,7.1l1.3,0.2l0.4-1.9l1.7,0.4L97,7.6L98.3,7.8z"/>
<polygon class="st0" points="103.8,9.2 105.3,3.2 104.2,3.1 103.5,6.5 102,2.5 101.3,2.3 99.8,8.2 100.9,8.4 101.6,5 103.1,9 "/>
<path class="st0" d="M109.2,7.6l-1.7-0.6l0.2-0.8c0.2-0.8,0.7-1.1,1.1-1c0.6,0.2,0.7,0.6,0.4,1.5L109.2,7.6z M109.6,10.9l1.1-3.4
	c0.6-1.5-0.2-2.7-1.3-3.1c-1.1-0.4-2.4,0.2-2.8,1.7l-1.1,3.4l1.3,0.4l0.6-1.9l1.7,0.6l-0.6,1.9L109.6,10.9z"/>
<polygon class="st0" points="115,12.8 115.3,11.8 113.5,11.1 115.3,6.5 114,5.9 112,11.6 "/>
<polygon class="st0" points="118.1,14.9 118.7,13.9 116.8,13 117.4,11.4 119.1,12.2 119.6,11.2 117.9,10.5 118.3,9.3 120.2,10.3 
	120.7,9.3 117.6,7.8 115.2,13.3 "/>
<path class="st0" d="M82.7,29.7c-2.2,2.1-4.8,5-8.3,3.6c-0.6,5.3-7.6,7.2-7.8,10.7c0.6-1,1.7-1.3,2.6-2.1c2.2-0.4,5-0.8,7-2.1
	C78.8,37.9,83.8,30.3,82.7,29.7"/>
<path class="st0" d="M64,39.8c-2.2-1.3-3.7-3.6-7-3.6C56.7,39.8,61.4,41.8,64,39.8"/>
<path class="st0" d="M111.1,34.1c-1.9,0.6-3.5,0.8-5,0.6c-6.3-0.8-8.7-8-12.4-12c-3.2,0-3.9,2.9-7,2.9c-5-2.9-6.9-9.9-13.5-9.9
	C65.8,25.2,55.4,31.3,46,38.5c-1.7,0-3.2,0.2-3.9-0.8c-3.3,4.6-10.4,5.3-14.8,8.8h2.4c4.5-1.3,8.7-4.8,12.4-1.7
	c-3.3,1.1-8.3-0.6-10.6,1.7h14.8c-1.9-1.5-5-4-5-5.9c3.2-2.5,8.2,3.1,7.8-1.3c3.3,1.7,3.2,3.8,4.5,7.4h9.1
	c-3.5-3.8-9.8-4.4-10.9-10.9c3.7,0,2.8-0.6,4.5-3.6c4.8,1.1,9.5,6.3,13.5,5.7c-2.2-3.1-6.5-3.6-8.3-7.1c3.5,1.5,3.7-1.7,6.5,0
	c0.4-1.3-1.9-3.1,0-3.6c-0.2,2.3,4.5,3.1,5.2,2.1c0.2-4.4-3-9.7,1.3-11.4c2,3.8,9.1,2.3,8.3,9.3c-4.5,1.3-6.5-3.6-9.1-2.1
	c-0.6,4.4,7.6,2.3,5.7,5.7c3.2-0.2,6.9-5.5,9.6-1.3c-2.6,3.1-9.1,5.7-8.3,9.9c2.8-2.7,5.4-5.5,10.4-5.7c-0.7-2.5-1.7-8.8,1.9-8.6
	c1.9,1.1,3.5,5.1,1.9,7.8c1.9-1,3.9-0.8,4.5,1.3c-0.4,8-8.7,7.1-11.3,12.4h1.9c4.1-1.7,6.7-7.1,11.5-5.1c-0.9,2.5-3.7,2.9-5,5.1H97
	c3-1.3,7.6-1.1,10-3.1c-1.1-0.2-1.5-1.1-1.3-2.9c1.1,0,2,0.2,2.6,0.8c-0.4-2.7-0.9-4,1.3-5c0.6,2.9,6.5,2.9,4.5,6.5h5.2
	c0,1-0.4,1.5-0.6,2.1c3.3-0.4,5.9,0.6,8.5,1.7h5.2C123.5,44.2,115.9,40.6,111.1,34.1"/>
<path class="st0" d="M90.5,34.9c-6.1,0.2-7.6,5.9-11.7,8.6c-3.3-2.1-6.7,0.6-8.5,3.1h2.4c2.6-1.9,9.8-1.5,13.7-3.8
	C87.3,39.5,87.9,36,90.5,34.9"/>
<path class="st0" d="M112.4,41.9c-2.2,1.5-4.8,2.7-6.7,4.6h7C112.8,44.8,113.5,41.9,112.4,41.9"/>
</svg>
