<?xml version="1.0" encoding="utf-8"?>
<!-- Generator: Adobe Illustrator 21.0.2, SVG Export Plug-In . SVG Version: 6.00 Build 0)  -->
<svg version="1.1" id="Layer_1" xmlns="http://www.w3.org/2000/svg" xmlns:xlink="http://www.w3.org/1999/xlink" x="0px" y="0px"
	 viewBox="0 0 217 80" style="enable-background:new 0 0 217 80;" xml:space="preserve">
<style type="text/css">
	.st0{fill:#615E5D;}
	.st1{fill:#3C3C3B;}
</style>
<g>
	<path d="M12.9,32.3h-1V30H20c0.3,0,0.5,0,0.8,0.3c0.3,0,0.5,0.3,0.8,0.5c0.3,0.3,0.3,0.5,0.5,0.5c0,0.3,0.3,0.5,0.3,0.8v3.8
		c0,0.3,0,0.5-0.3,0.8c0,0.3-0.3,0.5-0.5,0.8c-0.3,0.3-0.5,0.3-0.8,0.5c-0.3,0.3-0.5,0.3-0.8,0.3h-4.3v2.5h1v2.3h-4.8v-2.3h1V32.3z
		 M15.7,35.3h3.5v-3h-3.5V35.3z"/>
</g>
<g>
	<path d="M23.5,31.7c0-0.3,0-0.5,0.3-0.8c0-0.3,0.3-0.5,0.5-0.5c0.3-0.3,0.5-0.3,0.8-0.5c0.3,0,0.5-0.3,0.8-0.3h5.6
		c0.3,0,0.5,0,0.8,0.3c0.3,0,0.5,0.3,0.8,0.5c0.3,0.3,0.3,0.5,0.5,0.5c0,0.3,0.3,0.5,0.3,0.8v8.9c0,0.3,0,0.5-0.3,0.8
		c0,0.3-0.3,0.5-0.5,0.5c-0.3,0.3-0.5,0.3-0.8,0.5c-0.3,0-0.5,0.3-0.8,0.3h-5.6c-0.3,0-0.5,0-0.8-0.3c-0.3,0-0.5-0.3-0.8-0.5
		c-0.3-0.3-0.3-0.5-0.5-0.5c0-0.3-0.3-0.5-0.3-0.8V31.7z M26.6,40.1h4.1v-7.9h-4.1V40.1z"/>
</g>
<g>
	<path d="M40,37.3h-1v2.8h1v2.3h-4.8v-2.3h1v-7.9h-1V30h8.1c0.3,0,0.5,0,1,0.3c0.3,0,0.5,0.3,0.8,0.5c0.3,0.3,0.3,0.5,0.5,0.5
		c0,0.3,0.3,0.5,0.3,0.8v3.6c0,0.3,0,0.5,0,0.8c0,0.3-0.3,0.5-0.3,0.5c-0.3,0.3-0.3,0.3-0.5,0.5c-0.3,0-0.5,0.3-0.8,0.3h-0.5l1.3,3
		h1.5v2.3h-3.3L40,37.3z M39,34.8h3.5v-2.5H39V34.8z"/>
</g>
<g>
	<polygon points="55.5,32.3 53.5,32.3 53.5,40.1 55,40.1 55,42.4 49.4,42.4 49.4,40.1 50.7,40.1 50.7,32.3 48.9,32.3 48.9,33.8 
		46.4,33.8 46.4,29.7 58,29.7 58,33.8 55.5,33.8 	"/>
</g>
<g>
	<path class="st0" d="M19.2,35.3h-3.5v-3h3.5V35.3z M12.9,40.1h-1v2.3h4.8v-2.3h-1v-2.5H20c0.3,0,0.5,0,0.8-0.3s0.5-0.3,0.8-0.5
		c0.3-0.3,0.3-0.5,0.5-0.8c0-0.3,0.3-0.5,0.3-0.8v-3.8c0-0.3,0-0.5-0.3-0.8c0-0.3-0.3-0.5-0.5-0.5C21.3,30,21,30,20.8,29.7
		c-0.3,0-0.5-0.3-0.8-0.3h-8.1v2.3h1V40.1z"/>
</g>
<g>
	<path class="st1" d="M17.2,42.9h-5.8v-3.2h1v-7.4h-1V29H20c0.2,0,0.4,0.1,0.6,0.2c0.1,0,0.1,0.1,0.2,0.1H21l0.1,0.1
		c0.1,0.1,0.1,0.1,0.3,0.2c0.1,0.1,0.2,0.1,0.4,0.2c0.4,0.1,0.7,0.4,0.8,0.8c0.3,0.4,0.3,0.7,0.3,1v3.8c0,0.2-0.1,0.4-0.2,0.6
		c0,0.1-0.1,0.1-0.1,0.2v0.2l-0.1,0.1c-0.1,0.1-0.1,0.1-0.2,0.3c-0.1,0.1-0.2,0.3-0.3,0.5c-0.2,0.2-0.4,0.3-0.5,0.3
		c-0.1,0.1-0.2,0.1-0.3,0.2c-0.4,0.4-0.8,0.4-1.1,0.4h-3.8v1.6h1V42.9z M12.4,41.9h3.9v-1.3h-1v-3.5H20c0.2,0,0.3,0,0.4-0.1
		c0.2-0.2,0.4-0.3,0.5-0.3c0.1-0.1,0.2-0.1,0.3-0.2c0.1-0.1,0.1-0.1,0.2-0.3c0.1-0.1,0.1-0.2,0.2-0.4c0-0.1,0.1-0.3,0.2-0.4
		c0-0.1,0.1-0.1,0.1-0.2l0-3.8c0-0.2,0-0.3-0.1-0.4l-0.1-0.1v-0.2h-0.2l-0.2-0.2c-0.1-0.1-0.1-0.1-0.3-0.2c-0.1-0.1-0.2-0.1-0.4-0.2
		c-0.1,0-0.3-0.1-0.4-0.2c-0.1,0-0.1-0.1-0.2-0.1l-7.6,0v1.3h1v9.3h-1V41.9z M19.7,35.8h-4.5v-4h4.5V35.8z M16.2,34.8h2.6v-2.1h-2.6
		V34.8z"/>
</g>
<g>
	<path class="st0" d="M30.4,40.1h-4.1v-7.9h4.1V40.1z M23.5,40.6c0,0.3,0,0.5,0.3,0.8c0,0.3,0.3,0.5,0.5,0.5
		c0.3,0.3,0.5,0.3,0.8,0.5c0.3,0,0.5,0.3,0.8,0.3h5.6c0.3,0,0.5,0,0.8-0.3c0.3,0,0.5-0.3,0.8-0.5c0.3-0.3,0.3-0.5,0.5-0.5
		c0-0.3,0.3-0.5,0.3-0.8v-8.9c0-0.3,0-0.5-0.3-0.8c0-0.3-0.3-0.5-0.5-0.5c-0.3-0.3-0.5-0.3-0.8-0.5c-0.3,0-0.5-0.3-0.8-0.3h-5.6
		c-0.3,0-0.5,0-0.8,0.3c-0.3,0-0.5,0.3-0.8,0.5c-0.3,0.3-0.3,0.5-0.5,0.5c0,0.3-0.3,0.5-0.3,0.8V40.6z"/>
</g>
<g>
	<path class="st1" d="M31.4,43.1h-5.6c-0.2,0-0.4-0.1-0.6-0.2c-0.1,0-0.1-0.1-0.2-0.1h-0.2l-0.1-0.1c-0.1-0.1-0.1-0.1-0.3-0.2
		c-0.1-0.1-0.2-0.1-0.4-0.2c-0.4-0.1-0.7-0.4-0.8-0.8c-0.3-0.4-0.3-0.7-0.3-1v-8.9c0-0.2,0.1-0.4,0.2-0.6c0-0.1,0.1-0.1,0.1-0.2
		v-0.5l0.4,0c0.1-0.1,0.2-0.2,0.3-0.4c0.3-0.3,0.5-0.5,0.9-0.6c0.4-0.3,0.7-0.3,1-0.3h5.6c0.2,0,0.4,0.1,0.6,0.2
		c0.1,0,0.1,0.1,0.2,0.1h0.2l0.1,0.1c0.1,0.1,0.1,0.1,0.3,0.2c0.1,0.1,0.2,0.1,0.4,0.2c0.4,0.1,0.7,0.4,0.7,0.8
		c0.3,0.4,0.3,0.7,0.3,1v8.9c0,0.2-0.1,0.4-0.2,0.6c0,0.1-0.1,0.1-0.1,0.2v0.5l-0.4,0c-0.1,0.1-0.2,0.2-0.3,0.4
		c-0.3,0.3-0.5,0.5-0.9,0.6C32,43.1,31.7,43.1,31.4,43.1z M25.3,42c0.1,0,0.3,0.1,0.4,0.2c0.1,0,0.1,0.1,0.2,0.1l5.6,0
		c0.2,0,0.3,0,0.4-0.1l0.1-0.1h0.2c0.1,0,0.3-0.2,0.4-0.4c0.1-0.1,0.1-0.1,0.1-0.2c0.1-0.1,0.1-0.2,0.3-0.3c0-0.1,0.1-0.2,0.1-0.2
		c0-0.1,0.1-0.1,0.1-0.2l0-8.9c0-0.2,0-0.3-0.1-0.4L33,31.2V31h-0.2l-0.2-0.2c-0.1-0.1-0.1-0.1-0.3-0.2c-0.1-0.1-0.2-0.1-0.4-0.2
		c-0.1,0-0.3-0.1-0.4-0.2c-0.1,0-0.1-0.1-0.2-0.1l-5.6,0c-0.2,0-0.3,0-0.4,0.1l-0.1,0.1h-0.2c-0.1,0-0.3,0.2-0.4,0.4
		c-0.1,0.1-0.1,0.1-0.1,0.2c-0.1,0.1-0.1,0.2-0.3,0.3c0,0.1-0.1,0.2-0.1,0.2c0,0.1-0.1,0.1-0.1,0.2l0,8.9c0,0.2,0,0.3,0.1,0.4
		l0.1,0.1v0.2h0.2l0.2,0.2c0.1,0.1,0.1,0.1,0.3,0.2C25,41.8,25.1,41.8,25.3,42z M30.9,40.6h-5v-8.8h5V40.6z M26.8,39.6h3.1v-6.9
		h-3.1V39.6z"/>
</g>
<g>
	<path class="st0" d="M42.3,34.8h-3.5v-2.5h3.5V34.8z M42.3,42.4h3.3v-2.3h-1.5l-1.3-3h0.5c0.3,0,0.5,0,0.8-0.3
		c0.3,0,0.5-0.3,0.5-0.5c0.3-0.3,0.3-0.5,0.3-0.5c0-0.3,0-0.5,0-0.8v-3.6c0-0.3,0-0.5-0.3-0.8c0-0.3-0.3-0.5-0.5-0.5
		c-0.3-0.3-0.5-0.3-0.8-0.5c-0.3,0-0.5-0.3-1-0.3h-8.1v2.3h1v7.9h-1v2.3H39v-2.3h-1v-2.8h1L42.3,42.4z"/>
</g>
<g>
	<path class="st1" d="M46.1,42.9h-4l-3.3-5.6h-0.3v1.8h1v3.2h-5.8v-3.2h1v-6.9h-1V29h8.6c0.4,0,0.7,0.1,0.9,0.2
		c0.1,0,0.1,0.1,0.2,0.1h0.2l0.1,0.1c0.1,0.1,0.1,0.1,0.3,0.2c0.1,0.1,0.2,0.1,0.4,0.2c0.4,0.1,0.7,0.4,0.8,0.8
		c0.3,0.4,0.3,0.7,0.3,1v4.3c0,0.1,0,0.4-0.3,0.7c-0.1,0.4-0.4,0.7-0.8,0.8c-0.3,0.2-0.5,0.3-0.8,0.3l0.9,2.1h1.7V42.9z M42.6,41.9
		h2.5v-1.3h-1.4l-1.7-4h1.2c0.2,0,0.3,0,0.4-0.1l0.1-0.1h0.2v-0.2l0.2-0.2c0.1-0.1,0.1-0.2,0.1-0.2l0-4.3c0-0.2,0-0.3-0.1-0.4
		l-0.1-0.1v-0.2h-0.2l-0.2-0.2c-0.1-0.1-0.1-0.1-0.3-0.2c-0.1-0.1-0.2-0.1-0.4-0.2c-0.1,0-0.2-0.1-0.3-0.1c-0.2-0.1-0.3-0.1-0.5-0.1
		h-7.6v1.3h1v8.8h-1v1.3h3.9v-1.3h-1v-3.8h1.8L42.6,41.9z M42.8,35.3h-4.5v-3.5h4.5V35.3z M39.2,34.3h2.6v-1.6h-2.6V34.3z"/>
</g>
<g>
	<polygon class="st0" points="55.5,33.8 58,33.8 58,29.7 46.4,29.7 46.4,33.8 48.9,33.8 48.9,32.3 50.7,32.3 50.7,40.1 49.4,40.1 
		49.4,42.4 55,42.4 55,40.1 53.5,40.1 53.5,32.3 55.5,32.3 	"/>
</g>
<g>
	<path class="st1" d="M55.5,42.9h-6.5v-3.2h1.3v-6.9h-0.8v1.5h-3.5v-5h12.6v5H55v-1.5h-1.1v6.9h1.5V42.9z M49.9,41.9h4.6v-1.3H53
		v-8.8h3v1.5h1.6v-3.1H46.8v3.1h1.6v-1.5h2.7v8.8h-1.3V41.9z"/>
</g>
<g>
	<path d="M15.7,56.4h3.8v-1.3H22v1.8c0,0.3,0,0.5-0.3,0.8c-0.3,0.3-0.3,0.5-0.5,0.5c-0.3,0.3-0.5,0.3-0.8,0.5
		c-0.3,0-0.5,0.3-0.8,0.3h-4.8c-0.3,0-0.5,0-0.8-0.3c-0.3,0-0.5-0.3-0.8-0.5c-0.3-0.3-0.3-0.5-0.5-0.5c0-0.3-0.3-0.5-0.3-0.8V48
		c0-0.3,0-0.5,0.3-0.8c0-0.3,0.3-0.5,0.5-0.5c0.3-0.3,0.5-0.3,0.8-0.5c0.3,0,0.5-0.3,0.8-0.3h3.3l1.3,1.3V46h2.3v3.6h-2.5v-1.3h-3.8
		L15.7,56.4L15.7,56.4z"/>
</g>
<g>
	<polygon points="27.9,48.5 26.8,48.5 26.8,56.4 30.6,56.4 30.6,54.9 32.9,54.9 32.9,58.9 23,58.9 23,56.4 24.1,56.4 24.1,48.5 
		23.3,48.5 23.3,46 27.9,46 	"/>
</g>
<g>
	<path d="M41.5,56.4v-7.9h-1.3v-2.3h5.1v2.3h-1v8.4c0,0.3,0,0.5-0.3,0.8c0,0.3-0.3,0.5-0.5,0.8c-0.3,0.3-0.5,0.3-0.8,0.5
		c-0.3,0-0.5,0.3-1,0.3H37c-0.3,0-0.8,0-1-0.3c-0.3,0-0.5-0.3-0.8-0.5c-0.3-0.3-0.3-0.5-0.5-0.8c0-0.3-0.3-0.5-0.3-0.8v-8.4h-1v-2.3
		h4.8v2.3h-1v7.9H41.5z"/>
</g>
<g>
	<path d="M46.9,58.9v-2.3h1v-7.9h-1v-2.3h7.9c0.3,0,0.5,0,0.8,0.3c0.3,0,0.5,0.3,0.8,0.5c0.3,0.3,0.3,0.5,0.5,0.5
		c0,0.3,0.3,0.5,0.3,0.8v2c0,0.5,0,0.8-0.3,1c-0.3,0.3-0.5,0.5-0.8,0.5c0.5,0,0.8,0.3,1,0.8c0.3,0.3,0.3,0.8,0.3,1v3.3
		c0,0.3,0,0.5-0.3,0.8c0,0.3-0.3,0.5-0.5,0.5c-0.3,0.3-0.5,0.3-0.8,0.5c-0.3,0-0.5,0.3-0.8,0.3h-8.1C46.9,59.2,46.9,58.9,46.9,58.9z
		 M50.7,50.8H54v-2.3h-3.3V50.8z M50.7,56.4h3.5v-3.3h-3.5V56.4z"/>
</g>
<g>
	<path class="st0" d="M15.7,48.5h3.5v1.3h2.3v-3.6h-2.3v1.3L18,46.2h-3.3c-0.3,0-0.5,0-0.8,0.3c-0.3,0-0.5,0.3-0.8,0.5
		c-0.3,0.3-0.3,0.5-0.5,0.5c0,0.3-0.3,0.5-0.3,0.8v8.9c0,0.3,0,0.5,0.3,0.8c0,0.3,0.3,0.5,0.5,0.5c0.3,0.3,0.5,0.3,0.8,0.5
		c0.3,0,0.5,0.3,0.8,0.3h4.8c0.3,0,0.5,0,0.8-0.3c0.3,0,0.5-0.3,0.8-0.5c0.3-0.3,0.5-0.5,0.5-0.5c0.3-0.3,0.3-0.5,0.3-0.8v-1.8h-2.5
		v1.3h-3.8L15.7,48.5L15.7,48.5z"/>
</g>
<g>
	<path class="st1" d="M19.5,59.7h-4.8c-0.2,0-0.4-0.1-0.6-0.2c-0.1,0-0.1-0.1-0.2-0.1h-0.2l-0.1-0.1c-0.1-0.1-0.1-0.1-0.3-0.2
		c-0.1-0.1-0.2-0.1-0.4-0.2c-0.4-0.1-0.7-0.4-0.8-0.8c-0.3-0.4-0.3-0.7-0.3-1v-8.9c0-0.2,0.1-0.4,0.2-0.6c0-0.1,0.1-0.1,0.1-0.2V47
		l0.4,0c0.1-0.1,0.2-0.2,0.3-0.4c0.3-0.3,0.5-0.5,0.9-0.6c0.4-0.3,0.7-0.3,1-0.3h3.5l0.6,0.6v-0.6H22v4.5h-3.2V49h-2.6l-0.2,7.2h2.8
		v-1.3h3.5v2.3c0,0.3,0,0.7-0.4,1.1l-0.5,0.5c-0.3,0.3-0.5,0.5-0.9,0.6C20.1,59.7,19.7,59.7,19.5,59.7z M14.1,58.5
		c0.1,0,0.3,0.1,0.4,0.2c0.1,0,0.1,0.1,0.2,0.1l4.8,0c0.2,0,0.3,0,0.4-0.1l0.1-0.1h0.2c0.1,0,0.3-0.2,0.4-0.4l0.5-0.5
		c0.1-0.1,0.1-0.2,0.1-0.4v-1.3h-1.6v1.3h-4.8l0.3-9.1h3.9l-1.3-1.3h-3.1c-0.2,0-0.3,0-0.4,0.1L14.1,47h-0.2c-0.1,0-0.3,0.2-0.4,0.4
		c-0.1,0.1-0.1,0.1-0.1,0.2c-0.1,0.1-0.1,0.2-0.3,0.3c0,0.1-0.1,0.2-0.1,0.2c0,0.1-0.1,0.1-0.1,0.2l0,8.9c0,0.2,0,0.3,0.1,0.4
		l0.1,0.1v0.2h0.2l0.2,0.2c0.1,0.1,0.1,0.1,0.3,0.2C13.9,58.3,14,58.4,14.1,58.5z M19.7,49.3H21v-2.6h-1.3V49.3z"/>
</g>
<g>
	<polygon class="st0" points="27.9,46 23.3,46 23.3,48.5 24.1,48.5 24.1,56.4 23,56.4 23,58.9 32.9,58.9 32.9,54.9 30.6,54.9 
		30.6,56.4 26.8,56.4 26.8,48.5 27.9,48.5 	"/>
</g>
<g>
	<path class="st1" d="M33.4,59.4H22.6v-3.5h1V49h-0.8v-3.5h5.5V49h-1v6.9h2.8v-1.5h3.2V59.4z M23.5,58.4h8.9v-3.1h-1.3v1.5h-4.8V48
		h1v-1.6h-3.6V48h0.8v8.8h-1V58.4z"/>
</g>
<g>
	<path class="st0" d="M37.5,56.4v-7.9h1v-2.3h-4.8v2.3h1v8.4c0,0.3,0,0.5,0.3,0.8c0,0.3,0.3,0.5,0.5,0.8c0.3,0.3,0.5,0.3,0.8,0.5
		c0.3,0,0.5,0.3,1,0.3h4.8c0.3,0,0.8,0,1-0.3c0.3,0,0.5-0.3,0.8-0.5c0.3-0.3,0.3-0.5,0.5-0.8c0-0.3,0.3-0.5,0.3-0.8v-8.4h1v-2.3
		h-5.1v2.3h1.3v7.9H37.5z"/>
</g>
<g>
	<path class="st1" d="M42.1,59.7h-4.8c-0.4,0-0.7-0.1-0.9-0.2c-0.1,0-0.1-0.1-0.2-0.1H36l-0.1-0.1c-0.1-0.1-0.1-0.1-0.3-0.2
		c-0.1-0.1-0.3-0.2-0.5-0.3c-0.3-0.3-0.5-0.5-0.6-0.9c-0.3-0.4-0.3-0.7-0.3-1V49h-1v-3.2H39V49h-1v6.9h3.4V49h-1.3v-3.2h6V49h-1v7.9
		c0,0.2-0.1,0.4-0.2,0.6c0,0.1-0.1,0.1-0.1,0.2v0.2L44.7,58c-0.1,0.1-0.1,0.1-0.2,0.3c-0.1,0.1-0.2,0.3-0.3,0.5
		c-0.3,0.3-0.5,0.5-0.9,0.6C42.9,59.7,42.3,59.7,42.1,59.7z M36.4,58.5c0.1,0,0.2,0.1,0.3,0.1c0.2,0.1,0.3,0.1,0.5,0.1h4.8
		c0.4,0,0.6,0,0.7-0.1l0.1-0.1h0.2c0.1,0,0.3-0.2,0.4-0.4c0.1-0.1,0.1-0.1,0.2-0.3c0.1-0.1,0.1-0.2,0.2-0.4c0-0.1,0.1-0.3,0.2-0.4
		c0-0.1,0.1-0.1,0.1-0.2l0-8.9h1v-1.3H41V48h1.3v8.8H37V48h1v-1.3h-3.9V48h1v8.9c0,0.2,0,0.3,0.1,0.4l0.1,0.1v0.2
		c0,0.1,0.2,0.3,0.4,0.4c0.1,0.1,0.1,0.1,0.3,0.2C36.2,58.3,36.3,58.4,36.4,58.5z"/>
</g>
<g>
	<path class="st0" d="M50.7,48.5H54v2.3h-3.3V48.5z M50.7,53.1h3.5v3.3h-3.5V53.1z M55,58.9c0.3,0,0.5,0,0.8-0.3
		c0.3,0,0.5-0.3,0.8-0.5c0.3-0.3,0.3-0.5,0.5-0.5c0-0.3,0.3-0.5,0.3-0.8v-3.3c0-0.3,0-0.8-0.3-1c-0.3-0.3-0.5-0.5-1-0.8
		c0.5-0.3,0.8-0.3,0.8-0.5c0.3-0.3,0.3-0.5,0.3-1v-2c0-0.3,0-0.5-0.3-0.8c0-0.3-0.3-0.5-0.5-0.5c-0.3-0.3-0.5-0.3-0.8-0.5
		c-0.3,0-0.5-0.3-0.8-0.3h-7.9v2.3h1v7.9h-1v2.3H55V58.9z"/>
</g>
<g>
	<path class="st1" d="M55,59.4h-0.5v-0.3h-8.1v-3.2h1V49h-1v-3.2h8.3c0.2,0,0.4,0.1,0.6,0.2c0.1,0,0.1,0.1,0.2,0.1h0.2l0.1,0.1
		c0.1,0.1,0.1,0.1,0.3,0.2c0.1,0.1,0.2,0.1,0.4,0.2c0.4,0.1,0.7,0.4,0.8,0.8c0.3,0.4,0.3,0.7,0.3,1v2c0,0.5,0,0.9-0.3,1.2
		c0,0.2-0.1,0.3-0.2,0.4c0.1,0.1,0.3,0.2,0.4,0.4c0.4,0.4,0.4,1,0.4,1.4v3.3c0,0.2-0.1,0.4-0.2,0.6c0,0.1-0.1,0.1-0.1,0.2v0.5
		l-0.4,0c-0.1,0.1-0.2,0.2-0.3,0.4c-0.3,0.3-0.5,0.5-0.9,0.6C55.6,59.4,55.2,59.4,55,59.4z M47.4,58.2h8.1v0.1l0.1-0.1h0.2
		c0.1,0,0.3-0.2,0.4-0.4c0.1-0.1,0.1-0.1,0.1-0.2c0.1-0.1,0.1-0.2,0.3-0.3c0-0.1,0.1-0.2,0.1-0.2c0-0.1,0.1-0.1,0.1-0.2l0-3.3
		c0-0.4,0-0.6-0.1-0.7c-0.2-0.2-0.5-0.5-0.9-0.7l-0.9-0.4l0.9-0.4c0.2-0.1,0.3-0.1,0.4-0.2c0,0,0.1,0,0.1,0v-0.1l0.1-0.1
		c0.1-0.1,0.1-0.2,0.1-0.7v-2c0-0.2,0-0.3-0.1-0.4l-0.1-0.1v-0.2h-0.2l-0.2-0.2c-0.1-0.1-0.1-0.1-0.3-0.2c-0.1-0.1-0.2-0.1-0.4-0.2
		c-0.1,0-0.3-0.1-0.4-0.2c-0.1,0-0.1-0.1-0.2-0.1l-7.4,0V48h1v8.8h-1V58.2z M54.7,56.9h-4.5v-4.3h4.5V56.9z M51.2,55.9h2.6v-2.3
		h-2.6V55.9z M54.5,51.3h-4.3V48h4.3V51.3z M51.2,50.3h2.3V49h-2.3V50.3z"/>
</g>
<g>
	<path d="M135.9,35.3h4.8v2h-0.8v5.1h-1.5l-1-1.3l-1.3,1.3h-3.5c-0.3,0-0.5,0-0.8-0.3c-0.3,0-0.5-0.3-0.8-0.5
		c-0.3-0.3-0.3-0.5-0.5-0.5c0-0.3-0.3-0.5-0.3-0.8v-8.9c0-0.3,0-0.5,0.3-0.8c0-0.3,0.3-0.5,0.5-0.5c0.3-0.3,0.5-0.3,0.8-0.5
		c0.3,0,0.5-0.3,0.8-0.3h3.5l1.3,1.3v-1.3h2.3V33h-2.3v-1.3h-4.1v7.9h4.1v-2.8h-1.5V35.3z"/>
</g>
<g>
	<path d="M147,37.3h-1v2.8h1v2.3h-4.8v-2.3h1v-7.9h-1V30h8.1c0.3,0,0.5,0,1,0.3c0.3,0,0.5,0.3,0.8,0.5c0.3,0.3,0.3,0.5,0.5,0.5
		c0,0.3,0.3,0.5,0.3,0.8v3.6c0,0.3,0,0.5,0,0.8c0,0.3-0.3,0.5-0.3,0.5c-0.3,0.3-0.3,0.3-0.5,0.5c-0.3,0-0.5,0.3-0.8,0.3h-0.5l1.3,3
		h1.5v2.3h-3.3L147,37.3z M146,34.8h3.5v-2.5H146V34.8z"/>
</g>
<g>
	<path d="M161.5,38.9h-4.3l-0.5,1.3h1.3v2.3h-4.6v-2.3h0.8l3.8-10.4h3l3.5,10.4h0.8v2.3h-5.3v-2.3h1.5L161.5,38.9z M159.2,32.5
		l-1.5,4.3h2.8L159.2,32.5L159.2,32.5z"/>
</g>
<g>
	<polygon points="175.7,37.8 175.7,32.3 174.6,32.3 174.6,29.7 179,29.7 179,32.3 177.9,32.3 177.9,42.7 175.4,42.7 170.1,34.3 
		169.8,34.3 169.8,40.1 170.8,40.1 170.8,42.7 166.8,42.7 166.8,40.1 167.5,40.1 167.5,32.3 166.8,32.3 166.8,29.7 170.6,29.7 	"/>
</g>
<g>
	<path d="M180.5,40.1h1v-7.9h-1V30h8.1c0.3,0,0.5,0,0.8,0.3c0.3,0,0.5,0.3,0.8,0.5c0.3,0.3,0.3,0.5,0.5,0.8c0,0.3,0.3,0.5,0.3,0.8
		v8.6c0,0.3,0,0.5-0.3,0.8c0,0.3-0.3,0.5-0.5,0.8c-0.3,0.3-0.5,0.3-0.8,0.5c-0.3,0-0.5,0.3-0.8,0.3h-8.1V40.1z M184.3,40.1h3.8v-7.9
		h-3.8V40.1z"/>
</g>
<g>
	<path class="st0" d="M135.9,37.3h1.5v2.8h-4.1v-7.9h4.1v1.3h2.3V30h-2.3v1.3l-1.3-1.3h-3.5c-0.3,0-0.5,0-0.8,0.3
		c-0.3,0-0.5,0.3-0.8,0.5c-0.3,0.3-0.3,0.5-0.5,0.5c0,0.3-0.3,0.5-0.3,0.8v8.9c0,0.3,0,0.5,0.3,0.8c0,0.3,0.3,0.5,0.5,0.5
		c0.3,0.3,0.5,0.3,0.8,0.5c0.3,0,0.5,0.3,0.8,0.3h3.5l1.3-1.3l1,1.3h1.5v-5.1h0.8v-2h-4.8V37.3z"/>
</g>
<g>
	<path class="st1" d="M140.4,43.4h-2.2l-0.8-1l-1,1h-3.7c-0.2,0-0.4-0.1-0.6-0.2c-0.1,0-0.1-0.1-0.2-0.1h-0.2l-0.1-0.1
		c-0.1-0.1-0.1-0.1-0.3-0.2c-0.1-0.1-0.2-0.1-0.4-0.2c-0.4-0.1-0.7-0.4-0.8-0.8c-0.3-0.4-0.3-0.7-0.3-1V32c0-0.2,0.1-0.4,0.2-0.6
		c0-0.1,0.1-0.1,0.1-0.2v-0.5l0.4,0c0.1-0.1,0.2-0.2,0.3-0.4c0.3-0.3,0.5-0.5,0.9-0.6c0.4-0.3,0.7-0.3,1-0.3h3.7l0.6,0.6v-0.6h3.2
		V34h-3.2v-1.3h-3.1v6.9h3.1v-1.8h-1.5v-2.5h5.8v3h-0.8V43.4z M132,42.2c0.1,0,0.3,0.1,0.4,0.2c0.1,0,0.1,0.1,0.2,0.1l3.3,0l1.5-1.5
		l1.2,1.5h0.8v-5.1h0.8v-1.1h-3.9v0.6h1.5v3.8h-5v-8.8h4.4l-1.3-1.3h-3.4c-0.2,0-0.3,0-0.4,0.1l-0.1,0.1h-0.2
		c-0.1,0-0.3,0.2-0.4,0.4c-0.1,0.1-0.1,0.1-0.1,0.2c-0.1,0.1-0.1,0.2-0.3,0.3c0,0.1-0.1,0.2-0.1,0.2c0,0.1-0.1,0.1-0.1,0.2l0,8.9
		c0,0.2,0,0.3,0.1,0.4l0.1,0.1v0.2h0.2l0.2,0.2c0.1,0.1,0.1,0.1,0.3,0.2C131.7,42,131.9,42.1,132,42.2z M137.9,33h1.3v-2.6h-1.3V33z
		"/>
</g>
<g>
	<path class="st0" d="M149.3,34.8H146v-2.5h3.5L149.3,34.8L149.3,34.8z M149.3,42.7h3.3v-2.3h-1.5l-1.3-3h0.5c0.3,0,0.5,0,0.8-0.3
		c0.3,0,0.5-0.3,0.5-0.5c0.3-0.3,0.3-0.5,0.3-0.5c0-0.3,0-0.5,0-0.8v-3.6c0-0.3,0-0.5-0.3-0.8c0-0.3-0.3-0.5-0.5-0.5
		c-0.3-0.3-0.5-0.3-0.8-0.5c-0.3,0-0.5-0.3-1-0.3h-8.1V32h1v7.9h-1v2.3h4.8v-2.3l0,0v-2.8h1L149.3,42.7z"/>
</g>
<g>
	<path class="st1" d="M153.1,43.1H149l-2.3-5.6h-0.2v5.1h-5.8v-3.2h1v-6.9h-1v-3.2h8.6c0.4,0,0.7,0.1,0.9,0.2c0.1,0,0.1,0.1,0.2,0.1
		h0.2l0.1,0.1c0.1,0.1,0.1,0.1,0.3,0.2c0.1,0.1,0.2,0.1,0.4,0.2c0.4,0.1,0.7,0.4,0.8,0.8c0.3,0.4,0.3,0.7,0.3,1v4.3
		c0,0.1,0,0.4-0.3,0.7c-0.1,0.4-0.4,0.7-0.8,0.8c-0.3,0.2-0.5,0.3-0.8,0.3l0.9,2.1h1.7V43.1z M149.6,42.2h2.5v-1.3h-1.4l-1.7-4h1.2
		c0.2,0,0.3,0,0.4-0.1l0.1-0.1h0.2v-0.2l0.2-0.2c0.1-0.1,0.1-0.2,0.1-0.2l0-4.3c0-0.2,0-0.3-0.1-0.4l-0.1-0.1V31h-0.2l-0.2-0.2
		c-0.1-0.1-0.1-0.1-0.3-0.2c-0.1-0.1-0.2-0.1-0.4-0.2c-0.1,0-0.2-0.1-0.3-0.1c-0.2-0.1-0.3-0.1-0.5-0.1h-7.6v1.3h1v8.8h-1v1.3h3.9
		v-5.1h1.8L149.6,42.2z M149.7,35.3h-4.2v-3.5h4.6L149.7,35.3z M146.5,34.3h2.4l0.2-1.6h-2.5V34.3z"/>
</g>
<g>
	<path class="st0" d="M159.4,32.5l1.3,4.3h-2.8L159.4,32.5L159.4,32.5z M161.7,40.1h-1.5v2.3h5.3v-2.3h-0.8l-3.5-10.4h-3l-3.8,10.4
		h-0.8v2.3h4.6v-2.3h-1.3l0.5-1.3h4.3V40.1z"/>
</g>
<g>
	<path class="st1" d="M166,42.9h-6.3v-3.2h1.5v-0.3h-3.5l-0.1,0.3h1v3.2h-5.5v-3.2h0.9l3.8-10.4h3.7l3.5,10.4h0.9V42.9z M160.7,41.9
		h4.4v-1.3h-0.6l-3.5-10.4h-2.4l-3.8,10.4h-0.6v1.3h3.6v-1.3h-1.5l0.9-2.2h5.1v2.2h-1.5V41.9z M161.3,37.3h-4.1l2.2-6.4L161.3,37.3z
		 M158.6,36.3h1.5l-0.7-2.3L158.6,36.3z"/>
</g>
<g>
	<polygon class="st0" points="175.7,37.8 170.6,29.7 166.8,29.7 166.8,32.3 167.5,32.3 167.5,40.1 166.8,40.1 166.8,42.7 
		170.8,42.7 170.8,40.1 169.8,40.1 169.8,34.3 170.1,34.3 175.4,42.7 177.9,42.7 177.9,32.3 179,32.3 179,29.7 174.6,29.7 
		174.6,32.3 175.7,32.3 	"/>
</g>
<g>
	<path class="st1" d="M178.4,43.1h-3.3l-4.8-7.6v4.1h1v3.5h-5v-3.5h0.8v-6.9h-0.8v-3.5h4.5l4.3,6.9v-3.4h-1v-3.5h5.3v3.5h-1V43.1z
		 M175.7,42.2h1.8V31.8h1v-1.6h-3.4v1.6h1v7.7l-5.8-9.3h-3.1v1.6h0.8v8.8h-0.8v1.6h3.1v-1.6h-1v-6.8h1L175.7,42.2z"/>
</g>
<g>
	<path class="st0" d="M184.3,32.3h3.8v7.9h-3.8V32.3z M180.5,42.7h8.1c0.3,0,0.5,0,0.8-0.3c0.3,0,0.5-0.3,0.8-0.5
		c0.3-0.3,0.3-0.5,0.5-0.8c0-0.3,0.3-0.5,0.3-0.8v-8.6c0-0.3,0-0.5-0.3-0.8c0-0.3-0.3-0.5-0.5-0.8c-0.3-0.3-0.5-0.3-0.8-0.5
		c-0.3,0-0.5-0.3-0.8-0.3h-8.1v2.3h1v7.9h-1V42.7z"/>
</g>
<g>
	<path class="st1" d="M188.6,43.1H180v-4h1v-6.9h-1V29h8.6c0.2,0,0.4,0.1,0.6,0.2c0.1,0,0.1,0.1,0.2,0.1h0.2l0.1,0.1
		c0.1,0.1,0.1,0.1,0.3,0.2c0.1,0.1,0.3,0.2,0.5,0.3c0.3,0.3,0.5,0.5,0.6,0.9c0.3,0.4,0.3,0.7,0.3,1v8.6c0,0.2-0.1,0.4-0.2,0.6
		c0,0.1-0.1,0.1-0.1,0.2v0.2l-0.1,0.1c-0.1,0.1-0.1,0.1-0.2,0.3c-0.1,0.1-0.2,0.3-0.3,0.5c-0.3,0.3-0.5,0.5-0.9,0.6
		C189.2,43.1,188.8,43.1,188.6,43.1z M181,42.2h7.6c0.2,0,0.3,0,0.4-0.1l0.1-0.1h0.2c0.1,0,0.3-0.2,0.4-0.4c0.1-0.1,0.1-0.1,0.2-0.3
		c0.1-0.1,0.1-0.2,0.2-0.4c0-0.1,0.1-0.3,0.2-0.4c0-0.1,0.1-0.1,0.1-0.2l0-8.6c0-0.2,0-0.3-0.1-0.4l-0.1-0.1V31
		c0-0.1-0.2-0.3-0.4-0.4c-0.1-0.1-0.1-0.1-0.3-0.2c-0.1-0.1-0.2-0.1-0.4-0.2c-0.1,0-0.3-0.1-0.4-0.2c-0.1,0-0.1-0.1-0.2-0.1l-7.6,0
		v1.3h1v8.8h-1V42.2z M188.6,40.6h-4.8v-8.8h4.8V40.6z M184.8,39.6h2.8v-6.9h-2.8V39.6z"/>
</g>
<g>
	<path d="M133.3,56.4h3.8v-1.3h2.5v1.8c0,0.3,0,0.5-0.3,0.8c-0.3,0.3-0.3,0.5-0.5,0.5c-0.3,0-0.5,0.3-0.8,0.5
		c-0.3,0-0.5,0.3-0.8,0.3h-4.8c-0.3,0-0.5,0-0.8-0.3c-0.3,0-0.5-0.3-0.8-0.5c-0.3-0.3-0.3-0.5-0.5-0.5c0-0.3-0.3-0.5-0.3-0.8V48
		c0-0.3,0-0.5,0.3-0.8c0-0.3,0.3-0.5,0.5-0.5c0.3-0.3,0.5-0.3,0.8-0.5c0.3,0,0.5-0.3,0.8-0.3h3.3l1.3,1.3V46h2.3v3.6h-2.3v-1.3h-3.8
		V56.4z"/>
</g>
<g>
	<path d="M145.7,53.6h-1v2.8h1v2.3h-4.8v-2.3h1v-7.9h-1v-2.3h8.1c0.3,0,0.5,0,1,0.3c0.3,0,0.5,0.3,0.8,0.5c0.3,0.3,0.3,0.5,0.5,0.5
		c0,0.3,0.3,0.5,0.3,0.8v3.6c0,0.3,0,0.5,0,0.8c0,0.3-0.3,0.5-0.3,0.5c-0.3,0.3-0.3,0.3-0.5,0.5c-0.3,0-0.5,0.3-0.8,0.3h-1.5l1.3,3
		h1.5v2.3H148L145.7,53.6z M144.7,51.3h3.5v-2.5h-3.5V51.3z"/>
</g>
<g>
	<path d="M153.1,48c0-0.3,0-0.5,0.3-0.8c0-0.3,0.3-0.5,0.5-0.5c0.3-0.3,0.5-0.3,0.8-0.5c0.3,0,0.5-0.3,0.8-0.3h5.6
		c0.3,0,0.5,0,0.8,0.3c0.3,0,0.5,0.3,0.8,0.5c0.3,0.3,0.3,0.5,0.5,0.5c0,0.3,0.3,0.5,0.3,0.8v8.9c0,0.3,0,0.5-0.3,0.8
		c0,0.3-0.3,0.5-0.5,0.5c-0.3,0.3-0.5,0.3-0.8,0.5c-0.3,0-0.5,0.3-0.8,0.3h-5.6c-0.3,0-0.5,0-0.8-0.3c-0.3,0-0.5-0.3-0.8-0.5
		c-0.3-0.3-0.3-0.5-0.5-0.5c0-0.3-0.3-0.5-0.3-0.8V48z M155.9,56.4h4.1v-7.9h-4.1V56.4z"/>
</g>
<g>
	<path d="M166,53.3c-0.3,0-0.5-0.3-0.8-0.5c-0.3-0.3-0.3-0.5-0.5-0.5c0-0.3-0.3-0.5-0.3-0.8V48c0-0.3,0-0.5,0.3-0.8
		c0-0.3,0.3-0.5,0.5-0.5c0.3-0.3,0.5-0.3,0.8-0.5c0.3,0,0.5-0.3,0.8-0.3h3l1.3,1.3V46h2.3v3.6h-2.3v-1h-3.5V51h4.3
		c0.3,0,0.5,0,0.8,0.3c0.3,0,0.5,0.3,0.8,0.5c0.3,0.3,0.3,0.5,0.5,0.5c0,0.3,0.3,0.5,0.3,0.8v3.8c0,0.3,0,0.5-0.3,0.8
		c0,0.3-0.3,0.5-0.5,0.5c-0.3,0.3-0.5,0.3-0.8,0.5c-0.3,0-0.5,0.3-0.8,0.3h-3.5l-1.3-1.3v1.3h-2.3v-3.6h2.3v1h4.1v-3h-4.3
		C166.5,53.6,166.3,53.6,166,53.3"/>
</g>
<g>
	<path d="M176.9,53.3c-0.3,0-0.5-0.3-0.8-0.5c-0.3-0.3-0.3-0.5-0.5-0.5c0-0.3-0.3-0.5-0.3-0.8V48c0-0.3,0-0.5,0.3-0.8
		c0-0.3,0.3-0.5,0.5-0.5c0.3-0.3,0.5-0.3,0.8-0.5c0.3,0,0.5-0.3,0.8-0.3h3l1.3,1.3V46h2.3v3.6H182v-1h-3.5V51h4.3
		c0.3,0,0.5,0,0.8,0.3c0.3,0,0.5,0.3,0.8,0.5c0.3,0.3,0.3,0.5,0.5,0.5c0,0.3,0.3,0.5,0.3,0.8v3.8c0,0.3,0,0.5-0.3,0.8
		c0,0.3-0.3,0.5-0.5,0.5c-0.3,0.3-0.5,0.3-0.8,0.5c-0.3,0-0.5,0.3-0.8,0.3h-3.5l-1.3-1.3v1.3h-2.3v-3.6h2.3v1h4.1v-3h-4.3
		C177.7,53.6,177.2,53.6,176.9,53.3"/>
</g>
<g>
	<polygon points="191.9,58.9 186.6,58.9 186.6,56.4 187.6,56.4 187.6,48.5 186.6,48.5 186.6,46.2 196.5,46.2 196.5,50.3 193.9,50.3 
		193.9,48.5 190.4,48.5 190.4,51.3 194.2,51.3 194.2,53.6 190.4,53.6 190.4,56.4 191.9,56.4 	"/>
</g>
<g>
	<polygon points="202,56.4 203.3,56.4 203.3,58.9 198.2,58.9 198.2,56.4 199.2,56.4 199.2,48.5 198.2,48.5 198.2,46.2 203.3,46.2 
		203.3,48.5 202,48.5 	"/>
</g>
<g>
	<polygon points="213.9,48.5 211.9,48.5 211.9,56.4 213.4,56.4 213.4,58.9 207.9,58.9 207.9,56.4 209.1,56.4 209.1,48.5 207.4,48.5 
		207.4,50.3 204.8,50.3 204.8,46.2 216.5,46.2 216.5,50.3 213.9,50.3 	"/>
</g>
<g>
	<path class="st0" d="M133.3,48.5h3.8v1.3h2.3v-3.6h-2.3v1.3l-1.3-1.3h-3.3c-0.3,0-0.5,0-0.8,0.3c-0.3,0-0.5,0.3-0.8,0.5
		c-0.3,0.3-0.3,0.5-0.5,0.5c0,0.3-0.3,0.5-0.3,0.8v8.9c0,0.3,0,0.5,0.3,0.8c0,0.3,0.3,0.5,0.5,0.5c0.3,0.3,0.5,0.3,0.8,0.5
		c0.3,0,0.5,0.3,0.8,0.3h4.8c0.3,0,0.5,0,0.8-0.3c0.3,0,0.5-0.3,0.8-0.5c0.3-0.3,0.5-0.5,0.5-0.5c0.3-0.3,0.3-0.5,0.3-0.8v-1.8h-2.5
		v1.3h-3.8V48.5z"/>
</g>
<g>
	<path class="st1" d="M137.4,59.7h-4.8c-0.2,0-0.4-0.1-0.6-0.2c-0.1,0-0.1-0.1-0.2-0.1h-0.2l-0.1-0.1c-0.1-0.1-0.1-0.1-0.3-0.2
		c-0.1-0.1-0.2-0.1-0.4-0.2c-0.4-0.1-0.7-0.4-0.8-0.8c-0.3-0.4-0.3-0.7-0.3-1v-8.9c0-0.2,0.1-0.4,0.2-0.6c0-0.1,0.1-0.1,0.1-0.2V47
		l0.4,0c0.1-0.1,0.2-0.2,0.3-0.4c0.3-0.3,0.5-0.5,0.9-0.6c0.4-0.3,0.7-0.3,1-0.3h3.5l0.6,0.6v-0.6h3.2v4.5h-3.2V49h-2.8v7.2h2.8
		v-1.3h3.5v2.3c0,0.3,0,0.7-0.4,1.1l-0.5,0.5c-0.3,0.3-0.5,0.5-0.9,0.6C138,59.7,137.6,59.7,137.4,59.7z M132,58.5
		c0.1,0,0.3,0.1,0.4,0.2c0.1,0,0.1,0.1,0.2,0.1l4.8,0c0.2,0,0.3,0,0.4-0.1l0.1-0.1h0.2c0.1,0,0.3-0.2,0.4-0.4l0.5-0.5
		c0.1-0.1,0.1-0.2,0.1-0.4v-1.3h-1.6v1.3h-4.8V48h4.1l-1.3-1.3h-3.1c-0.2,0-0.3,0-0.4,0.1L132,47h-0.2c-0.1,0-0.3,0.2-0.4,0.4
		c-0.1,0.1-0.1,0.1-0.1,0.2c-0.1,0.1-0.1,0.2-0.3,0.3c0,0.1-0.1,0.2-0.1,0.2c0,0.1-0.1,0.1-0.1,0.2l0,8.9c0,0.2,0,0.3,0.1,0.4
		l0.1,0.1v0.2h0.2l0.2,0.2c0.1,0.1,0.1,0.1,0.3,0.2C131.7,58.3,131.9,58.4,132,58.5z M137.6,49.3h1.3v-2.6h-1.3V49.3z"/>
</g>
<g>
	<path class="st0" d="M148,51.3h-3.5v-2.5h3.5V51.3z M148,58.9h3.3v-2.3h-1.5l-1.3-3h0.5c0.3,0,0.5,0,0.8-0.3c0.3,0,0.5-0.3,0.5-0.5
		c0.3-0.3,0.3-0.5,0.3-0.5c0-0.3,0-0.5,0-0.8V48c0-0.3,0-0.5-0.3-0.8c0-0.3-0.3-0.5-0.5-0.5c-0.3-0.3-0.5-0.3-0.8-0.5
		c-0.3,0-0.5-0.3-1-0.3h-7.1v2.3h1v7.9h-1v2.3h4.8v-2.3h-1v-2.8h1L148,58.9z"/>
</g>
<g>
	<path class="st1" d="M151.8,59.4h-4.1l-1.5-3.6v3.1h-5.8v-3.2h1v-6.9h-1v-3.2h7.6c0.4,0,0.7,0.1,0.9,0.2c0.1,0,0.1,0.1,0.2,0.1h0.2
		l0.1,0.1c0.1,0.1,0.1,0.1,0.3,0.2c0.1,0.1,0.2,0.1,0.4,0.2c0.4,0.1,0.7,0.4,0.8,0.8c0.3,0.4,0.3,0.7,0.3,1v4.3c0,0.1,0,0.4-0.3,0.7
		c-0.1,0.4-0.4,0.7-0.8,0.8c-0.3,0.2-0.5,0.3-0.8,0.3l0.9,2.1h1.7V59.4z M148.4,58.4h2.5v-1.3h-1.4l-1.7-4h1.2c0.2,0,0.3,0,0.4-0.1
		l0.1-0.1h0.2v-0.2l0.2-0.2c0.1-0.1,0.1-0.2,0.1-0.2l0-4.3c0-0.2,0-0.3-0.1-0.4l-0.1-0.1v-0.2h-0.2l-0.2-0.2
		c-0.1-0.1-0.1-0.1-0.3-0.2c-0.1-0.1-0.2-0.1-0.4-0.2c-0.1,0-0.2-0.1-0.3-0.1c-0.2-0.1-0.3-0.1-0.5-0.1h-6.6v1.3h1v8.8h-1v1.3h3.9
		v-1.3h-1v-3.8h1.8L148.4,58.4z M145.2,55.6h1l-0.7-1.8h-0.2V55.6z M148.5,51.8H144v-3.5h4.5V51.8z M145,50.8h2.6v-1.6H145V50.8z"/>
</g>
<g>
	<path class="st0" d="M159.9,56.4h-4.1v-7.9h4.1V56.4z M153.1,56.9c0,0.3,0,0.5,0.3,0.8c0,0.3,0.3,0.5,0.5,0.5
		c0.3,0.3,0.5,0.3,0.8,0.5c0.3,0,0.5,0.3,0.8,0.3h5.6c0.3,0,0.5,0,0.8-0.3c0.3,0,0.5-0.3,0.8-0.5c0.3-0.3,0.3-0.5,0.5-0.5
		c0-0.3,0.3-0.5,0.3-0.8V48c0-0.3,0-0.5-0.3-0.8c0-0.3-0.3-0.5-0.5-0.5c-0.3-0.3-0.5-0.3-0.8-0.5c-0.3,0-0.5-0.3-0.8-0.3h-5.6
		c-0.3,0-0.5,0-0.8,0.3c-0.3,0-0.5,0.3-0.8,0.5c-0.3,0.3-0.3,0.5-0.5,0.5c0,0.3-0.3,0.5-0.3,0.8V56.9z"/>
</g>
<g>
	<path class="st1" d="M161,59.4h-5.6c-0.2,0-0.4-0.1-0.6-0.2c-0.1,0-0.1-0.1-0.2-0.1h-0.2l-0.1-0.1c-0.1-0.1-0.1-0.1-0.3-0.2
		c-0.1-0.1-0.2-0.1-0.4-0.2c-0.4-0.1-0.7-0.4-0.8-0.8c-0.3-0.4-0.3-0.7-0.3-1V48c0-0.2,0.1-0.4,0.2-0.6c0-0.1,0.1-0.1,0.1-0.2v-0.5
		l0.4,0c0.1-0.1,0.2-0.2,0.3-0.4c0.3-0.3,0.5-0.5,0.9-0.6c0.4-0.3,0.7-0.3,1-0.3h5.6c0.2,0,0.4,0.1,0.6,0.2c0.1,0,0.1,0.1,0.2,0.1
		h0.2l0.1,0.1c0.1,0.1,0.1,0.1,0.3,0.2c0.1,0.1,0.2,0.1,0.4,0.2c0.4,0.1,0.7,0.4,0.7,0.8c0.3,0.4,0.3,0.7,0.3,1v8.9
		c0,0.2-0.1,0.4-0.2,0.6c0,0.1-0.1,0.1-0.1,0.2v0.5l-0.4,0c-0.1,0.1-0.2,0.2-0.3,0.4c-0.3,0.3-0.5,0.5-0.9,0.6
		C161.6,59.4,161.2,59.4,161,59.4z M154.8,58.2c0.1,0,0.3,0.1,0.4,0.2c0.1,0,0.1,0.1,0.2,0.1l5.6,0c0.2,0,0.3,0,0.4-0.1l0.1-0.1h0.2
		c0.1,0,0.3-0.2,0.4-0.4c0.1-0.1,0.1-0.1,0.1-0.2c0.1-0.1,0.1-0.2,0.3-0.3c0-0.1,0.1-0.2,0.1-0.2c0-0.1,0.1-0.1,0.1-0.2l0-8.9
		c0-0.2,0-0.3-0.1-0.4l-0.1-0.1v-0.2h-0.2l-0.2-0.2c-0.1-0.1-0.1-0.1-0.3-0.2c-0.1-0.1-0.2-0.1-0.4-0.2c-0.1,0-0.3-0.1-0.4-0.2
		c-0.1,0-0.1-0.1-0.2-0.1l-5.6,0c-0.2,0-0.3,0-0.4,0.1l-0.1,0.1h-0.2c-0.1,0-0.3,0.2-0.4,0.4c-0.1,0.1-0.1,0.1-0.1,0.2
		c-0.1,0.1-0.1,0.2-0.3,0.3c0,0.1-0.1,0.2-0.1,0.2c0,0.1-0.1,0.1-0.1,0.2l0,8.9c0,0.2,0,0.3,0.1,0.4l0.1,0.1v0.2h0.2l0.2,0.2
		c0.1,0.1,0.1,0.1,0.3,0.2C154.6,58,154.7,58.1,154.8,58.2z M160.4,56.9h-5V48h5V56.9z M156.4,55.9h3.1V49h-3.1V55.9z"/>
</g>
<g>
	<path class="st0" d="M166.8,53.6h4.3v3H167v-1h-2.3v3.6h2.3v-1.3l1.3,1.3h3.5c0.3,0,0.5,0,0.8-0.3c0.3,0,0.5-0.3,0.8-0.5
		c0.3-0.3,0.3-0.5,0.5-0.5c0-0.3,0.3-0.5,0.3-0.8v-3.8c0-0.3,0-0.5-0.3-0.8c0-0.3-0.3-0.5-0.5-0.5c-0.3-0.3-0.5-0.3-0.8-0.5
		c-0.3,0-0.5-0.3-0.8-0.3h-4.3v-2.5h3.5v1h2.3v-3.6h-2.3v1.3l-1.3-1.3h-3c-0.3,0-0.5,0-0.8,0.3c-0.3,0-0.5,0.3-0.8,0.5
		c-0.3,0.3-0.3,0.5-0.5,0.5c0,0.3-0.3,0.5-0.3,0.8v3.6c0,0.3,0,0.5,0.3,0.8c0,0.3,0.3,0.5,0.5,0.5c0.3,0.3,0.5,0.3,0.8,0.5
		C166.3,53.6,166.5,53.6,166.8,53.6"/>
</g>
<g>
	<path class="st1" d="M171.9,59.7h-3.7l-0.6-0.6v0.6h-3.2v-4.5h3.2v1h3.1v-2.1l-4.8,0l-0.1-0.1c-0.1-0.1-0.1-0.1-0.3-0.2
		c-0.1-0.1-0.2-0.1-0.4-0.2c-0.4-0.1-0.7-0.4-0.7-0.8c-0.3-0.4-0.3-0.7-0.3-1v-3.6c0-0.2,0.1-0.4,0.2-0.6c0-0.1,0.1-0.1,0.1-0.2V47
		l0.4,0c0.1-0.1,0.2-0.2,0.3-0.4c0.3-0.3,0.5-0.5,0.9-0.6c0.4-0.3,0.7-0.3,1-0.3h3.2l0.6,0.6v-0.6h3.2v4.5h-3.2v-1H168v1.6h3.8
		c0.2,0,0.4,0.1,0.6,0.2c0.1,0,0.1,0.1,0.2,0.1h0.2l0.1,0.1c0.1,0.1,0.1,0.1,0.3,0.2c0.1,0.1,0.2,0.1,0.4,0.2
		c0.4,0.1,0.7,0.4,0.7,0.8c0.3,0.4,0.3,0.7,0.3,1v3.8c0,0.2-0.1,0.4-0.2,0.6c0,0.1-0.1,0.1-0.1,0.2v0.5l-0.4,0
		c-0.1,0.1-0.2,0.2-0.3,0.4c-0.3,0.3-0.5,0.5-0.9,0.6C172.5,59.7,172.1,59.7,171.9,59.7z M168.5,58.7h3.4c0.2,0,0.3,0,0.4-0.1
		l0.1-0.1h0.2c0.1,0,0.3-0.2,0.4-0.4c0.1-0.1,0.1-0.1,0.1-0.2c0.1-0.1,0.1-0.2,0.3-0.3c0-0.1,0.1-0.2,0.1-0.2c0-0.1,0.1-0.1,0.1-0.2
		l0-3.8c0-0.2,0-0.3-0.1-0.4l-0.1-0.1v-0.2h-0.2l-0.2-0.2c-0.1-0.1-0.1-0.1-0.3-0.2c-0.1-0.1-0.2-0.1-0.4-0.2
		c-0.1,0-0.3-0.1-0.4-0.2c-0.1,0-0.1-0.1-0.2-0.1l-4.8,0v-3.5h4.1l-1.6-1.6h-2.8c-0.2,0-0.3,0-0.4,0.1l-0.1,0.1H166
		c-0.1,0-0.3,0.2-0.4,0.4c-0.1,0.1-0.1,0.1-0.1,0.2c-0.1,0.1-0.1,0.2-0.3,0.3c0,0.1-0.1,0.2-0.1,0.2c0,0.1-0.1,0.1-0.1,0.2l0,3.5
		c0,0.2,0,0.3,0.1,0.4l0.1,0.1v0.2h0.2l0.2,0.2c0.1,0.1,0.1,0.1,0.3,0.2c0.1,0.1,0.2,0.1,0.3,0.2l5.4,0v4h-4.6L168.5,58.7z
		 M165.2,58.7h1.3v-2.6h-1.3V58.7z M171.6,49.3h1.3v-2.6h-1.3V49.3z"/>
</g>
<g>
	<path class="st0" d="M177.9,53.6h4.3v3h-4.1v-1h-2.3v3.6h2.3v-1.3l1.3,1.3h3.5c0.3,0,0.5,0,0.8-0.3c0.3,0,0.5-0.3,0.8-0.5
		c0.3-0.3,0.3-0.5,0.5-0.5c0-0.3,0.3-0.5,0.3-0.8v-3.8c0-0.3,0-0.5-0.3-0.8c0-0.3-0.3-0.5-0.5-0.5c-0.3-0.3-0.5-0.3-0.8-0.5
		c-0.3,0-0.5-0.3-0.8-0.3h-4.3v-2.5h3.5v1h2.3v-3.6h-2.3v1.3l-1.3-1.3h-3c-0.3,0-0.5,0-0.8,0.3c-0.3,0-0.5,0.3-0.8,0.5
		c-0.3,0.3-0.3,0.5-0.5,0.5c0,0.3-0.3,0.5-0.3,0.8v3.6c0,0.3,0,0.5,0.3,0.8c0,0.3,0.3,0.5,0.5,0.5c0.3,0.3,0.5,0.3,0.8,0.5
		C177.2,53.6,177.7,53.6,177.9,53.6"/>
</g>
<g>
	<path class="st1" d="M183,59.7h-3.7l-0.6-0.6v0.6h-3.2v-4.5h3.2v1h3.1v-2.1h-3.8c-0.8,0-1.1,0-1.2-0.2c0,0-0.1-0.1-0.2-0.1
		c-0.1-0.1-0.2-0.1-0.4-0.2c-0.4-0.1-0.7-0.4-0.8-0.8c-0.3-0.4-0.3-0.7-0.3-1v-3.6c0-0.2,0.1-0.4,0.2-0.6c0-0.1,0.1-0.1,0.1-0.2V47
		l0.4,0c0.1-0.1,0.2-0.2,0.3-0.4c0.3-0.3,0.5-0.5,0.9-0.6c0.4-0.3,0.7-0.3,1-0.3h3.2l0.6,0.6v-0.6h3.2v4.5h-3.2v-1h-2.6v1.6h3.8
		c0.2,0,0.4,0.1,0.6,0.2c0.1,0,0.1,0.1,0.2,0.1h0.2l0.1,0.1c0.1,0.1,0.1,0.1,0.3,0.2c0.1,0.1,0.2,0.1,0.4,0.2
		c0.4,0.1,0.7,0.4,0.8,0.8c0.3,0.4,0.3,0.7,0.3,1v3.8c0,0.2-0.1,0.4-0.2,0.6c0,0.1-0.1,0.1-0.1,0.2v0.5l-0.4,0
		c-0.1,0.1-0.2,0.2-0.3,0.4c-0.3,0.3-0.5,0.5-0.9,0.6C183.6,59.7,183.3,59.7,183,59.7z M179.7,58.7h3.4c0.2,0,0.3,0,0.4-0.1l0.1-0.1
		h0.2c0.1,0,0.3-0.2,0.4-0.4c0.1-0.1,0.1-0.1,0.1-0.2c0.1-0.1,0.1-0.2,0.3-0.3c0-0.1,0.1-0.2,0.1-0.2c0-0.1,0.1-0.1,0.1-0.2l0-3.8
		c0-0.2,0-0.3-0.1-0.4l-0.1-0.1v-0.2h-0.2l-0.2-0.2c-0.1-0.1-0.1-0.1-0.3-0.2c-0.1-0.1-0.2-0.1-0.4-0.2c-0.1,0-0.3-0.1-0.4-0.2
		c-0.1,0-0.1-0.1-0.2-0.1l-4.8,0v-3.5h4.1l-1.6-1.6h-2.8c-0.2,0-0.3,0-0.4,0.1l-0.1,0.1h-0.2c-0.1,0-0.3,0.2-0.4,0.4
		c-0.1,0.1-0.1,0.1-0.1,0.2c-0.1,0.1-0.1,0.2-0.3,0.3c0,0.1-0.1,0.2-0.1,0.2c0,0.1-0.1,0.1-0.1,0.2l0,3.5c0,0.2,0,0.3,0.1,0.4
		l0.1,0.1v0.2h0.2l0.2,0.2c0.1,0.1,0.1,0.1,0.3,0.2c0.1,0.1,0.2,0.1,0.3,0.2l5.4,0v4h-4.6L179.7,58.7z M176.4,58.7h1.3v-2.6h-1.3
		V58.7z M182.7,49.3h1.3v-2.6h-1.3V49.3z"/>
</g>
<g>
	<polygon class="st0" points="191.9,56.4 190.4,56.4 190.4,53.6 194.2,53.6 194.2,51.3 190.4,51.3 190.4,48.5 193.9,48.5 
		193.9,50.3 196.5,50.3 196.5,46.2 186.6,46.2 186.6,48.5 187.6,48.5 187.6,56.4 186.6,56.4 186.6,58.9 191.9,58.9 	"/>
</g>
<g>
	<path class="st1" d="M192.4,59.4h-6.3v-3.5h1V49h-1v-3.2h10.8v5h-3.5V49h-2.6v1.8h3.8v3.2h-3.8v1.8h1.5V59.4z M187,58.4h4.4v-1.6
		h-1.5v-3.8h3.8v-1.3h-3.8V48h4.5v1.8h1.6v-3.1H187V48h1v8.8h-1V58.4z"/>
</g>
<g>
	<polygon class="st0" points="202,48.5 203.3,48.5 203.3,46.2 198.2,46.2 198.2,48.5 199.2,48.5 199.2,56.4 198.2,56.4 198.2,58.9 
		203.3,58.9 203.3,56.4 202,56.4 	"/>
</g>
<g>
	<path class="st1" d="M203.8,59.4h-6v-3.5h1V49h-1v-3.2h6V49h-1.3v6.9h1.3V59.4z M198.7,58.4h4.1v-1.6h-1.3V48h1.3v-1.3h-4.1V48h1
		v8.8h-1V58.4z"/>
</g>
<g>
	<polygon class="st0" points="213.9,50.3 216.5,50.3 216.5,46.2 204.8,46.2 204.8,50.3 207.4,50.3 207.4,48.5 209.1,48.5 
		209.1,56.4 207.9,56.4 207.9,58.9 213.4,58.9 213.4,56.4 211.9,56.4 211.9,48.5 213.9,48.5 	"/>
</g>
<g>
	<path class="st1" d="M213.9,59.4h-6.5v-3.5h1.3V49h-0.8v1.8h-3.5v-5H217v5h-3.5V49h-1.1v6.9h1.5V59.4z M208.3,58.4h4.6v-1.6h-1.5
		V48h3v1.8h1.6v-3.1h-10.7v3.1h1.6V48h2.7v8.8h-1.3V58.4z"/>
</g>
<g>
	<path class="st0" d="M99.9,54.9c-0.3,0-0.8,0-1-0.3c-0.5,0-0.8-0.3-1.3-0.3c-0.3,0-0.5,0-0.5,0.3c-0.3,0.5,1.5,1,1.8,1
		c0.5,0.3,2,1,2.3,0.3C101.4,55.1,100.4,54.9,99.9,54.9"/>
</g>
<g>
	<path class="st0" d="M93,63.2c0.5,0,1,0,1-0.3s-0.5-0.3-1-0.3c-0.5,0-1,0-1,0.3C92,63,92.5,63.2,93,63.2"/>
</g>
<g>
	<path class="st0" d="M96.1,42.9c-0.5,0-0.8,0.3-1,0.5c-0.3,0.5-0.3,1.3-0.3,2.3s0,1.8,0.3,2.3c0.3,0.5,0.5,0.5,1,0.5
		c0.5,0,0.8-0.3,1-0.5c0.3-0.5,0.3-1.3,0.3-2.3s0-1.8-0.3-2.3C96.8,43.2,96.6,42.9,96.1,42.9"/>
</g>
<g>
	<path class="st0" d="M82.9,46.5c-0.3-0.3-0.8,0-1.5,0.3h-0.3v5.3h0.3c0.8-0.3,1.5-0.8,1.8-1.3c0.3-0.5,0.5-1.3,0.5-2
		c0-0.5,0-1-0.3-1.3C83.4,47,83.4,46.7,82.9,46.5"/>
</g>
<g>
	<path class="st0" d="M121.4,18.3L121.4,18.3L121.4,18.3c0-0.5,0-1,0-1.5c0-1.5-1-2.8-1.5-4.3c-0.8-2-0.5-4.3-1.5-6.1
		c-0.5-0.8-1-1-1.3-1.5c-0.8-1-1.5-3-1.5-4.8h-0.3c-1.5,0.3-2,1.8-2,4.3c0,1,0.3,2,0.3,2.8c0,1-0.8,2-1,2.8c-0.5,1-0.5,1.8-1,2.5
		c0,0-2.5-0.5-2.8-0.5c-1-0.3-2-0.3-3-0.5c-1.5-0.3-3.3-0.3-4.8,0c-1.5,0-2.8,0.5-4.3,0.5c-1.3,0-2.8-0.5-4.1-0.5
		c-4.3-0.5-8.6-0.5-12.2,1.5c-0.3-1-0.3-2-0.5-3s-1-2.3-1-3.3c-0.3-1.5,0.5-3-0.5-4.1c-1.8,0-2.3,2-3,3.3c-0.3,0.5-0.8,1.3-1.3,2
		s-0.8,1.5-1,2c-0.5,0.5-1.5,0.8-1.8,1.5c-1,1.8-0.8,4.1-1,6.9c0,1.3-0.3,2.5-0.3,3.8c0,2,0.3,4.1,0.3,6.1c0,1,0,2,0,3
		c0,1-0.5,1.8-0.5,2.8c0,0.5,0.3,1.3,0.3,1.8c0.3,1.3-0.5,2.3-0.8,3.6c-0.3,1.5-0.3,3.3-0.5,4.8v1.3c0,1,0.3,1.8,0.5,2.5
		c-2.5,2.5-4.6,6.6-3.3,12.7c1.8,8.6,9.4,10.4,12.4,10.9c0.5,1.8,3.5,6.6,8.6,6.1c0.8,0,1,0,1.5-0.8c0.8-1.3,1.8-2.3,3-3
		c1.3-0.8,2.8-1,4.3-0.8c0.3,0.5,0.5,0.8,1,1c0.3,0.3,0.3,0.3,0.3,0.5c-0.5,0-1.3-0.3-1.8-0.3c-3,0-5.3,1.3-5.3,2.8
		c0,1.5,2.3,2.8,5.3,2.8c1.3,0,2.8-0.3,3.8-1c0.5-0.3,0.8-0.8,1-1c0.5-0.5,1.3-0.5,1.8-0.5c1.5,0,2.8,0.3,4.1,0c1.3-0.5,2.5-1,3.3-2
		c0.8-0.8,1.5-1.5,1.8-2.5c0.5-1,0.8-2.3,1.3-3.6c0.8-2,2-3.8,3.3-5.6c1.3-1.5,2.8-3,3.8-4.8c0.8-1.5,0.3-3.3,0.5-5.6
		c0-1,0.3-1.8,0.5-2.8c0-0.8,0-3.8,0-4.8c-3.3,1.5-5.8,2.8-8.4,3c-0.3,0-0.3,0.3-0.3,0c2.3-0.8,4.1-1.3,5.3-2
		c3.5-2,6.8-3.6,7.4-13.2C126,23.9,125,19.6,121.4,18.3 M72,11.7c2-1.8,3.3-4.1,4.6-6.9c0.5-0.8,0.5-2,1.5-2c0,0.3,0.3,0,0.3,0.3
		c-0.3,2.3,0,5.1,1.3,6.6c0,1.3,0,2.8-0.3,4.1l1-0.3c0.3-0.3,0.5-0.3,1-0.5c0.8-0.3,1.5-0.5,2.5-0.8c1.5-0.5,3.3-0.5,5.1-0.5
		c1.5,0,3,0.3,4.3,0.5c1.5,0.3,3,1.3,4.8,1l-0.3,0.5c-0.3,0.5,0,0.8,0.5,1c0.3,0,0.5,0.3,0.5,0.3c1,0.3,1.8,0.5,2.8,0.5s2,0.3,3,0.5
		c1,0.3,1.8,0.5,2.8,0.8c3,0.8,5.1,3.6,5.8,6.3c0,0.5,0.3,0.8,0.5,1.3c0.3,0.5,0.5,0.8,1,0.8c0.8,0.3,1.3-0.5,1.8-1
		c0.5-0.8,1.3-1.5,1.8-2.3c0.5-0.8,1-1.5,1.3-2.3c0.3-0.5,0.3-0.8,0.3-1.3s0-1,0-1.5c0-0.5-0.3-0.8-0.3-1c0-0.3-0.5-0.5-0.8-0.5
		c-0.5,0-0.8,0.3-1,0.8c0,0-0.3,0-0.3-0.3c0.8-0.3,0-1-0.3-1c-0.3-0.3-1-0.5-1.3-0.8c-0.5-1.8,0-3.6-0.3-5.3c-0.3-2.3-2-4.3-1.3-6.6
		h0.5c0.3,0.8,0.5,2.5,1,3.3c0.3,0.5,1.3,1,1.5,1.5c0.3,0.3,0.5,1,0.8,1.5c0.5,1.5,0.8,4.1,1.3,5.6c0.5,1.3,1.5,2.5,1.3,4.6
		c-0.3,1.3-1,2.8-1.8,3.6c-0.8,1-1.5,1.8-2,3h0.5c0.3,0,0.3-0.3,0.3-0.5c0.3-0.5,0.5-0.8,1-0.5c0,0.3,0,0.3,0,0.5
		c-0.3,0-0.5,0-0.8,0.3c-1.5,2-3.3,3.3-5.3,4.6c-1.3,0.8-2.5,1.3-4.1,1.8c-0.3,0-0.3,0.3-0.5,0.3c-0.5,0-0.8,0-1.3,0s-0.8,0-1.3,0
		c-0.8,0-1.8,0.3-2.8,0.3c-1.3,0.3-2.8,0.5-4.1,0.8c-0.8,0.3-1.3,0.3-2,0.5c-0.8,0.3-1.3,0.3-2,0.5c-0.8,0-1.3-0.3-2-0.5
		c-0.3,0-0.5,0-1-0.3c-0.8,0-1.5-0.3-2.3-0.3c-1.5,0-3,0-4.3,0.8c0,0-0.3,0-0.3,0.3c0,0,0,0.3,0.3,0.3c0.5,0.3,1,0.3,1.5,0.5
		c0.8,0,1.3,0.3,2,0.3c1.5,0.3,3,0.5,4.6,0.5c0,0-0.3,0.3,0,0.3h0.3c1,0,2-0.5,3-0.8c1-0.3,2-0.5,3-0.8c0.8-0.3,1.5-0.3,2.3-0.5
		c2.3-0.3,4.6-0.3,6.8-0.3c0.3,0,1.8-0.3,1.8,0c0.3,0.5,0.5,1,0.8,1.5c-1.8,0.8-3.8,1.8-6.3,2.5c-4.6,1.5-12.2,3.3-18.8,5.1
		c-0.3-0.3-0.8-0.3-1-0.5c-0.8-0.3-1.3-0.5-2-1c-0.5-0.3-1-0.5-1.8-0.3c-0.5,0.3-1.3,0.5-1.8,0.8c-0.8,0.5-1.3,1-2,1.5
		c-0.3,0.3-0.8,0.5-1,0.8l-0.3,0.3c-0.3,0-0.3-0.3-0.3-0.5c0-0.3,0-0.8,0-1c0-0.3,0-0.8,0-1c0-0.8,0.3-1.3,0.5-2s0.5-1.3,0.8-2
		c0.3-0.3,0.3-0.8,0.5-1c0-0.3,0.5-0.8,0.5-0.8s0,0,0-0.3l0,0c0,0,0,0,0.3-0.3v-0.3l0,0c0,0-0.8-0.5-1-0.5c-0.5-0.3-1-0.8-1.5-1
		c-0.5-0.5-1-1-1.3-1.8s-0.3-1.8-0.3-2.8c0-1,0-2.3,0-3.3c0.3-1,0.5-2.3,1-3.3c0.3-0.5,0.5-1,0.8-1.5c0.3-0.5,0.5-1,0.8-1.5v-0.3
		c0,0,0-0.3-0.3-0.3c0,0,0-0.3-0.3-0.3s-0.8,0.5-0.8,0.8c-0.5,0.8-1,1.8-1.3,2.8c-0.5,1-0.8,2-1,3c-0.3,1.5-0.3,2.8-0.3,4.3
		c0-0.3-0.3-0.8-0.3-1.3c0.3-1.8,0.3-3.8,0.3-5.3c-0.8,0.8-0.3,3-1.3,3.3c-0.3-0.3-0.3-0.5-0.3-0.8l0,0c0-1.8,0.5-3.3,0.5-4.8
		c0-0.3,0-0.3-0.3-0.3v0.3c0,0-0.3-0.3-0.3,0l-0.3,0.3v0.3c0,0.5-0.3,1.3-0.3,1.8c0,0,0,0-0.3,0c-0.5-3-0.3-6.3,0-9.4
		C71.7,12.2,71.7,11.7,72,11.7 M101.9,45.7c0,1.5-0.5,2.5-1.5,3.6s-2.3,1.5-4.1,1.5s-3-0.5-4.1-1.5c-1-1-1.5-2.3-1.5-3.8
		c0-0.8,0.3-1.8,0.5-2.5c0.5-0.8,1-1.5,1.8-2c0.3-0.3,0.5-0.3,1-0.5c0.3,0,0.8-0.3,1-0.3s0.8,0,1.3,0c1.8,0,3.3,0.5,4.3,1.5
		c0.5,0.5,0.8,1,1,1.8C101.6,44.4,101.9,45.2,101.9,45.7 M85.4,41.7c-1.3,0.3-2.5,0.8-3.5,1c-0.3-0.8-0.5-1.5-0.3-2.3
		c1,0.3,2,0.5,3.3,1C84.9,41.1,85.2,41.4,85.4,41.7 M76.5,60.2c-0.8,0.5-1.3,1-1.8,1.5c0,0.3-0.3,0.3,0,0.5l-0.3,0.3c0,0,0,0-0.3,0
		L74,62.7c0.5,0.5,0.8,1,1.3,1.5c0.3,0.3,1,1.5,1.3,1.8c0.3,0.5,0.8,1.3,1,2c0.5,1,1,1.5,1,2.5c-2.3-0.5-6.3-1.5-7.1-3
		c-1-2-0.3-4.3,1.5-5.3l0,0c0.3-0.3,0.3-0.3,0.5-0.5h0.3c0.3,0,0.3-0.3,0.5-0.3c0,0,0,0,0.3,0c1.3-1,2.5-2,4.1-2.5
		c0.5-0.3,1-0.5,1.5-0.8c0.3,0,0.3,0,0.3,0.3C78.8,58.7,77.5,59.4,76.5,60.2 M81.1,54.6c-1.5,0.5-4.1,2.3-4.1,2.3l-0.3-3.3l0.8-0.3
		V48l-0.8,0.3v-2.8l4.6-1.5c1-0.3,1.8-0.3,2.5-0.5c0.8,0,1.3,0,2,0.3c0.5,0.3,1,0.8,1.5,1.3c0.3,0.3,0.3,0.5,0.5,0.8
		c0,0.5,0.3,0.8,0.3,1.3c0,1-0.3,1.8-0.5,2.5c-0.3,0.8-0.8,1.5-1.3,2.3c-0.5,0.5-1,1-1.8,1.3C83.6,53.8,82.4,54.1,81.1,54.6
		 M107.7,64.5C107.7,64.5,107.7,64.8,107.7,64.5c-0.8,1.8-1.5,3.3-1.8,5.6c-0.8,0.3-1.3,1.8-2.3,1.8c-0.8,0-2-1-3-1.8
		c-0.8-0.5-2.5-1.5-2.8-2c0,0,0-0.3-0.3-0.5c0,0,0,0,0-0.3c-0.3-1.5,0-2.8-0.3-4.3c0-0.3,0.3-0.5,0.3-0.5c0.3-0.3,0.5-0.3,0.8-0.5
		h0.3l0,0h0.3c0.8-0.3,1.5,0.5,2.3,0.3c0.8,0,2.3-1,2.5-1.8v-0.3c0.3,0,0.8,0,1,0c1,0,1.8,0.3,2.5,0.5l0,0l0.3,0.3v0.3
		C108.2,62.7,108.2,63.7,107.7,64.5 M108.5,52.3c0,0.3-0.3,0.5-0.3,0.8c-0.3,0.8-0.5,1.3-0.8,2c-0.3,0.5-0.5,1-1,1.3
		c-0.3,0.5-0.8,0.8-1.5,0.8c-0.8,0.3-1.8-0.3-2.5-0.3c-1,0-1.8,0.5-2.8,0.3c-0.3,0-0.5-0.3-0.8-0.3c-0.5-0.3-1-0.3-1.8-0.5
		c-0.5,0-1-0.3-1.5-0.3c-0.3,0-0.3,0-0.5,0c0.5-0.3,1.3-0.3,1.8-0.3c-0.5-0.3-1-0.3-1.5-0.3c0-0.3,0-0.5-0.5-0.5
		c-1.3,0-3.3,0-4.3,1.3c-0.8,0.3-1.3,0.8-2,1.3c-0.8,0.5-1.3,1.5-1,2.5c0,0.3,0.3,0.5,0.5,0.8c0.8,1.5,3,1.5,4.8,1.5
		c0.5-0.3,1.3,0,1.3,0.8V64c0,0.5,0,1.3,0,1.8c0,0,0,0,0,0.3c-0.3,1.3-0.3,2.3-1.3,3c-0.5,0.3-0.8,0.8-1.3,1c0,0-0.3,0-0.3,0.3
		c-0.5,0.3-1,0.5-1.5,0.8c-1.3,0.8-2.8,1.5-4.3,2c-0.5,0.3-1,0.3-1.8,0.3c-0.5,0-1-0.5-1.5-0.8c-0.3-0.5-0.5-1-0.8-1.5
		c-0.5-1-0.8-2-1-2.8c-0.3-1.8,0-3.8,1-5.3c0.3-0.5,0.5-0.8,1-1l0,0l0,0c0.5-0.3,1-0.5,1.3-1c0.5-0.5,1.5-0.8,1.8-1.3
		c0-0.3,0.3-0.5,0-0.5c0-0.3-0.5-0.5-0.8-0.5c-0.3,0-0.5-0.3-0.8-0.3c-1,0-2,1-3,1.3c-0.3,0-0.3,0-0.5,0c-0.3-0.3,0-0.5,0-0.5
		c0.5-1,1.3-2,2.3-2.5c0.8-0.5,1.8-0.8,2.8-1c1-0.3,2-0.5,3-0.8c1.8-0.3,3.5-0.8,5.3-1c1.8-0.3,3.5-0.5,5.3-1
		c1.3-0.3,2.5-0.5,3.8-0.5c0.8,0,1.3,0,2,0c0.5,0,1.3,0,1.8,0.3C108.7,51.3,108.7,52.1,108.5,52.3 M93.5,60.4c0,0.3-0.3,0.3-0.3,0.5
		c-0.3,0-0.8-0.3-0.8-0.5C92.8,59.9,93.3,60.2,93.5,60.4 M114.8,43.2c-0.5,1-1.3,2-2.3,2.5c-1,0.8-2,1.3-3,1.5
		c-0.8,0.3-1.5,0.3-2,0.3c-0.8,0-1.3-0.3-1.8-0.5c-0.5-0.5-0.8-0.8-1-1.3c-0.3-0.5-0.3-1.3-0.3-2.5l4.6-1.5v2l-1,0.5
		c0,1,0.5,1.3,1.3,1c0.5-0.3,1-0.5,1.3-1c0.3-0.5,0.5-1.3,0.5-2.5c0-1.3-0.3-1.8-0.5-2.3c-0.3-0.3-0.8-0.5-1.5-0.3
		c-0.5,0.3-0.8,0.5-1.3,0.8c-0.3,0.3-0.5,0.8-0.8,1.3l-2.5,0.8v-3.6l2.5-0.8v0.8c0.8-0.8,1.8-1.5,2.8-1.8c1.5-0.5,2.8-0.5,3.8,0.3
		s1.5,1.8,1.5,3.3C115.6,41.1,115.3,42.2,114.8,43.2 M122.4,23.9L122.4,23.9c0,0.3,0,0.3,0,0.3c0,0.3-0.3,0.5-0.3,0.8l0,0l0,0
		c-0.8,1.3-1.5,2.3-2.5,3.3c-0.5,0.3-0.8,0.8-1.8,1.5c-1,0.8-3.8,2-3.8,2l0,0c0.3-0.3,3.3-2,3.3-2c0.3-0.3,1-0.8,1.3-1
		c0.8-0.5,1.3-1.3,2-2c0.3-0.3,0.3-0.5,0.5-0.8c0-0.3,0.3-0.3,0.3-0.5c0-0.3,0.3-0.5,0.3-0.5c-0.3-1.8-0.8-3.6-0.8-5.3l0,0
		C122.2,20.8,122.9,22.3,122.4,23.9"/>
</g>
<g>
	<path class="st0" d="M74.5,18.3C74.5,18,74.5,18,74.5,18.3c1.3-1,2.5-1.8,4.1-2.5c0.3,0,0.5-0.3,0.5-0.3c0.3-0.3,0.3-0.5,0-0.5
		c0-0.3-0.5-0.3-0.5,0c0-0.3-1,0-1,0.3c-0.5,0.3-0.8,0.5-1.3,0.8c-0.8,0.5-1.5,1-2.3,1.8c-0.3,0.3-0.3,0.5-0.3,0.8
		C74,18.3,74.3,18.3,74.5,18.3"/>
</g>
<g>
	<path class="st0" d="M94.8,27.7c0,0.3,0,0.5,0,1c0,0.3,0,0.5,0,0.8c0,0.3,0.3,0.5,0.5,0.5s0.5-0.3,0.5-0.5c0-0.3,0-0.5,0-0.8
		c0-3.8,0-7.6,0-11.4c0-0.3,0.3-1,0-1.3S95,16,95,16.3c-0.3,0.3-0.3,0.5-0.3,0.8c-0.3,1.5-0.5,3-0.5,4.6
		C94.3,23.6,94.8,25.7,94.8,27.7"/>
</g>
<g>
	<path class="st0" d="M88.2,35.8c0.5,0.3,1.3,0.5,1.8,0.5c0.3,0,0.5,0,0.8,0c0.3,0,0.3-0.3,0-0.5c0-0.3-0.3-0.3-0.3-0.5
		C89.7,35,89,35,88.2,34.8c-0.5,0-1.3-0.5-1.5,0.3C87.4,35.3,87.7,35.6,88.2,35.8"/>
</g>
<g>
	<path class="st0" d="M96.1,36.8L96.1,36.8c0.8,0,1-0.5,1.5-0.5c0.8-0.3,1.8-0.5,2.5-0.5c0.5,0,0.5-0.8,0.3-0.8
		c-0.8-0.3-1.5-0.3-2.3,0c-0.3,0-0.8,0.3-1,0.5c-0.3,0-0.5,0.3-0.8,0.5c-0.3,0.3-0.5,0.5-0.5,0.8C95.5,36.6,95.8,36.6,96.1,36.8
		C95.8,36.8,96.1,36.8,96.1,36.8"/>
</g>
<g>
	<path class="st0" d="M87.4,37.1C87.4,37.1,87.2,37.1,87.4,37.1c-0.3,0-0.3,0.3-0.5,0.3v0.3c0.3,0.3,1,0.3,1.5,0.3
		c0.5,0,1.3,0,1.8,0.3c0.8,0,1.3,0.3,2,0.3c0.3,0,0.5,0,0.8,0c0.3,0,0.5,0,0.5,0c0.3,0,0.3,0,0.5-0.3l0,0c0-0.3-0.3-0.5-0.3-0.5
		c-0.3-0.3-1-0.3-1.3-0.3c-0.5,0-1-0.3-1.5-0.3C90,36.8,88.5,36.6,87.4,37.1"/>
</g>
<g>
	<path d="M2,37.3c-0.3,0-0.5-0.3-0.8-0.5C1,36.6,1,36.3,0.7,36.3c0-0.3-0.3-0.5-0.3-0.8V32c0-0.3,0-0.5,0.3-0.8
		c0-0.3,0.3-0.5,0.5-0.5c0.3-0.3,0.5-0.3,0.8-0.5c0.3,0,0.5-0.3,0.8-0.3h3l1.3,1.3V30h2.3v3.6H7.1v-1H3.5V35h4.3
		c0.3,0,0.5,0,0.8,0.3c0.3,0,0.5,0.3,0.8,0.5c0.3,0.3,0.3,0.5,0.5,0.5c0,0.3,0.3,0.5,0.3,0.8v3.8c0,0.3,0,0.5-0.3,0.8
		c0,0.3-0.3,0.5-0.5,0.5c-0.3,0.3-0.5,0.3-0.8,0.5c-0.3,0-0.5,0.3-0.8,0.3H4.3L3,41.7v1.3H0.7v-3.6H3v1h4.1v-3H2.8
		C2.5,37.6,2.3,37.6,2,37.3"/>
</g>
<g>
	<path class="st0" d="M2.8,37.6h4.3v3H3v-1H0.7v3.6H3v-1.5l1.3,1.3h3.5c0.3,0,0.5,0,0.8-0.3c0.3,0,0.5-0.3,0.8-0.5
		c0.3-0.3,0.3-0.5,0.5-0.5c0-0.3,0.3-0.5,0.3-0.8v-3.8c0-0.3,0-0.5-0.3-0.8c0-0.3-0.3-0.5-0.5-0.5c-0.3-0.3-0.5-0.3-0.8-0.5
		c-0.3,0-0.5-0.3-0.8-0.3H3.5v-2.5h3.5v1h2.3V30H7.1v1.3L5.8,30h-3c-0.3,0-0.5,0-0.8,0.3c-0.3,0-0.5,0.3-0.8,0.5
		C1,31,1,31.2,0.7,31.2c0,0.3-0.3,0.5-0.3,0.8v3.6c0,0.3,0,0.5,0.3,0.8c0,0.3,0.3,0.5,0.5,0.5c0.3,0.3,0.5,0.3,0.8,0.5
		C2.3,37.6,2.5,37.6,2.8,37.6"/>
</g>
<g>
	<path class="st1" d="M3.5,43.7H0.3v-4.5h3.2v1h3.1v-2.1H2.8c-0.3,0-0.7,0-1.1-0.4c-0.1-0.1-0.1-0.1-0.3-0.2
		c-0.1-0.1-0.2-0.1-0.4-0.2c-0.4-0.1-0.7-0.4-0.8-0.8C0,36.2,0,35.8,0,35.6V32c0-0.2,0.1-0.4,0.2-0.6c0-0.1,0.1-0.1,0.1-0.2v-0.5
		l0.4,0c0.1-0.1,0.2-0.2,0.3-0.4c0.3-0.3,0.5-0.5,0.9-0.6c0.4-0.3,0.7-0.3,1-0.3H6l0.6,0.6v-0.6h3.2V34H6.6v-1H4v1.6h3.8
		c0.2,0,0.4,0.1,0.6,0.2c0.1,0,0.1,0.1,0.2,0.1h0.2L8.9,35C9,35,9.1,35.1,9.2,35.1c0.1,0.1,0.2,0.1,0.4,0.2c0.4,0.1,0.7,0.4,0.8,0.8
		c0.3,0.4,0.3,0.7,0.3,1v3.8c0,0.2-0.1,0.4-0.2,0.6c0,0.1-0.1,0.1-0.1,0.2v0.5l-0.4,0c-0.1,0.1-0.2,0.2-0.3,0.4
		c-0.3,0.3-0.5,0.5-0.9,0.6c-0.4,0.3-0.7,0.3-1,0.3H4.1l-0.6-0.6V43.7z M1.2,42.7h1.3v-2.6H1.2V42.7z M4.5,42.4h3.4
		c0.2,0,0.3,0,0.4-0.1l0.1-0.1h0.2c0.1,0,0.3-0.2,0.4-0.4c0.1-0.1,0.1-0.1,0.1-0.2c0.1-0.1,0.1-0.2,0.3-0.3c0-0.1,0.1-0.2,0.1-0.2
		c0-0.1,0.1-0.1,0.1-0.2l0-3.8c0-0.2,0-0.3-0.1-0.4l-0.1-0.1v-0.2H9.2L9,36.1C8.9,36.1,8.9,36,8.8,36c-0.1-0.1-0.2-0.1-0.4-0.2
		c-0.1,0-0.3-0.1-0.4-0.2c-0.1,0-0.1-0.1-0.2-0.1l-4.8,0V32h4.1l-1.6-1.6H2.8c-0.2,0-0.3,0-0.4,0.1l-0.1,0.1H2
		c-0.1,0-0.3,0.2-0.4,0.4c-0.1,0.1-0.1,0.1-0.1,0.2c-0.1,0.1-0.1,0.2-0.3,0.3c0,0.1-0.1,0.2-0.1,0.2C1,31.9,1,32,1,32l0,3.5
		c0,0.2,0,0.3,0.1,0.4l0.1,0.1v0.2h0.2l0.2,0.2c0.1,0.1,0.1,0.1,0.3,0.2C2,36.7,2.2,36.8,2.3,37c0.1,0.1,0.2,0.1,0.4,0.1h4.8v4H3.2
		L4.5,42.4z M7.6,33h1.3v-2.6H7.6V33z"/>
</g>
</svg>
