<?xml version="1.0" encoding="utf-8"?>
<!-- Generator: Adobe Illustrator 21.0.2, SVG Export Plug-In . SVG Version: 6.00 Build 0)  -->
<svg version="1.1" id="Layer_1" xmlns="http://www.w3.org/2000/svg" xmlns:xlink="http://www.w3.org/1999/xlink" x="0px" y="0px"
	 viewBox="0 0 164 58" style="enable-background:new 0 0 164 58;" xml:space="preserve">
<style type="text/css">
	.st0{fill:#615E5D;}
	.st1{fill:#000001;}
	.st2{fill:#FFFFFF;}
	.st3{clip-path:url(#SVGID_2_);}
</style>
<g>
	<path class="st0" d="M69.8,4.3C68,6,38,41.9,34.9,44.9c-1.9,1.9-3.7,3-5,3.4C28.1,49,17,52.7,0,57.6V58h76.1L90,3.9l-0.4-0.2
		c-0.8,0-3.1,0-5.8,0C79,3.8,72.5,3.8,69.8,4.3z"/>
</g>
<g>
	<path class="st1" d="M79,32.7c0,7.1-6,13-13.1,13l0,0c-1.9,0-3.7-0.4-5.4-1.1l3.1,1.3l1.2,0.6c0.4,0,0.8,0,1.2,0
		c3.9,0,7.3-1.5,9.8-3.9l4-8.6c0-0.4,0-0.8,0-1.1c0-3.8-1.5-7.1-4-9.6l-1.2-0.6L71.5,21C75.9,23.3,79,27.6,79,32.7z M65.9,19
		c-3.9,0-7.3,1.5-9.8,3.9l-4,8.4c0,0.4,0,0.8,0,1.3c0,3.8,1.5,7.1,4,9.6l4.2,1.9C55.9,42,53,37.7,53,32.7c0-7.1,6-13,13.1-13
		c1.9,0,3.9,0.4,5.6,1.1L67.5,19C66.7,19,66.3,19,65.9,19L65.9,19z"/>
</g>
<g>
	<path class="st2" d="M52.6,32.7c0-7.1,6-13,13.1-13C73,19.7,79,25.5,79,32.5c0,7.1-6,13-13.1,13l0,0l0,0l0,0
		C58.6,45.6,52.6,39.8,52.6,32.7z M65.9,19c-5.6,0-10.4,3.2-12.7,7.7L53,27c-0.8,1.7-1.2,3.6-1.2,5.6c0,5.4,3.3,9.9,7.9,12.2
		l0.6,0.2c1.7,0.8,3.7,1.1,5.8,1.1c7.7,0,14.1-6.2,14.1-13.7C80,25.2,73.6,19,65.9,19L65.9,19z"/>
</g>
<g>
	<path class="st2" d="M74.6,29.5h-3.1V30l0,0h3.1H78l0,0c0-0.2,0-0.4-0.2-0.6l0,0H74.6z"/>
</g>
<g>
	<path class="st2" d="M65.9,20.5c-5,0-9.3,2.8-11.4,6.9l-0.2,0.4c-0.8,1.5-1.2,3.2-1.2,5.1c0,6.8,5.8,12.4,12.7,12.2
		c3.5,0,6.6-1.3,8.7-3.4l0.2-0.2l0,0l-0.2-0.2C70.1,37,64,34.2,57,34l-0.8,0.8v-3.2h0.2c2.7,0,5.2,0.2,7.5,0.9
		c-1.3-0.6-2.5-0.9-3.9-1.3v-2.4h14.5h3.1c-0.8-1.7-1.7-3.4-3.1-4.7c-1-0.9-1.9-1.7-3.1-2.3l-0.4-0.2C69.4,20.8,67.6,20.5,65.9,20.5
		L65.9,20.5z"/>
</g>
<g>
	<path class="st2" d="M74.6,31h-7.9c3.1,1.7,5.8,4.1,7.9,6.9c0.2,0.2,0.4,0.4,0.4,0.6l0,0l0,0l0,0v2.4l0,0c1-0.9,1.5-1.9,2.1-3
		l0.2-0.2c0.8-1.5,1.2-3.4,1.2-5.1c0-0.6,0-1.1-0.2-1.7L74.6,31z"/>
</g>
<g>
	<g>
		<g>
			<defs>
				<polygon id="SVGID_1_" points="0.4,0 0.2,58 163.6,58 164,0 				"/>
			</defs>
			<clipPath id="SVGID_2_">
				<use xlink:href="#SVGID_1_"  style="overflow:visible;"/>
			</clipPath>
			<g class="st3">
				<path class="st2" d="M-33.9,67.7l-0.1-0.6c6.7-1.5,49.8-14,63.8-18.8c1.3-0.4,3-1.5,4.5-2.9c1.7-1.6,13-14.9,22.1-25.5
					c6.8-8,12.7-14.9,13.4-15.6l0.1-0.1l0.1,0C73.7,3.5,89.3,3.6,90,3.6l0,0.6c-0.2,0-16-0.2-19.9,0.5c-0.9,0.9-6.7,7.7-13.3,15.5
					c-9.6,11.2-20.4,23.9-22.1,25.6c-1.6,1.5-3.4,2.7-4.8,3.1C16,53.6-27.1,66.2-33.9,67.7z"/>
			</g>
		</g>
	</g>
</g>
<g>
	<path class="st0" d="M117.6,18.4h6.4v24c-2.1,2.4-6.4,4.5-11.4,4.5c-6.7-0.2-12.1-2.8-12.1-11.6V18.2h6.4v16.5
		c0,5.4,1.9,6.8,6.4,6.8c1.7,0,3.9-0.6,4.6-2.3L117.6,18.4z"/>
</g>
<g>
	<path class="st0" d="M154.7,18.6h-6.2l-9.3,27.8h6l1.5-5.1c2.1,0.2,6.7,0.8,10.8,5.1v0.2h6.2L154.7,18.6z M148.2,36.6l0.4-1.5
		c0.4-1.3,0.8-2.6,1.5-5.1c0.4-1.3,1-3.6,1.3-5.3c0.6,2.6,0.8,3.4,1.2,4.9c0.4,1.3,0.6,2.8,1.5,5.6l1.2,3.9
		C153,37.7,150.3,37,148.2,36.6 M129.5,46.4h6.4V18.6h-6.4V46.4z"/>
</g>
</svg>
