<?xml version="1.0" encoding="utf-8"?>
<!-- Generator: Adobe Illustrator 21.0.2, SVG Export Plug-In . SVG Version: 6.00 Build 0)  -->
<svg version="1.1" id="Layer_1" xmlns="http://www.w3.org/2000/svg" xmlns:xlink="http://www.w3.org/1999/xlink" x="0px" y="0px"
	 viewBox="0 0 122 120" style="enable-background:new 0 0 122 120;" xml:space="preserve">
<style type="text/css">
	.st0{fill:#615E5D;}
</style>
<path class="st0" d="M14.3,65.1L14.3,65.1h11.1l-5.6-19.8L14.3,65.1z M13.8,66.9l-1.9,6.8h3.9v1.7H6.9v-1.7h2.7l8.5-30.2h3.3
	L30,73.9h2.4v1.7h-8.8v-1.7h4l-1.9-6.8L13.8,66.9L13.8,66.9z"/>
<polygon class="st0" points="92.2,45.4 89.4,45.4 89.4,43.6 96,43.6 102.2,70.3 102.4,70.3 108.5,43.6 115,43.6 115,45.4 
	112.3,45.4 112.3,73.8 115,73.8 115,75.6 107.1,75.6 107.1,73.8 110.3,73.8 110.3,45.4 103.2,75.6 101.2,75.6 94.3,45.4 94.3,73.8 
	97.5,73.8 97.5,75.6 89.4,75.6 89.4,73.8 92.2,73.8 "/>
<polygon class="st0" points="2.1,117.3 1.5,116.8 119.7,1.7 120.5,2.4 "/>
<path class="st0" d="M3.4,118.3c-0.7,0.7-2,0.7-2.9,0c-0.7-0.7-0.7-2,0-2.8c0.7-0.7,2-0.7,2.9,0C4.1,116.4,4.1,117.6,3.4,118.3"/>
<path class="st0" d="M121.5,3.5c0.7-0.7,0.7-2,0-2.8c-0.7-0.7-2-0.7-2.9,0c-0.7,0.7-0.7,2,0,2.8C119.5,4.2,120.7,4.2,121.5,3.5"/>
<polygon class="st0" points="1.6,2.3 2.2,1.7 120.4,116.7 119.8,117.3 "/>
<path class="st0" d="M121.5,115.7c0.7,0.7,0.7,2,0,2.8c-0.7,0.7-2,0.7-2.9,0c-0.7-0.7-0.7-2,0-2.8
	C119.5,114.8,120.7,114.8,121.5,115.7"/>
<path class="st0" d="M3.4,0.7C2.7,0,1.4,0,0.5,0.7c-0.7,0.7-0.7,2,0,2.8c0.7,0.7,2,0.7,2.9,0C4.1,2.8,4.1,1.5,3.4,0.7"/>
<path class="st0" d="M65.9,33.7c0.1,1-0.4,1.7-1.3,2.1c0.1-0.1,0-0.4,0-0.6c-0.4-1-2.3-1.1-2.6,0l0,0c-0.1-0.1-0.4-0.1-0.6-0.1
	c0.1-1.3,1-2.5,2.4-2.8C64.9,32.3,65.7,32.7,65.9,33.7"/>
<path class="st0" d="M63.4,36.5c0.3,0.4-0.1,1-0.6,1c-0.4,0-1-0.4-1.1-0.7c-0.1-0.3-0.3-0.7-0.3-1c0.1,0,0.3,0.1,0.4,0.1
	c0,0,0.1,0.1,0.3,0.1c0,0.1,0.1,0.3,0.3,0.4C62.9,36.5,63.2,35.9,63.4,36.5"/>
<path class="st0" d="M62.4,35.5c0.1,0.1,0.3,0.3,0.1,0.4c-0.1,0.1-0.3,0.1-0.4,0c-0.1-0.3-0.1-0.4,0-0.7
	C62.1,35.3,62.3,35.3,62.4,35.5"/>
<path class="st0" d="M61,28.6c0.4,1.1,2.2,2.8,1.3,4.1c-0.4,0.7-0.9,1.5-0.9,2.4c-0.1,0-0.3,0-0.3,0c-0.1,0-0.3,0-0.4,0
	c-0.1-0.8-0.4-1.7-0.9-2.2C58.8,31.4,60.6,29.9,61,28.6"/>
<path class="st0" d="M62,35.2c0,0.3,0,0.4,0,0.7c-0.1,0-0.1-0.1-0.3-0.1c-0.1-0.1-0.3-0.1-0.4-0.1c0-0.1,0-0.4,0-0.6
	C61.7,35.1,61.9,35.2,62,35.2"/>
<path class="st0" d="M61.4,35.6c0,0.4,0.3,0.8,0.3,1.3c0,0.4-0.3,1.1-0.6,1.5c-0.3-0.4-0.6-1-0.6-1.5c0-0.4,0.1-0.8,0.3-1.3
	C60.9,35.5,61.1,35.5,61.4,35.6"/>
<path class="st0" d="M61.4,35.1c0,0.1,0,0.4,0,0.6l0,0l0,0C61.4,35.3,61.4,35.2,61.4,35.1L61.4,35.1"/>
<path class="st0" d="M61.4,35.5C61.4,35.5,61.4,35.6,61.4,35.5c-0.3,0-0.6,0-0.7,0l0,0c0-0.1,0-0.3,0-0.6c0.1,0,0.3,0,0.4,0
	c0.1,0,0.3,0,0.3,0C61.4,35.2,61.4,35.3,61.4,35.5"/>
<path class="st0" d="M60.6,35.1c0,0.1,0,0.3,0,0.6l0,0c0,0,0,0-0.1,0C60.6,35.3,60.6,35.2,60.6,35.1L60.6,35.1"/>
<path class="st0" d="M60.6,35.1c0,0.1,0,0.4,0,0.6h-0.1c0,0-0.1,0-0.1,0.1c-0.1,0-0.1,0.1-0.3,0.1c0-0.1,0-0.4,0-0.6l0,0
	C60.1,35.1,60.3,35.1,60.6,35.1"/>
<path class="st0" d="M60.4,35.6L60.4,35.6c0.1,0.4,0,0.7-0.1,1.1s-0.7,0.8-1.1,0.7c-0.4,0-0.9-0.6-0.6-1c0.3-0.6,0.7,0.1,1.1-0.1
	c0.1-0.1,0.3-0.3,0.4-0.6C60.3,35.8,60.3,35.8,60.4,35.6C60.3,35.6,60.3,35.6,60.4,35.6"/>
<path class="st0" d="M60.6,35.1c-0.1,0-0.4,0.1-0.6,0.1c-0.3-1.1-2.2-1-2.6,0c0,0.1-0.1,0.6,0,0.6c-0.9-0.4-1.4-1.3-1.3-2.1
	c0.1-1,1-1.4,2-1.4C59.4,32.5,60.4,33.7,60.6,35.1"/>
<path class="st0" d="M60,35.2c0,0.1,0,0.4,0,0.6c-0.1,0-0.3,0.1-0.4,0c-0.3-0.3,0.1-0.4,0.3-0.6C59.9,35.2,59.9,35.2,60,35.2
	L60,35.2"/>
<circle class="st0" cx="51.5" cy="11.3" r="0"/>
<path class="st0" d="M53,9.9c-0.1-0.1-0.1-0.1-0.3-0.3l0,0C52.8,9.8,53,9.8,53,9.9"/>
<path class="st0" d="M58.6,5.2L58.7,5C58.7,5,58.6,5,58.6,5.2c-1.4,0.3-3.3,1.1-4.6,2.7c-0.4,0.6-0.9,1.1-1.1,1.8
	c0,0.1,0.9,0.8,2.2,1.3c0.6-1.8,1.6-3.4,2.6-4.5C57.8,5.9,58.1,5.4,58.6,5.2"/>
<circle class="st0" cx="70.5" cy="11.3" r="0"/>
<path class="st0" d="M69,9.9c0.1-0.1,0.1-0.1,0.3-0.3l0,0C69.2,9.8,69,9.8,69,9.9"/>
<path class="st0" d="M77.4,12.2L77.4,12.2c-0.6,0-0.9-0.4-0.9-0.8c0-0.6,0.4-0.8,0.9-0.8c0.6,0,0.9,0.4,0.9,0.8
	C78.2,11.7,77.8,12.2,77.4,12.2 M72.9,16.5L72.9,16.5h-0.7c0-0.4,0.3-2.1-0.6-3.1c-0.3-0.3-0.6-0.6-1-0.7c0.1,1.1,0,2.4-0.1,3.8H70
	h-0.3c0-0.1,0-0.3,0-0.4c0.1-1,0.1-2,0.1-2.8c0-1.4-0.4-2.8-0.4-2.8s-1,0.7-2.3,1.1c0.3,1.4,0.3,3.1-0.4,4.9H66
	c0.6-1.7,0.7-3.4,0.4-4.6c-1.3,0.4-3.3,0.7-5.6,0.7c-2.4,0-4.3-0.3-5.6-0.7c-0.3,1.4-0.1,2.9,0.4,4.6H55c-0.6-1.8-0.7-3.5-0.4-4.9
	c-1.3-0.4-2.3-1.1-2.3-1.1s-0.4,1.4-0.4,2.8c0,0.8,0,1.8,0.1,2.8c0,0.1,0,0.3,0,0.4h-0.3h-0.4c-0.3-1.4-0.3-2.7-0.1-3.8
	c-0.4,0.1-0.7,0.3-1,0.7c-0.7,1-0.6,2.7-0.6,3.1h-0.7c0-0.6-0.1-1.8,0.3-2.9c0-0.1,0.1-0.3,0.1-0.4c0,0,0-0.1,0.1-0.1
	c0.3-0.4,0.7-0.7,1.1-0.8c0.1,0,0.3-0.1,0.4-0.1v-0.1c0,0,0.4-1.4,0.6-2c0.1-0.3,0.1-0.6,0.3-0.7c0.3-0.6,0.6-1,0.9-1.4
	c0.1-0.1,0.1-0.1,0.1-0.3s0.1-0.1,0.3-0.3c1.4-1.5,3.2-2.2,4.6-2.7c0.3,0,0.7-0.1,0.9-0.3c-0.3-1.1-0.1-2,0.3-2.5
	C59.3,1.3,60,1.1,60.4,1c0.4,0.1,1.1,0.3,1.6,0.8c0.4,0.6,0.6,1.5,0.3,2.5c0.1,0,0.7,0.1,0.9,0.3c1.4,0.4,3.3,1.3,4.6,2.7
	c0,0.1,0.1,0.1,0.3,0.3s0.1,0.1,0.1,0.3c0.3,0.4,0.7,1,0.9,1.4c0.1,0.3,0.3,0.6,0.3,0.7c0.1,0.6,0.6,2,0.6,2V12
	c0.1,0,0.3,0.1,0.4,0.1c0.4,0.1,0.9,0.4,1.1,0.8l0.1,0.1c0.1,0.1,0.1,0.3,0.1,0.4C73.1,14.7,73.1,15.9,72.9,16.5z M72.1,17.9
	L72.1,17.9H61l0,0H49.9L49.4,17H61l0,0h11.6L72.1,17.9z M70.6,20L70.6,20H61l0,0h-9.6l-0.4-0.7h10.2l0,0h10.2L70.6,20z M44.6,12.2
	L44.6,12.2c-0.6,0-0.9-0.4-0.9-0.8c0-0.6,0.4-0.8,0.9-0.8c0.6,0,0.9,0.4,0.9,0.8C45.6,11.7,45.2,12.2,44.6,12.2z M77.4,9.6
	c-0.9,0-1.6,0.7-1.6,1.5c0,0.4,0.1,0.8,0.6,1.1l-0.4,0.3c-0.1,0-1.3,0.6-2.4,0.4c-0.1-0.1-0.1-0.3-0.3-0.4c-0.6-0.6-1.1-1-1.6-1.1
	h-0.1C71.2,10.2,69.9,5,64,3.8c0.1-1,0-2-0.6-2.5c-0.6-0.8-1.6-1.1-2.2-1.3l0,0l0,0l0,0l0,0c-0.6,0.1-1.6,0.4-2.2,1.3
	c-0.4,0.7-0.7,1.5-0.6,2.5c-6,1.3-7.3,6.4-7.5,7.7h-0.1c-0.6,0.1-1.1,0.4-1.6,1.1c-0.1,0.1-0.1,0.3-0.3,0.4
	c-1.3,0.1-2.4-0.3-2.4-0.4l-0.4-0.3c0.3-0.3,0.6-0.7,0.6-1.1c0-0.8-0.7-1.5-1.6-1.5c-0.9,0-1.6,0.7-1.6,1.5s0.7,1.5,1.6,1.5
	c0.3,0,0.6-0.1,0.9-0.3l5.5,8.1h10.1l0,0h10.1l5.5-8.1c0.3,0.1,0.4,0.3,0.9,0.3c0.9,0,1.6-0.7,1.6-1.5C79,10.3,78.2,9.6,77.4,9.6z"
	/>
<path class="st0" d="M61,11.7c2.4,0,4.3-0.3,5.5-0.7c-1-3.8-4.2-6-4.7-6.4c-0.3,0-0.6,0-0.7-0.1l0,0l0,0l0,0l0,0
	c-0.1,0-0.4,0-0.7,0.1c-0.4,0.3-3.7,2.7-4.7,6.4C56.7,11.5,58.6,11.7,61,11.7L61,11.7L61,11.7L61,11.7L61,11.7z"/>
<path class="st0" d="M63.4,5.2L63.3,5C63.3,5,63.3,5,63.4,5.2c1.4,0.3,3.3,1.1,4.6,2.7c0.4,0.6,0.9,1.1,1.1,1.8
	c0,0.1-0.9,0.8-2.2,1.3c-0.6-1.8-1.6-3.4-2.6-4.5C64.2,5.9,63.9,5.4,63.4,5.2"/>
<path class="st0" d="M61,1.8c-1.4,0.3-1.1,2.2-1,2.2c0,0,0.6,0,1.1,0c0.4,0,1.1,0,1.1,0C62.1,3.9,62.4,2.1,61,1.8L61,1.8z"/>
<path class="st0" d="M59.3,113.3c0.4-0.1,0.6-0.1,1-0.3c-0.4-0.4-0.6-0.7-0.9-1.1C59.3,112.5,59.3,112.7,59.3,113.3"/>
<path class="st0" d="M60.1,75.7L60.1,75.7c0-0.3,0.1-0.4,0.3-0.6s0.4-0.3,0.7-0.3c0.4,0,0.9,0.4,0.9,0.8c0,0.3-0.1,0.4-0.3,0.6
	s-0.4,0.3-0.6,0.3v0.3v-0.3C60.6,76.6,60.1,76.3,60.1,75.7 M50.2,99.9c-0.4,0-0.7,0-1-0.3c-0.6-0.4-0.6-1.1-0.1-1.5
	c0.3-0.4,0.7-0.6,1.1-0.7v-0.6h-0.6h-1.3l1-0.8h0.4h0.4v-1.5c-0.1-0.3-0.3-0.6-0.3-0.8c0-0.4,0.1-0.8,0.3-1.3l0,0c0,0,0,0-0.1,0
	c0,0.4-0.1,0.7-0.3,1.1c-0.1,0.4-0.7,0.8-1.1,0.7c-0.4,0-0.9-0.6-0.6-1c0.3-0.6,0.7,0.1,1.1-0.1c0.1-0.1,0.3-0.3,0.4-0.6
	c-0.1,0-0.3,0.1-0.4,0c-0.3-0.3,0.1-0.4,0.3-0.6h0.1c-0.3-1.1-2.2-1-2.6,0c0,0.1-0.1,0.6,0,0.6c-0.9-0.4-1.4-1.3-1.3-2.1
	c0.1-1,1-1.4,2-1.4c1.4,0.1,2.3,1.4,2.4,2.7c0,0,0,0,0.1,0l0,0c-0.1-0.8-0.4-1.7-0.9-2.2c-0.9-1.3,0.9-2.9,1.3-4.1
	c0.4,1.1,2.2,2.8,1.3,4.1c-0.4,0.6-0.7,1.4-0.9,2.1v0.1l0,0c0.1-1.3,1-2.5,2.4-2.8c1-0.1,1.9,0.4,2,1.4c0.1,1-0.4,1.7-1.3,2.1
	c0.1-0.1,0-0.4,0-0.6c-0.4-1-2.3-1.1-2.6,0l0,0c0.1,0,0.3,0.1,0.3,0.3c0.1,0.1,0.3,0.3,0.1,0.4c-0.1,0.1-0.3,0.1-0.4,0
	c0,0.1,0.1,0.3,0.3,0.4c0.4,0.3,0.7-0.4,1.1,0.1c0.3,0.4-0.1,1-0.6,1c-0.4,0-1-0.4-1.1-0.7c-0.1-0.3-0.3-0.7-0.3-1l0,0v0.1
	c0.1,0.4,0.3,0.7,0.1,1.1c0,0.3-0.1,0.6-0.1,0.8V96h0.4h0.4l1,0.8h-1.3h-0.4v0.6c0.1,0,0.3,0,0.4,0.1c0.1,0,0.3,0.1,0.3,0.1
	c0.1,0.1,0.4,0.3,0.6,0.6c0.1,0.3,0.3,0.7,0,1c-0.1,0.1-0.6,0.3-0.7,0c-0.1-0.4,0.3-0.4,0.3-0.7c0-0.1-0.1-0.3-0.1-0.4
	c-0.1-0.1-0.1-0.1-0.3-0.1l0,0c-0.1,0-0.3,0-0.3,0v11.9c0.1,0.3,0.4,0.4,0.6,0.7l0,0c4.3,0.3,9.2-1.3,13.6-3.4
	c-0.6-0.8-1.3-3.4-1.4-4.2c0,0-0.9,0.1-1.1-0.3c-0.3-0.4-0.6-0.8-1-1c-0.4-0.1-0.7-0.3-1.4-1.1c-0.7-0.8-1-0.6-1-0.6
	s-0.7,0.1-1.1,2.9c0,0,0.3,0.4,0,0.6c-0.3,0.3,0.4,0.1,0.7,0.4s0.3,1.5-0.1,1.8c-0.4,0.3-0.9,0.4-1.1-0.3c-0.3-0.8,0-1.3-0.1-1.4
	c-0.1-0.1-0.6-0.4-0.7-1c-0.1-0.4,1.3-3.2,1.3-3.4c0-0.1-0.3,0.1-0.6,0.4c-0.3,0.3-0.6,0.6-0.9,0.4s-0.7,0.1-0.4,0.6
	c0.1,0.3,0.3,0.7-0.3,0.8c-0.6,0.1-2.2,0.1-1.9-0.4c0.4-0.6,1.1-1.1,1.6-1.4c0.4-0.4,0.3-0.7,0.7-1s0.6,0,1.3-0.4
	c0.7-0.4,1.9-1.1,2.7-1.1c0.9,0,3.4,1.3,3.3,1.1c0-0.1-0.1-1.1,1.4-2c1.4-0.8,2.4-1.5,2.9-2.2s1.6-2.7,1.4-2.9
	c-0.1-0.3-0.6-0.6-0.6-0.7c-0.1-0.1-0.4,0-0.9-0.4c-0.4-0.4-2.3-1.4-2.7-1.5s-1.1,0.6-1.3-0.6c-0.1-1,0-1.3,0.4-1.5
	c0,0,0.9-0.4,1.9-0.4c1,0,2.3,0,2.7,0s0.1-0.1,0.9,0c0.7,0.1,1-0.1,1.3-0.1s0.7,0,0.7-0.3c0-0.1,0.6-1,0.9-1.3c0.3-0.3,0,0.3,0,0.4
	c0,0.3,0,0.4,0,0.4s0.3-0.3,0.4-0.4c0.1-0.1,0,0.1-0.1,0.6c-0.1,0.3-0.3,0.6-0.1,0.8c0.1,0.3,1,1.3,1.1,1.4c0.1,0.1,1,0.7,1,1.7
	c0,1,0.6,2,1,2.2c0.6,0.3,0.6,0.3,0.6,0.3s-0.3,0-0.6,0c0,0,0.6,0.8,0.9,1.4c0.1,0.7,0.7,0.6,0.7,0.6s-1,0.3-1.6-0.1
	c0,0,0.1,0.7,0.7,1c0,0-0.6,0-0.9-0.3c0,0,0.3,0.4,0.3,0.7c0,0-0.4-0.1-0.7-0.6c0,0,0.6,1.1,0.3,2c-0.3,1-0.1,1.3-0.1,1.3
	s-0.6-0.4-0.7-1.1c0,0-0.1,0.4,0.1,1.3c0.4,0.8-0.4,2-0.4,2c-0.1-0.3,0.3-0.8-0.1-1.1c0,0-1.1,1.4-0.6,2.4c1.1-0.8,2.2-1.5,3-2.2
	c3.2-8.2,2.3-14.9,2.3-15.1l-0.1-0.8c0,0-15.8-2.1-18-6.7l0,0l0,0c0.4,0,0.9-0.1,1.1-0.4c0.3-0.3,0.4-0.7,0.4-1.1
	c0-0.8-0.7-1.5-1.6-1.5l0,0c-0.4,0-0.9,0.1-1.1,0.4c-0.3,0.3-0.4,0.7-0.4,1.1c0,0.8,0.7,1.5,1.6,1.5c-2.2,4.6-17.8,6.7-17.8,6.7
	l-0.1,0.8c0,0.1-1.6,12.2,7.2,23.9v-8.1C50.7,99.9,50.2,99.9,50.2,99.9z"/>
<path class="st0" d="M73.5,108.3L73.5,108.3c-0.1-0.4-0.3-0.6-0.6-1c-0.9-0.4-1.4-0.7-2.2-1.3c0.3-0.1,0.4-0.3,0.7-0.4
	c0.6,0.4,0.9,0.7,1.4,1c0-0.7-0.1-1.1-0.1-2c0.3-0.3,0.6-0.4,1-0.7c0,1.4,0,2-0.1,2.9c0.3,0.4,0.3,0.6,0.6,1
	C73.9,108,73.8,108.1,73.5,108.3 M70.2,110.6L70.2,110.6c-0.4-1.3-0.9-2.2-1.3-3.5c0.3-0.1,0.4-0.3,0.7-0.4c0.4,1.1,0.7,1.8,1.1,2.8
	c0.7-0.4,1-0.7,1.7-1.1c0.1,0.1,0.1,0.3,0.3,0.4C71.6,109.7,71.1,109.9,70.2,110.6z M68.6,111.5L68.6,111.5
	c-0.6-1.4-0.9-2.2-1.4-3.5c0.4-0.1,0.6-0.3,0.9-0.4c0.4,1.3,0.9,2.2,1.3,3.5C69.2,111.2,69,111.3,68.6,111.5z M67,112.3L67,112.3
	c-0.6-1-0.7-1.5-1.1-2.4c0,0-0.1-0.1-0.1-0.3c0-0.1-0.1-0.3-0.1-0.3c0.1,1.3,0.3,2,0.6,3.4c-0.4,0.1-0.6,0.3-1,0.4
	c-1.1-1.1-1.6-1.5-2.6-2.5c0,0,0.7,1.5,1.4,2.9c-0.4,0.1-0.6,0.1-1,0.3c-0.9-1.7-0.9-2-1.6-3.5c0.6-0.1,0.9-0.3,1.4-0.6
	c1,1,1.6,1.3,2.4,2.2c-0.3-1.3-0.4-1.8-0.6-3.1c0.7-0.3,1-0.4,1.6-0.7c0.6,1.4,1,2.1,1.6,3.5C67.6,112,67.5,112.2,67,112.3z
	 M61.1,114.4L61.1,114.4c-0.1-0.4-0.3-0.6-0.4-0.8c-0.6,0.1-0.9,0.3-1.4,0.4c0,0.3,0,0.6,0,0.8c-0.3,0-0.4,0.1-0.9,0.1
	c0.1-1.8,0.3-2.1,0.3-3.9c0.3-0.1,0.6-0.1,0.9-0.3c1,1.4,1.3,1.5,2.7,3.2C61.6,114.3,61.4,114.4,61.1,114.4z M56.5,115.3L56.5,115.3
	c-0.3,0-0.4,0-0.7,0.1c-0.6-1.5-0.7-1.8-1.1-3.5c1.1-0.1,1.7-0.1,2.7-0.4c0.1,0.3,0.1,0.4,0.1,0.7c-0.7,0.1-1.1,0.3-1.9,0.3
	c0.1,0.3,0.1,0.4,0.3,0.7c0.7-0.1,1-0.1,1.7-0.3c0.1,0.3,0.1,0.3,0.1,0.6l-1.7,0.3C56.3,114.4,56.4,114.7,56.5,115.3z M81,104.4
	l1.4-2.5l-4.5,0.1h-0.7l0.1-1.1c-5.5,4.3-16.2,10.8-24.6,10.8c-0.6,0-1.3,0-1.9-0.1l0.3,1c-0.3,0.1-0.7,0.1-0.7,0.1
	c-0.1,0-7.3,2.2-7.3,2.2l3.3,1.7l-2,3.5l0,0c0,0,9.6-2.9,9.9-2.9c0.1,0,0.3-0.1,0.4-0.1c0.1,0,0.3-0.1,0.4-0.1l0,0l0,0l0,0l0,0l0,0
	l0,0v-0.1c0-0.1-0.1-0.3-0.1-0.4c0,0,0.4,0,1,0c3-0.3,12.6-1.5,19.7-9.2l0.1,0.4h0.1c0.1,0,0.1,0,0.3,0c0.1,0,6-0.1,6-0.1l0,0
	L81,104.4z"/>
<path class="st0" d="M57.8,116.5c0.9,0.7,1.7,1.3,2.6,2l0.6,0.4l0.6-0.4c2-1.4,3.9-2.8,5.5-4.3l0,0
	C63.4,115.5,59.9,116.2,57.8,116.5C57.7,116.5,57.7,116.5,57.8,116.5"/>
</svg>
