<?xml version="1.0" encoding="utf-8"?>
<!-- Generator: Adobe Illustrator 21.0.2, SVG Export Plug-In . SVG Version: 6.00 Build 0)  -->
<svg version="1.1" id="Layer_1" xmlns="http://www.w3.org/2000/svg" xmlns:xlink="http://www.w3.org/1999/xlink" x="0px" y="0px"
	 viewBox="0 0 128 126" style="enable-background:new 0 0 128 126;" xml:space="preserve">
<style type="text/css">
	.st0{fill:#FFFFFF;}
	.st1{fill:#615E5D;}
	.st2{fill:#020202;}
</style>
<path class="st0" d="M127.2,62.9c0,34.4-28.3,62.3-63.2,62.3S0.8,97.2,0.8,62.9S29.1,0.6,64,0.6C98.9,0.6,127.2,28.5,127.2,62.9"/>
<path class="st1" d="M64,126C28.8,126,0,97.7,0,63S28.8,0,64,0s64,28.3,64,63C128.1,97.7,99.4,126,64,126 M64,1.3
	C29.5,1.3,1.5,28.9,1.5,62.9s28,61.5,62.5,61.5s62.5-27.6,62.5-61.5C126.5,29.1,98.5,1.3,64,1.3"/>
<path class="st1" d="M47.1,112.5c0,0.4-0.5,0.9-0.9,0.9c-0.5,0-0.9-0.4-0.9-0.9c0-0.4,0.5-0.9,0.9-0.9
	C46.7,111.6,47.1,112.1,47.1,112.5"/>
<path class="st1" d="M83.6,112.5c0,0.4-0.5,0.9-0.9,0.9c-0.5,0-0.9-0.4-0.9-0.9c0-0.4,0.5-0.9,0.9-0.9
	C83.1,111.6,83.6,112.1,83.6,112.5"/>
<path class="st1" d="M56.5,108.1c0.9,0.1,1.5,1,1.4,1.9l-0.5,2.4c-0.2,0.6-0.6,1.3-1.4,1.5c0.6,0.3,0.9,1,0.8,1.6l-0.6,3.4
	c-0.2,0.9-1.1,1.5-2,1.3l-2.7-0.4l2.3-12.2L56.5,108.1z M52.7,118.7l1.7,0.3c0.3,0,0.6-0.1,0.6-0.4l0.6-3.6c0.2-0.7-0.2-0.9-0.9-1
	l-1.1-0.1L52.7,118.7z M56.2,112.1l0.5-2.2c0-0.3-0.2-0.6-0.5-0.6l-1.7-0.3l-0.8,3.9L55,113C55.7,113.3,56,112.7,56.2,112.1"/>
<path class="st1" d="M61.9,121.1l1.7-12.3h2.1l1.8,12.3h-1.2l-0.6-3.6h-2.1l-0.5,3.6H61.9z M64.6,109.8l-0.8,6.5h1.8L64.6,109.8
	L64.6,109.8z"/>
<path class="st1" d="M73.8,107.8c0.9-0.1,1.8,0.4,2,1.3l0.5,2.4c0.2,0.7,0,1.3-0.8,1.8c0.8,0,1.2,0.4,1.4,1l1.1,5.2l-1.2,0.3
	l-1.1-5.2c-0.2-0.6-0.5-0.7-1.1-0.7l-1.1,0.1l1.2,5.9l-1.2,0.3l-2.4-12.2L73.8,107.8z M74.2,113c0.8-0.1,0.9-0.6,0.9-1.3l-0.5-2.4
	c0-0.3-0.3-0.4-0.6-0.4l-1.5,0.3l0.8,3.9L74.2,113z"/>
<path class="st1" d="M31.3,31.1l-7.1-10.2l1.7-1.3l9.6,8l-0.9,0.7l-2.9-2.4l-1.5,1.3l2.1,3.1L31.3,31.1z M25.8,21l3.8,5.3l1.4-1.2
	L25.8,21L25.8,21z"/>
<polygon class="st1" points="39.2,23.6 41.1,22.4 41.7,23.4 38.9,25.2 32.2,14.7 33.3,14.1 "/>
<path class="st1" d="M44.4,10.5c-0.2-0.3-0.5-0.4-0.6-0.3l-0.8,0.3c-0.3,0.1-0.5,0.4-0.3,0.6l3.3,8.4c0.2,0.3,0.5,0.4,0.6,0.3
	l0.8-0.3c0.3-0.1,0.5-0.4,0.3-0.6L47,17.2l1.1-0.4l0.8,1.8c0.3,0.9-0.2,1.8-0.9,2.1l-0.8,0.3c-0.9,0.3-1.8-0.1-2.1-0.9l-3.3-8.4
	c-0.3-0.9,0.2-1.8,0.9-2.1l0.8-0.3c0.9-0.3,1.8,0.1,2.1,0.9l0.5,1.3l-1.1,0.4L44.4,10.5z"/>
<polygon class="st1" points="58,18.1 56.9,18.2 55.7,12.3 53.6,12.6 54.7,18.7 53.6,18.8 51.2,6.7 52.4,6.5 53.3,11.6 55.6,11.1 
	54.7,6.1 55.7,5.9 "/>
<polygon class="st1" points="63.2,6.5 63.4,10.5 65.4,10.5 65.4,11.6 63.4,11.6 63.5,16.6 65.8,16.5 65.8,17.6 62.3,17.8 62,5.5 
	65.5,5.3 65.5,6.5 "/>
<polygon class="st1" points="76.8,13.9 78.2,9.2 78.2,9 74.1,18.7 72.9,18.5 73,8 72.9,8 72.3,13 71.2,18.1 70,17.9 72.4,5.8 
	74.1,6.2 74.1,16 77.7,7 79.5,7.3 77,19.3 75.7,19.1 "/>
<polygon class="st1" points="87.5,11.4 83.4,20.6 84.3,20.9 83.9,21.9 81,20.8 81.5,19.7 82.4,20.2 86.4,11 85.5,10.5 86,9.5 
	88.8,10.7 88.4,11.7 "/>
<path class="st1" d="M89.8,23.3c-0.2,0.3-0.2,0.6,0.2,0.7l0.8,0.4c0.2,0.1,0.6,0.1,0.8-0.1l1.2-1.8c0.3-0.3,0.5-0.7,0.3-1.2
	l-0.3-3.1c0-0.7,0.2-1.3,0.6-1.9l0.8-1.2c0.5-0.7,1.5-1,2.3-0.4l0.8,0.4c0.8,0.4,1.1,1.5,0.5,2.2l-0.8,1.2l-1.1-0.6l0.8-1.2
	c0.2-0.1,0.2-0.6-0.2-0.7l-0.8-0.4c-0.2-0.1-0.6-0.1-0.8,0.1L94,16.9c-0.3,0.3-0.5,0.7-0.3,1.2l0.3,3.1c0.2,0.7-0.2,1.3-0.6,1.9
	l-1.2,1.8c-0.5,0.7-1.5,1-2.3,0.4l-0.8-0.4c-0.8-0.4-1.1-1.5-0.5-2.2l1.1-1.6l1.1,0.6L89.8,23.3z"/>
<polygon class="st1" points="104.4,22.5 96.5,30.7 95.6,29.8 103.5,21.8 102.4,20.8 103.3,20 106.2,22.7 105.4,23.6 "/>
<path class="st1" d="M38.2,49.1c0,0,0.2,0,0.6,0c0.3,0,0.9,0,1.5-0.1c0.3,0,0.6-0.1,1.1-0.1c0.3-0.1,0.8-0.3,1.1-0.4
	c0.3-0.1,0.8-0.3,1.1-0.6c0.3-0.1,0.8-0.4,1.1-0.6c0.8-0.4,1.5-0.9,2.3-1.2c0.8-0.4,1.4-0.7,2-1s1.1-0.6,1.4-0.7
	c0.3-0.1,0.6-0.3,0.6-0.3s-0.2,0.1-0.5,0.3c-0.3,0.1-0.8,0.4-1.4,0.9c-0.6,0.3-1.2,0.7-1.8,1.2c-0.8,0.4-1.5,0.9-2.3,1.3
	c-0.5,0.1-0.8,0.4-1.2,0.6c-0.5,0.1-0.8,0.4-1.2,0.4c-0.5,0.1-0.8,0.3-1.2,0.3c-0.3,0-0.8,0.1-1.1,0.1c-0.6,0-1.2,0-1.7,0
	C38.4,49.1,38.2,49.1,38.2,49.1"/>
<path class="st1" d="M42.5,38.5c0,0,0.9,0.1,2.1,0.3c0.6,0.1,1.4,0.1,2.3,0.1c0.8,0,1.7,0,2.6-0.1s1.7-0.3,2.4-0.6
	c0.3-0.1,0.8-0.3,1.1-0.4c0.3-0.1,0.6-0.4,0.8-0.6c0.2-0.3,0.5-0.4,0.6-0.7c0.2-0.1,0.3-0.4,0.3-0.6c0.2-0.3,0.3-0.6,0.3-0.6
	s0,0.1-0.2,0.6c-0.2,0.1-0.2,0.4-0.3,0.6c-0.2,0.3-0.3,0.4-0.5,0.7c-0.2,0.3-0.5,0.4-0.8,0.7c-0.3,0.1-0.6,0.4-1.1,0.6
	c-0.8,0.3-1.7,0.6-2.6,0.6c-0.9,0.1-1.8,0.1-2.6,0c-0.9,0-1.7-0.1-2.3-0.3C43.2,38.8,42.5,38.5,42.5,38.5"/>
<path class="st1" d="M40.4,53.1c0,0-0.2-0.1-0.2-0.4c0-0.1,0-0.3,0-0.6c0-0.1,0.2-0.4,0.5-0.6c0.2-0.1,0.5-0.1,0.6-0.3
	c0.2,0,0.5,0,0.6,0s0.3,0,0.5,0c0.2,0,0.2,0,0.2,0s-0.2,0-0.6,0c-0.2,0-0.3,0-0.5,0.1c-0.2,0-0.3,0.1-0.6,0.3
	c-0.3,0.3-0.5,0.6-0.5,0.9C40.4,52.8,40.4,53.1,40.4,53.1"/>
<path class="st1" d="M47.7,52.6c0,0-0.3-0.1-0.5-0.6c-0.3-0.3-0.6-0.9-0.9-1.5c0-0.1-0.2-0.3-0.2-0.4c0-0.1,0-0.3,0-0.4
	c0-0.3,0.2-0.6,0.3-0.7c0.2-0.1,0.3-0.3,0.5-0.4c0.2-0.1,0.2-0.1,0.2-0.1s0,0-0.2,0.1l-0.2,0.1c0,0.1-0.2,0.1-0.2,0.3
	c-0.2,0.1-0.2,0.4-0.2,0.7c0,0.1,0,0.3,0,0.4c0,0.1,0,0.3,0.2,0.4c0.2,0.3,0.2,0.6,0.3,0.7c0.2,0.3,0.3,0.4,0.5,0.6
	C47.6,52.3,47.7,52.6,47.7,52.6"/>
<path class="st1" d="M65.1,48.3c0,0,0-0.6-0.2-1.3c0-0.4-0.2-0.9-0.3-1.3c-0.2-0.3-0.2-0.4-0.3-0.7c-0.2-0.1-0.3-0.4-0.5-0.6
	c-0.2-0.1-0.3-0.4-0.5-0.6c-0.2-0.1-0.5-0.3-0.6-0.4c-0.2-0.1-0.5-0.3-0.6-0.3c-0.2-0.1-0.5-0.1-0.6-0.3c-0.2,0-0.3-0.1-0.5-0.1
	c-0.2,0-0.3,0-0.5-0.1c-0.2,0-0.3-0.1-0.3-0.1s0.2,0,0.3,0c0.3,0,0.6,0,0.9,0.1c0.2,0,0.5,0.1,0.6,0.1c0.2,0.1,0.5,0.1,0.6,0.3
	c0.2,0.1,0.5,0.3,0.6,0.4c0.2,0.1,0.5,0.4,0.6,0.6c0.2,0.1,0.3,0.4,0.5,0.7c0.2,0.3,0.2,0.4,0.3,0.7c0.2,0.4,0.2,0.9,0.2,1.3
	C65.2,47.7,65.1,48.3,65.1,48.3"/>
<path class="st1" d="M85.8,32.9c0.2,0.1,0.5,0.1,0.6,0.1c0.2,0,0.3,0,0.5,0c0.3,0,0.5,0,0.5,0s-0.2,0-0.5-0.1c-0.2,0-0.3,0-0.5-0.1
	c-0.2,0-0.3-0.1-0.5-0.3c-0.3-0.3-0.8-0.6-1.2-0.9c-0.5-0.3-0.9-0.7-1.5-1c-0.3-0.1-0.6-0.3-0.9-0.4c-0.3-0.1-0.6-0.1-0.9-0.3
	c-0.6-0.1-1.2,0-1.7,0c-0.5,0.1-0.8,0.3-1.1,0.4c-0.3,0.1-0.3,0.3-0.3,0.3s0.2,0,0.5-0.1c0.3-0.1,0.6-0.1,1.1-0.1
	c0.5,0,0.9,0,1.5,0.1c0.3,0,0.5,0.1,0.8,0.3c0.3,0.1,0.5,0.3,0.8,0.4c0.5,0.3,1.1,0.6,1.5,0.9C84.9,32.5,85.4,32.8,85.8,32.9"/>
<path class="st1" d="M86.3,42.2c-0.2-0.1-0.5-0.3-0.6-0.4c-0.5-0.3-0.9-0.4-1.2-0.4c-0.3,0-0.6,0-0.6,0s0.2,0.1,0.5,0.3
	c0.2,0.1,0.3,0.1,0.6,0.3c0.2,0.1,0.5,0.1,0.6,0.3c0.2,0.1,0.5,0.1,0.6,0.3c0.2,0.1,0.5,0.1,0.5,0.3c0.3,0.1,0.6,0.3,0.6,0.3
	S87,43,86.9,42.7C86.6,42.5,86.4,42.4,86.3,42.2"/>
<path class="st1" d="M87.3,41.8c-0.2-0.1-0.2-0.1-0.3-0.3c-0.2-0.1-0.2-0.1-0.3-0.3c-0.2,0-0.3-0.1-0.5-0.1
	c-0.3-0.1-0.6-0.1-0.9-0.3c-0.3,0-0.6-0.1-0.8-0.1c-0.5,0-0.8,0-0.8,0s0,0,0.2,0c0.2,0,0.3,0.1,0.5,0.1c0.2,0,0.5,0.1,0.8,0.3
	c0.3,0.1,0.5,0.1,0.8,0.3c0.3,0.1,0.5,0.3,0.8,0.4c0.2,0,0.2,0.1,0.3,0.1c0.2,0,0.2,0.1,0.3,0.1c0.3,0.3,0.6,0.4,0.6,0.4
	s-0.2-0.3-0.5-0.6C87.5,42,87.3,42,87.3,41.8"/>
<path class="st1" d="M87.5,41.1c-0.2-0.1-0.2-0.1-0.3-0.3c-0.2-0.1-0.2-0.1-0.3-0.3c-0.2,0-0.3-0.1-0.5-0.1
	c-0.3-0.1-0.6-0.1-0.9-0.3c-0.3,0-0.6-0.1-0.8-0.1c-0.5,0-0.8,0-0.8,0s0,0,0.2,0c0.2,0,0.3,0.1,0.5,0.1c0.2,0,0.5,0.1,0.8,0.3
	c0.3,0.1,0.5,0.1,0.8,0.3c0.3,0.1,0.5,0.3,0.8,0.4c0.2,0,0.2,0.1,0.3,0.1c0.2,0,0.2,0.1,0.3,0.1c0.3,0.3,0.6,0.4,0.6,0.4
	s-0.2-0.3-0.5-0.6C87.8,41.2,87.6,41.1,87.5,41.1"/>
<path class="st1" d="M88.2,40.5c-0.2-0.1-0.2-0.1-0.3-0.3c-0.2-0.1-0.2-0.1-0.3-0.3c-0.2,0-0.3-0.1-0.5-0.1
	c-0.3-0.1-0.6-0.1-0.9-0.3c-0.3,0-0.6-0.1-0.8-0.1c-0.5,0-0.8,0-0.8,0s0,0,0.2,0c0.2,0,0.3,0.1,0.5,0.1c0.2,0,0.5,0.1,0.8,0.3
	c0.3,0.1,0.5,0.1,0.8,0.3s0.5,0.3,0.8,0.4c0.2,0,0.2,0.1,0.3,0.1c0.2,0,0.2,0.1,0.3,0.1c0.3,0.3,0.6,0.4,0.6,0.4s-0.2-0.3-0.5-0.6
	C88.5,40.6,88.4,40.5,88.2,40.5"/>
<path class="st1" d="M88.8,39.6c-0.2-0.1-0.2-0.1-0.3-0.3c-0.2-0.1-0.2-0.1-0.3-0.3c-0.2,0-0.3-0.1-0.5-0.1
	c-0.3-0.1-0.6-0.1-0.9-0.3c-0.3,0-0.6-0.1-0.8-0.1c-0.5,0-0.8,0-0.8,0s0,0,0.2,0c0.2,0,0.3,0.1,0.5,0.1c0.2,0,0.5,0.1,0.8,0.3
	c0.3,0.1,0.5,0.1,0.8,0.3c0.3,0.1,0.5,0.3,0.8,0.4c0.2,0,0.2,0.1,0.3,0.1c0.2,0,0.2,0.1,0.3,0.1c0.3,0.3,0.6,0.4,0.6,0.4
	S89.3,40,89,39.7C89,39.9,89,39.7,88.8,39.6"/>
<path class="st1" d="M88.2,37.9c-0.2,0-0.3-0.1-0.5-0.1c-0.2,0-0.3,0-0.5-0.1c-0.2,0-0.3,0-0.5,0c-0.5,0-0.9,0-0.9,0s0.2,0,0.3,0
	c0.2,0,0.3,0.1,0.6,0.1c0.3,0,0.5,0.1,0.8,0.3c0.2,0,0.3,0.1,0.5,0.1c0.2,0,0.3,0.1,0.5,0.1c0.2,0.1,0.3,0.1,0.5,0.3
	c0.2,0,0.3,0.1,0.5,0.3c0.2,0.1,0.3,0.1,0.3,0.3c0.2,0,0.2,0.1,0.3,0.3c0.3,0.3,0.6,0.6,0.6,0.6s-0.2-0.3-0.5-0.7
	c0-0.1-0.2-0.3-0.3-0.3c-0.2-0.1-0.2-0.1-0.3-0.3c-0.2-0.1-0.3-0.3-0.5-0.3c-0.2-0.1-0.3-0.1-0.5-0.3C88.5,37.9,88.4,37.9,88.2,37.9
	"/>
<path class="st1" d="M77.3,56.2c-0.5-0.3-0.9-0.6-1.2-0.9c-0.3-0.3-0.6-0.6-0.8-0.7c-0.2-0.1-0.3-0.3-0.3-0.3s0,0.1,0.2,0.3
	c0.2,0.1,0.3,0.6,0.6,0.9c0.3,0.3,0.6,0.7,1.2,1c0.5,0.3,1.1,0.6,1.8,0.4c0.6,0,1.2-0.4,1.7-0.9c0.2-0.1,0.3-0.4,0.5-0.6
	c0.2-0.1,0.3-0.4,0.3-0.6c0.2-0.1,0.2-0.4,0.3-0.6c0-0.1,0.2-0.3,0.2-0.4c0.2-0.3,0.2-0.4,0.2-0.4s0,0.1-0.2,0.3
	c0,0.1-0.2,0.3-0.3,0.4c-0.2,0.1-0.2,0.3-0.3,0.4c-0.2,0.1-0.3,0.3-0.5,0.6c-0.2,0.1-0.3,0.4-0.5,0.6c-0.2,0.1-0.5,0.3-0.6,0.4
	c-0.3,0.1-0.5,0.1-0.8,0.3C78.3,56.6,77.7,56.5,77.3,56.2"/>
<path class="st1" d="M72.4,64.9c0-0.1,0-0.4,0-0.6s-0.2-0.4-0.2-0.6s-0.2-0.4-0.3-0.6c-0.2-0.1-0.2-0.3-0.3-0.4
	c-0.2-0.1-0.3-0.3-0.3-0.4c-0.2-0.1-0.3-0.1-0.3-0.3c-0.2-0.1-0.2-0.1-0.3-0.1c-0.2-0.1-0.3-0.1-0.3-0.1s0.2,0,0.2,0.1
	c0,0,0.2,0.1,0.2,0.3c0,0.1,0.2,0.1,0.3,0.3c0.2,0.1,0.2,0.3,0.3,0.4c0.2,0.1,0.2,0.3,0.2,0.4c0,0.1,0.2,0.3,0.2,0.6
	c0,0.1,0.2,0.4,0.2,0.6s0,0.4,0.2,0.6c0,0.1,0,0.4,0,0.6c0,0.1,0,0.4,0,0.6s0,0.3,0,0.4c0,0.6,0,1,0,1s0.2-0.4,0.2-1
	c0-0.1,0-0.3,0.2-0.4c0-0.1,0-0.4,0-0.6C72.4,65.2,72.4,65.1,72.4,64.9"/>
<path class="st2" d="M69,64.8L69,64.8L69,64.8"/>
<path class="st1" d="M49.1,68.5c0-0.1,0-0.3-0.2-0.4c0-0.3-0.2-0.7-0.2-1.2c0-0.3,0-0.4-0.2-0.7c0-0.3,0-0.4-0.2-0.7
	c0-0.3-0.2-0.4-0.3-0.7c-0.2-0.3-0.3-0.4-0.3-0.6c-0.2-0.1-0.3-0.3-0.5-0.4c-0.2-0.1-0.3-0.3-0.5-0.3c-0.6-0.4-1.2-0.4-1.2-0.4
	s0.2,0,0.3,0.1s0.5,0.3,0.8,0.4c0.2,0.1,0.3,0.3,0.5,0.4c0.2,0.1,0.3,0.3,0.3,0.4c0,0.1,0.2,0.1,0.2,0.3s0.2,0.1,0.2,0.3
	c0.2,0.1,0.2,0.4,0.2,0.6s0.2,0.4,0.2,0.7c0,0.3,0.2,0.4,0.2,0.7c0.2,0.4,0.2,0.9,0.3,1.2c0,0.1,0.2,0.3,0.2,0.4s0.2,0.3,0.2,0.3
	c0.2,0.1,0.2,0.3,0.2,0.3s0-0.1-0.2-0.3C49.1,68.8,49.1,68.6,49.1,68.5"/>
<path class="st1" d="M52.6,80c-0.2-0.3-0.2-0.4-0.3-0.7C52.1,79,52,78.9,52,78.6c-0.2-0.3-0.3-0.6-0.3-0.7c-0.2-0.3-0.2-0.6-0.2-0.9
	c-0.2-0.6,0-1.2,0-1.8c0-0.3,0-0.6-0.2-0.9c0-0.3-0.2-0.6-0.2-0.7c0-0.3-0.2-0.4-0.3-0.6s-0.2-0.3-0.3-0.4c-0.2-0.1-0.2-0.1-0.3-0.1
	h-0.2c0,0,0,0,0.2,0.1c0,0,0.2,0.1,0.2,0.3c0.2,0.1,0.2,0.3,0.2,0.4c0,0.1,0.2,0.4,0.2,0.6c0,0.3,0,0.4,0,0.7c0,0.3,0,0.6,0,0.9
	c0,0.6-0.2,1.2,0,1.9c0,0.3,0.2,0.6,0.3,1c0.2,0.3,0.3,0.6,0.5,0.9c0.2,0.3,0.3,0.4,0.5,0.7c0.2,0.3,0.3,0.4,0.5,0.6
	c0.2,0.4,0.5,0.7,0.6,1c0.2,0.3,0.2,0.4,0.2,0.4s0-0.1-0.2-0.4C52.9,80.9,52.7,80.6,52.6,80"/>
<path class="st1" d="M45.9,74.1c-0.2-0.1-0.2-0.3-0.3-0.4c-0.2-0.1-0.2-0.3-0.3-0.4c-0.2-0.1-0.2-0.3-0.3-0.4c0-0.1-0.2-0.3-0.2-0.6
	c-0.2-0.4-0.2-0.7-0.3-1.2c0-0.1-0.2-0.4-0.2-0.6s-0.2-0.3-0.2-0.4c-0.2-0.3-0.3-0.6-0.3-0.7s0-0.1,0-0.1s0,0.1,0.2,0.3
	c0,0.1,0.2,0.4,0.2,0.7s0.2,0.6,0.2,1c0,0.4,0.2,0.7,0.2,1.2c0,0.1,0.2,0.4,0.2,0.6c0.2,0.1,0.2,0.4,0.3,0.6
	c0.3,0.3,0.5,0.6,0.8,0.9c0.2,0.3,0.5,0.4,0.6,0.4c0.2,0.1,0.3,0.1,0.3,0.1s0-0.1-0.2-0.3C46.4,74.6,46.2,74.4,45.9,74.1"/>
<path class="st1" d="M40.8,64.2C40.8,64.2,40.7,64.2,40.8,64.2C40.7,64.2,40.7,64.2,40.8,64.2C40.7,64.2,40.7,64.2,40.8,64.2
	c-0.2,0-0.2-0.1-0.3-0.1c0-0.1-0.2-0.1-0.2-0.3c-0.2-0.1-0.2-0.3-0.2-0.3s-0.2,0.1-0.2,0.4c0,0.1,0,0.3,0,0.4c0,0.1,0,0.1,0.2,0.3
	c0,0.1,0.2,0.1,0.3,0.3c0.2,0.1,0.3,0.1,0.5,0c0.2,0,0.2-0.1,0.3-0.1c0.2-0.1,0.2-0.3,0.3-0.3c0.2-0.1,0.2-0.4,0.2-0.4
	s-0.2,0-0.3,0.1C41,64,41,64.2,40.8,64.2"/>
<path class="st2" d="M78.3,83.9c-0.2,0.1-0.5,0.3-0.8,0.6s-0.6,0.6-0.9,0.9c-0.3,0.3-0.6,0.7-0.8,1.2c-0.3,0.4-0.5,0.9-0.8,1.5
	c-0.2,0.6-0.5,1-0.6,1.6c-0.2,0.3-0.2,0.6-0.3,0.9c0,0.3-0.2,0.6-0.3,0.9c-0.2,0.6-0.3,1.2-0.6,1.6c-0.2,0.3-0.3,0.4-0.5,0.7
	c-0.2,0.3-0.3,0.4-0.5,0.7c-0.2,0.1-0.3,0.4-0.5,0.6c-0.2,0.1-0.5,0.4-0.6,0.6c-0.3,0.3-0.8,0.7-1.1,1c-0.2,0.1-0.3,0.3-0.5,0.6
	c-0.2,0.1-0.2,0.3-0.3,0.6c-0.2,0.3-0.3,0.6-0.3,0.9s0,0.4,0,0.6c0,0.1,0,0.1,0,0.1v-0.1c0-0.1,0-0.3,0.2-0.6c0-0.3,0.2-0.6,0.5-0.9
	c0.2-0.1,0.2-0.3,0.3-0.4c0.2-0.1,0.3-0.3,0.5-0.4c0.2-0.1,0.3-0.3,0.5-0.4c0.2-0.1,0.3-0.3,0.6-0.4c0.2-0.1,0.5-0.3,0.6-0.6
	c0.2-0.1,0.5-0.4,0.6-0.6c0.3-0.4,0.8-1,0.9-1.5c0.3-0.6,0.5-1.2,0.6-1.8c0.2-0.3,0.2-0.6,0.3-0.9c0.2-0.3,0.2-0.6,0.3-0.9
	c0.2-0.6,0.3-1.2,0.5-1.6c0.2-0.6,0.5-1,0.6-1.5c0.2-0.4,0.5-0.9,0.8-1.2c0.3-0.3,0.5-0.7,0.8-1C78,84.3,78.3,84.2,78.3,83.9
	c0.5-0.3,0.8-0.4,0.8-0.4s0,0-0.2,0.1C78.8,83.6,78.6,83.8,78.3,83.9"/>
<path class="st1" d="M77.4,86.4c-0.2,0.1-0.3,0.3-0.5,0.4c-0.2,0.1-0.3,0.4-0.5,0.6c-0.2,0.1-0.2,0.4-0.3,0.7
	C76,88.5,76,88.6,76,88.9c0,0.3-0.2,0.4-0.2,0.7c0,0.3-0.2,0.4-0.2,0.7c0,0.3-0.2,0.4-0.2,0.7c0,0.1-0.2,0.4-0.2,0.6
	s-0.2,0.3-0.2,0.4c0,0.1-0.2,0.3-0.2,0.3c0,0.1,0,0.1-0.2,0.3v0.1c0,0,0.2-0.1,0.2-0.3s0.2-0.1,0.3-0.3c0-0.1,0.2-0.3,0.2-0.4
	c0-0.1,0.2-0.4,0.3-0.6c0-0.1,0.2-0.4,0.2-0.7c0-0.3,0.2-0.4,0.2-0.7s0.2-0.4,0.2-0.7c0-0.3,0.2-0.4,0.2-0.7
	c0.2-0.1,0.2-0.4,0.3-0.6c0.2-0.1,0.2-0.4,0.3-0.6c0.2-0.1,0.3-0.3,0.3-0.4c0.2-0.1,0.3-0.3,0.3-0.4c0.2-0.1,0.2-0.1,0.3-0.3
	c0.2-0.1,0.2-0.3,0.2-0.3S78,85.8,77.9,86C78,86.1,77.7,86.3,77.4,86.4"/>
<path class="st2" d="M72.6,71C72.6,71,72.6,70.9,72.6,71C72.6,70.9,72.6,70.9,72.6,71"/>
<path class="st2" d="M77.6,70.6C77.6,70.4,77.6,70.4,77.6,70.6C77.6,70.4,77.6,70.4,77.6,70.6"/>
<path class="st2" d="M65.5,79.6c0-0.1,0.2-0.3,0.2-0.4C65.5,79,65.4,79,65.5,79.6"/>
<path class="st2" d="M88.5,64.3C88.5,64.2,88.5,64.2,88.5,64.3C88.5,64.2,88.5,64.2,88.5,64.3"/>
<path class="st2" d="M86.1,49.4c0,0,0,0.3,0,0.6C86.3,49.7,86.3,49.5,86.1,49.4"/>
<path class="st1" d="M64.2,21c-23.2,0-42,18.5-42,41.4s18.8,41.4,42,41.4c8.4,0,16.4-2.4,23.3-7c8.9-5.9,15.1-14.7,17.6-24.9
	c0.8-3.1,1.1-6.2,1.1-9.5C106.2,39.6,87.3,21,64.2,21 M89.8,31.9c1.7,1.3,3.3,3,4.8,4.6c0,0-0.2,0-0.2-0.1c-0.3-0.1-0.5-0.1-0.8-0.3
	c-0.2-0.1-0.5-0.1-0.6-0.3c-0.2-0.1-0.5-0.1-0.6-0.1c-0.8-0.1-1.2-0.3-1.2-0.3s0.5,0.1,1.2,0.4c0.2,0,0.5,0.1,0.6,0.1
	c0.2,0.1,0.5,0.1,0.6,0.3c0.2,0.1,0.5,0.1,0.6,0.3c0.2,0.1,0.5,0.3,0.6,0.4c0.2,0,0.2,0.1,0.3,0.1c0.3,0.3,0.6,0.7,0.9,1l0,0
	c-0.3-0.1-0.5-0.3-0.8-0.3c-0.3-0.1-0.5-0.1-0.8-0.3c-0.3-0.1-0.5-0.1-0.6-0.3c-0.2-0.1-0.5-0.1-0.6-0.1c-0.8-0.1-1.2-0.3-1.2-0.3
	s0.5,0.1,1.2,0.4c0.2,0,0.5,0.1,0.6,0.1c0.2,0.1,0.5,0.1,0.6,0.3c0.2,0.1,0.5,0.1,0.6,0.3c0.2,0.1,0.5,0.3,0.6,0.4
	c0.2,0.1,0.5,0.3,0.6,0.4l0,0c0.2,0.3,0.5,0.6,0.6,0.9c-0.2-0.1-0.3-0.1-0.5-0.3c-0.3-0.1-0.5-0.3-0.8-0.3C95.5,39,95.3,39,95,38.8
	c-0.3-0.1-0.5-0.1-0.6-0.3c-0.2-0.1-0.5-0.1-0.6-0.1c-0.8-0.1-1.4-0.3-1.4-0.3s0.5,0.1,1.2,0.4c0.2,0,0.5,0.1,0.6,0.1
	c0.2,0.1,0.5,0.1,0.6,0.3c0.2,0.1,0.5,0.1,0.8,0.3c0.2,0.1,0.5,0.3,0.6,0.4c0.2,0.1,0.5,0.3,0.6,0.4c0.2,0.1,0.3,0.3,0.5,0.3
	c0.3,0.4,0.6,1,0.9,1.5c-0.2-0.1-0.3-0.1-0.5-0.3c-0.3-0.1-0.5-0.3-0.8-0.4c-0.3-0.1-0.5-0.3-0.8-0.4c-0.3-0.1-0.5-0.3-0.8-0.4
	c-0.3-0.1-0.6-0.1-0.8-0.3c-0.3-0.1-0.5-0.1-0.8-0.3c-0.3-0.1-0.5-0.1-0.8-0.1c-0.9-0.1-1.4-0.3-1.4-0.3s0.6,0.1,1.4,0.4
	c0.2,0,0.5,0.1,0.6,0.3c0.3,0.1,0.5,0.1,0.8,0.3c0.3,0.1,0.5,0.1,0.8,0.3c0.3,0.1,0.5,0.3,0.8,0.4c0.3,0.1,0.5,0.3,0.8,0.4
	c0.2,0.1,0.5,0.3,0.6,0.4c0.2,0.1,0.5,0.3,0.6,0.4c0.2,0.1,0.3,0.3,0.5,0.4c0.2,0.1,0.3,0.3,0.5,0.4l0,0v0.1l-0.2-0.1
	c-0.2-0.1-0.5-0.3-0.6-0.4c-0.3-0.1-0.5-0.3-0.8-0.4c-0.3-0.1-0.5-0.3-0.8-0.4c-0.3-0.1-0.5-0.3-0.8-0.4c-0.3-0.1-0.6-0.1-0.8-0.3
	c-0.3-0.1-0.5-0.1-0.8-0.3c-0.3-0.1-0.5-0.1-0.8-0.1c-0.9-0.1-1.4-0.3-1.4-0.3s0.6,0.1,1.4,0.4c0.2,0,0.5,0.1,0.6,0.3
	c0.3,0.1,0.5,0.1,0.8,0.3s0.5,0.1,0.8,0.3c0.3,0.1,0.5,0.3,0.8,0.4c0.3,0.1,0.5,0.3,0.8,0.4c0.2,0.1,0.5,0.3,0.6,0.4
	c0.2,0.1,0.5,0.3,0.6,0.4c0.2,0.1,0.3,0.3,0.5,0.4l0.2,0.1c0,0.3,0.2,0.4,0.2,0.7c-0.2-0.1-0.2-0.1-0.3-0.3
	c-0.2-0.1-0.3-0.3-0.6-0.4c-0.2-0.1-0.5-0.3-0.6-0.4c-0.3-0.1-0.5-0.3-0.8-0.4c-0.3-0.1-0.5-0.3-0.8-0.4c-0.3-0.1-0.5-0.3-0.8-0.4
	c-0.3-0.1-0.6-0.1-0.8-0.3C94.4,42,94.3,42,94,41.8c-0.3-0.1-0.5-0.1-0.8-0.1c-0.9-0.1-1.4-0.3-1.4-0.3s0.6,0.1,1.4,0.4
	c0.2,0,0.5,0.1,0.6,0.3c0.3,0.1,0.5,0.1,0.8,0.3c0.3,0.1,0.5,0.1,0.8,0.3c0.3,0.1,0.5,0.3,0.8,0.4c0.3,0.1,0.5,0.3,0.8,0.4
	c0.2,0.1,0.5,0.3,0.6,0.4c0.2,0.1,0.5,0.3,0.6,0.4c0.2,0.1,0.3,0.3,0.5,0.4c0.2,0.1,0.3,0.3,0.5,0.4c0.2,0.1,0.2,0.3,0.3,0.3
	l0.2,0.1c0,0.1,0,0.3,0,0.4l0,0c-0.2-0.1-0.3-0.3-0.5-0.4c-0.2-0.1-0.3-0.3-0.6-0.4c-0.2-0.1-0.5-0.3-0.6-0.4
	c-0.3-0.1-0.5-0.3-0.8-0.4c-0.3-0.1-0.5-0.3-0.8-0.4c-0.3-0.1-0.5-0.3-0.8-0.4c-0.3-0.1-0.6-0.1-0.8-0.3c-0.3-0.1-0.5-0.1-0.8-0.3
	s-0.5-0.1-0.8-0.1c-0.9-0.1-1.4-0.3-1.4-0.3s0.6,0.1,1.4,0.4c0.2,0,0.5,0.1,0.6,0.3c0.3,0.1,0.5,0.1,0.8,0.3
	c0.3,0.1,0.5,0.1,0.8,0.3c0.3,0.1,0.5,0.3,0.8,0.4c0.3,0.1,0.5,0.3,0.8,0.4c0.2,0.1,0.5,0.3,0.6,0.4c0.2,0.1,0.5,0.3,0.6,0.4
	c0.2,0.1,0.3,0.3,0.5,0.4c0.2,0.1,0.3,0.3,0.5,0.4c0.2,0.1,0.2,0.3,0.3,0.3c0.2,0.1,0.3,0.3,0.3,0.3l0,0c0,0.1,0,0.3,0,0.4l-0.2-0.1
	c-0.2-0.1-0.3-0.3-0.5-0.4c-0.2-0.1-0.3-0.3-0.6-0.4c-0.2-0.1-0.5-0.3-0.6-0.4c-0.3-0.1-0.5-0.3-0.8-0.4c-0.3-0.1-0.5-0.3-0.8-0.4
	c-0.3-0.1-0.5-0.3-0.8-0.4c-0.3-0.1-0.6-0.1-0.8-0.3c-0.3-0.1-0.5-0.1-0.8-0.3S93.5,44,93.2,44c-0.9-0.1-1.4-0.3-1.4-0.3
	s0.6,0.1,1.4,0.4c0.2,0,0.5,0.1,0.6,0.3c0.3,0.1,0.5,0.1,0.8,0.3c0.3,0.1,0.5,0.1,0.8,0.3c0.3,0.1,0.5,0.3,0.8,0.4
	c0.3,0.1,0.5,0.3,0.8,0.4c0.2,0.1,0.5,0.3,0.6,0.4c0.2,0.1,0.5,0.3,0.6,0.4c0.2,0.1,0.3,0.3,0.5,0.4c0.2,0.1,0.3,0.3,0.5,0.4
	c0.2,0.1,0.2,0.3,0.3,0.3c0.2,0.1,0.3,0.3,0.3,0.3l0,0c0,0.3,0,0.4-0.2,0.6c0,0,0,0-0.2-0.1c-0.2-0.1-0.2-0.3-0.3-0.3
	c-0.2-0.1-0.3-0.3-0.5-0.4c-0.2-0.1-0.3-0.3-0.6-0.4c-0.2-0.1-0.5-0.3-0.6-0.4c-0.3-0.1-0.5-0.3-0.8-0.4c-0.3-0.1-0.5-0.3-0.8-0.4
	c-0.3-0.1-0.5-0.3-0.8-0.4c-0.3-0.1-0.6-0.1-0.8-0.3c-0.3-0.1-0.5-0.1-0.8-0.3c-0.3-0.1-0.5-0.1-0.8-0.1c-0.9-0.1-1.4-0.3-1.4-0.3
	s0.6,0.1,1.4,0.4c0.2,0,0.5,0.1,0.6,0.3c0.3,0.1,0.5,0.1,0.8,0.3c0.3,0.1,0.5,0.1,0.8,0.3c0.3,0.1,0.5,0.3,0.8,0.4
	c0.3,0.1,0.5,0.3,0.8,0.4c0.2,0.1,0.5,0.3,0.6,0.4c0.2,0.1,0.5,0.3,0.6,0.4c0.2,0.1,0.3,0.3,0.5,0.4c0.2,0.1,0.3,0.3,0.5,0.4
	c0.2,0.1,0.2,0.3,0.3,0.3l0,0c-0.6,0-1.5-0.6-2.7-1.2l-0.3-0.1c-1.8-1-3.2-1.3-4.1-0.9c-0.3,0.1-0.5,0.3-0.6,0.4
	c-0.6-0.7-1.2-1.5-1.8-1.9c-3.2-3.1-9.8-5.5-12-6.2C77.1,39,77.1,39,77.1,39c0.2-0.3,2-0.6,3.9-0.4h2.6l-2.4-0.6
	c-3-0.7-5-1.6-6.2-2.4c0.2,0,0.3,0.1,0.5,0.1c0.5,0.1,0.9,0.4,1.5,0.6c0.3,0.1,0.5,0.1,0.8,0.3s0.5,0.1,0.8,0.1s0.5,0.1,0.8,0.1
	c0.2,0,0.5,0.1,0.6,0.1c0.8,0.1,1.4,0.1,1.4,0.1s-0.6-0.1-1.4-0.3c-0.2,0-0.5,0-0.6-0.1c-0.2,0-0.5-0.1-0.8-0.1s-0.5-0.1-0.8-0.3
	c-0.3-0.1-0.5-0.1-0.8-0.3c-0.5-0.1-0.9-0.4-1.4-0.6c-0.2-0.1-0.5-0.3-0.6-0.3c-0.2-0.1-0.5-0.1-0.6-0.3c-0.3-0.1-0.6-0.4-0.8-0.6
	c-0.2-0.1-0.2-0.1-0.3-0.1c-0.2-0.1-0.2-0.3-0.2-0.4v-0.1c0.2,0.1,0.5,0.3,0.6,0.3c0.2,0.1,0.5,0.1,0.6,0.3c0.2,0.1,0.5,0.1,0.6,0.3
	c0.5,0.1,0.9,0.4,1.5,0.6c0.3,0.1,0.5,0.1,0.8,0.3c0.3,0.1,0.5,0.1,0.8,0.1s0.5,0.1,0.8,0.1c0.2,0,0.5,0.1,0.6,0.1
	c0.8,0.1,1.4,0.1,1.4,0.1s-0.6-0.1-1.4-0.3c-0.2,0-0.5,0-0.6-0.1c-0.2,0-0.5-0.1-0.8-0.1s-0.5-0.1-0.8-0.3c-0.3-0.1-0.5-0.1-0.8-0.3
	c-0.5-0.1-0.9-0.4-1.4-0.6c-0.2-0.1-0.5-0.3-0.6-0.3c-0.2-0.1-0.5-0.1-0.6-0.3c-0.3-0.1-0.6-0.4-0.8-0.6L73,32.8
	c0-0.4,0.3-0.9,0.5-1c0.3-0.1,0.6-0.3,0.9-0.4c0.9-0.4,2.1-1,3.5-1.9c1.8-1,3.2-0.3,5,0.6c1.4,0.7,3,1.6,5,1.3
	C89,31.9,89.3,31.9,89.8,31.9 M91.1,57.1c0,0-0.6,1-0.5-2.1c0-3.1-1.1-4.2-1.1-4.2c0.6,1.3,0.8,3,0.8,4.7c0.2,1.9,0.9,3.4,0.9,3.4
	c-0.8-0.3-1.4-3.7-1.4-5.2s-0.8-3-0.8-3c0.5,0.9,0.5,2.5,0.5,4.3c0,1.8,1.4,4.4,1.4,4.4c-0.3-0.3-1.5-0.4-1.7-4
	c-0.2-3.6-1.5-5.2-1.5-5.2c0.2,0.1,1.1,1.9,1.1,4.4c0,2.5,0.8,3.7,0.8,3.7c-1.1-0.9-1.1-1.8-1.7-4.2C87.3,52,86.7,52,86.7,52
	c1.1,1.6,0.6,4.3,0.6,4.3c-1.2-1.2-0.8-3.1-0.8-3.1c-0.9,1.5,0.3,3.3,0.3,3.3c-0.3-0.3-1.8-1.3-1.1-3.4c0.5-1.3,0.5-2.4,0.5-3
	c-0.2,0.4-0.3,1.2-0.8,2.5c-0.8,2.2,0.3,3.4,0.3,3.4c-1.2-1.2-0.9-3.1-0.3-4.7c0.6-1.6,0.2-2.8,0.2-2.8s0.2,1.2-0.6,2.5
	c-1.2,2.8-0.2,4.6-0.2,4.6c-0.3-0.1-1.4-2.1-0.2-5.5c0.9-2.7,0.3-4.4,0-5c0.2,0.3,0.3,1-0.2,2.7c0.3-1.2,0.2-2.2,0-2.8
	c0,0,0.2,0,0.2,0.1l0,0l0,0c0.5,0.3,0.9,0.6,1.5,0.9c1.1,0.7,2,1.5,2.9,2.2c0.3,0.4,2.7,3.7,2.7,7c-0.5-0.9-0.9-1.8-0.9-1.8
	C91.4,55.4,91.1,57.1,91.1,57.1 M89.1,66.1c0.8,1.8-0.2,2.5-0.2,2.5c0.6-1.2-0.3-3.1-1.1-4C87,63.7,86.7,63,86.7,63
	c0,0.7,0.9,1.9,1.2,2.4c0.3,0.3,0.8,1.3,0.6,2.5c0,1.2-1.1,1.8-1.1,1.8c0.6-0.4,0.5-2.2,0.3-3.3c-0.2-1-1.5-2.8-2.1-3.6
	c-0.3-0.4-0.5-1.3-0.5-1.8c0.6,0.6,1.5,1.3,2.9,1.9c1.4,0.6,2,1.9,2.1,3.3c-0.2,0.4-0.2,0.7-0.2,0.7c0-0.6-0.2-0.6-0.8-1.6
	c-0.5-0.6-0.5-0.9-0.6-1C88.5,64.6,88.4,64.5,89.1,66.1 M84.9,70.6c-0.5,0.7-1.1,1.2-1.1,1.2c0-0.6-0.5-0.7-0.5-0.7
	c0.5,1.2-0.3,1.5-0.3,1.5c0.6-1.8-1.7-3.3-1.7-3.3c0.3,0.1,1.2,1.5,1.2,2.5c-0.2,1-0.6,0.6-0.6,0.6c0.3-2.1-1.8-3.3-1.8-3.3
	c2.1,3.6-0.5,5.6-0.5,5.6c0.2-0.4-0.5-1.2-0.8-1.9c-0.3-0.6-0.3-1.2-0.3-1.3c0,1.9,0.2,1.6,0.5,2.5c0.3,0.9-0.3,1.5-0.3,1.5
	c0.5-0.7-0.8-2.4-1.2-3.6c-0.3-0.7-0.3-1.2-0.3-1.3c-0.6,1.8,0.8,3.1,0.9,4.3c0.2,1-0.6,1.2-0.6,1.2c0.6-1.2-0.5-2.5-0.9-3.9
	c-0.6-1.3-0.2-2.7-0.2-2.7c-0.6,1.3-0.3,2.8,0.5,4.4c0.8,1.6,0.2,1.8,0.2,1.8c0.2-1.2-1.4-3.1-1.7-4.3c-0.3-1.2,0.2-2.4,0.2-2.4
	c-1.5,1.8-0.5,4.2,0.3,5.5c0.8,1.5,0,2.4,0,2.4c0.2-0.4-0.2-0.7-0.2-0.7c0,0.9-0.5,0.9-0.5,0.9c0.3-1.8-0.6-2.8-1.2-4
	c-0.8-1.2-0.5-2.1-0.5-2.1c-0.5,1.8,0.8,3,1.2,4.3s-0.5,2.2-0.5,2.2c0.5-1-0.2-2.2-1.1-4c-0.9-1.5-0.8-2.4-0.8-2.7
	c-0.5,1.8,0.9,3.7,1.4,5s-0.5,1.8-0.5,1.8c0.2-1.2-0.5-2.4-1.2-3.7c-0.8-1.5-0.3-1.8-0.3-1.8s-0.8-0.3,0,2.8c0.8,3.1,0.2,3,0.2,3
	c0.3-1.5-0.6-2.4-0.6-2.4c0.6,3.6-0.2,3.7-0.2,3.6c0,0,0-0.7-0.3-1.8c-0.3-1.2-0.3-2.2,0.2-3.7c0.3-1.5,0-2.4,0-2.4
	c0,0.3,0.2,1.2-0.3,2.4c-0.5,1.2-0.5,1.6-0.2,4c0.5,2.4-0.5,2.1-0.5,2.1c0.2-0.3,0.2-1.2-0.3-2.5c-0.5-1.3-0.2-3,0.3-4
	c0.3-1,0.3-2.5,0.3-2.5c-0.2,2.1-1.2,3.6-1.2,3.6c-0.2-0.9,0.9-4.9,0.9-4.9c-0.6,0.6-1.5,2.8-2.1,4c-0.6,1.2-0.5,3.4-0.2,4.6
	c0.3,0.9,0.2,2.7,0.2,3.1l0,0v0.3l0,0l0,0c0-1.8-0.2-3.1-0.8-5.2c-0.6-2.1,0.5-4.7,0.5-4.7c-1.2,1.8-1.4,5.2-0.6,6.8
	c0.6,1.3,0.6,3.3,0.5,4c0-0.6-0.3-1.5-0.9-3c-0.8-1.8-0.5-3-0.5-3c-0.3,0.9-0.5,2.5,0.3,4.6c0.9,2.1,0.2,3,0.2,3
	c0.3-1-0.3-1.9-0.9-3.4c-0.2-0.4-0.3-0.7-0.3-1c-0.2,0.4-0.2,1.2,0.5,2.4c0.9,1.9-0.3,3-0.3,3c0.6-0.7,0.2-2.5-0.6-4.3
	c-0.8-1.9-0.8-2.4-0.8-2.4c-0.3,0.9,0.3,2.7,0.9,4.9c0.6,2.1-0.9,2.4-0.9,2.4c0.3-0.4,0.3-1,0.3-1.5c0-0.7-0.2-1.8-0.6-3
	c-1.1-2.7-0.5-4.3-0.2-4.9c0.2,0.3,0.3,0.6,0.6,0.9c0,0.1,0.2,0.1,0.2,0.3c0.2,0.6,0.2,1.8,0.2,1.8c0.8-1.2,0.8-1.8,0.3-4.6
	c-0.6-2.8,2.4-4.4,3.2-5.2c0.8-0.7,0.9-2.8,0.9-2.8c-0.2,0.4-0.6,2.2-2.4,3.1s-2.3,2.7-2.3,2.7s0.6-1.8,1.5-3
	c1.8-1.2,2.4-3.1,2.7-3.9c-0.3,1-1.5,2.5-2.9,3.7c-1.7,1.3-1.8,3.4-1.8,3.4c-0.3-0.9,0.2-3.1,1.5-4c1.4-0.9,1.8-2.7,1.8-2.7
	c-0.5,0.7-0.2,1-2,2.2c-2,1.2-2,4.4-2,4.4c-0.3-1-0.3-1.5,0-2.5s0.6-2.4,3.3-4c2.7-1.5,2-4.4,2-4.4c0.3,1.5-0.9,1.9-0.9,1.9
	c0.5-1.3-0.2-1.9-0.2-1.9c0.3,1.2-0.2,1.6-0.3,1.8c0-1-0.3-2.2-0.6-3.1c-0.3-0.6-0.3-1.2,0-1.5c0.5-0.6,1.5-0.7,2.3-0.7
	c0.2,0,0.5,0,0.5,0c0.5,0.3,0.9,0.7,1.4,1.2c2.3,1.8,2,3.6,1.8,3.7l0,0V63v0.1c0.5,4,2.3,4.9,3.6,5c0.2,0,0.3,0,0.3,0
	c0.9,0,1.7-0.3,2.1-0.9c1.1-1.3,0.6-3.6,0.6-3.6l-0.6,0.1c0,1-0.5,1.6-0.9,1.9c-0.3,0.1-0.8,0.1-0.9-0.1c-0.2-0.1-0.9-1,0-3.3
	c0.3-0.9,0.5-1.8,0.5-2.4c0,0,0,0,0.2,0c0.2,0.6,1.1,3.3,0.6,4.3c0,0,0.6-0.7,0.3-2.5c-0.2-1.2-0.3-1.6-0.2-1.9
	c0.3,0,0.6-0.1,0.9-0.1c0,0.4,0,1.2,0.6,1.9c0.8,1,1.1,1.5,1.2,2.4c0.2,0.9,0.3,1.8,0.2,2.2c0,0,0.6-1.5-0.2-3.3
	c-0.8-1.6-1.4-2.7-1.4-3.4c0.2-0.1,0.3-0.1,0.5-0.3c0,0.6,0.2,1.9,0.8,2.8c0.9,1.3,2.1,3.6,1.4,4.3c0,0,1.2-0.9,0.3-2.5
	c-1.2-2.1-1.8-4-1.5-5.3c0-0.1,0.2-0.1,0.2-0.3c-0.2,0.7-0.2,1.6,0.5,2.2c0.9,1.2,1.7,2.2,1.7,3.6c0,0,0.2-1.5-0.6-2.8
	c-0.6-1-0.8-2.4-0.6-3.1c0,0,0,0.1,0.2,0.1c0.2,0.1,0.2,0.1,0.3,0.3c-0.2,0.4-0.3,1.2,0.3,2.2c0.9,1.5,0.9,1.2,1.1,1.8
	c0,0,0.2-0.6-0.5-1.6c-0.5-0.7-0.3-1.5-0.2-1.8c0.3,0.1,0.8,0.3,1.2,0.3c0,0.1,0,0.3,0,0.4c-0.3,0.6-0.3,1.5,0,2.5
	c0.3,1.3,0.9,1.2,2.3,3.9c1.4,2.7-0.8,3.3-0.8,3.3c-2.9-0.3-1.1-2.7-1.1-2.7C82.2,68.9,84.9,70.6,84.9,70.6 M58.3,97.2
	c-1.2-0.1-2.1-0.9-2.6-1.3c0-0.1,0-0.3,0-0.6c0.6,0.4,1.7,1.2,2.9,1.3C58.4,96.9,58.3,97.1,58.3,97.2 M55.7,94.9c0-0.1,0-0.4,0-0.6
	c0.6,0.6,1.7,1.5,3.2,1.6c-0.2,0.1-0.2,0.3-0.3,0.4C57.2,96.2,56.2,95.3,55.7,94.9 M56.9,82.1c0.5,0.7,0.9,1.6,1.2,2.5
	c0.2,0.6,0.8,0.9,1.2,1c0.3,0.1,0.8,0.3,0.8,0.6c0,0.1,0,0.3-0.2,0.4c-1.8-0.7-2.9-2.7-3.2-3.1C56.9,83,56.9,82.6,56.9,82.1
	 M60.4,89.4c0.2,0.1,0.5,0.1,0.6,0.1l0,0c-0.2,0.3-0.2,0.7-0.3,1c-0.2,0.6-0.3,1.2-0.5,1.8c-0.3-0.6-0.9-1.8-0.5-3.4
	C59.9,89.1,60.2,89.2,60.4,89.4 M59.8,87.3c-0.2,0.1-0.2,0.4-0.3,0.6c-1.5-0.7-2.6-2.1-2.9-2.7c0-0.3,0-0.4,0.2-0.6
	C57.4,85.2,58.3,86.6,59.8,87.3 M59.3,88.2c-0.2,0.3-0.2,0.4-0.2,0.7c-1.4-0.6-2.3-1.9-2.7-2.5v-0.1c0-0.1,0-0.3,0.2-0.4
	C57.1,86.6,58.1,87.6,59.3,88.2 M59.2,89.4c0,0.1,0,0.3,0,0.4c-1.5-0.6-2.4-1.8-2.7-2.2c0-0.3,0-0.4,0.2-0.6
	C56.9,87.8,57.8,88.9,59.2,89.4 M59,90.4c0,0.1,0,0.4,0,0.6c-1.5-0.4-2.6-1.6-3-2.1c0-0.1,0-0.3,0-0.6C56.8,88.9,57.7,90,59,90.4
	 M59.3,91.5c0,0.3,0.2,0.4,0.3,0.7c-1.7-0.3-3.2-1.6-3.5-1.9c0-0.3,0-0.4,0.2-0.7C56.8,90.1,57.8,91.2,59.3,91.5 M59.8,92.6
	c0.2,0.1,0.2,0.3,0.3,0.3c0,0.1-0.2,0.3-0.2,0.3c-2-0.1-3.6-1.6-4.1-2.1c0-0.1,0-0.4,0-0.6C56.6,91.3,58.1,92.5,59.8,92.6
	 M59.8,93.8c-0.2,0.3-0.2,0.4-0.3,0.6c-1.8-0.3-3.3-1.5-3.8-1.9c0-0.1,0-0.4,0-0.6C56.5,92.5,58,93.7,59.8,93.8 M59.3,94.9
	c-0.2,0.1-0.2,0.3-0.3,0.6c-1.7-0.1-2.9-1.3-3.3-1.8c0-0.1,0-0.3,0-0.6C56.5,93.7,57.7,94.6,59.3,94.9 M66.6,89.4
	c-0.2,0.1-0.3,0.4-0.5,0.6c-0.6,0.9-1.2,2.1-3.5,3.9c-1.8,1.5-3,2.8-4.1,4C60.4,93.7,64.2,90.9,66.6,89.4 M69.1,50.4
	c-0.3,0.4-0.8,0.7-1.4,0.9c-0.3,0-0.6,0-0.8-0.1c0.2-0.1,0.3-0.1,0.5-0.3c0.2-0.1,0.5-0.3,0.6-0.4c0.3-0.3,0.5-0.6,0.8-1
	c0.3-0.4,0.6-0.9,0.9-1c0.9-0.3,1.1-1,1.1-1.6c0-0.1,0-0.4-0.2-0.6c-0.2-0.4-0.2-1.3,0-1.6c0.2-0.3,0.8-1,1.2-1.8l0,0
	c0.2,0,0.3,0,0.6-0.1c0.2,0,0.5,0,0.8,0s0.6,0,0.9,0c0.2,0,0.3,0,0.5,0c0.2,0,0.3,0,0.5,0.1c0.3,0.1,0.6,0.1,0.8,0.3
	c0.5,0.1,0.8,0.3,0.8,0.3s-0.3-0.1-0.6-0.4c-0.2-0.1-0.5-0.1-0.8-0.3c-0.2,0-0.3-0.1-0.5-0.1c-0.2,0-0.3-0.1-0.5-0.1
	c-0.3-0.1-0.6-0.1-0.9-0.1s-0.6,0-0.8,0h-0.2c0,0,0-0.1,0.2-0.1c0.2,0,0.3,0,0.5,0c0.3,0,0.5,0,0.8,0s0.6,0,0.9,0.1
	c0.2,0,0.3,0,0.5,0.1c0.2,0,0.3,0.1,0.5,0.1c0.3,0.1,0.6,0.1,0.8,0.3c0.5,0.3,0.8,0.4,0.8,0.4s-0.3-0.1-0.6-0.4
	c-0.2-0.1-0.5-0.3-0.8-0.4c-0.2,0-0.3-0.1-0.5-0.1c-0.2,0-0.3-0.1-0.5-0.1c-0.3-0.1-0.6-0.1-0.9-0.3c-0.3,0-0.6-0.1-0.8-0.1H73
	c0-0.1,0.2-0.1,0.2-0.3c0.2,0,0.5,0,0.8,0.1c1.8,0.3,5.3,0.7,9,2.5c0,0,0.2,0.1,0.2,0.4c-0.2,0-0.2-0.1-0.3-0.1
	C82.7,44,82.5,44,82.2,44c-0.2,0-0.3-0.1-0.6-0.1c-0.2,0-0.3,0-0.5-0.1c-0.3,0-0.5,0-0.5,0s0.2,0,0.5,0.1c0.2,0,0.3,0.1,0.5,0.1
	c0.2,0,0.3,0.1,0.5,0.1c0.2,0.1,0.3,0.1,0.5,0.3c0.2,0.1,0.3,0.1,0.3,0.3c0.2,0.1,0.3,0.3,0.3,0.3c0,0.1,0,0.1,0,0.3
	c-0.2,0-0.2-0.1-0.3-0.1c-0.2-0.1-0.3-0.1-0.6-0.1c-0.2,0-0.3-0.1-0.6-0.1c-0.2,0-0.3,0-0.5-0.1c-0.3,0-0.5,0-0.5,0s0.2,0,0.5,0.1
	c0.2,0,0.3,0.1,0.5,0.1c0.2,0,0.3,0.1,0.5,0.1c0.2,0.1,0.3,0.1,0.5,0.3c0.2,0.1,0.3,0.1,0.3,0.3c0,0,0,0,0.2,0.1c0,0.1,0,0.1,0,0.3
	c0,0,0,0-0.2,0c-0.2,0-0.3-0.1-0.5-0.3c-0.2-0.1-0.3-0.1-0.6-0.1c-0.2,0-0.3-0.1-0.6-0.1c-0.2,0-0.3,0-0.5-0.1c-0.3,0-0.5,0-0.5,0
	s0.2,0,0.5,0.1c0.2,0,0.3,0.1,0.5,0.1c0.2,0,0.3,0.1,0.5,0.1c0.2,0.1,0.3,0.1,0.5,0.3c0.2,0.1,0.3,0.1,0.3,0.3
	c0.2,0.1,0.2,0.1,0.3,0.3c0,0.1,0,0.3-0.2,0.3L82.4,47c-0.2,0-0.3-0.1-0.5-0.3c-0.2-0.1-0.3-0.1-0.6-0.1c-0.2,0-0.3-0.1-0.6-0.1
	c-0.2,0-0.3,0-0.5-0.1c-0.3,0-0.5,0-0.5,0s0.2,0,0.5,0.1c0.2,0,0.3,0.1,0.5,0.1c0.2,0,0.3,0.1,0.5,0.1c0.2,0.1,0.3,0.1,0.5,0.3
	c0.2,0.1,0.3,0.1,0.3,0.3c0.2,0.1,0.2,0.1,0.3,0.3c0,0.1-0.2,0.3-0.2,0.3s-0.2-0.1-0.3-0.1c-0.2,0-0.3-0.1-0.5-0.3
	c-0.2-0.1-0.3-0.1-0.6-0.1c-0.2,0-0.3-0.1-0.6-0.1c-0.2,0-0.3,0-0.5-0.1c-0.3,0-0.5,0-0.5,0s0.2,0,0.5,0.1c0.2,0,0.3,0.1,0.5,0.1
	c0.2,0,0.3,0.1,0.5,0.1c0.2,0.1,0.3,0.1,0.5,0.3c0.2,0.1,0.3,0.1,0.3,0.3c0.2,0.1,0.3,0.1,0.3,0.3c0,0.1-0.2,0.1-0.2,0.3l-0.2-0.1
	c-0.2,0-0.3-0.1-0.5-0.3C80.7,48,80.6,48,80.3,48c-0.2,0-0.3-0.1-0.6-0.1c-0.2,0-0.3,0-0.5-0.1c-0.3,0-0.5,0-0.5,0s0.2,0,0.5,0.1
	c0.2,0,0.3,0.1,0.5,0.1c0.2,0,0.3,0.1,0.5,0.1c0.2,0.1,0.3,0.1,0.5,0.3c0.2,0.1,0.3,0.1,0.3,0.3c0.2,0.1,0.2,0.1,0.2,0.1
	c0,0.1-0.2,0.1-0.2,0.3l0,0c-0.2,0-0.3-0.1-0.5-0.3c-0.2-0.1-0.3-0.1-0.6-0.1c-0.2,0-0.3-0.1-0.6-0.1c-0.2,0-0.3,0-0.5-0.1
	c-0.3,0-0.5,0-0.5,0s0.2,0,0.5,0.1c0.2,0,0.3,0.1,0.5,0.1c0.2,0,0.3,0.1,0.5,0.1c0.2,0.1,0.3,0.1,0.5,0.3c0.2,0.1,0.3,0.1,0.3,0.3
	c0,0,0,0,0.2,0.1c-0.2,0.3-0.2,0.4-0.3,0.7c-0.2-0.1-0.3-0.3-0.5-0.4c-0.2,0-0.2-0.1-0.3-0.3c-0.2,0-0.2-0.1-0.3-0.1
	c-0.2-0.1-0.5-0.3-0.6-0.3c-0.2-0.1-0.5-0.1-0.6-0.3c-0.3-0.1-0.6-0.1-0.6-0.1s0.2,0.1,0.6,0.3c0.2,0,0.3,0.1,0.6,0.3
	c0.2,0.1,0.5,0.3,0.6,0.4l0.3,0.3c0.2,0.1,0.2,0.1,0.3,0.3c0.2,0.1,0.3,0.3,0.5,0.4c0.2,0.1,0.2,0.3,0.2,0.3c0,0.4,0.2,1,0.5,1.9
	c0.5,1.3,0.3,2.5,0,3.1c-0.8,1-1.8,2.1-3.3,2.1c-2.4,0.1-3.6-2.4-4.5-4.4c-0.2-0.3-0.3-0.6-0.5-0.7c-0.3-0.9-0.8-2.1-0.5-2.5l0,0
	l0,0c0,0,0,0,0-0.1c0.6-0.6,0.8,0.1,0.9,0.3c0,0-0.3,1.9,2.1,3.4c0,0-2.3-2.4-1.5-3.4c0,0,1.2,1.6,3.2,0.6c0,0-2.4,0.1-2.4-0.9
	s1.1-0.6,2.7-0.7l0,0c0.2,0,0.2,0,0.3,0c0,0-1.7-1-1.7-1.3c0,0,0-0.6,3-0.3c0,0-0.5-1.3-1.1-1.8c-0.6-0.3-2-0.6-2.7-0.6
	s-2.3-0.9-2.6-1.2c-0.3-0.3-0.9-0.9-1.1,0l0,0c0,0.4,0.2,0.9,0.3,1.5c0.2,0.4,0.3,0.9,0.3,1.2c0,0.3,0,0.7-0.3,1l0,0l0,0
	c-0.2,0.1-0.3,0.4-0.5,0.6h-0.2l0,0c-0.2,0.1-0.5,0.3-0.6,0.6c-1.4,0.9-1.5,2.1-1.5,2.2V52l0,0l0,0l0.2,0.1c0.3,0.1,0.8,0.6,0.8,0.9
	c0,0.1,0,0.3-0.2,0.4c-0.3,0.3-0.5,0.1-0.9-0.1h-0.2c-0.3-0.3-0.8-0.3-1.1-0.1c-0.2,0-0.3,0-0.5,0.1l0,0c-0.5,0-0.8-0.3-0.9-0.7
	C69.1,51.9,69.1,50.4,69.1,50.4 M71.5,50.1c0.2,0,0.3,0,0.5,0.1c0.2,0,0.3,0.1,0.3,0.1l0.2,0.1c0,0.1,0,0.1,0,0.3l0.3,0.6
	c-0.9-0.9-1.8-0.9-2.4-0.9c0-0.1,0.2-0.3,0.2-0.4l0,0C70.8,50.1,71.2,50.1,71.5,50.1 M70.6,49.8c0.2-0.1,0.3-0.3,0.5-0.4l0,0
	c0.3,0,0.6,0,0.9,0.1c0.2,0,0.3,0,0.5,0.1c0.2,0,0.2,0,0.3,0.1c-0.2,0.3-0.2,0.6-0.2,0.7c0,0,0-0.1-0.2-0.1
	c-0.2-0.1-0.2-0.1-0.3-0.3c-0.2,0-0.3-0.1-0.5-0.1C71.2,49.8,70.9,49.8,70.6,49.8 M72.7,49.5c0,0-0.2-0.1-0.3-0.1
	c-0.2,0-0.3-0.1-0.5-0.1c-0.3,0-0.5,0-0.6,0l0,0c0.2-0.1,0.3-0.3,0.5-0.3c0.2,0,0.3,0,0.6,0c0.2,0,0.3,0,0.5,0.1l0,0
	C72.9,49.2,72.7,49.4,72.7,49.5 M72.4,48.5c-0.2,0-0.3,0-0.3,0c0.2-0.1,0.3-0.3,0.3-0.4c0.2,0,0.3,0,0.5,0c0.2,0,0.2,0,0.3,0
	c0,0.1-0.2,0.3-0.2,0.4l0,0C72.9,48.6,72.7,48.6,72.4,48.5 M72.9,47.3c0-0.1,0-0.3,0.2-0.4c0.2,0,0.3,0,0.6,0c0,0.1,0,0.3,0,0.3l0,0
	C73.3,47.3,73,47.3,72.9,47.3 M73.5,47.6c0,0.1-0.2,0.3-0.2,0.4l0,0c-0.2,0-0.2,0-0.3-0.1c-0.2,0-0.3,0-0.3,0
	c0.2-0.1,0.2-0.3,0.2-0.4C73,47.6,73.2,47.6,73.5,47.6 M73,46.7L73,46.7v-0.3c0,0,0,0,0.2,0c0.2,0,0.3,0,0.5,0c0,0.1,0,0.3,0,0.4
	C73.3,46.5,73.2,46.7,73,46.7 M73.2,46.1C73,46.1,73,46.1,73.2,46.1C73,46,73,45.8,73,45.7c0.2,0,0.3,0,0.5,0c0,0.1,0,0.1,0,0.3
	C73.3,46,73.2,46,73.2,46.1 M72.9,45.5c0-0.1,0-0.3-0.2-0.3c0.2,0,0.3,0,0.5,0c0,0.1,0,0.1,0.2,0.3C73.2,45.4,73,45.4,72.9,45.5
	 M72.7,44.9c-0.2-0.3-0.2-0.6-0.2-0.9c0.2,0.1,0.3,0.4,0.6,0.7C73,44.9,72.9,44.9,72.7,44.9 M76,48.2L76,48.2c0.2,0,0.5,0.4,0.9,0.6
	c0.2,0,0.3,0.1,0.5,0.1c-0.2,0-0.2,0-0.3-0.1l0,0c-0.5-0.1-0.9-0.1-1.2-0.1C75.7,48.8,75.4,48.5,76,48.2 M68.1,53.1
	c0.2,0,0.3,0,0.3,0c0.3,0,0.5-0.1,0.6,0h0.2c0.2,0.1,0.5,0.4,0.9,0.4c0.2,0.1,2.4,0.9,3.3,2.4c0.3,0.6,0.9,0.9,1.5,1.2
	c0.3,0.1,0.6,0.3,0.9,0.6c0.8,0.9,1.2,2.1,1.1,3c-0.2,1-1.4,2.4-1.4,2.4c-0.8,1.8,0.3,3.4,0.3,3.4c-2.1-1.5-1.4-3.1-0.6-4.9
	c0.9-1.8-0.5-3-0.5-3c1.2,1.9-0.8,4-0.8,4c0.8-2.2,0.6-3.1,0-4.3c-0.6-1.2-0.6-1.6-0.6-1.5c0,0.1-0.2,0.6,0.5,1.9
	c0.6,1.3,0,2.4,0,2.4c0-0.6,0.2-0.4-0.8-1.9c-0.9-1.5-0.8-2.1-0.8-2.1c-0.3,1.2,0.2,1.8,0.2,1.8c-1.7-1.2-1.8-3.3-1.8-3.3
	c-0.5,0.9-0.2,1.9-0.2,1.9c-0.8-1-0.8-3.1-0.8-3.1c-0.5,0.6-0.2,2.2-0.2,2.2c-1.1-0.7-1.4-1.9-1.4-1.9c-0.2,0.6-0.2,0.9-0.2,1.2
	c-0.5-0.6-0.8-1.2-0.6-1.8C67.5,53.5,67.9,53.2,68.1,53.1 M67.6,56.8C67.6,56.6,67.8,56.6,67.6,56.8c0.3,0,0.6,0.3,1.1,0.7
	c-0.5,0-0.9-0.1-1.1-0.4C67.6,56.8,67.6,56.8,67.6,56.8 M86.4,45.4c-5.3-3.7-10.2-4.3-12.6-4.7c-0.5,0-0.9-0.1-1.1-0.1
	c-0.3,0-0.3-0.1-0.3-0.3c-0.2-0.1,0-0.4,0.2-0.9l0,0c0.3,0,0.8,0.1,1.4,0.1c1.2,0.1,2.7,0.4,3.5,0.7c1.4,0.4,9,3,12.3,6.2
	c0.6,0.6,1.2,1.3,2,2.2c0.8,0.9,1.4,1.8,2,2.7C91.7,49.5,89.1,47.3,86.4,45.4 M64.2,22.8c9.3,0.4,17.9,3.1,24.8,8.4
	c-0.2,0-0.2,0-0.3,0c-1.8,0.1-3.3-0.6-4.7-1.3c-1.8-0.9-3.5-1.8-5.6-0.6c-1.4,0.7-2.4,1.3-3.5,1.9c-1.7,0.9-2.9,1.5-3,2.4
	c0,0.4,0,1,0,1.5c0,0.7,0.2,1.5-0.2,2.1c-0.5,1-0.5,1.3-0.2,1.6l0,0V39l0,0c-0.2,0.4-0.3,0.9-0.2,1.3c0,0.1,0.2,0.3,0.5,0.4
	c-0.8,1-1.8,2.8-2.1,3.1c-0.5,0.4-0.3,1.3-0.2,2.1c0,0.1,0,0.4,0,0.6c0,0.6-0.2,0.9-0.6,1c-0.5,0.1-0.9,0.7-1.2,1.3
	c-0.2,0.3-0.5,0.6-0.6,0.9c-0.2,0.1-0.3,0.3-0.5,0.3c-0.5,0.3-1.1,0.6-0.9,1.3c0.2,0.6,0.5,1.2,1.1,1.3c-0.2,0.3-0.5,0.6-0.5,1
	c-0.2,0.6,0.2,1.3,0.6,2.1c-0.2,0.1-0.3,0.3-0.5,0.4c0,0.1-0.2,0.4,0.2,0.7c0.2,0.1,0.3,0.3,0.5,0.4c-0.5,0.1-0.9,0.3-1.2,0.7
	c-0.5,0.4-0.5,1.2,0,2.1c0.6,1.6,0.8,3.4,0.3,3.7c-0.3,0.1-1.1-0.1-2-0.9l-0.3-0.4v0.6c0,0.1,0,1.8,0.9,2.2c0,0,0,0-0.2,0
	c-1.2,1-4.5,3.9-1.4,9.6c-0.3,0.6-1.4,2.5-0.2,5.8c0.9,2.1,0.6,3.1,0.3,3.6c-0.3,0.4-0.8,0.4-0.9,0.4c-0.3,0-0.6-0.1-0.9-0.4
	c-0.3-0.4-0.3-0.9-0.2-1.6l0.6-1.9l-1.2,1.6c0,0-1.2,1.6-0.6,3c0.3,0.6,0.8,1,1.5,1.3c-0.3,0.3-0.6,0.9-0.9,1.8l0,0
	c-0.2,0-0.3,0-0.6,0c-0.2-0.1-0.5-0.3-0.5-0.7l0,0l0,0c0,0,0,0,0-0.1c0.2-0.3,0.2-0.4,0.3-0.7c0.2-0.4,0.3-0.7,0.2-1
	c-0.2-0.4-0.6-0.7-1.1-0.9c-0.5-0.1-0.8-0.4-0.9-0.7c-0.6-1.9-2.3-4.9-4.4-4.6h-0.2c-0.5-0.9-1.2-2.2-1.4-3.1
	c-0.2-0.6-0.3-1.3-0.3-2.1c-0.2-1.3-0.5-2.8-1.1-4.6c-0.5-1.2-0.8-2.4-1.1-3.6c-0.3-1.6-0.8-3-1.4-3.6c-0.5-0.4-1.2-0.9-2.1-1.3
	c-1.1-0.6-2.1-1.2-2.7-1.9c-0.6-0.9-1.1-1-1.4-1.2v-3.7l-0.2-0.1c0,0-0.6-0.3-1.4-0.4c-0.5-0.4-0.5-1-0.3-1.5
	c0.2-0.6,0.9-1.2,1.7-1.2c1.1-0.1,2.1,0.4,2.9,1.5c1.7,2.4,3.2,3.6,5.1,3.9c0.9,0.6,2,0.9,3,0.9c0.9,0,1.8-0.1,3-0.7
	c1.8-1,1.7-2.2,1.4-2.7c-0.5-1-2-1.8-3-1.3c0,0-0.2,0-0.3,0c-1.7,0.3-3,0.4-4.2,0.3c-0.9-0.4-1.8-1-2.4-1.8
	c-0.6-0.9-0.6-1.8,0.2-2.8c0.5-0.7,1.2-1.2,1.8-1.3c0.2,0,0.2,0,0.2,0s2.7,0.7,4.8,2.4c1.7,1.2,4.5,2.2,6.6,1.8
	c1.2-0.3,2-0.9,2.4-1.9c0,0,0-0.1,0.2-0.1c2.1-1.2,3.6-3.4,3.6-5.5c0-1.2-0.3-3-2.7-4.3c-4.4-2.4-8.6-0.6-11.7,0.7
	c-0.6,0.3-1.1,0.4-1.5,0.6c-1.7,0.6-3.5,1.9-5.4,3.3c-1.8,1.3-3.8,2.7-5.3,3.3c-1.7,0.6-3.9,0.3-5.3-1c-0.6-0.6-1.1-1.3-1.4-2.1
	c0.2-1.8,1.1-3.4,2-4.2c1.1-0.9,2.4-1.3,6.6-1c0.8,0,1.7,0.1,2.4,0.3c3,0.4,6,0.9,8.6-1.8c2-1.9,2.7-5.9,1.1-8.7
	c-0.2-0.9-0.5-1.6-1.1-2.2c-1.5-1.3-4.1-1.3-5.7-1c2.3-0.9,4.7-1.8,7.2-2.2C55.9,23.7,60.8,22.7,64.2,22.8 M42.2,59.3v3.6
	c-0.6-0.7-1.4-1-2.1-0.9c-0.3,0-0.9,0.4-0.9,1.6c0.2,1.6,0.6,2.1,1.1,2.5c0.2,0.3,0.5,0.4,0.6,0.9c0.2,0.3,0.5,0.6,0.6,0.9
	c0.6,1,1.2,1.9,1.5,3c0.2,0.3,0.2,0.7,0.2,1c0,1,0.2,1.9,1.8,3.7c1.2,1.2,1.8,1.6,2.1,1.8c0.3,0.1,0.6,0.3,0.9,0.9l0.2,0.1
	c-1.8-0.7-5.7-1-8.1-1c-2.3,0-6.2,0.1-8,0.9c0.2-0.1,0.2-0.4,0.3-0.6c0.2-0.3,0.3-0.6,0.5-0.9c0.3-0.4,0.8-1,1.1-1.8
	c0,0,0.2,0,0.3,0.1c0.2,0,0.3,0.1,0.5,0.1c0.2,0,0.3,0.1,0.5,0.1c0.2,0,0.5,0.1,0.6,0.1s0.5,0.1,0.8,0.1s0.5,0.1,0.8,0.1
	s0.5,0,0.8,0s0.5,0,0.8,0s0.5,0,0.8,0s0.5,0,0.6,0c0.2,0,0.5-0.1,0.6-0.1c0.8-0.1,1.2-0.3,1.2-0.3s-0.5,0-1.2,0.1
	c-0.2,0-0.5,0-0.6,0c-0.2,0-0.5,0-0.6,0c-0.3,0-0.5,0-0.8,0s-0.5,0-0.8,0s-0.5,0-0.8-0.1c-0.3,0-0.5-0.1-0.8-0.1
	c-0.2,0-0.5-0.1-0.6-0.1S35.2,75,35.1,75s-0.3-0.1-0.5-0.1c-0.2,0-0.3-0.1-0.3-0.1c-0.2,0-0.2-0.1-0.2-0.1c0.2-0.1,0.2-0.3,0.3-0.4
	c0,0,0,0,0-0.1c0.2,0,0.2,0.1,0.3,0.1s0.3,0.1,0.5,0.1c0.2,0,0.5,0.1,0.6,0.1s0.5,0.1,0.8,0.1s0.5,0.1,0.8,0.1s0.5,0,0.8,0
	s0.5,0,0.8,0s0.5,0,0.8,0c0.3,0,0.5,0,0.6,0s0.5-0.1,0.6-0.1c0.8-0.1,1.2-0.3,1.2-0.3s-0.5,0-1.2,0.1c-0.2,0-0.5,0-0.6,0
	s-0.5,0-0.6,0c-0.3,0-0.5,0-0.8,0s-0.5,0-0.8,0s-0.5,0-0.8-0.1c-0.3,0-0.5-0.1-0.8-0.1c-0.2,0-0.5-0.1-0.6-0.1s-0.5-0.1-0.6-0.1
	s-0.3-0.1-0.5-0.1c-0.2,0-0.2-0.1-0.3-0.1c0.2-0.1,0.2-0.3,0.3-0.4c0,0,0.2,0,0.2,0.1c0.2,0,0.3,0.1,0.5,0.1c0.2,0,0.5,0.1,0.6,0.1
	s0.5,0.1,0.8,0.1s0.5,0.1,0.8,0.1s0.5,0,0.8,0s0.5,0,0.8,0s0.5,0,0.8,0c0.3,0,0.5,0,0.6,0s0.5-0.1,0.6-0.1c0.8-0.1,1.2-0.3,1.2-0.3
	s-0.5,0-1.2,0.1c-0.2,0-0.5,0-0.6,0s-0.5,0-0.6,0c-0.3,0-0.5,0-0.8,0s-0.5,0-0.8,0s-0.5,0-0.8-0.1c-0.3,0-0.5-0.1-0.8-0.1
	c-0.2,0-0.5-0.1-0.6-0.1s-0.5-0.1-0.6-0.1s-0.3-0.1-0.5-0.1c0,0-0.2,0-0.2-0.1c0.2-0.3,0.3-0.4,0.3-0.7c0.2,0,0.2,0,0.3,0.1
	c0.2,0,0.3,0.1,0.5,0.1c0.2,0,0.3,0,0.5,0.1c0.2,0,0.5,0,0.6,0s0.5,0,0.6,0s0.5,0,0.6,0s0.5,0,0.6,0s0.5,0,0.6,0s0.5,0,0.6,0
	s0.3,0,0.5-0.1c0.6-0.1,1.1-0.1,1.1-0.1s-0.5,0-1.1,0.1c-0.2,0-0.3,0-0.5,0c-0.2,0-0.3,0-0.6,0c-0.2,0-0.5,0-0.6,0s-0.5,0-0.6,0
	s-0.5,0-0.6,0s-0.5,0-0.6-0.1c-0.2,0-0.5,0-0.6-0.1c-0.2,0-0.3-0.1-0.5-0.1c-0.2,0-0.3-0.1-0.5-0.1c-0.2,0-0.2,0-0.3-0.1
	c0-0.1,0.2-0.3,0.2-0.3c0.2,0,0.2,0,0.3,0.1c0.2,0,0.3,0,0.5,0.1c0.2,0,0.3,0,0.5,0c0.3,0,0.6,0,1.1,0c0.3,0,0.8,0,1.1,0
	s0.6,0,0.9-0.1c0.5-0.1,0.9-0.1,0.9-0.1s-0.3,0-0.9,0c-0.3,0-0.6,0-0.9,0s-0.6,0-0.9,0s-0.6,0-0.9-0.1c-0.2,0-0.3,0-0.5-0.1
	c-0.2,0-0.3-0.1-0.3-0.1c-0.2,0-0.2,0-0.3-0.1c0-0.1,0.2-0.1,0.2-0.3c0.2,0,0.2,0,0.3,0s0.3,0,0.5,0.1c0.2,0,0.3,0,0.5,0
	c0.3,0,0.6,0,1.1,0c0.3,0,0.8,0,1.1,0s0.6,0,0.9-0.1c0.5-0.1,0.9-0.1,0.9-0.1s-0.3,0-0.9,0c-0.3,0-0.6,0-0.9,0s-0.6,0-0.9,0
	s-0.6,0-0.9-0.1c-0.2,0-0.3,0-0.5-0.1c-0.2,0-0.3-0.1-0.3-0.1c-0.2,0-0.2,0-0.3-0.1c0-0.1,0.2-0.1,0.2-0.3c0.2,0,0.2,0,0.3,0
	s0.3,0,0.5,0.1c0.2,0,0.3,0,0.5,0c0.3,0,0.6,0,1.1,0c0.3,0,0.8,0,1.1,0c0.3,0,0.6,0,0.9-0.1c0.5-0.1,0.9-0.1,0.9-0.1s-0.3,0-0.9,0
	c-0.3,0-0.6,0-0.9,0c-0.3,0-0.6,0-0.9,0s-0.6,0-0.9-0.1c-0.2,0-0.3,0-0.5-0.1c-0.2,0-0.3-0.1-0.3-0.1c-0.2,0-0.2,0-0.3-0.1
	c0-0.1,0-0.1,0.2-0.3c0.2,0,0.2,0,0.3,0.1c0.2,0,0.3,0,0.5,0.1c0.2,0,0.3,0,0.5,0c0.3,0,0.6,0,1.1,0c0.3,0,0.8,0,1.1,0
	s0.6,0,0.9-0.1c0.5-0.1,0.9-0.1,0.9-0.1s-0.3,0-0.9,0c-0.3,0-0.6,0-0.9,0s-0.6,0-0.9,0c-0.3,0-0.6,0-0.9-0.1c-0.2,0-0.3,0-0.5-0.1
	c-0.2,0-0.3-0.1-0.3-0.1c-0.2,0-0.2-0.1-0.3-0.1c0-0.1,0.2-0.3,0.2-0.4c0.2,0.1,0.5,0.1,0.6,0.1c0.3,0,0.5,0,0.8-0.1
	c0.2-0.1,0.3-0.1,0.5-0.3c0.6-0.7,0.2-1.5-0.2-1.9c0.2-0.1,0.2-0.3,0.2-0.4c0.2-0.3,0-0.9-0.6-1.5l0,0v-7.9c0.5,0.1,1.1,0.3,1.8,0.3
	c0.3,0,0.6,0,0.9-0.1l0.3,4.4l0.3-4.6c0.2,0,0.3-0.1,0.5-0.1L42.2,59.3L42.2,59.3C42.2,59.1,42.2,59.1,42.2,59.3 M39.6,87
	c-0.3,0-0.8,0-1.2-0.1c-0.2,0-0.5,0-0.8-0.1c-0.3,0-0.5-0.1-0.8-0.1c-0.5,0-0.9-0.1-1.4-0.3c-0.5-0.1-0.9-0.3-1.2-0.3
	c-0.3-0.1-0.6-0.1-0.8-0.3c-0.2,0-0.3-0.1-0.3-0.1l0,0c-0.3-0.1-0.5-0.3-0.6-0.4h0.2c0.2,0,0.5,0.1,0.6,0.1c0.3,0,0.5,0.1,0.8,0.1
	c0.5,0.1,1.1,0.1,1.7,0.3c0.3,0,0.6,0,0.8,0.1c0.3,0,0.6,0,0.8,0c0.3,0,0.5,0,0.8,0s0.5,0,0.6,0c0.8,0,1.4-0.1,1.4-0.1s-0.6,0-1.4,0
	c-0.2,0-0.5,0-0.6,0c-0.3,0-0.5,0-0.8,0s-0.5,0-0.8-0.1c-0.3,0-0.6-0.1-0.8-0.1c-0.6-0.1-1.1-0.3-1.5-0.3c-0.3,0-0.5-0.1-0.8-0.1
	c-0.2,0-0.5-0.1-0.6-0.1c-0.5-0.1-0.8-0.3-0.9-0.3c-0.2,0-0.2-0.1-0.3-0.1c-0.2-0.1-0.3-0.4-0.5-0.6c0.2,0.1,0.5,0.1,0.8,0.3
	c0.2,0,0.5,0.1,0.6,0.1c0.3,0,0.5,0.1,0.8,0.1c0.5,0.1,1.1,0.1,1.7,0.3c0.3,0,0.6,0,0.8,0.1c0.3,0,0.6,0,0.8,0c0.3,0,0.5,0,0.8,0
	s0.5,0,0.6,0c0.8,0,1.4-0.1,1.4-0.1s-0.6,0-1.4,0c-0.2,0-0.5,0-0.6,0c-0.3,0-0.5,0-0.8,0s-0.5,0-0.8-0.1c-0.3,0-0.6-0.1-0.8-0.1
	C34.5,84.2,34,84,33.6,84c-0.3,0-0.5-0.1-0.8-0.1c-0.2,0-0.5-0.1-0.6-0.1c-0.5-0.1-0.8-0.3-0.9-0.3c-0.2-0.1-0.3-0.1-0.3-0.1l0,0
	c0-0.1-0.2-0.3-0.2-0.6c0.2,0.1,0.5,0.1,0.9,0.3c0.2,0,0.5,0.1,0.6,0.1c0.3,0,0.5,0.1,0.8,0.1c0.5,0.1,1.1,0.1,1.7,0.3
	c0.3,0,0.6,0,0.8,0.1c0.3,0,0.6,0,0.8,0c0.3,0,0.5,0,0.8,0s0.5,0,0.6,0c0.8,0,1.4-0.1,1.4-0.1s-0.6,0-1.4,0c-0.2,0-0.5,0-0.6,0
	c-0.3,0-0.5,0-0.8,0s-0.5,0-0.8-0.1c-0.3,0-0.6-0.1-0.8-0.1c-0.6-0.1-1.1-0.3-1.5-0.3c-0.3,0-0.5-0.1-0.8-0.1
	c-0.2,0-0.5-0.1-0.6-0.1c-0.5-0.1-0.8-0.3-0.9-0.3h-0.2c0-0.1,0-0.3,0-0.4c0,0,0,0,0-0.1c0.3,0.1,0.5,0.1,0.9,0.3
	c0.2,0,0.5,0.1,0.6,0.1c0.3,0,0.5,0.1,0.8,0.1c0.5,0.1,1.1,0.1,1.7,0.3c0.3,0,0.6,0,0.8,0.1c0.3,0,0.6,0,0.8,0c0.3,0,0.5,0,0.8,0
	s0.5,0,0.6,0c0.8,0,1.4-0.1,1.4-0.1s-0.6,0-1.4,0c-0.2,0-0.5,0-0.6,0c-0.3,0-0.5,0-0.8,0s-0.5,0-0.8-0.1c-0.3,0-0.6-0.1-0.8-0.1
	c-0.6-0.1-1.1-0.3-1.5-0.3c-0.3,0-0.5-0.1-0.8-0.1c-0.2,0-0.5-0.1-0.6-0.1c-0.5-0.1-0.8-0.3-0.9-0.3l0,0c0-0.1,0-0.3,0.2-0.6
	c1.5,1,6,1.3,8.6,1.3c0.8,0,1.4,0,2.1,0c0.3,0.1,2.3,0.9,2.3,2.2c0,1.6-1.4,3.6-4.1,4.2c-1.5-0.1-2.9-0.3-4.1-0.7
	c0.3,0,0.6,0.1,0.9,0.1s0.5,0,0.8,0s0.5,0,0.8,0C38.9,87.2,39.3,87.2,39.6,87c0.8,0,1.2,0,1.2,0S40.4,87,39.6,87 M39.8,80.8
	c-5.3,0-8.3-0.9-8.4-1.3v-0.1c0.5-0.4,3.5-1.2,8.4-1.2c5.4,0,8.4,0.9,8.4,1.3C48.2,79.8,45.5,80.8,39.8,80.8 M35.4,62.3L35.4,62.3
	c0.3,0,0.3,0,0.5,0s0.3,0,0.6,0c0.3,0,0.6,0,0.9-0.3c0,0.4,0.2,1.2,0.8,1.6c0.3,0.3,0.5,0.6,0.5,0.9s-0.3,0.4-0.5,0.4
	c-0.5,0.1-1.7-0.3-2.3-1.3C35.1,62.9,35.2,62.4,35.4,62.3 M35.2,61.5L35.2,61.5c0.2-0.3,0.3-0.6,0.6-1c0.5-0.7,1.1-1.8,1.5-2.2
	c0.3-0.3,0.5-0.3,0.6-0.1v2.7c-0.8,1-1.4,1-1.8,0.9c-0.2,0-0.3,0-0.3,0C35.4,61.7,35.2,61.7,35.2,61.5 M37.8,65.8c0.2,0,0.3,0,0.3,0
	s0.2,0,0.2-0.1c0.2,0.3,0.5,0.9,0.2,1.2c0,0.1-0.2,0.1-0.3,0.1c-0.6,0.3-1.1,0.1-1.7-0.9V66c-0.2-0.1-0.2-0.3-0.3-0.4
	c-0.2-0.1-0.3-0.4-0.3-0.6C36.6,65.5,37.3,65.8,37.8,65.8 M40.7,54.1c-0.3-0.3-0.8-0.9-0.8-1.5c0-0.4,0-0.7,0.3-1.2
	c0.5-0.4,0.9-0.7,1.7-0.9c1.2-0.1,2.7,0.3,3.8,1.3c0.3,0.3,0.8,0.9,1.2,1.5c0.8,1,1.7,2.4,3,3.3c-1.5-0.4-2.7-1.6-4.2-3.6
	c-0.8-1-1.8-1.6-2.9-1.6c-0.2,0-0.3,0-0.3,0c-0.9,0.1-1.7,0.7-2,1.5C40.5,53.2,40.5,53.7,40.7,54.1 M41.6,55.1
	c-1.2,0.3-2.1,0.1-2.7,0C39.9,54.8,41,55,41.6,55.1 M51.4,57.2c0.6,0,1.2,0,1.8-0.1c1.7-0.3,2.3-1,2.3-1.8c-0.2-0.7-0.9-1.3-2.3-1.2
	c-0.5,0-0.9,0-1.4,0c0.9,0,2-0.1,3-0.3c0.2,0,0.2,0,0.3,0c1.1-0.3,2.3,0.3,2.7,1.2c0.3,0.7-0.2,1.6-1.2,2.2
	C54.5,58.1,52.7,58,51.4,57.2 M46.7,48.5c0.6-0.6,1.7-0.7,2.4-0.7c0.2,0,0.2,0,0.3,0c-0.5,0.3-0.9,0.6-1.4,1.2
	c-0.8,1-0.8,2.1-0.2,3.1c0.3,0.6,0.9,1,1.5,1.3c-1.7-0.4-2.7-1.5-3.3-3.1C45.9,49.5,46.1,48.9,46.7,48.5 M51.2,47.7
	c1.5,0.1,3.2,1,4.5,1.8c0.3,0.1,0.6,0.3,0.9,0.4h0.2c1.8,0.9,3.5,1.6,7.1,0.1c0.2,0,0.2-0.1,0.3-0.1c-0.5,0.9-1.2,1.3-2.1,1.6
	c-2.1,0.4-4.8-0.4-6.5-1.6C53.9,48.8,52.1,48,51.2,47.7 M63.4,44.6c-1.1-1-4.1-3.1-10.2-0.7c-2.9,1.2-5.3,2.5-7.1,3.6
	c-4.2,2.4-6.5,3.7-9.8,0.7c-0.8-0.7-1.2-1.6-1.4-2.7c0.3,0.6,0.6,1,1.1,1.3c1.5,1.3,3.8,1.8,5.6,1c1.7-0.6,3.5-1.9,5.4-3.3
	c1.8-1.3,3.8-2.7,5.3-3.3c0.5-0.1,1.1-0.4,1.5-0.6c3-1.3,7.2-3.1,11.4-0.7c1.8,0.9,2.6,2.4,2.6,4c-0.2,1.8-1.4,3.9-3.2,5
	C65.1,47.7,64.6,46,63.4,44.6 M34.6,43.4c0-0.6,0-1,0.3-1.6c1.1-3.6,5.9-4,8.7-4c0.5,0,0.9,0,1.2,0c0.5,0,0.6,0,0.8,0s0.3,0,0.5,0
	c2,0,8-0.1,9.2-6.8c0-0.4,0.2-0.7,0.2-1.2c1.2,2.7,0.5,6.1-1.2,7.9c-2.4,2.5-5.3,2.1-8.3,1.6c-0.8-0.1-1.7-0.3-2.4-0.3
	c-3.8-0.3-5.4,0-6.8,1C35.8,40.8,35.1,42.1,34.6,43.4 M55,28.6L55,28.6c-0.9-1.2-2.6-2.2-5.6-2.5c1.5-0.1,3.5,0,4.7,1
	C54.5,27.6,54.8,28,55,28.6 M47.9,98.6c-14.2-6.2-23.9-20-23.9-36.2c0-3.6,0.5-7,1.4-10.1l0.2-0.6c0.2-0.6,0.6-1.8,0.6-1.8
	c2.4-7.1,6.9-13.3,12.6-18.1c0,0,1.2-0.9,1.1-0.9l0,0c2.3-1.8,4.8-3.3,7.5-4.4c3.3-0.3,5.9,0.6,7.4,2.4v0.1c0.2,0.1,0.3,0.3,0.3,0.4
	c0,0.4,0,1-0.2,1.6c-1.2,6.4-6.9,6.5-8.9,6.5c-0.2,0-0.3,0-0.5,0c-0.2,0-0.5,0-0.8,0c-2.6,0-9-0.3-10.4,4.2c-0.3,1-0.3,1.9-0.2,2.8
	v0.1c0,1.3,0.5,2.7,1.5,3.6c3.5,3.1,6,1.8,10.2-0.6c1.8-1,4.2-2.4,7.1-3.4c4.2-1.8,7.8-1.5,9.9,0.6c1.2,1.3,1.7,3.1,1.1,4.7
	c-0.2,0.1-0.5,0.3-0.6,0.3c-3.5,1.5-5,0.9-6.8,0h-0.2c-0.3-0.1-0.6-0.3-0.9-0.4c-1.5-0.9-3.8-2.1-5.7-1.8c-0.8-0.1-2.7-0.3-3.8,0.7
	c-0.6,0.4-0.8,1.2-0.6,2.2c0.8,1.9,2.3,3.3,4.7,3.6c0.9,0.4,2,0.6,2.7,0.4c1.2-0.1,2,0.4,2,1c0,0.6-0.5,1.2-2,1.5
	c-0.9,0.1-1.8,0.1-2.6,0c-1.5-0.9-2.6-2.5-3.5-3.7c-0.5-0.7-0.9-1.3-1.4-1.6c-1.2-0.9-2.7-1.5-4.1-1.3c-0.8,0.1-1.5,0.4-2,1
	C39.2,52,39,52.5,39,52.9c0.2,0.7,0.6,1.3,1.1,1.8c-0.8,0-1.7,0-2.7,0.4l-0.2,0.1V58c-0.3,0-0.6,0-1.1,0.4c-0.5,0.4-1.1,1.5-1.5,2.4
	c-0.2,0.4-0.5,0.7-0.5,0.9C33.9,62,34,62.3,34,62.4c0,0.1,0.2,0.1,0.2,0.1c-0.2,0.3-0.3,1,0.5,2.2c0,0,0,0.1,0.2,0.1
	c0,0.3-0.2,0.9,0.5,1.6c0.2,0.1,0.2,0.3,0.3,0.3l0.2,0.1c0.2,0.1,0.3,0.4,0.6,0.7c-0.2,0.6-0.3,1.3-0.6,1.9l0,0l0,0
	c-0.2,0.3-0.2,0.6-0.3,0.9l0,0l0,0c-0.9,2.2-2,3.9-2,3.9c-0.6,1.2-1.2,1.9-1.7,2.7c-0.2,0.3-0.3,0.6-0.6,0.9c-0.3,0.6-0.6,1-0.8,1.5
	c-0.2,0.1-0.2,0.3-0.2,0.4c0.3,0,0.2,0.6,0.2,1.3c-0.2,1.5,0.3,2.8,1.4,4c1.8,1.9,5.1,3,9.6,3.1c0.2,0,0.3,0,0.5,0
	c3.6,0,5.7-1,6.9-2.4c0,0.1,0,0.3,0,0.4C48.9,88.8,49.4,94.6,47.9,98.6 M53.5,92.8c0,0.1-0.2,0.4-0.3,0.6c0,0.1-0.2,0.1-0.2,0.3
	c0,0.1-0.2,0.3-0.2,0.3c-0.2,0.1-0.3,0.4-0.5,0.6c-0.2,0-0.2,0.1-0.3,0.1s-0.2,0.1-0.3,0.1c0,0-0.2,0-0.2,0.1
	c-0.2-0.3-0.3-0.6-0.5-1c0.2,0,0.2,0,0.3-0.1c0.2,0,0.2-0.1,0.3-0.1c0.2-0.1,0.2-0.1,0.3-0.3s0.2-0.1,0.3-0.3c0-0.1,0.2-0.3,0.2-0.3
	c0.2-0.3,0.2-0.4,0.3-0.7c0-0.1,0.2-0.3,0.2-0.3c0-0.1,0-0.1,0-0.3l0.2-0.6c0,0-0.2,0.3-0.2,0.6c0,0.1,0,0.1-0.2,0.3
	c0,0.1-0.2,0.1-0.2,0.3c-0.2,0.1-0.2,0.4-0.5,0.6c-0.2,0.1-0.2,0.1-0.3,0.3c0,0.1-0.2,0.1-0.3,0.3c-0.2,0-0.2,0.1-0.3,0.1
	s-0.2,0.1-0.3,0.1h-0.2c-0.2-0.3-0.2-0.6-0.3-0.7l0,0c0.2,0,0.2,0,0.3-0.1c0.2,0,0.2-0.1,0.3-0.1c0.2-0.1,0.2-0.1,0.3-0.3
	s0.2-0.1,0.3-0.3c0-0.1,0.2-0.3,0.2-0.3c0.2-0.3,0.2-0.4,0.3-0.7c0-0.1,0.2-0.3,0.2-0.3c0-0.1,0-0.1,0-0.3c0.2-0.4,0.2-0.6,0.2-0.6
	s-0.2,0.3-0.3,0.6c0,0.1,0,0.1-0.2,0.3c0,0.1-0.2,0.1-0.2,0.3c-0.2,0.1-0.3,0.4-0.5,0.6c-0.2,0.1-0.2,0.1-0.3,0.3
	c0,0.1-0.2,0.1-0.3,0.3c-0.2,0-0.2,0.1-0.3,0.1s-0.2,0.1-0.3,0.1s-0.2,0-0.2,0.1l0,0c-0.2-0.3-0.3-0.7-0.3-1H50
	c0.2,0,0.2-0.1,0.3-0.1s0.2-0.1,0.3-0.1c0.2-0.1,0.2-0.1,0.3-0.3s0.2-0.1,0.3-0.3c0-0.1,0.2-0.3,0.2-0.3c0.2-0.3,0.2-0.4,0.3-0.7
	c0-0.1,0.2-0.3,0.2-0.3c0-0.1,0-0.1,0-0.3l0.2-0.6c0,0-0.2,0.3-0.2,0.6c0,0.1,0,0.1-0.2,0.3c0,0.1-0.2,0.1-0.2,0.3
	c-0.2,0.1-0.2,0.4-0.5,0.6c-0.2,0.1-0.2,0.1-0.3,0.3c0,0.1-0.2,0.1-0.3,0.3c-0.2,0-0.2,0.1-0.3,0.1S50,91,49.8,91s-0.2,0-0.2,0.1
	h-0.2c0-0.3-0.2-0.6-0.2-0.7c0,0,0.2,0,0.2-0.1c0.2,0,0.2-0.1,0.3-0.1S50,90,50.1,90c0.2-0.1,0.2-0.1,0.3-0.3s0.2-0.1,0.3-0.3
	c0-0.1,0.2-0.3,0.2-0.3c0.2-0.3,0.2-0.4,0.3-0.7c0-0.1,0.2-0.3,0.2-0.3c0-0.1,0-0.1,0-0.3c0.2-0.4,0.2-0.6,0.2-0.6s-0.2,0.3-0.2,0.6
	c0,0.1,0,0.1-0.2,0.3c0,0.1-0.2,0.1-0.2,0.3c-0.2,0.1-0.2,0.4-0.5,0.6c-0.2,0.1-0.2,0.1-0.3,0.3c0,0.1-0.2,0.1-0.3,0.3
	c-0.2,0-0.2,0.1-0.3,0.1s-0.2,0.1-0.3,0.1s-0.2,0-0.2,0.1h-0.2c0-0.3-0.2-0.6-0.2-0.9c0,0,0,0,0.2,0s0.2,0,0.3-0.1
	c0.2,0,0.2-0.1,0.3-0.1s0.2-0.1,0.3-0.1c0.2-0.1,0.2-0.1,0.3-0.3c0.2-0.1,0.2-0.1,0.3-0.3c0-0.1,0.2-0.3,0.2-0.3
	c0.2-0.3,0.2-0.4,0.3-0.7c0-0.1,0.2-0.3,0.2-0.3c0-0.1,0-0.1,0-0.3c0.2-0.4,0.2-0.6,0.2-0.6s-0.2,0.3-0.2,0.6c0,0.1,0,0.1-0.2,0.3
	c0,0.1-0.2,0.1-0.2,0.3c-0.2,0.1-0.2,0.4-0.5,0.6c-0.2,0.1-0.2,0.1-0.3,0.3c0,0.1-0.2,0.1-0.3,0.3c-0.2,0-0.2,0.1-0.3,0.1
	s-0.2,0.1-0.3,0.1c0,0-0.2,0-0.2,0.1h-0.2c0,0,0,0-0.2,0l0,0c0-0.3-0.2-0.6-0.2-0.9h0.2c0.2,0,0.2-0.1,0.3-0.1s0.2-0.1,0.3-0.1
	c0.2-0.1,0.2-0.1,0.3-0.3c0.2-0.1,0.2-0.1,0.3-0.3c0-0.1,0.2-0.3,0.2-0.3c0.2-0.3,0.2-0.4,0.3-0.7c0-0.1,0.2-0.3,0.2-0.3
	c0-0.1,0-0.1,0-0.3c0.2-0.4,0.2-0.6,0.2-0.6s-0.2,0.3-0.2,0.6c0,0.1,0,0.1-0.2,0.3c0,0.1-0.2,0.1-0.2,0.3c-0.2,0.1-0.2,0.4-0.5,0.6
	c-0.2,0.1-0.2,0.1-0.3,0.3c0,0.1-0.2,0.1-0.3,0.3c-0.2,0-0.2,0.1-0.3,0.1s-0.2,0.1-0.3,0.1s-0.2,0-0.2,0.1l0,0c0-0.4-0.2-0.9-0.2-1
	c1.1-1.3,1.2-2.8,1.2-3.1c0.2-1.5-0.6-2.5-1.4-3.4c-0.2-0.3-0.5-0.6-0.6-0.9c-0.5-0.6-0.8-0.7-1.1-1c-0.5-0.3-0.9-0.6-2.1-1.8
	c-1.5-1.6-1.5-2.4-1.5-3.4c0-0.3,0-0.7-0.2-1.2c-0.3-1.2-0.9-2.2-1.5-3.3c-0.2-0.3-0.5-0.6-0.6-0.9c-0.3-0.4-0.5-0.7-0.8-1
	c-0.5-0.4-0.8-0.9-0.9-2.2c0-0.3,0-0.9,0.5-1c0.6-0.1,1.5,0.4,2,1.5c0.8,1.8,5,5.2,5.3,5.3l0.8,0.6l-0.2-0.9
	c-0.3-1.2-1.1-2.2-1.8-3.3s-1.5-2.1-2-3.3c-0.3-1.5-0.8-2.4-1.1-3c0.2,0.1,0.5,0.3,0.6,0.7c0.6,0.9,1.8,1.5,3,2.1
	c0.8,0.4,1.5,0.7,2,1.2c0.6,0.6,0.9,1.8,1.2,3.3c0.3,1.2,0.6,2.5,1.1,3.7c0.6,1.6,0.9,3.1,1.1,4.4c0.2,0.7,0.2,1.5,0.5,2.2
	c0.5,1.6,2,4.2,2.1,4.3c0.5,2.1,1.1,7.6-1.5,15.7c-0.2-0.3-0.5-0.9-0.8-1.5c0.2,0,0.2-0.1,0.3-0.1s0.2-0.1,0.3-0.1
	c0.2-0.1,0.2-0.1,0.3-0.3s0.3-0.4,0.5-0.7c0-0.1,0.2-0.3,0.2-0.3c0-0.1,0.2-0.3,0.2-0.3C53.6,93.2,53.6,93.1,53.5,92.8
	c0.2-0.3,0.2-0.6,0.2-0.6S53.6,92.5,53.5,92.8 M55.6,88.8c-0.2,1.8-0.5,3.9-0.5,5.9l0,0l0,0c0,0.4,0,0.7,0,1l0,0l0,0
	c0,0.9,0,1.6,0,2.4l0,0l0,0c0,1,0.2,1.9,0.3,2.7c-0.2,0-0.5-0.1-0.6-0.1c-0.2-0.4-0.2-1.2,0-2.1c0.2-2.8-0.2-3.3-0.2-3.3
	c0,0.3,0.3,0.1-0.5,2.4c-0.3,1.2-0.6,2.1-0.6,2.8c-0.3-0.1-0.8-0.1-1.1-0.3c4.4-11.1,2.9-18.1,2.6-19.7c0.5,0,0.9,0.3,1.4,0.6l0,0
	c0,0,0.6,0.9-0.2,4.9C55.9,86.9,55.7,87.8,55.6,88.8L55.6,88.8L55.6,88.8 M55.6,96.5c0.6,0.4,1.4,1,2.4,1.2
	c-0.2,0.1-0.2,0.4-0.3,0.6c-0.9-0.1-1.8-0.7-2.1-1C55.6,97.1,55.6,96.8,55.6,96.5 M55.6,97.8c0.5,0.3,1.2,0.7,2,0.9
	c0,0.1-0.2,0.3-0.2,0.4c-0.8-0.1-1.4-0.6-1.8-0.9C55.6,98.1,55.6,98,55.6,97.8 M56.8,100.7c-0.2,0.3-0.2,0.4-0.3,0.6
	c-0.2,0-0.3-0.1-0.6-0.1c-0.2-0.3-0.2-0.7-0.3-1.2C56,100.2,56.5,100.4,56.8,100.7L56.8,100.7 M57.1,100.2c-0.6-0.1-1.1-0.6-1.4-0.9
	c0-0.1,0-0.3,0-0.4c0.5,0.3,0.9,0.6,1.5,0.7C57.2,99.8,57.1,99.9,57.1,100.2 M67.3,94.4c-0.2,0-0.3,0.1-0.5,0.1
	c-0.5,0.1-1.1,0.3-1.5,0.6c-0.3,0.1-0.6,0.3-0.8,0.4c-0.3,0.1-0.5,0.3-0.8,0.4c-0.5,0.3-0.6,0.4-0.6,0.4s0.3-0.1,0.6-0.3
	c0.2-0.1,0.5-0.1,0.8-0.3s0.6-0.1,0.9-0.3c0.5-0.1,1.1-0.3,1.4-0.4c-0.2,0.1-0.5,0.4-0.6,0.7c-0.2,0-0.3,0.1-0.5,0.1
	c-0.5,0.1-1.1,0.3-1.5,0.6c-0.3,0.1-0.6,0.3-0.8,0.4c-0.3,0.1-0.5,0.3-0.8,0.4c-0.5,0.3-0.6,0.4-0.6,0.4s0.3-0.1,0.6-0.3
	c0.2-0.1,0.5-0.1,0.8-0.3s0.6-0.1,0.9-0.3c0.5-0.1,1.1-0.3,1.5-0.4c-0.2,0.1-0.3,0.4-0.5,0.6c-0.2,0-0.3,0.1-0.6,0.1
	c-0.5,0.1-1.1,0.3-1.5,0.6c-0.3,0.1-0.6,0.3-0.8,0.4c-0.3,0.1-0.5,0.3-0.8,0.4c-0.5,0.3-0.6,0.4-0.6,0.4s0.3-0.1,0.6-0.3
	c0.2-0.1,0.5-0.1,0.8-0.3s0.6-0.1,0.9-0.3c0.6-0.1,1.2-0.3,1.7-0.4h0.2c-0.3,0.3-0.5,0.7-0.8,1c-0.2,0-0.3,0.1-0.6,0.1
	c-0.5,0.1-1.1,0.3-1.5,0.6c-0.3,0.1-0.6,0.3-0.8,0.4c-0.3,0.1-0.5,0.3-0.8,0.4c-0.5,0.3-0.6,0.4-0.6,0.4s0.3-0.1,0.6-0.3
	c0.2-0.1,0.5-0.1,0.8-0.3c0.3-0.1,0.6-0.1,0.9-0.3c0.6-0.1,1.2-0.3,1.7-0.4h0.2c-0.2,0.3-0.5,0.6-0.6,0.9c-0.2,0-0.3,0-0.5,0.1
	c-0.5,0.1-1.1,0.3-1.5,0.6c-0.3,0.1-0.6,0.3-0.8,0.4c-0.3,0.1-0.5,0.3-0.8,0.4c-0.5,0.3-0.6,0.4-0.6,0.4s0.3-0.1,0.6-0.3
	c0.2-0.1,0.5-0.1,0.8-0.3s0.6-0.1,0.9-0.3c0.6-0.1,1.2-0.3,1.7-0.4c-0.5,0.7-0.8,1.3-0.9,1.8c-1.7-0.1-3.3-0.3-4.8-0.6
	c0.6-1.3,2.3-4,5.9-7.1c2.4-1.9,3.2-3.1,3.6-4c0.6-1,1.1-1.8,3.9-3c1.5-0.6,2.7-1,3.5-1.3v0.1v0.1c-0.2,0.1-0.2,0.3-0.3,0.4
	c-0.2,0-0.3,0.1-0.6,0.1c-0.5,0.1-1.1,0.3-1.5,0.6c-0.3,0.1-0.6,0.3-0.8,0.4c-0.3,0.1-0.5,0.3-0.8,0.4c-0.5,0.3-0.6,0.4-0.6,0.4
	s0.3-0.1,0.6-0.3c0.2-0.1,0.5-0.1,0.8-0.3s0.6-0.1,0.9-0.3c0.6-0.1,1.2-0.3,1.7-0.4c0,0,0,0,0.2,0c-0.2,0.3-0.3,0.4-0.5,0.7
	c-0.2,0-0.3,0.1-0.6,0.1c-0.5,0.1-1.1,0.3-1.5,0.6c-0.3,0.1-0.6,0.3-0.8,0.4c-0.3,0.1-0.5,0.3-0.8,0.4c-0.5,0.3-0.6,0.4-0.6,0.4
	s0.3-0.1,0.6-0.3c0.2-0.1,0.5-0.1,0.8-0.3s0.6-0.1,0.9-0.3c0.6-0.1,1.2-0.3,1.7-0.4c0,0,0,0,0.2,0c-0.2,0.3-0.3,0.4-0.5,0.7
	c-0.2,0-0.3,0.1-0.6,0.1c-0.5,0.1-1.1,0.3-1.5,0.6c-0.3,0.1-0.6,0.3-0.8,0.4c-0.3,0.1-0.5,0.3-0.8,0.4c-0.5,0.3-0.6,0.4-0.6,0.4
	s0.3-0.1,0.6-0.3c0.2-0.1,0.5-0.1,0.8-0.3s0.6-0.1,0.9-0.3c0.6-0.1,1.2-0.3,1.7-0.4h0.2c-0.2,0.3-0.3,0.4-0.5,0.7
	c-0.2,0-0.3,0.1-0.6,0.1c-0.5,0.1-1.1,0.3-1.5,0.6c-0.3,0.1-0.6,0.3-0.8,0.4c-0.3,0.1-0.5,0.3-0.8,0.4c-0.5,0.3-0.6,0.4-0.6,0.4
	s0.3-0.1,0.6-0.3c0.2-0.1,0.5-0.1,0.8-0.3s0.6-0.1,0.9-0.3c0.6-0.1,1.2-0.3,1.7-0.4h0.2l-0.2,0.1c-0.2,0.3-0.3,0.4-0.5,0.6
	c-0.2,0-0.3,0.1-0.5,0.1c-0.5,0.1-1.1,0.3-1.5,0.6c-0.3,0.1-0.6,0.3-0.8,0.4c-0.3,0.1-0.5,0.3-0.8,0.4c-0.5,0.3-0.6,0.4-0.6,0.4
	s0.3-0.1,0.6-0.3c0.2-0.1,0.5-0.1,0.8-0.3s0.6-0.1,0.9-0.3c0.5-0.1,1.1-0.3,1.5-0.4c-0.2,0.1-0.3,0.3-0.6,0.4
	c-0.2,0.1-0.3,0.3-0.5,0.4c-0.2,0-0.3,0-0.5,0.1c-0.5,0.1-1.1,0.3-1.5,0.6c-0.3,0.1-0.6,0.3-0.8,0.4c-0.3,0.1-0.5,0.3-0.8,0.4
	c-0.5,0.3-0.6,0.4-0.6,0.4s0.3-0.1,0.6-0.3c0.2-0.1,0.5-0.1,0.8-0.3c0.3-0.1,0.6-0.1,0.9-0.3c0.5-0.1,0.9-0.3,1.2-0.3
	C67.8,94,67.6,94.3,67.3,94.4 M88.5,93.8c0.2-0.3,0.2-0.6,0.3-0.9c0.5-1.3,1.1-3.3,1.5-5.2c0.2-0.4,0.2-1,0.2-1.5s0-1,0-1.5
	s-0.2-0.9-0.3-1.3c-0.2-0.4-0.3-0.7-0.5-1c-0.2-0.3-0.5-0.6-0.8-0.7c-0.2-0.1-0.3-0.1-0.3-0.1c-0.2,0-0.3-0.1-0.3-0.1
	c-0.2-0.1-0.5-0.1-0.5-0.1c-0.2,0-0.2,0-0.2,0s0,0,0.2,0c0.2,0,0.3,0,0.5,0.1c0.2,0,0.2,0.1,0.3,0.1c0.2,0,0.2,0.1,0.3,0.3
	c0.3,0.1,0.5,0.4,0.8,0.7c0.2,0.3,0.3,0.7,0.5,1c0.2,0.4,0.2,0.9,0.2,1.3s0,0.9,0,1.3s-0.2,0.9-0.3,1.5c-0.5,1.9-1.1,3.7-1.7,5
	c-0.3,0.7-0.6,1.3-0.8,1.8c-0.2,0.1-0.3,0.1-0.5,0.3c0.2-0.3,0.2-0.4,0.3-0.7c0.5-1.3,1.1-3.3,1.5-5.2c0.2-0.4,0.2-1,0.2-1.5
	s0-1,0-1.5s-0.2-0.9-0.3-1.3c-0.2-0.4-0.3-0.7-0.5-1c-0.2-0.3-0.5-0.6-0.8-0.7c-0.2-0.1-0.3-0.1-0.3-0.1c-0.2,0-0.3-0.1-0.3-0.1
	c-0.2-0.1-0.3-0.1-0.5-0.1c-0.2,0-0.2,0-0.2,0s0,0,0.2,0c0.2,0,0.3,0,0.5,0.1c0.2,0,0.2,0.1,0.3,0.1c0.2,0,0.2,0.1,0.3,0.3
	c0.3,0.1,0.5,0.4,0.8,0.7c0.2,0.3,0.3,0.7,0.5,1c0.2,0.4,0.2,0.9,0.2,1.3s0,0.9,0,1.3s-0.2,0.9-0.3,1.5c-0.5,1.9-1.1,3.7-1.7,5
	c-0.3,0.6-0.5,1.2-0.6,1.5c-0.3,0.1-0.6,0.4-0.9,0.6c0.2-0.1,0.2-0.4,0.3-0.6c0.6-1.3,1.2-3.3,1.7-5.2c0.2-0.4,0.2-1,0.3-1.5
	c0-0.4,0-1,0-1.5s0-0.9-0.2-1.3c-0.2-0.4-0.3-0.7-0.5-1c-0.2-0.3-0.5-0.6-0.8-0.7c-0.2-0.1-0.3-0.1-0.3-0.3c-0.2,0-0.3-0.1-0.3-0.1
	c-0.2-0.1-0.3-0.1-0.5-0.1c-0.2,0-0.2,0-0.2,0s0,0,0.2,0c0.2,0,0.3,0,0.5,0.1c0.2,0,0.2,0.1,0.3,0.1c0.2,0,0.2,0.1,0.3,0.3
	c0.3,0.1,0.5,0.4,0.6,0.7c0.2,0.3,0.3,0.7,0.5,1c0.2,0.4,0.2,0.9,0.2,1.3s0,0.9-0.2,1.3c0,0.4-0.2,0.9-0.3,1.5
	c-0.5,1.9-1.2,3.7-1.8,5c-0.3,0.4-0.5,0.9-0.6,1.3l0,0c0.3-1,0.8-3,1.2-4.7c0.2-0.7,0.3-1.5,0.3-2.1c0-0.3,0.2-0.7,0.2-1
	s0-0.6,0-0.9c0-0.3,0-0.6,0-0.7s0-0.4-0.2-0.6c-0.2-0.3-0.2-0.4-0.2-0.4s0,0.1,0.2,0.4c0,0.1,0,0.3,0.2,0.6c0,0.1,0,0.4,0,0.7
	c0,0.3,0,0.6,0,0.9s-0.2,0.6-0.2,1c-0.2,0.7-0.3,1.3-0.5,2.1c-0.6,2.4-1.4,4.6-1.7,5.3c-0.2,0.1-0.3,0.1-0.5,0.3
	c0.3-1,0.9-3,1.2-4.9c0.2-0.7,0.3-1.5,0.3-2.1c0-0.3,0.2-0.7,0.2-1s0-0.6,0-0.9c0-0.3,0-0.6,0-0.7s0-0.4-0.2-0.6
	c-0.2-0.3-0.2-0.4-0.2-0.4s0,0.1,0.2,0.4c0,0.1,0,0.3,0,0.6c0,0.1,0,0.4,0,0.7c0,0.3,0,0.6,0,0.9s-0.2,0.6-0.2,1
	c-0.2,0.7-0.3,1.3-0.5,2.1c-0.6,2.4-1.5,4.7-1.7,5.3c0,0-0.2,0-0.2,0.1c0.3-1,0.8-2.8,1.1-4.4c0.2-0.7,0.3-1.5,0.3-2.1
	c0-0.3,0.2-0.7,0.2-1c0-0.3,0-0.6,0-0.9c0-0.3,0-0.6,0-0.7c0-0.1,0-0.4-0.2-0.6C84,87.9,84,87.8,84,87.8s0,0.1,0.2,0.4
	c0,0.1,0,0.3,0.2,0.6c0,0.1,0,0.4,0,0.7c0,0.3,0,0.6,0,0.9c0,0.3-0.2,0.6-0.2,1c-0.2,0.7-0.3,1.3-0.5,2.1c-0.5,1.9-1.2,3.9-1.5,4.9
	c0,0-0.2,0-0.2,0.1c0.3-0.9,0.5-2.1,0.8-3.1c0.2-0.6,0.2-1.2,0.3-1.8c0-0.3,0-0.6,0-0.9s0-0.6,0-0.7c0-0.3,0-0.4,0-0.6
	s0-0.3-0.2-0.4c-0.2-0.3-0.2-0.4-0.2-0.4s0,0.1,0.2,0.4c0,0.1,0,0.3,0,0.4c0,0.1,0,0.4,0,0.6c0,0.3,0,0.4,0,0.7s-0.2,0.6-0.2,0.9
	c-0.2,0.6-0.3,1.2-0.5,1.8c-0.3,1.3-0.8,2.7-1.1,3.6c-0.2,0.1-0.5,0.1-0.6,0.3c0.3-0.7,0.6-1.9,0.9-3.3c0.3-1,0.5-2.1,0.5-2.8
	c0-0.1,0-0.4,0-0.6s0-0.3,0-0.4c0-0.3,0-0.3,0-0.3s0,0.1,0,0.3s0,0.3,0,0.4c0,0.1,0,0.3,0,0.6c-0.2,0.7-0.5,1.8-0.8,2.8
	c-0.5,1.5-1.1,3-1.4,3.6c-0.2,0.1-0.5,0.1-0.6,0.3c0.2-0.7,0.5-1.8,0.6-2.8c0.2-1,0.3-2.1,0.5-2.8c0-0.1,0-0.4,0-0.6s0-0.3,0-0.4
	c0-0.3,0-0.3,0-0.3s0,0.1,0,0.3s0,0.3,0,0.4c0,0.1,0,0.3,0,0.6c-0.2,0.7-0.3,1.8-0.6,2.8c-0.3,1.2-0.8,2.4-1.1,3.1
	c-0.2,0.1-0.5,0.1-0.6,0.3c0.2-0.7,0.5-1.6,0.8-2.5c0.3-1,0.5-2.1,0.5-2.8c0-0.1,0-0.4,0-0.6s0-0.3,0-0.4c0-0.3,0-0.3,0-0.3
	s0,0.1,0,0.3s0,0.3,0,0.4c0,0.1,0,0.3,0,0.6c-0.2,0.7-0.5,1.8-0.8,2.8c-0.3,1-0.8,2.1-1.1,2.8c-0.2,0-0.2,0-0.3,0.1
	c0.2-0.6,0.3-1.3,0.6-2.1c0.2-0.4,0.2-0.9,0.3-1.2c0.2-0.4,0.2-0.7,0.2-1c0-0.3,0-0.6,0-0.7c0-0.1,0-0.3,0-0.3s0,0.1,0,0.3
	c0,0.1,0,0.4-0.2,0.7c0,0.3-0.2,0.7-0.3,1c-0.2,0.4-0.2,0.7-0.3,1.2c-0.3,0.7-0.6,1.6-0.8,2.2v0.1c-0.3,0.1-0.5,0.1-0.8,0.3
	c0.2-0.6,0.5-1.3,0.6-2.1c0.2-0.4,0.2-0.9,0.3-1.2c0.2-0.4,0.2-0.7,0.2-1s0-0.6,0-0.7c0-0.1,0-0.3,0-0.3s0,0.1,0,0.3
	c0,0.1,0,0.4-0.2,0.7c0,0.3-0.2,0.7-0.3,1c-0.2,0.4-0.2,0.7-0.3,1.2c-0.3,0.7-0.6,1.6-0.8,2.2c0,0,0,0.1-0.2,0.1
	c-0.2,0-0.3,0.1-0.5,0.1c0.2-0.4,0.3-1,0.5-1.5c0.2-0.3,0.2-0.7,0.2-1c0-0.3,0.2-0.6,0.2-0.9c0-0.3,0-0.4,0-0.6c0-0.1,0-0.3,0-0.3
	s0,0.1,0,0.3c0,0.1,0,0.4,0,0.6c0,0.3-0.2,0.6-0.2,0.9c-0.2,0.3-0.2,0.6-0.3,1c-0.2,0.6-0.5,1.3-0.6,1.8c-0.2,0-0.3,0.1-0.5,0.1
	c0.2-0.3,0.2-0.7,0.3-1c0-0.3,0.2-0.6,0.2-0.7c0-0.3,0-0.4,0.2-0.7c0-0.1,0-0.4,0-0.4c0-0.1,0-0.1,0-0.1s0,0,0,0.1s0,0.3,0,0.4
	c0,0.1-0.2,0.4-0.2,0.7c0,0.3-0.2,0.4-0.3,0.7c-0.2,0.4-0.3,0.9-0.5,1.3c-0.2,0-0.3,0-0.6,0.1c0-0.3,0.2-0.6,0.2-0.9
	c0-0.1,0-0.4,0.2-0.6c0-0.1,0-0.4,0-0.6c0-0.1,0-0.3,0-0.4s0-0.1,0-0.1s0,0,0,0.1c0,0.1,0,0.1,0,0.4c0,0.1,0,0.3-0.2,0.4
	c0,0.1-0.2,0.4-0.2,0.6c-0.2,0.3-0.3,0.7-0.5,1c-1.2,0.3-2.6,0.4-3.8,0.4c-0.2-0.9,0-2.7,2-5.5c2.4-3.3,2.6-3.7,2.9-4.7
	c0.2-0.3,0.3-0.7,0.5-1.3c1.1-2.5,3.6-6.5,5-7.6c0.8-0.4,2.4-1.5,4.2-2.5c0.3-0.1,4.2-1.5,6.8,0c1.1,0.6,1.8,1.8,2,3.3
	C91.9,87.9,90.1,91.8,88.5,93.8 M92.6,73.7c-0.2,0.1-0.3,0.1-0.5,0.3v-0.1c0-0.1,0-0.1,0-0.3c0-0.1,0-0.4-0.2-0.6
	c-0.2-0.4-0.6-0.6-0.9-0.7C90.8,72,90.7,72,90.7,72l0,0c0,0,0.2,0,0.5,0.1c0.3,0.1,0.6,0.4,0.8,0.7c0,0.1,0,0.3,0,0.6
	c0,0.1,0,0.3,0,0.4v0.1c-0.2,0.1-0.5,0.1-0.6,0.3v-0.1c0-0.1,0-0.1,0-0.3c0-0.1,0-0.4-0.2-0.6c-0.2-0.4-0.6-0.6-0.9-0.7
	s-0.5-0.1-0.5-0.1l0,0c0,0,0.2,0,0.5,0.1c0.3,0.1,0.6,0.4,0.8,0.7c0,0.1,0,0.3,0,0.6c0,0.1,0,0.3,0,0.4v0.1
	c-0.2,0.1-0.5,0.1-0.6,0.3v-0.1c0-0.1,0-0.1,0-0.3s0-0.4-0.2-0.6c-0.2-0.4-0.6-0.6-0.9-0.7c-0.3-0.1-0.5-0.1-0.5-0.1l0,0
	c0,0,0.2,0,0.5,0.1c0.3,0.1,0.6,0.4,0.8,0.7c0,0.1,0,0.3,0,0.6c0,0.1,0,0.3,0,0.4c0,0,0,0,0,0.1c-0.2,0.1-0.5,0.1-0.6,0.3l0,0
	c0-0.1,0-0.1,0-0.3c0-0.1,0-0.4-0.2-0.6c-0.2-0.4-0.6-0.6-0.9-0.7c-0.3-0.1-0.5-0.1-0.5-0.1l0,0c0,0,0.2,0,0.5,0.1
	c0.3,0.1,0.6,0.4,0.8,0.7c0,0.1,0,0.3,0,0.6c0,0.1,0,0.3,0,0.4c-0.3,0.1-0.5,0.3-0.6,0.3v-0.1c0-0.1,0-0.1,0-0.3s0-0.4-0.2-0.6
	c-0.2-0.4-0.6-0.6-0.9-0.7c-0.3-0.1-0.5-0.1-0.5-0.1l0,0c0,0,0.2,0,0.5,0.1c0.3,0.1,0.6,0.4,0.8,0.7c0,0.1,0,0.3,0,0.6
	c0,0.1,0,0.3,0,0.4v0.1c-0.2,0-0.2,0.1-0.3,0.1h-0.2l0,0c0-0.1,0-0.1,0-0.3c0-0.1,0-0.4-0.2-0.6c-0.2-0.4-0.6-0.6-0.9-0.7
	c-0.3-0.1-0.5-0.1-0.5-0.1l0,0c0,0,0.2,0,0.5,0.1c0.3,0.1,0.6,0.4,0.8,0.7c0,0.1,0,0.3,0,0.6c0,0.1,0,0.3,0,0.4l0,0
	c-0.3,0.1-0.6,0.3-0.9,0.4l0,0c0-0.1,0-0.1,0.2-0.3c0-0.1,0-0.1,0-0.3s0-0.4-0.2-0.6c-0.2-0.4-0.6-0.6-0.9-0.7s-0.5-0.1-0.5-0.1l0,0
	c0,0,0.2,0,0.5,0.1c0.3,0.1,0.6,0.4,0.8,0.7c0,0.1,0,0.3,0,0.6c0,0.1,0,0.3,0,0.4c0,0.1,0,0.1,0,0.3c-0.2,0.1-0.3,0.1-0.6,0.3v-0.1
	c0-0.1,0-0.1,0-0.3s0-0.4-0.2-0.6c-0.2-0.4-0.6-0.6-0.9-0.7s-0.5-0.1-0.5-0.1l0,0c0,0,0.2,0,0.5,0.1c0.3,0.1,0.6,0.4,0.8,0.7
	c0,0.1,0,0.3,0,0.6c0,0.1,0,0.3,0,0.4v0.1c-0.3,0.1-0.5,0.3-0.8,0.4v-0.1c0-0.1,0-0.1,0-0.3s0-0.4-0.2-0.6c-0.2-0.4-0.6-0.6-0.9-0.7
	s-0.5-0.1-0.5-0.1l0,0c0,0,0.2,0,0.5,0.1c0.3,0.1,0.6,0.4,0.8,0.7c0,0.1,0,0.3,0,0.6c0,0.1,0,0.3,0,0.4v0.1C84.3,78,84.2,78,84,78.1
	l0,0c0-0.1,0-0.1,0-0.3s0-0.4-0.2-0.6c-0.2-0.4-0.6-0.6-0.9-0.7c-0.3-0.1-0.5-0.1-0.5-0.1l0,0c0,0,0.2,0,0.5,0.1
	c0.3,0.1,0.6,0.4,0.8,0.7c0,0.1,0,0.3,0,0.6c0,0.1,0,0.3,0,0.4c-0.3,0.1-0.5,0.3-0.8,0.4v-0.1c0-0.1,0-0.1,0-0.3
	c0-0.1,0-0.4-0.2-0.6c-0.2-0.4-0.6-0.6-0.9-0.7s-0.5-0.1-0.5-0.1l0,0c0,0,0.2,0,0.5,0.1c0.3,0.1,0.6,0.4,0.8,0.7c0,0.1,0,0.3,0,0.6
	c0,0.1,0,0.3,0,0.4v0.1c-0.2,0.1-0.3,0.1-0.6,0.3c0,0,0,0,0-0.1s0-0.1,0-0.3s0-0.4-0.2-0.6c-0.2-0.4-0.6-0.6-0.9-0.7
	s-0.5-0.1-0.5-0.1l0,0c0,0,0.2,0,0.5,0.1c0.3,0.1,0.6,0.4,0.8,0.7c0,0.1,0,0.3,0,0.6c0,0.1,0,0.3,0,0.4l0,0
	c-0.2,0.1-0.3,0.1-0.5,0.3v-0.1c0-0.1,0-0.4-0.2-0.6c-0.2-0.4-0.6-0.6-0.9-0.7s-0.5-0.1-0.5-0.1l0,0c0,0,0.2,0,0.5,0.1
	c0.3,0.1,0.6,0.4,0.8,0.7c0,0.1,0,0.3,0,0.6c0,0.1,0,0.3,0,0.4c-0.2,0.1-0.3,0.1-0.5,0.3l0,0c0-0.1,0-0.1,0-0.3s0-0.4-0.2-0.6
	c-0.2-0.4-0.6-0.6-0.9-0.7c-0.3-0.1-0.5-0.1-0.5-0.1l0,0c0,0,0.2,0,0.5,0.1c0.3,0.1,0.6,0.4,0.8,0.7c0,0.1,0,0.3,0,0.6
	c0,0.1,0,0.3,0,0.4l0,0c-0.3,0.1-0.5,0.3-0.8,0.4v-0.1c0-0.1,0-0.1,0-0.3s0-0.4-0.2-0.6c-0.2-0.4-0.6-0.6-0.9-0.7S78,78.7,78,78.7
	l0,0c0,0,0.2,0,0.5,0.1c0.3,0.1,0.6,0.4,0.8,0.7c0,0.1,0,0.3,0,0.6c0,0.1,0,0.3,0,0.4c0,0,0,0,0,0.1c-0.2,0.1-0.5,0.3-0.6,0.3v-0.1
	c0-0.1,0-0.1,0-0.3s0-0.4-0.2-0.6c-0.2-0.4-0.6-0.6-0.9-0.7s-0.5-0.1-0.5-0.1l0,0c0,0,0.2,0,0.5,0.1c0.3,0.1,0.6,0.4,0.8,0.7
	c0,0.1,0,0.3,0,0.6c0,0.1,0,0.3,0,0.4v0.1c-0.2,0.1-0.3,0.1-0.5,0.3c-0.2,0.1-0.3,0.1-0.5,0.3c0,0,0-0.1,0.2-0.1
	c0-0.1,0-0.1,0.2-0.3c0-0.1,0-0.1,0-0.3s0-0.4-0.2-0.6c-0.2-0.4-0.6-0.6-0.9-0.7s-0.5-0.1-0.5-0.1l0,0c0,0,0.2,0,0.5,0.1
	c0.3,0.1,0.6,0.4,0.8,0.7c0,0.1,0,0.3,0,0.6c0,0.1,0,0.3,0,0.4c0,0.1,0,0.3,0,0.3s0,0,0,0.1c-0.2,0.1-0.3,0.3-0.6,0.6
	c0,0,0-0.1,0-0.3c0-0.1,0-0.1,0-0.3s0-0.4-0.2-0.6c-0.2-0.4-0.6-0.6-0.9-0.7c-0.3-0.1-0.5-0.1-0.5-0.1l0,0c0,0,0.2,0,0.5,0.1
	c0.3,0.1,0.6,0.4,0.8,0.7c0,0.1,0,0.3,0,0.6c0,0.1,0,0.3,0,0.4c0,0.1,0,0.3,0,0.3l0,0c-0.2,0.3-0.5,0.6-0.6,0.9c0,0,0-0.1,0.2-0.1
	c0-0.1,0-0.1,0.2-0.3c0-0.1,0-0.1,0-0.3s0-0.4-0.2-0.6c-0.2-0.4-0.6-0.6-0.9-0.7c-0.3-0.1-0.5-0.1-0.5-0.1l0,0c0,0,0.2,0,0.5,0.1
	c0.3,0.1,0.6,0.4,0.8,0.7c0,0.1,0,0.3,0,0.6c0,0.1,0,0.3,0,0.4s0,0.3,0,0.3c0,0.1,0,0.1,0,0.1l0,0l0,0c-0.2,0-0.3,0.1-0.5,0.1
	c0-0.1,0-0.1,0-0.3s0-0.4-0.2-0.6c-0.2-0.4-0.6-0.6-0.9-0.7s-0.5-0.1-0.5-0.1l0,0c0,0,0.2,0,0.5,0.1c0.3,0.1,0.6,0.4,0.8,0.7
	c0,0.1,0,0.3,0,0.6c0,0.1,0,0.3,0,0.4l-0.6,0.3c0-0.1,0-0.1-0.2-0.3c-0.2-0.4-0.6-0.6-0.9-0.7c-0.3-0.1-0.5-0.1-0.5-0.1l0,0
	c0,0,0.2,0,0.5,0.1c0.3,0.1,0.6,0.4,0.8,0.7c0,0.1,0,0.1,0,0.3l-3.6,1.5c-0.5,0.1-0.9,0.3-1.2,0.6c0.5-1,1.4-2.5,3.3-4.9
	c1.5-2.1,11.6-7.7,18.2-11.3c0.9,0,1.5,0.3,1.8,0.7C92.9,72.5,92.8,73.2,92.6,73.7 M103.6,70.3c-0.9-0.6-2.3-0.6-3.2-0.4
	c-0.6-2.4-2.7-2.7-3.5-2.7c-0.8-1.8-2-2.1-2.9-2.4c-0.5-0.1-0.8-0.3-1.1-0.6c-0.2-0.1-0.2-0.4-0.2-0.6c0.2-0.3,0.5-0.3,0.6-0.4
	c1.4,0.6,2.4,0.6,3.3,0.1c1.4-0.7,1.5-2.2,1.5-2.4l0.2-1l-0.8,0.9c-0.6,0.7-1.2,1-1.5,0.9c-0.2,0-0.3-0.1-0.3-0.3
	c-0.2-0.4,0.2-1.2,1.1-2.1c0.8-0.6,0.9-1.3,0.9-1.8c1.2,0.6,3.5,1.6,5,1.6c0.5,0,0.8,0,1.1-0.1c0.2,1.2,0.2,2.2,0.2,3.4
	C104.4,65.1,104.1,67.7,103.6,70.3"/>
<path class="st2" d="M40.4,48.5L40.4,48.5L40.4,48.5z"/>
<path class="st1" d="M57.5,39.9c0,0,0.8-0.1,2-0.3c0.6,0,1.4,0,2.1,0c0.8,0.1,1.7,0.3,2.4,0.6c0.8,0.3,1.5,0.9,2,1.5
	c0.3,0.3,0.5,0.6,0.6,1c0.2,0.3,0.2,0.6,0.2,1c0,0.3,0,0.6,0,0.9s0,0.4,0,0.6c0,0.3-0.2,0.6-0.2,0.6s0-0.1,0-0.6c0-0.1,0-0.4,0-0.6
	c0-0.3,0-0.4-0.2-0.7c0-0.3-0.2-0.6-0.3-0.9c-0.2-0.3-0.3-0.6-0.6-0.9c-0.5-0.6-1.1-1-1.8-1.3c-0.8-0.3-1.5-0.4-2.3-0.6
	C60.7,40,59.9,40,59.3,40C58.4,39.9,57.5,39.9,57.5,39.9"/>
<path class="st1" d="M53.8,57.5c0,0,0.3,0,0.8-0.1c0.5-0.1,1.1-0.3,1.5-0.6c0.3-0.1,0.5-0.3,0.6-0.6c0.2-0.1,0.3-0.4,0.5-0.6
	c0-0.1,0.2-0.4,0.2-0.6c0-0.1,0-0.1,0-0.1V55c0,0.1,0,0.3,0,0.6c0,0.3-0.2,0.4-0.3,0.7c-0.2,0.1-0.5,0.4-0.8,0.6
	c-0.6,0.3-1.2,0.4-1.7,0.6C54.1,57.5,53.8,57.5,53.8,57.5"/>
<polygon class="st1" points="93.8,107 91.4,102.6 91.4,102.7 95,112.5 94,113.1 86.9,105.4 86.9,105.4 89.8,109.5 92.5,114 
	91.6,114.6 84.9,104.1 86.4,103.2 93.1,110.4 89.6,101.2 91.1,100.5 97.6,111 96.5,111.6 "/>
<path class="st1" d="M102.6,107l-7.4-10.1l1.5-1.5l9.9,7.7l-0.9,0.7l-2.9-2.2l-1.5,1.5l2.1,3L102.6,107z M96.7,97.1l3.9,5.3l1.4-1.2
	L96.7,97.1L96.7,97.1z"/>
<path class="st1" d="M103.5,90.1c-0.2-0.1-0.6-0.1-0.8,0.1l-0.5,0.6c-0.2,0.1-0.2,0.6,0.2,0.7l7.4,5.2c0.3,0.1,0.6,0.1,0.8-0.1
	l0.5-0.6c0.2-0.1,0.2-0.6-0.2-0.7l-2.9-1.9l-0.5,0.6l-0.9-0.6l1.2-1.6l3.6,2.5c0.8,0.6,0.9,1.6,0.5,2.4l-0.5,0.6
	c-0.6,0.7-1.7,0.9-2.4,0.4l-7.4-5.2c-0.8-0.6-0.9-1.6-0.5-2.4l0.5-0.6c0.6-0.7,1.7-0.9,2.4-0.4l1.2,0.7l-0.8,0.9L103.5,90.1z"/>
<polygon class="st1" points="106.9,83.3 116,87.8 116.4,86.7 117.5,87.3 116.1,90.1 115,89.7 115.5,88.8 106.3,84.3 105.9,85.2 
	104.8,84.8 106.3,81.8 107.4,82.4 "/>
<path class="st1" d="M110.2,75.7c-0.3-0.1-0.6,0-0.6,0.3l-0.2,0.7c-0.2,0.3,0.2,0.6,0.3,0.6l8.7,2.5c0.3,0.1,0.6-0.1,0.6-0.3
	l0.2-0.7c0.2-0.3,0-0.6-0.3-0.6l-1.8-0.6l0.3-1.2l1.8,0.6c0.9,0.3,1.4,1.2,1.2,2.1l-0.2,0.7c-0.3,0.9-1.2,1.3-2.1,1.2l-8.7-2.5
	c-0.9-0.3-1.4-1.2-1.2-2.1l0.2-0.7c0.3-0.9,1.2-1.3,2.1-1.2l1.4,0.4l-0.3,1.2L110.2,75.7z"/>
<polygon class="st1" points="14.9,83 19.7,81.7 19.7,81.5 9.2,83.2 8.9,82 17.9,76.8 17.9,76.6 13.3,78.6 8.3,80.3 7.8,79.3 
	19.6,75.2 20.2,76.8 11.6,81.7 21.4,80.2 22,81.7 10.2,85.8 9.8,84.8 "/>
<path class="st1" d="M15.2,91.8c-0.3,0.1-0.3,0.4-0.2,0.7l0.6,1c0.2,0.3,0.5,0.3,0.8,0.1l9.2-5.5l0.6,1L17,94.7
	c-0.8,0.4-1.8,0.1-2.3-0.6l-0.6-1c-0.5-0.7-0.3-1.8,0.6-2.2l9.2-5.5l0.6,1L15.2,91.8z"/>
<path class="st1" d="M21.4,100.2c-0.2,0.1-0.2,0.4,0,0.7l0.6,0.6c0.2,0.1,0.5,0.3,0.8,0l1.7-1.3c0.3-0.3,0.6-0.6,0.6-1l0.5-3.1
	c0.2-0.6,0.5-1.2,1.1-1.6l1.1-0.9c0.8-0.6,1.8-0.6,2.4,0.1l0.6,0.6c0.6,0.7,0.6,1.8-0.2,2.4l-1.1,0.9l-0.8-0.9l1.1-0.9
	c0.2-0.1,0.2-0.4,0-0.7l-0.6-0.6c-0.2-0.1-0.5-0.1-0.8,0l-1.1,0.9c-0.3,0.3-0.6,0.6-0.6,1l-0.5,3.1c-0.2,0.7-0.5,1.2-1.1,1.6
	l-1.7,1.3c-0.8,0.6-1.8,0.6-2.4-0.1l-0.6-0.6c-0.6-0.7-0.6-1.8,0.2-2.4l1.4-1.2l0.8,0.9L21.4,100.2z"/>
<polygon class="st1" points="35.4,100.2 29.1,108.1 30,108.7 29.2,109.7 26.7,107.6 27.4,106.7 28.2,107.3 34.5,99.6 33.7,98.9 
	34.5,98 36.9,99.9 36.1,100.9 "/>
<path class="st1" d="M42.2,105.1c0.2-0.3,0-0.6-0.2-0.7l-0.6-0.3c-0.3-0.1-0.6,0-0.8,0.1l-4.4,7.9c-0.2,0.3,0,0.6,0.2,0.7l0.6,0.3
	c0.3,0.1,0.6,0,0.8-0.1l0.9-1.6l1.1,0.6l-0.9,1.6c-0.5,0.7-1.5,1-2.3,0.6l-0.6-0.3c-0.8-0.4-1.1-1.5-0.6-2.2l4.4-7.9
	c0.5-0.7,1.5-1,2.3-0.6l0.6,0.3c0.8,0.4,1.1,1.5,0.6,2.2l-0.6,1.2l-1.1-0.6L42.2,105.1z"/>
</svg>
