<?xml version="1.0" encoding="utf-8"?>
<!-- Generator: Adobe Illustrator 21.0.2, SVG Export Plug-In . SVG Version: 6.00 Build 0)  -->
<svg version="1.1" id="Layer_1" xmlns="http://www.w3.org/2000/svg" xmlns:xlink="http://www.w3.org/1999/xlink" x="0px" y="0px"
	 viewBox="0 0 190.5 47.5" style="enable-background:new 0 0 190.5 47.5;" xml:space="preserve">
<style type="text/css">
	.st0{fill:#FFFFFE;}
	.st1{fill:#615E5D;}
</style>
<g>
	<polyline class="st0" points="45.8,12 31,1.7 16,12.2 0.5,1.7 0.5,47 60.8,47 60.8,1.7 45.8,12 	"/>
</g>
<g>
	<path class="st1" d="M61.3,47.5H0V0.8l16,10.9L31,1.1l14.8,10.4L61.3,0.8V47.5z M1,46.5h59.4V2.6l-14.5,10L31,2.3L16,12.8L1,2.6
		V46.5z"/>
</g>
<g>
	<polyline class="st1" points="37.3,6.2 30.1,1 23.1,6 28.5,10.2 23.8,46.3 35.3,46.3 31.2,10.4 37.3,6.2 	"/>
</g>
<g>
	<path class="st1" d="M76.8,5.9c0-0.7,0-1.3,0.2-2c0.2-0.7,0.4-1.2,1.1-1.7c0.4-0.5,1.1-1,1.8-1.2c0.7-0.3,1.8-0.5,2.7-0.5
		c0.4,0,0.9,0,1.6,0.2c0.4,0,1.1,0.2,1.8,0.5l0.4-0.5h0.9v3h-0.9l-0.7-1.5c-0.4-0.2-0.7-0.3-1.1-0.3c-0.4,0-0.9-0.2-1.6-0.2
		c-0.7,0-1.3,0.2-1.8,0.3c-0.4,0.2-0.9,0.5-1.1,0.8s-0.4,0.8-0.7,1.3c-0.2,0.5-0.2,1-0.2,1.7c0,0.5,0,1,0.2,1.5
		c0,0.5,0.2,0.8,0.7,1.3c0.2,0.3,0.7,0.7,1.3,0.8c0.4,0.2,1.3,0.3,2.2,0.3c0.4,0,1.1,0,1.8,0c0.7,0,1.3-0.2,2-0.3l0.4,1
		c-0.7,0.3-1.3,0.5-2.2,0.5c-0.9,0.2-1.6,0.2-2.2,0.2c-2,0-3.6-0.5-4.5-1.3C77.4,8.9,76.8,7.5,76.8,5.9"/>
</g>
<g>
	<polyline class="st1" points="94.9,10.7 89.1,10.7 89.1,10 90.9,9.5 90.9,1.7 89.1,1.3 89.1,0.7 94.9,0.7 94.9,1.3 93.1,1.7 
		93.1,9.5 94.9,9.9 94.9,10.7 	"/>
</g>
<g>
	<path class="st1" d="M101.9,0.3c0.4,0,0.9,0,1.3,0c0.7,0,1.1,0.2,1.8,0.3l0.2-0.5h0.7v3.2H105l-0.9-1.7c-0.4-0.2-0.9-0.3-1.3-0.3
		c-0.4,0-0.9-0.2-1.3-0.2c-0.7,0-1.1,0.2-1.6,0.3c-0.4,0.2-0.7,0.5-0.7,0.8s0.2,0.7,0.9,1c0.7,0.3,1.6,0.7,2.7,1
		c0.4,0.2,0.9,0.3,1.3,0.5c0.4,0.2,0.9,0.3,1.1,0.7c0.2,0.2,0.7,0.5,0.7,0.8c0.2,0.3,0.2,0.7,0.2,1.2c0,0.3,0,0.8-0.2,1.2
		c-0.2,0.3-0.4,0.7-0.9,1c-0.4,0.3-0.9,0.5-1.6,0.7c-0.7,0.2-1.6,0.2-2.5,0.2c-0.2,0-0.4,0-0.7,0c-0.2,0-0.7,0-0.9,0
		c-0.2,0-0.7-0.2-0.9-0.2c-0.2,0-0.7-0.2-0.9-0.2l-0.4,0.5h-0.7l-0.2-3.3h0.9L97.8,9c0.4,0.3,0.9,0.5,1.6,0.5
		c0.4,0.2,1.1,0.2,1.6,0.2c0.9,0,1.8-0.2,2.2-0.5c0.4-0.3,0.7-0.7,0.7-1.2c0-0.3,0-0.5-0.2-0.7c-0.2-0.2-0.4-0.3-0.7-0.7
		c-0.2-0.2-0.7-0.3-1.1-0.5c-0.4-0.2-0.9-0.3-1.3-0.5c-0.7-0.2-1.1-0.3-1.8-0.7c-0.4-0.2-0.9-0.3-1.3-0.7c-0.4-0.2-0.7-0.5-0.7-0.8
		s-0.2-0.7-0.2-1s0-0.7,0.2-1c0.2-0.3,0.4-0.7,0.9-0.8C98.1,0.5,98.5,0.2,99,0C100.3,0.5,101,0.3,101.9,0.3"/>
</g>
<g>
	<path class="st1" d="M117.6,10.7c-0.4,0-0.7,0-0.9,0s-0.4,0-0.7,0c-0.2,0-0.4,0-0.7,0c-0.2,0-0.4,0-0.9,0V10l1.8-0.3V1.8l-1.6-0.3
		l0.2-0.7c0.4,0,0.7,0,0.9,0c0.2,0,0.4,0,0.4,0c0.2,0,0.2,0,0.4,0c0.2,0,0.4,0,0.7,0c0.4,0,0.7,0,0.9,0c0.2,0,0.4,0,0.7,0
		c0.2,0,0.4,0,0.7,0c0.2,0,0.4,0,0.7,0c1.3,0,2.2,0.2,3.1,0.5c0.9,0.3,1.6,0.7,2,1.2c0.4,0.5,0.9,1,1.1,1.5c0.2,0.7,0.2,1.2,0.2,1.8
		c0,0.3,0,0.7,0,1s-0.2,0.7-0.4,1.2c-0.2,0.3-0.4,0.7-0.7,1.2c-0.2,0.3-0.7,0.7-1.1,1c-0.4,0.3-1.1,0.5-1.8,0.7
		c-0.7,0.2-1.3,0.3-2.2,0.3c0,0-0.2,0-0.4,0c-0.2,0-0.7,0-0.9,0c-0.4,0-0.7,0-0.9,0C118,10.7,117.8,10.7,117.6,10.7 M118.3,9.5
		c0.2,0,0.7,0,0.9,0.2c0.4,0,0.7,0,0.9,0c0.9,0,1.6-0.2,2-0.3c0.7-0.2,1.1-0.5,1.3-0.8c0.4-0.3,0.7-0.8,0.7-1.3
		c0.2-0.5,0.2-1,0.2-1.5c0-0.8-0.2-1.3-0.4-1.8c-0.2-0.5-0.7-0.8-1.1-1.2c-0.4-0.3-0.9-0.5-1.6-0.7c-0.7-0.2-1.3-0.2-2-0.2
		c-0.2,0-0.4,0-0.7,0c-0.2,0-0.4,0-0.7,0v7.7H118.3z"/>
</g>
<g>
	<path class="st1" d="M139.8,7.7l-0.4,2.8l-0.2,0.2c-0.4,0-0.9,0-1.3,0s-0.7,0-1.1,0c-0.4,0-0.7,0-1.1,0s-0.9,0-1.3,0
		c-0.4,0-0.7,0-1.1,0s-0.9,0-1.3,0c-0.4,0-0.9,0-1.3,0s-0.9,0-1.3,0V10l1.8-0.3V1.8l-1.6-0.3l0.2-0.7c0.2,0,0.7,0,1.1,0s0.9,0,1.3,0
		c0.4,0,0.9,0,1.3,0s0.7,0,1.1,0c0.4,0,0.9,0,1.1,0c0.4,0,0.7,0,1.1,0c0.4,0,0.7,0,1.1,0s0.7,0,1.1,0l0.2,0.2v2.7l-0.9,0.2L137.3,2
		h-4.5v3.3l4.9-0.2v1.2l-4.9-0.2v3.3c0.2,0,0.7,0,1.1,0c0.4,0,0.9,0,1.3,0s0.9,0,1.3,0s0.9,0,1.1,0l1.3-1.8H139.8"/>
</g>
<g>
	<path class="st1" d="M141.4,1.3l0.2-0.7c0.4,0,0.9,0,1.1,0c0.4,0,0.7,0,1.1,0c0.7,0,1.3,0,2,0c0.7,0,1.3,0,2,0c0.9,0,1.6,0,2,0.2
		c0.4,0.2,0.9,0.3,1.1,0.7c0.2,0.2,0.4,0.5,0.7,0.7c0,0.3,0.2,0.5,0.2,0.7c0,0.3,0,0.5-0.2,0.8c-0.2,0.2-0.4,0.5-0.7,0.7
		c-0.2,0.2-0.4,0.3-0.7,0.5C150.1,5,149.9,5,149.7,5l0,0c0.9,0.2,1.8,0.5,2.2,0.8c0.7,0.5,0.9,1,0.9,1.8c0,0.5,0,0.8-0.2,1.2
		c-0.2,0.3-0.4,0.7-0.9,1c-0.4,0.3-0.9,0.5-1.3,0.7c-0.4,0.2-1.1,0.2-1.6,0.2c-0.7,0-1.3,0-2,0c-0.7,0-1.3,0-2,0c-0.4,0-1.1,0-1.6,0
		s-1.1,0-1.6,0V10l1.8-0.3V1.8L141.4,1.3 M146.7,4.7c0.7,0,1.1,0,1.6-0.2c0.4-0.2,0.7-0.3,0.9-0.5c0.2-0.2,0.4-0.3,0.4-0.5
		c0-0.2,0.2-0.3,0.2-0.3c0-0.5-0.2-1-0.7-1.2c-0.4-0.2-1.1-0.3-2-0.3H147c-0.2,0-0.2,0-0.4,0s-0.2,0-0.4,0c-0.2,0-0.2,0-0.4,0v7.7
		c0.2,0,0.2,0,0.4,0c0.2,0,0.4,0,0.4,0c0.2,0,0.4,0,0.4,0c0.2,0,0.2,0,0.4,0c1.1,0,2-0.2,2.5-0.5c0.4-0.3,0.9-0.8,0.9-1.3
		c0-0.3,0-0.5-0.2-0.8c-0.2-0.2-0.4-0.5-0.7-0.7c-0.2-0.2-0.7-0.3-1.1-0.5c-0.4-0.2-1.1-0.2-1.8-0.2L146.7,4.7L146.7,4.7z"/>
</g>
<g>
	<path class="st1" d="M160,0.7c0.9,0,2,0,2.9,0c0.9,0,1.8,0,2.9,0l0.2,0.2v2.8l-0.9,0.2l-0.9-2h-3.1v7.7l1.8,0.3v0.7h-5.8V9.9
		l1.8-0.5v-8h-3.1l-0.9,2l-0.9-0.2V0.3l0.2-0.2c0.9,0,1.8,0,2.7,0C158,0.7,158.9,0.7,160,0.7"/>
</g>
<g>
	<path class="st1" d="M82.6,23.9L82.6,23.9c-0.4,0-0.7,0-1.1,0c-0.2,0-0.7,0-1.1-0.2v3.3l1.8,0.3v0.7h-5.8v-0.7l1.8-0.3v-7.9
		l-1.6-0.5l0.2-0.7c0.2,0,0.4,0,0.7,0c0.2,0,0.4,0,0.4,0c0.2,0,0.4,0,0.7,0c0.2,0,0.4,0,0.9,0c0.7,0,1.1,0,1.8,0c0.7,0,1.3,0,1.8,0
		c0.7,0,1.3,0,1.8,0.2c0.4,0.2,1.1,0.3,1.3,0.5c0.4,0.2,0.7,0.5,0.9,0.8c0.2,0.3,0.4,0.8,0.4,1.2s0,0.7-0.2,0.8
		c0,0.3-0.2,0.5-0.4,0.8c-0.2,0.2-0.4,0.5-0.9,0.7c-0.4,0.2-0.9,0.3-1.3,0.5l4.3,4l-0.2,0.5l-1.8,0.3L82.6,23.9 M85.1,20.9
		c0-0.3,0-0.7-0.2-0.8c-0.2-0.2-0.4-0.5-0.7-0.5c-0.2-0.2-0.7-0.2-1.1-0.3c-0.4,0-0.9-0.2-1.3-0.2c-0.4,0-0.9,0-1.6,0.2v3.5
		c0.2,0,0.4,0,0.9,0c0.2,0,0.4,0,0.7,0c0.7,0,1.3,0,1.8-0.2c0.4-0.2,0.7-0.3,1.1-0.5c0.2-0.2,0.4-0.3,0.4-0.7
		C85.1,21.4,85.1,21.2,85.1,20.9z"/>
</g>
<g>
	<path class="st1" d="M100.8,25.3l-0.4,2.7l-0.2,0.2c-0.4,0-0.9,0-1.3,0c-0.4,0-0.7,0-1.1,0c-0.4,0-0.9,0-1.1,0c-0.4,0-0.9,0-1.3,0
		c-0.4,0-0.7,0-1.1,0c-0.4,0-0.9,0-1.3,0c-0.4,0-0.9,0-1.3,0c-0.4,0-0.9,0-1.3,0v-0.7l1.8-0.3v-7.9L90,18.9l0.2-0.7
		c0.2,0,0.7,0,1.1,0c0.4,0,0.9,0,1.3,0c0.4,0,0.9,0,1.3,0s0.7,0,1.1,0c0.4,0,0.9,0,1.1,0c0.4,0,0.7,0,1.1,0c0.4,0,0.7,0,1.1,0
		c0.4,0,0.7,0,1.1,0l0.2,0.2v2.7L99,21.2l-0.9-1.8h-4.5v3.3l4.9-0.2v1.2l-4.9-0.2v3.7c0.2,0,0.7,0,1.1,0c0.4,0,0.9,0,1.3,0
		c0.4,0,0.9,0,1.3,0c0.4,0,0.9,0,1.1,0l1.3-1.8L100.8,25.3"/>
</g>
<g>
	<path class="st1" d="M102.6,23.2c0-0.7,0-1.3,0.2-2c0.2-0.7,0.4-1.2,1.1-1.7c0.4-0.5,1.1-1,1.8-1.2c0.7-0.3,1.8-0.5,2.7-0.5
		c0.4,0,0.9,0,1.6,0.2c0.4,0,1.1,0.2,1.8,0.5l0.4-0.5h0.9v3h-0.9l-0.7-1.5c-0.4-0.2-0.7-0.3-1.1-0.3c-0.4,0-0.9-0.2-1.6-0.2
		c-0.7,0-1.3,0.2-1.8,0.3c-0.4,0.2-0.9,0.5-1.1,0.8c-0.2,0.3-0.4,0.8-0.7,1.3c-0.2,0.5-0.2,1-0.2,1.7c0,0.5,0,1,0.2,1.5
		c0,0.5,0.2,0.8,0.7,1.3c0.2,0.3,0.7,0.7,1.3,0.8c0.4,0.2,1.3,0.3,2.2,0.3c0.4,0,1.1,0,1.8,0c0.7,0,1.3-0.2,2-0.3l0.4,1
		c-0.7,0.3-1.3,0.5-2.2,0.5c-0.9,0.2-1.6,0.2-2.2,0.2c-2,0-3.6-0.5-4.5-1.3C103.2,26.3,102.6,25.1,102.6,23.2"/>
</g>
<g>
	<path class="st1" d="M127,23.1c0,0.7-0.2,1.3-0.4,2c-0.2,0.7-0.7,1.2-1.1,1.7c-0.4,0.5-1.1,0.8-2,1.2c-0.9,0.3-1.8,0.5-2.9,0.5
		c-2,0-3.4-0.5-4.5-1.3c-1.1-0.8-1.6-2.2-1.6-3.8c0-0.7,0.2-1.3,0.4-2c0.2-0.7,0.7-1.2,1.1-1.7c0.4-0.5,1.1-0.8,2-1.2
		c0.9-0.3,1.8-0.5,2.9-0.5c0.9,0,1.8,0.2,2.5,0.3c0.7,0.2,1.3,0.5,1.8,1c0.4,0.5,0.9,1,1.1,1.7C127,21.6,127,22.2,127,23.1
		 M120.9,18.9c-0.7,0-1.3,0.2-1.8,0.3c-0.4,0.2-0.9,0.5-1.1,0.8c-0.2,0.3-0.4,0.8-0.7,1.3c-0.2,0.5-0.2,1-0.2,1.5
		c0,0.7,0,1.2,0.2,1.7c0.2,0.5,0.4,1,0.7,1.3c0.2,0.3,0.7,0.7,1.1,0.8c0.4,0.2,1.1,0.3,1.8,0.3c0.7,0,1.3-0.2,1.8-0.3
		c0.4-0.2,0.9-0.5,1.1-0.8s0.4-0.8,0.7-1.3c0.2-0.5,0.2-1,0.2-1.5c0-0.5,0-1.2-0.2-1.7c-0.2-0.5-0.4-1-0.7-1.3
		c-0.2-0.3-0.7-0.7-1.1-0.8C122.3,19.1,121.6,18.9,120.9,18.9z"/>
</g>
<g>
	<path class="st1" d="M127.7,18.1h3.6c0,0.3,0,0.5,0.2,0.8c0,0.3,0.2,0.5,0.2,0.8l1.8,3.3l1.6,3.3l0,0l1.3-3.3l1.6-3.7l-2-0.3v-0.7
		h4.9v0.7c-0.7,0.2-0.9,0.5-1.3,0.8c-0.2,0.3-0.7,0.8-0.9,1.5l-3.4,7l-1.8,0.2l-5.2-9.2l-1.3-0.3L127.7,18.1"/>
</g>
<g>
	<path class="st1" d="M153.2,25.3l-0.7,2.7l-0.2,0.2c-0.4,0-0.9,0-1.3,0c-0.4,0-0.7,0-1.1,0s-0.9,0-1.1,0c-0.4,0-0.9,0-1.3,0
		s-0.7,0-1.1,0c-0.4,0-0.9,0-1.3,0s-0.9,0-1.3,0c-0.4,0-0.9,0-1.3,0v-0.7l1.8-0.3v-7.9l-1.6-0.3l0.2-0.7c0.2,0,0.7,0,1.1,0
		c0.4,0,0.9,0,1.3,0s0.9,0,1.3,0c0.4,0,0.7,0,1.1,0s0.9,0,1.1,0c0.4,0,0.7,0,1.1,0s0.7,0,1.1,0c0.4,0,0.7,0,1.1,0l0.2,0.2v2.7
		l-0.9,0.2l-0.9-2h-4.5v3.3l4.9-0.2v1.2l-4.9-0.2v3.7c0.2,0,0.7,0,1.1,0s0.9,0,1.3,0c0.4,0,0.9,0,1.3,0s0.9,0,1.1,0l1.3-1.8H153.2"
		/>
</g>
<g>
	<path class="st1" d="M160.6,23.9L160.6,23.9c-0.4,0-0.7,0-1.1,0c-0.2,0-0.7,0-1.1-0.2v3.3l1.8,0.3v0.7h-5.8v-0.7l1.8-0.3v-7.9
		l-1.6-0.3l0.2-0.7c0.2,0,0.4,0,0.7,0c0.2,0,0.4,0,0.4,0c0.2,0,0.4,0,0.7,0c0.2,0,0.4,0,0.9,0c0.7,0,1.1,0,1.8,0c0.7,0,1.3,0,1.8,0
		c0.7,0,1.3,0,1.8,0.2c0.4,0.2,1.1,0.3,1.3,0.5c0.4,0.2,0.7,0.5,0.9,0.8c0.2,0.3,0.4,0.8,0.4,1.2s0,0.7-0.2,0.8
		c0,0.3-0.2,0.5-0.4,0.8c-0.2,0.2-0.4,0.5-0.9,0.7c-0.4,0.2-0.9,0.3-1.3,0.5l4.3,4l-0.2,0.5l-1.8,0.3L160.6,23.9 M163.3,20.9
		c0-0.3,0-0.7-0.2-0.8c-0.2-0.2-0.4-0.5-0.7-0.5c-0.2-0.2-0.7-0.2-1.1-0.3c-0.4,0-0.9-0.2-1.3-0.2s-0.9,0-1.6,0.2v3.5
		c0.2,0,0.4,0,0.9,0c0.2,0,0.4,0,0.7,0c0.7,0,1.3,0,1.8-0.2c0.4-0.2,0.7-0.3,1.1-0.5c0.2-0.2,0.4-0.3,0.4-0.7
		C163.3,21.4,163.3,21.2,163.3,20.9z"/>
</g>
<g>
	<path class="st1" d="M173.4,22.7l2.5-3.5l-1.8-0.3v-0.7h4.7v0.7c-0.2,0.2-0.7,0.2-0.9,0.3c-0.2,0.2-0.4,0.3-0.7,0.3
		c-0.2,0.2-0.4,0.3-0.7,0.5c-0.2,0.2-0.4,0.5-0.7,0.7l-2.2,2.8v3.3l1.8,0.3v0.7h-5.8v-0.7l1.8-0.3v-3l-3.6-4.9l-1.6-0.3v-0.7h3.8
		c0,0.3,0,0.5,0.2,0.7c0,0.2,0.2,0.5,0.4,0.7L173.4,22.7L173.4,22.7"/>
</g>
<g>
	<path class="st1" d="M81.5,35.3c0.4,0,0.9,0,1.3,0c0.7,0,1.1,0.2,1.8,0.3l0.2-0.5h0.7v3.2h-0.9l-0.9-1.7c-0.4-0.2-0.9-0.3-1.3-0.3
		c-0.4,0-0.9-0.2-1.3-0.2c-0.7,0-1.1,0.2-1.6,0.3c-0.4,0.2-0.7,0.5-0.7,0.8s0.2,0.7,0.9,1c0.7,0.3,1.6,0.7,2.7,1
		c0.4,0.2,0.9,0.3,1.3,0.5c0.4,0.2,0.9,0.3,1.1,0.7c0.2,0.2,0.7,0.5,0.7,0.8c0.2,0.3,0.2,0.7,0.2,1.2c0,0.3,0,0.8-0.2,1.2
		c-0.2,0.3-0.4,0.7-0.9,1c-0.4,0.3-0.9,0.5-1.6,0.7c-0.7,0.2-1.6,0.2-2.5,0.2c-0.2,0-0.4,0-0.7,0c-0.2,0-0.7,0-0.9,0
		c-0.2,0-0.7-0.2-0.9-0.2c-0.2,0-0.7-0.2-0.9-0.2l-0.4,0.5h-0.7l-0.2-3.3h0.9l0.7,1.7c0.4,0.3,0.9,0.5,1.6,0.5
		c0.4,0.2,1.1,0.2,1.6,0.2c0.9,0,1.8-0.2,2.2-0.5c0.4-0.3,0.7-0.7,0.7-1.2c0-0.3,0-0.5-0.2-0.7c-0.2-0.2-0.4-0.3-0.7-0.7
		c-0.2-0.2-0.7-0.3-1.1-0.5c-0.4-0.2-0.9-0.3-1.3-0.5c-0.7-0.2-1.1-0.3-1.8-0.7c-0.4-0.2-0.9-0.3-1.3-0.7c-0.4-0.2-0.7-0.5-0.7-0.8
		c-0.2-0.3-0.2-0.7-0.2-1c0-0.3,0-0.7,0.2-1c0.2-0.3,0.4-0.7,0.9-0.8c0.4-0.2,0.9-0.5,1.3-0.7C79.9,35.5,80.6,35.3,81.5,35.3"/>
</g>
<g>
	<path class="st1" d="M100.8,40.5c0,0.7-0.2,1.3-0.4,2s-0.7,1.2-1.1,1.7c-0.4,0.5-1.1,0.8-2,1.2c-0.9,0.3-1.8,0.5-2.9,0.5
		c-2,0-3.4-0.5-4.5-1.3s-1.6-2.2-1.6-3.8c0-0.7,0.2-1.3,0.4-2c0.2-0.7,0.7-1.2,1.1-1.7c0.4-0.5,1.1-0.8,2-1.2s1.8-0.5,2.9-0.5
		c0.9,0,1.8,0.2,2.5,0.3c0.7,0.2,1.3,0.5,1.8,1c0.4,0.5,0.9,1,1.1,1.7C100.5,39,100.8,39.6,100.8,40.5 M94.5,36.5
		c-0.7,0-1.3,0.2-1.8,0.3c-0.4,0.2-0.9,0.5-1.1,0.8s-0.4,0.8-0.7,1.3c-0.2,0.5-0.2,1-0.2,1.5c0,0.7,0,1.2,0.2,1.7
		c0.2,0.5,0.4,1,0.7,1.3c0.2,0.3,0.7,0.7,1.1,0.8c0.4,0.2,1.1,0.3,1.8,0.3c0.7,0,1.3-0.2,1.8-0.3c0.4-0.2,0.9-0.5,1.1-0.8
		c0.2-0.3,0.4-0.8,0.7-1.3c0.2-0.5,0.2-1,0.2-1.5c0-0.5,0-1.2-0.2-1.7s-0.4-1-0.7-1.3c-0.2-0.3-0.7-0.7-1.1-0.8
		C95.8,36.6,95.4,36.5,94.5,36.5z"/>
</g>
<g>
	<path class="st1" d="M113.8,42.7l-0.4,2.8l-0.2,0.2c-0.4,0-0.9,0-1.3,0c-0.4,0-0.9,0-1.1,0c-0.4,0-0.9,0-1.3,0s-0.9,0-1.3,0
		c-0.4,0-0.7,0-1.1,0s-0.9,0-1.3,0c-0.4,0-0.9,0-1.3,0c-0.4,0-0.9,0-1.3,0V45l1.8-0.5v-7.9l-2-0.3v-0.7h5.8v0.7l-1.8,0.3v7.9
		c0.2,0,0.7,0,1.1,0c0.4,0,0.9,0,1.6,0c0.4,0,1.1,0,1.6,0c0.4,0,0.9,0,1.1,0l1.3-2L113.8,42.7"/>
</g>
<g>
	<path class="st1" d="M125.2,36.6l-1.8-0.3v-0.7h5.2v0.7l-1.8,0.3v5.7c0,0.7-0.2,1.2-0.4,1.7s-0.7,0.8-1.1,1
		c-0.4,0.3-1.1,0.5-1.8,0.5c-0.7,0.2-1.3,0.2-2,0.2s-1.3,0-1.8-0.2c-0.7-0.2-1.1-0.3-1.6-0.5c-0.4-0.3-0.9-0.7-1.1-1
		c-0.2-0.3-0.4-0.8-0.4-1.5v-5.9l-1.8-0.3v-0.7h5.8v0.7l-1.8,0.3V42c0,0.3,0,0.7,0,1c0,0.3,0.2,0.7,0.4,0.8c0.2,0.2,0.4,0.5,0.9,0.5
		c0.4,0.2,0.9,0.2,1.8,0.2c0.7,0,1.1,0,1.6-0.2c0.4-0.2,0.7-0.3,0.9-0.7c0.2-0.3,0.4-0.5,0.4-0.8c0-0.3,0.2-0.7,0.2-1.2v-5"/>
</g>
<g>
	<path class="st1" d="M135.3,35.6c0.9,0,2,0,2.9,0c0.9,0,1.8,0,2.9,0l0.2,0.2v2.8l-0.9,0.2l-1.1-2.2h-3.1v8L138,45v0.7h-5.8V45
		l1.8-0.5v-8h-3.1l-0.9,2l-0.9-0.2v-2.8l0.2-0.2c0.9,0,1.8,0,2.7,0C133.3,35.6,134.2,35.6,135.3,35.6"/>
</g>
<g>
	<polyline class="st1" points="148.5,45.7 142.7,45.7 142.5,45 144.3,44.7 144.3,36.6 142.5,36.3 142.7,35.6 148.5,35.6 148.5,36.3 
		146.5,36.6 146.5,44.7 148.5,45 148.5,45.7 	"/>
</g>
<g>
	<path class="st1" d="M163.1,40.5c0,0.7-0.2,1.3-0.4,2s-0.7,1.2-1.1,1.7c-0.4,0.5-1.1,0.8-2,1.2c-0.9,0.3-1.8,0.5-2.9,0.5
		c-2,0-3.4-0.5-4.5-1.3s-1.6-2.2-1.6-3.8c0-0.7,0.2-1.3,0.4-2c0.2-0.7,0.7-1.2,1.1-1.7s1.1-0.8,2-1.2c0.9-0.3,1.8-0.5,2.9-0.5
		c0.9,0,1.8,0.2,2.5,0.3c0.7,0.2,1.3,0.5,1.8,1s0.9,1,1.1,1.7C162.9,39,163.1,39.6,163.1,40.5 M156.8,36.5c-0.7,0-1.3,0.2-1.8,0.3
		c-0.4,0.2-0.9,0.5-1.1,0.8s-0.4,0.8-0.7,1.3c-0.2,0.5-0.2,1-0.2,1.5c0,0.7,0,1.2,0.2,1.7c0.2,0.5,0.4,1,0.7,1.3
		c0.2,0.3,0.7,0.7,1.1,0.8c0.4,0.2,1.1,0.3,1.8,0.3s1.3-0.2,1.8-0.3c0.4-0.2,0.9-0.5,1.1-0.8s0.4-0.8,0.7-1.3c0.2-0.5,0.2-1,0.2-1.5
		c0-0.5,0-1.2-0.2-1.7s-0.4-1-0.7-1.3c-0.2-0.3-0.7-0.7-1.1-0.8C158.2,36.6,157.7,36.5,156.8,36.5z"/>
</g>
<g>
	<path class="st1" d="M176.4,42.8c0-0.3,0-0.8,0-1.3s0-1.2,0-1.7s0-1.2,0-1.7s0-1,0-1.3l-1.8-0.3v-0.7h5.4v0.7l-2,0.3
		c0,0.3,0,0.7,0,1.2s0,1,0,1.5c0,0.5,0,1.2,0,1.7c0,0.7,0,1.2,0,1.7s0,1,0,1.5c0,0.5,0,0.8,0,1.2l-1.1,0.2l-5.2-5.2l-2.9-3l0,0v6.9
		l2,0.3v0.7h-5.6v-0.7l2-0.3l0.2-7.9l-2-0.5l0.2-0.7c0.9,0,1.8,0,2.5,0s1.3,0,1.8,0c0.2,0.3,0.4,0.7,0.7,0.8l4,4L176.4,42.8
		L176.4,42.8"/>
</g>
<g>
	<path class="st1" d="M186.2,35.3c0.4,0,0.9,0,1.3,0c0.7,0,1.1,0.2,1.8,0.3l0.2-0.5h0.7v3.2h-0.9l-0.9-1.7c-0.4-0.2-0.9-0.3-1.3-0.3
		s-0.9-0.2-1.3-0.2c-0.7,0-1.1,0.2-1.6,0.3c-0.4,0.2-0.7,0.5-0.7,0.8c0,0.3,0.2,0.7,0.9,1c0.7,0.3,1.6,0.7,2.7,1
		c0.4,0.2,0.9,0.3,1.3,0.5c0.4,0.2,0.9,0.3,1.1,0.7c0.2,0.2,0.7,0.5,0.7,0.8c0.2,0.3,0.2,0.7,0.2,1.2c0,0.3,0,0.8-0.2,1.2
		c-0.2,0.3-0.4,0.7-0.9,1c-0.4,0.3-0.9,0.5-1.6,0.7c-0.7,0.2-1.6,0.2-2.5,0.2c-0.2,0-0.4,0-0.7,0c-0.2,0-0.7,0-0.9,0
		s-0.7-0.2-0.9-0.2s-0.7-0.2-0.9-0.2l-0.4,0.5h-0.7l-0.2-3.3h0.9l0.7,1.7c0.4,0.3,0.9,0.5,1.6,0.5c0.4,0.2,1.1,0.2,1.6,0.2
		c0.9,0,1.8-0.2,2.2-0.5s0.7-0.7,0.7-1.2c0-0.3,0-0.5-0.2-0.7c-0.2-0.2-0.4-0.3-0.7-0.7c-0.2-0.2-0.7-0.3-1.1-0.5
		c-0.4-0.2-0.9-0.3-1.3-0.5c-0.7-0.2-1.1-0.3-1.8-0.7c-0.4-0.2-0.9-0.3-1.3-0.7c-0.4-0.2-0.7-0.5-0.7-0.8c-0.2-0.3-0.2-0.7-0.2-1
		c0-0.3,0-0.7,0.2-1c0.2-0.3,0.4-0.7,0.9-0.8c0.4-0.2,0.9-0.5,1.3-0.7C184.7,35.5,185.3,35.3,186.2,35.3"/>
</g>
</svg>
