<?xml version="1.0" encoding="utf-8"?>
<!-- Generator: Adobe Illustrator 21.0.2, SVG Export Plug-In . SVG Version: 6.00 Build 0)  -->
<svg version="1.1" id="Layer_1" xmlns="http://www.w3.org/2000/svg" xmlns:xlink="http://www.w3.org/1999/xlink" x="0px" y="0px"
	 viewBox="0 0 100 102" style="enable-background:new 0 0 100 102;" xml:space="preserve">
<style type="text/css">
	.st0{fill:#615E5D;}
	.st1{fill:#FFFFFF;}
</style>
<rect class="st0" width="100" height="102"/>
<path class="st1" d="M77.6,29.7h-0.5v-2.1c0.2,0,0.5-0.1,0.8-0.1c0.4,0,0.6,0.1,0.7,0.2c0.1,0.1,0.2,0.3,0.2,0.5
	c0,0.3-0.2,0.4-0.4,0.5v0c0.2,0.1,0.3,0.2,0.4,0.5c0.1,0.3,0.1,0.4,0.2,0.5h-0.5c-0.1-0.1-0.1-0.3-0.2-0.5c0-0.2-0.2-0.3-0.4-0.3
	h-0.2V29.7z M77.6,28.5h0.2c0.3,0,0.5-0.1,0.5-0.3c0-0.2-0.1-0.3-0.4-0.3c-0.1,0-0.2,0-0.3,0V28.5z M75.8,28.6
	c0,1.2,0.9,2.2,2.2,2.2c1.2,0,2.2-1,2.2-2.2c0-1.2-1-2.1-2.2-2.1C76.8,26.4,75.8,27.4,75.8,28.6 M76.4,28.6c0-1,0.7-1.7,1.6-1.7
	c0.9,0,1.6,0.8,1.6,1.7c0,1-0.7,1.7-1.6,1.7C77.1,30.3,76.4,29.5,76.4,28.6"/>
<path class="st1" d="M87.5,81.6V69.8c0-0.2-0.1-0.3-0.3-0.3c-1.2-0.2-2.9-0.4-4.4-0.4c-4.6,0-6.6,1.2-6.6,4c0,2,1.3,3.2,2.6,3.6
	l0.2,0.1l0,0c-1.4,0.3-2,1.2-2.5,2.6c-0.2,0.5-0.3,0.8-0.5,1.6c-0.3,0.8,0.1,1.6,1.3,1.9c1.2,0.3,1.8-0.2,2-1.1
	c0.1-0.3,0.5-1.8,0.6-2c0.5-1.8,1.2-2.1,3.2-2.1h1.1v3.7c0,0.8,0.5,1.5,1.7,1.5C87,83.1,87.5,82.4,87.5,81.6 M84.1,75.3h-1.7
	c-1.8,0-2.7-0.7-2.7-2.2c0.1-1.2,1.2-1.9,2.9-1.9c0.8,0,1.5,0.1,1.5,0.1l0,0V75.3z"/>
<path class="st1" d="M24.5,86.4c-0.4-0.8-0.2-1.6,0.9-2.1c1.1-0.5,1.7,0,2.2,0.8c0.5,0.8,1,1.2,2.3,1.2c1.7,0,2.5-1,2.5-3.3v-1.2
	l-0.1,0.1c-1.1,1.1-3.4,1.2-3.8,1.2c-2.7,0-4.7-2.1-4.7-5.1v-6.9c0-0.9,0.5-1.5,1.7-1.5c1.2,0,1.7,0.7,1.7,1.5v6.3
	c0,1.6,0.6,3.2,2.4,3.2c1.3,0,2.3-0.9,2.8-1.8v0v-7.7v0c0-0.9,0.5-1.5,1.7-1.5c1.2,0,1.7,0.7,1.7,1.5v0v11.4h0
	c0,2.1-0.1,6.3-6.3,6.4h0C27.3,88.9,25.1,87.8,24.5,86.4"/>
<path class="st1" d="M18.8,78.8c0.3-0.8,0.9-1.3,2-1c1.1,0.3,1.3,1.2,1,1.9c-0.3,0.8-0.9,1.6-1.6,2.1c-1,0.8-2.3,1.2-4,1.2
	c-1.9,0-3.4-0.6-4.5-1.8c-1.1-1.2-1.7-2.9-1.7-5c0-2.1,0.6-3.8,1.7-5c1.1-1.2,2.7-1.8,4.6-1.8c1.6,0,2.9,0.4,3.8,1.1
	c0.5,0.4,0.9,0.6,1.3,1.4c0.5,0.7,0.4,1.6-0.5,2.1c-0.9,0.6-1.7,0.2-2.1-0.5c-0.6-0.9-1.3-1.6-2.4-1.6c-1.9,0-2.9,1.4-2.9,4.1
	c0,2.8,1.1,4.4,2.9,4.4C17.6,80.5,18.4,79.9,18.8,78.8"/>
<path class="st1" d="M71.7,69.6c-1.2,0-1.7,0.7-1.7,1.5v7.7v0c-0.5,0.9-1.5,1.8-2.8,1.8c-1.8,0-2.4-1.7-2.4-3.2v-6.3
	c0-0.8-0.5-1.5-1.7-1.5c-1.2,0-1.7,0.7-1.7,1.5V78c0,2.9,2,5.1,4.7,5.1c1.6,0,2.9-0.4,3.9-1.7c0.1,1.3,0.6,1.7,1.7,1.7
	c1.2,0,1.7-0.7,1.7-1.5l0-10.4C73.4,70.3,72.9,69.6,71.7,69.6"/>
<path class="st1" d="M58.6,71.1c0-0.8-0.5-1.5-1.7-1.5c-1.2,0-1.7,0.7-1.7,1.5v0v7.7l0,0c-0.7,1.2-1.6,1.8-2.7,1.8
	c-1.8,0-2.4-1.7-2.4-3.2v-6.3v0c0-0.8-0.5-1.5-1.7-1.5c-1.2,0-1.7,0.7-1.7,1.5v7.7l0,0c-0.7,1.2-1.6,1.8-2.6,1.8
	c-1.8,0-2.4-1.7-2.4-3.2c0,0,0-5.4,0-6.3c0-0.8-0.5-1.5-1.7-1.5c-1.2,0-1.7,0.7-1.7,1.5V78c0,2.9,2,5.1,4.7,5.1
	c1.2,0,2.8-0.1,3.8-1.3c0.2-0.2,0.4-0.5,0.6-0.8l0-0.1c0.8,1.3,2.3,2.1,4,2.1c2,0,2.9-0.7,3.7-1.7c0,0.1,0,0.3,0,0.4
	c0.1,0.8,0.5,1.4,1.6,1.4c1.2,0,1.7-0.7,1.7-1.5V71.1z"/>
<path class="st1" d="M55.9,40.6c-2-0.2-3.8,1.8-4,4.4c-0.2,2.6,1.3,4.8,3.3,5c2,0.2,3.8-1.8,4-4.4C59.4,43,57.9,40.8,55.9,40.6
	 M54.5,44.8c-0.4,0-0.8-0.5-0.8-1.1c0-0.6,0.3-1.1,0.8-1.2c0.4,0,0.8,0.5,0.8,1.1C55.3,44.3,55,44.8,54.5,44.8 M55.4,45.9
	c-0.2,0-0.3-0.2-0.3-0.5c0-0.3,0.2-0.5,0.3-0.5c0.2,0,0.3,0.2,0.3,0.5C55.7,45.7,55.6,45.9,55.4,45.9"/>
<path class="st1" d="M43.2,45.1c-0.2-2.6-1.9-4.6-3.9-4.4c-1.9,0.1-3.4,2.4-3.1,4.9c0.2,2.6,1.9,4.5,3.9,4.4
	C42,49.9,43.4,47.6,43.2,45.1 M38.6,45.2c-0.4,0.1-0.9-0.3-1-0.9c-0.1-0.6,0.1-1.2,0.6-1.3c0.4-0.1,0.9,0.3,1,0.9
	C39.3,44.5,39.1,45.1,38.6,45.2 M39.8,45.9c-0.2,0-0.4-0.1-0.4-0.4c-0.1-0.3,0-0.5,0.2-0.6c0.2-0.1,0.4,0.1,0.4,0.4
	C40.1,45.6,40,45.9,39.8,45.9"/>
<path class="st1" d="M47.2,54.8c-3.4-0.2-5.8-2.4-5.8-2.4s2.3,4,5.8,4.1c3.6,0.2,6.4-3.7,6.4-3.7S50.5,55,47.2,54.8"/>
<path class="st1" d="M78.3,33.1c-0.1,0-0.2-0.1-0.3-0.1c-1.1-0.4-3.7-1.4-4.9-3.1c-0.1-0.2-0.3-0.5-0.5-0.8
	c-2.2-3.4-8.8-13.9-23.5-13.9c-15.3,0-22.9,10-25.4,13.2c-0.3,0.3-0.5,0.7-0.6,0.7c-0.9,0.8-1.8,1.4-2.9,1.7c-1,0.3-2.2,0.7-2.3,1.7
	c-0.1,1,1.1,1.5,1.3,1.6c0.1,0.1,3.1,1.5,3.5,6.7c0.6,9.1,6,12,7.2,12.5c1,1.8,2.6,3.5,4.8,4.9c3.6,2.3,8.4,3.7,13.2,3.7
	c5.2,0,10.1-1.3,13.9-3.7c2-1.3,3.5-2.8,4.5-4.4c0.6-0.3,3.4-1.9,5.1-3.8c2-2.2,2.6-5.3,3.2-8c0.6-3,1.1-5.6,3.3-6.2
	c1.2-0.3,1.5-1,1.5-1.4C79.5,33.9,79,33.4,78.3,33.1 M71.3,30c0.2,0.3,0.4,0.6,0.5,0.8c0.3,0.5,0.8,0.9,1.2,1.3
	c-0.1,2.4-1.9,4.3-3.2,6c-1.2,1.5-2,3.2-2.8,5c-0.5,1.1-1.1,2-2.1,2.2c-0.7-1.4-1.6-2.9-2.8-4.3c0,0-0.1-0.1-0.1-0.1
	c1.3-1,2.4-2.4,2.9-4c0.7-2.1,0.3-4.4,0.9-6.5c0.5-1.8,1.4-3.4,1.8-5.1C69.4,27,70.5,28.8,71.3,30 M58.6,23.3
	c0.1-0.8,0.1-1.7,0.2-2.6c0.1-0.7,0.3-1.4,0.5-1.9c3,1.3,5.3,3.1,7.2,5c-0.5,2.1-1.7,4.4-1.9,5c-0.4,0.9-0.7,1.9-1,2.9
	c-0.2,1.1-0.3,2.2-0.6,3.2c-0.2,0.9-0.6,1.6-1.2,2.2c-0.7,0.7-1.5,1.1-2.4,1.5c-1.1-0.7-2.3-1.4-3.7-1.9c0.1-0.1,0.3-0.3,0.4-0.4
	c-0.1,0.1-0.1,0.1,0,0c0.2-0.2,0.1-0.1,0,0c2.3-2.9,2-6.8,2.3-10.5C58.5,25,58.5,24.1,58.6,23.3 M50,19.3c0.2-0.8,0.4-1.6,0.5-2.5
	c2.1,0.1,4,0.4,5.8,0.9c-0.3,1-0.5,2-0.5,3.1c0,0.7,0.1,1.4,0.1,2.2c0.1,1.9,0.3,3.8,0.3,5.8c0,2.2-0.4,4.7-1.7,6.5
	c-0.2,0.3-0.5,0.6-0.7,0.9c-1.3-0.3-2.6-0.6-4.1-0.7c-0.1-0.2-0.2-0.4-0.2-0.5c-1.3-3.3-1.2-6.9-0.6-10.4
	C49.2,22.8,49.6,21.1,50,19.3 M48.9,16.8c-0.2,0.9-0.5,1.7-0.8,2.5c-0.6,1.8-1.1,3.6-1.6,5.4c-0.9,3.5-1.2,7.1-0.5,10.6
	c-0.9,0-1.8,0.1-2.7,0.2c-0.1-0.1-0.1-0.1-0.2-0.2c-1-1.1-1.5-2.7-1.8-4.2c-0.4-1.8-0.5-3.7-0.7-5.5c-0.2-1.8-0.3-3.7-0.9-5.4
	c-0.2-0.6-0.5-1.2-0.7-1.8C41.9,17.4,45.1,16.8,48.9,16.8 M37.3,19.2c0.8,1.3,1.6,3.7,1.7,7.1c0.1,3.3-0.1,6.9,1.4,9.9
	c-0.9,0.3-1.7,0.6-2.5,1c0,0-0.1-0.1-0.1-0.1c-0.4-0.2-0.7-0.4-1-0.7c-0.6-0.5-1.1-1.1-1.6-1.7c-0.9-1.3-1.5-2.8-1.9-4.4
	c-0.6-2.4-1.3-4.9-2.6-7C32.5,21.8,34.7,20.3,37.3,19.2 M29.6,51.5c-1.3-0.9-3.5-2.8-4.7-6.8c0.3,0.5,0.6,0.9,1,1.4
	c0.5,0.6,1,1.1,1.6,1.5c0.6,0.4,1.4,0.7,2.3,0.7h0.1C29.7,49.5,29.6,50.6,29.6,51.5 M29.8,45.5c-0.3,0-0.9,0-1.3-0.1
	c-0.4-0.1-0.8-0.4-1.2-0.7c-0.4-0.3-0.8-0.8-1.2-1.2C25.8,43,25.4,42.5,25,42c-0.3-0.4-0.5-0.8-0.8-1.3c-0.5-6.2-4.3-7.9-4.4-8
	c0,0-0.1,0-0.1-0.1c0.2-0.1,0.5-0.2,0.9-0.3c1.3-0.4,2.5-1,3.5-2c0.4,0.5,0.9,1.5,1.3,2.3c0.2,0.5,0.4,1.1,0.7,1.6
	c0.5,0.9,1,1.7,1.8,2.3c0.4,0.3,0.8,0.5,1.3,0.6c0.2,0,0.7,0,0.9,0c0.2-0.1,0.2-0.2,0-0.3h0c-1.6-0.8-2.2-2.6-2.7-4.3
	c-0.4-1.5-1-2.9-1.8-4.1c0.9-1.1,2.2-2.7,3.9-4.3c0.5,0.7,0.8,1.8,1.1,2.9c0.3,1.3,0.5,2.7,0.8,4c0.5,2.9,1.8,5.7,3.9,7.6
	c-0.5,0.4-1,0.8-1.4,1.3c-1.5,1.6-2.5,3.5-3.2,5.3C30.4,45.4,30.1,45.5,29.8,45.5 M47.9,60.5c-7.7,0-14.4-3.4-16.7-8
	c-0.1-2.3,0.2-7.6,3.8-11.3c2.7-2.8,6.8-4.2,12.1-4.2c0.3,0,0.6,0,0.9,0C53.6,37,58,38.7,61,41.9c3.8,4.1,4.1,9.6,4.1,10.9
	C62.5,57.3,55.8,60.5,47.9,60.5 M73.1,41.8c-0.5,2.6-1.1,5.3-2.8,7.2c-1,1.2-2.6,2.2-3.7,2.9c-0.1-0.9-0.2-2.2-0.6-3.7
	c1.4-0.6,2.5-1.9,3.1-3.6c0.5-1.6,0.9-3.2,1.6-4.7c1.2-2.3,3.2-4.4,3.4-7.1c1.3,0.8,2.6,1.3,3.3,1.6c0,0,0,0,0.1,0
	C74.5,35.3,73.8,38.5,73.1,41.8"/>
</svg>
