<?xml version="1.0" encoding="utf-8"?>
<!-- Generator: Adobe Illustrator 21.0.2, SVG Export Plug-In . SVG Version: 6.00 Build 0)  -->
<svg version="1.1" id="Layer_1" xmlns="http://www.w3.org/2000/svg" xmlns:xlink="http://www.w3.org/1999/xlink" x="0px" y="0px"
	 viewBox="0 0 104 116" style="enable-background:new 0 0 104 116;" xml:space="preserve">
<style type="text/css">
	.st0{fill:#615E5D;}
	.st1{clip-path:url(#SVGID_2_);fill:#615E5D;}
	.st2{clip-path:url(#SVGID_4_);fill:#615E5D;}
	.st3{clip-path:url(#SVGID_6_);fill:#615E5D;}
</style>
<path class="st0" d="M74.3,24.1c0.2,0.1,0.5,0.2,0.7,0.4c4.9-2.7,9.1-9.7,6.9-16.3c-0.1-0.5-0.4-1-0.5-1.3c-0.7-1.6-2.3-2-4.2-2.6
	c-1.2,0.1-2.4,0.5-3.7,1.1c-0.2,0.4-0.5,0.6-0.9,1c-0.7,0-1.5,0.1-2.1-0.4c-0.1-1.3,1.2-2.4,2.4-2.9c1.2-0.6,3.1-0.7,4.2-0.7
	c1.2,0.1,2.4,0.5,3.5,1c0.9,0.4,1.5,0.5,2.1,1.1C83,4.5,83.1,4.8,83.2,5c0.4,0.5,0.6,1.1,1,1.7c0,0.6,0.4,1.2,0.5,1.8
	c0.2,1.5,0.1,3.1,0.2,4.4c-0.1,0.2-0.2,0.6-0.1,1c-0.6,1.7-0.9,3.4-2,5.1c-0.1,0.1,0.1,0.2,0,0.4c-0.4,0.4-0.5,1-0.9,1.2
	c-0.1,0.6-0.9,0.9-0.9,1.3c-0.5,0.2-0.6,0.7-1,1.1c-0.4,0.4-0.9,0.7-1.1,1.2c-0.6,0.5-1.3,0.9-1.8,1.5c-1.5,0.5-2.8,1.6-4.5,1.2
	C72.2,25.7,73.2,24.4,74.3,24.1 M78.8,21.4L78.8,21.4z"/>
<path class="st0" d="M30.5,39.2c-0.6-0.2-0.9-1-1.3-1.3c-0.2-0.2-0.6-0.4-0.9-0.6c-0.1-0.1-0.1-0.5-0.2-0.6
	c-0.4-0.5-0.9-0.9-1.2-1.3c-1.2-1.3-2.3-2.8-3.3-4.5c-1.3-2.1-2.8-4.2-4-6.5c-0.1-1.6-1.3-2.4-1.1-4.2c0.1-0.6,1-2.2,2-1.5
	c0.2,0.2,0.6,0.9,0.7,1.2c0.1,0.4,0,0.7,0.1,1c0.4,1.6,1.3,3.7,2.2,5.1c0.5,0.9,1,1.8,1.6,2.7c0.4,0.5,0.7,1,1.1,1.6
	c0.2,0.2,0.5,0.5,0.7,0.7c0.2,0.2,0.4,0.6,0.5,0.9c0.5,0.7,1.5,1.5,1.8,2.2c0.5,0.1,0.6,0.5,1,0.9c0.1,0.1,0.4,0.2,0.6,0.4
	c0.1,0.1,0.1,0.4,0.2,0.5c0.2,0.2,0.6,0.4,0.7,0.6c0.2,0.4,0.5,1,0.4,1.3C31.8,38.5,31.1,39.1,30.5,39.2"/>
<path d="M82,43c-0.5,0.9-1.7,1.1-2.2,2c-0.7,0.1-1.1,0.5-1.7,0.6c-0.2,0.1-0.2,0.4-0.4,0.5c-0.6,0-0.9,0.1-1.2,0.5
	c-0.4,0-0.4,0-0.6,0c-0.2,0.4-0.7,0.9-1.2,0.6c0.1-0.4,0.5-0.5,0.9-0.6c0.9-0.5,1.7-1,2.7-1.5C79.4,44.4,80.6,43.8,82,43L82,43"/>
<path d="M74.3,47.4c0.1,0.4-0.4,0.6-0.7,0.6C73.7,47.7,74,47.7,74.3,47.4"/>
<path d="M71.5,48.8c0,0.7-1,0.7-1.6,1c0.1-0.5,0.9-0.4,1-0.7C71.1,49,71.2,48.8,71.5,48.8"/>
<path d="M68.4,50.1c0,0.1,0.1,0.1,0.1,0.2c-0.1,0.1-0.4,0-0.4,0.1c0-0.1-0.2-0.1-0.2-0.2C68,50.1,68.3,50.1,68.4,50.1"/>
<g>
	<g>
		<defs>
			<rect id="SVGID_1_" width="104" height="116"/>
		</defs>
		<clipPath id="SVGID_2_">
			<use xlink:href="#SVGID_1_"  style="overflow:visible;"/>
		</clipPath>
		<path class="st1" d="M67.2,3.7c-0.1,0-0.1,0.1-0.4,0.2c-1.2-0.2-2.4-0.5-3.7-0.6c-2.9-0.4-6.1-0.2-8.9-0.1c-0.1,0-0.1,0.1-0.2,0.1
			c-0.9,0-1.8,0-2.8,0.1c-0.2,0-0.6,0.1-1,0.2c-0.2,0-0.5-0.1-0.7,0c-0.1,0-0.2,0.1-0.4,0.1C48.5,3.9,47.6,3.9,47,4
			c-0.6,0.1-1.1,0.4-1.8,0.2c-0.1,0,0.1,0.1,0,0.1c-0.7,0-1.1,0.4-1.7,0.2c-4.3,1.2-8.6,2.4-12,4.2c-0.1,0,0,0.2-0.1,0.2
			c-0.5,0.1-1,0.4-1.3,0.7c-1.2,0.4-1.8,1.2-2.8,1.5c-0.2,0.4-0.9,0.6-1.1,1.1c-1.3,0.6-2.2,1.6-3.5,2.2c-0.1,0.4-0.6,0.5-0.9,0.6
			c-1.6,0.2-2.4-1.8-1.5-3.1c0.6-0.5,1.3-1,2.1-1.5c0.6-0.4,1.1-0.9,1.7-1.2c0.2-0.1,0.6-0.2,1-0.4c0.5-0.2,1.1-0.6,1.7-1
			c0.6-0.4,1.3-0.7,2.2-0.9c0.7-0.7,2.1-1,2.9-1.5c2-0.5,3.3-1.2,5.4-1.7c2.3-0.9,4.5-1.3,6.7-2c2.9-0.5,5.6-1.1,8.2-1.5
			c0.7-0.1,1.6,0,2.3-0.1c3.9-0.5,7.7-0.4,11.9,0c0.5,0.4,1,0.9,1.5,1.3c0.1,0.7,0.1,1.5-0.2,2c0.2,0.1,0.6-0.2,1-0.4
			c0.6,0,1.1,0.4,1.5,0.7c0,0.4,0.1,0.9,0.2,1.2c-0.1,0.5,0.2,1,0.1,1.5c0.1-0.2,0,0.6,0.1,0.7c0,0.1,0.2,0.5,0.1,0.6
			c0.2,0.6,0.1,1.1,0.2,1.5c-0.2,4.8,0.5,9.5-0.7,14.5c-0.1,0.7-0.4,1.6-0.6,2.3c-0.2,0.9-0.6,2-1,2.9c-0.2,0.7-0.5,1.6-0.9,2.3
			c-0.1,0.2-0.4,0.6-0.4,1c0,0.1,0,0.2,0,0.4c-0.1,0.4-0.4,0.6-0.4,1c-0.1,0.6-0.5,1.3-0.7,2.2c-0.1,0.5-0.2,1-0.4,1.3
			c-0.1,0.2-0.4,0.4-0.5,0.6c-0.2,0.5-0.4,1.1-0.7,1.6c-0.9,0.4-1.3,1.1-2.2,1.7c-1.5,0.9-3.2,1.6-5.1,2.1c-1.3,0.4-2.6,0.7-4,1.1
			c-1.5,0.1-2.8,0.5-4.5,0.6c-0.2,0-0.4,0-0.7,0c-0.7,0.1-1.3,0.1-2.1,0.2c-1.2,0-3.8,0-5.1,0c-2.3-0.5-5.1-0.5-5.8-3.1
			c-0.1-0.7,0-1.7,0.6-1.7c0.2,0,1.1,0.4,1.5,0.5c0.9,0.5,2.1,1.1,3.3,1.3c2,0.4,4.5,0.4,6.6,0.2c2.2-0.1,4.5-0.5,6.6-1.1
			c3.4-0.9,6.6-2,9.2-3.8c0.2-0.1,0.4-0.1,0.5-0.1c2.4-4.9,4.2-10.4,5-16.6c0.9-5.6,0.6-11.6-0.6-16.6C67,3.9,67.3,3.9,67.2,3.7
			 M67.5,2L67.5,2z M67.3,3.4L67.3,3.4z M26.2,11.9L26.2,11.9z M23.9,13.4L23.9,13.4z"/>
	</g>
</g>
<path class="st0" d="M63.7,6.5c0,0.1,0.1,0.2,0.1,0.5c0,0.1-0.2,0.1-0.2,0.2c0.1,0.4-0.1,0.6-0.4,1.1c-2.8,2-6.5,2.2-9.9,3.7
	c-0.1,0-0.1-0.1-0.2-0.1c0.1,0.2-0.6,0.1-0.7,0.4c0-0.2-0.2,0.2-0.5,0c-0.6,0.2-1.2,0.4-2,0.5c-1,0.6-2.2,0.9-3.2,1.1
	c-0.1,0-0.1,0.1-0.1,0.2c-0.7,0-1.5,0.2-2.1,0.6c-0.4,0-0.9,0-1.2,0.2c-0.9,0.1-1.7,0.5-2.4,0.6c-0.1,0-0.2,0.1-0.4,0.2
	c-0.7-0.1-1,0.4-1.8,0.4c-0.4,0.2-0.9,0.1-1,0.4c-1.6,0.2-2.8,0.7-4.3,0.9c-0.5,0.2-1.7,0.5-2.4,0.6c-0.5,0.1-0.6,0.4-1.2,0.2
	c-0.6-0.1-1-0.6-1.5-1c0-1-0.1-2,1-2c-0.6-0.4-1.3-0.6-1.5-1.5c-0.1-0.6,0.4-1.1,0.6-1.6c1.5-0.7,2.8-1.3,4.4-1.8
	c0.2,0,0.4-0.2,0.6-0.2c0.4-0.1,0.9-0.1,1.2-0.2c0.4-0.1,0.7-0.4,1.1-0.4c0.9-0.1,1.6-0.5,2.4-0.7c2.3-0.7,4.6-1.5,7.1-2
	c1.3-0.2,2.8-0.5,4.3-0.6c0.1-0.1,0.2-0.1,0.4-0.2c2.3,0,4.4-0.5,6.9-0.6c0.7,0.5,1,1.6,0.6,2.3c0.4,0,1.1-0.1,1.7-0.4
	c1.3-0.5,2.4-1.3,3.2-2.4c0.6,0.1,1.1,0.4,1.5,0.7C63.7,5.5,63.7,6.4,63.7,6.5C64,6.4,63.9,6.6,63.7,6.5 M63.3,8.2L63.3,8.2z
	 M53.1,8.2c-1.2,0-2.6,0.4-3.5,0.2c-0.1,0.4-0.9,0.2-1.1,0.2c-0.9,0.2-2.1,0.5-2.6,0.5c-0.2,0-0.1,0.1-0.4,0.1
	c-0.5,0.1-1,0.1-1.5,0.2c-1,0.2-2.2,0.4-3.1,0.7c0,0.1-0.2,0.1-0.2,0.2c-0.6,0.1-1.2,0.1-1.7,0.5c-0.2-0.2-0.7,0.4-1.1,0.2
	c0,0.2-0.1,0.1-0.2,0.2c-0.6-0.1-1,0.2-1.5,0.4c0,0.4-0.4,0.2-0.6,0.4c0,0,0.1,0.1,0,0.1s-0.1,0.1-0.2,0.1c-0.9,0.1-1.7,0.4-2.2,0.7
	c-0.7,0.2-2,0.6-2.3,1.2c0,0-0.1-0.1-0.2,0c0,0.2-0.4,0.1-0.5,0.4c0.1,0,0.1,0,0.1,0.1c-0.2,0-0.5,0.1-0.7,0.2c0.5-0.1,1,0,1.6,0
	c1.1,0,2.3-0.7,3.4-0.5c0,0.1,0.1,0.1,0.2,0.1c1.1-0.4,2.1-0.7,3.2-1c0.2,0,0.5,0,0.7,0c0.4-0.1,0.6-0.2,1-0.4
	c0.6-0.2,1.2-0.6,1.8-0.7c0.7-0.2,1.6-0.2,2.3-0.5c0.2-0.1,0.4-0.4,0.6-0.4c0.2-0.1,0.5,0,0.7-0.1c1.3-0.2,2.7-1,4.2-1.3
	c1.8-0.5,3.4-1.2,5.1-1.6c0.1,0,0.1-0.1,0.2-0.1c0.2,0,0.4-0.1,0.6-0.1C55.1,7.7,54,8.2,53.1,8.2z M32.2,13.6L32.2,13.6z M31.1,17.8
	L31.1,17.8z"/>
<path class="st0" d="M94.9,29.3c-0.1-0.4-1-1-0.9-1.5c0-0.4,0.9-0.6,1.2-0.5c0.5,0.1,1.6,0.4,2.1,0.5c0.2,1,0.1,2-0.4,2.6
	c-0.2,1.7-1.5,2.4-2.2,3.8c-0.9,0.5-1.1,1.7-2.1,2.2c-0.6,0.9-1.3,1.8-2.2,2.4c-0.9,1-1.8,2-2.9,2.7c-0.4,0.6-1,1-1.6,1.3
	c-0.1,0.1-0.2,0.4-0.4,0.5c-0.6,0.5-1.2,0.7-1.8,1.2c-0.1,0.1-0.2,0.4-0.4,0.5c-0.2,0.2-0.6,0.4-0.9,0.5c-0.5,0.4-1,1-1.5,1.3
	c-0.5,0.4-1.3,0.6-2,1c-0.2,0.1-0.2,0.4-0.5,0.6c-0.5,0.4-1.2,0.5-1.7,0.9c-0.2,0.1-0.4,0.5-0.5,0.6c-0.2,0.2-0.7,0.1-0.9,0.5
	c-1.8,0.4-2.4,1.8-4.3,2.3c-1.3,0.6-2.9,1.1-4,2c-0.6,0-1.1,0.6-1.7,0.9c-0.2,0.1-0.6,0.1-0.9,0.2c-0.4,0.1-0.6,0.4-1,0.5
	c-0.4,0.1-0.6,0.1-1,0.2c-0.2,0.1-0.4,0.2-0.6,0.4c-0.4,0.1-0.7,0.1-1,0.5c-0.6,0-1.5,0.4-2,0.7c-0.9,0.1-1.7,0.4-2.3,0.7
	c-0.9,0-1.2,0.5-1.8,0.7c-1.2-0.2-2.2,0.6-3.2,0.6c-1,0.7-2.8,0.6-4.2,1c-0.2,0.1-0.5,0.2-0.7,0.2s-0.5,0-0.7,0s-0.4,0.2-0.6,0.2
	c-0.6,0.1-1.3-0.1-2,0c-0.6,0.1-1.3,0.4-2.1,0.5c-0.9,0.1-1.8,0-2.7,0.1c-0.2,0.1-0.6,0.2-0.9,0.2c-0.5,0.1-1,0.1-1.5,0.4
	c-0.1,0-0.2-0.1-0.4,0c-2.1,0.4-5.3,0.5-7.6,0.6c-0.9,0-1.7,0.1-2.6,0.1s-1.5-0.1-2-0.1c-0.9-0.1-1.8,0.5-2.6,0
	c-1.1,0-2-0.1-2.9-0.1c-0.2,0-0.5,0.1-0.7,0c-0.2,0-0.5-0.1-0.7-0.2c-0.5-0.1-1,0-1.3-0.1c-0.4-0.1-0.7-0.4-1-0.1
	c-0.2-0.2-1-0.2-1.2-0.5c-0.1,0-0.1,0.1-0.4,0c-0.6-0.2-1.7-0.6-2.3-0.9c-0.2-0.2-0.5-0.4-1-0.4c-0.5-0.4-1.1-0.9-1.6-1.2
	c-0.6-0.6-1.1-1.2-1.6-2c-0.5-1.2-0.7-2.7-0.5-4.2c0.1-0.6,0.4-1.3,1-1.6c0.1,0.1,0.4,0.2,0.6,0.4c0,0.2,0.1,0.4,0.2,0.5
	C7.8,54,8,55,8.1,55.7c0.5,0.9,1,2,1.8,2.4c0.1,0,0.1,0,0.2,0c0.1,0.1,0.1,0.2,0.4,0.4c0.2,0.1,0.6,0.2,1,0.4
	c0.7,0.4,1.3,0.6,2.2,0.9c0.7,0.2,1.7,0.5,2.6,0.6C19.7,61,24,61.1,27.8,61c1.6-0.1,3.8,0.2,4.9-0.1c0.4-0.1,1.1-0.1,1.6,0
	c0.6-0.2,1.3-0.2,2.1-0.2c0.7-0.1,1.6-0.2,2.2-0.2c0.2,0,0.4,0.1,0.6,0.1c0.5,0,1-0.2,1.6-0.4c0.9-0.2,2-0.1,3.1-0.4
	c2-0.2,3.4-0.9,5.3-0.9c0.7-0.6,1.8-0.4,2.6-0.9c0.2,0,0.2,0.1,0.4,0.1c0.6-0.2,1.5-0.7,2.3-0.9c0.1,0,0.2,0.1,0.4,0
	c0.5-0.1,0.7-0.6,1.3-0.4c0.4-0.1,0.7-0.5,1.1-0.6c0.5-0.1,0.9,0,1.3-0.2c0.4-0.1,0.5-0.6,1-0.5c0.2-0.6,1.1-0.5,2-0.7
	c0.5-0.2,1-0.6,1.3-0.7c0.1,0,0.4,0,0.5,0s0.4-0.2,0.5-0.2c0.2,0,0.5,0,0.6,0c0.2-0.1,0.4-0.4,0.6-0.6c0.2-0.1,0.6-0.1,0.9-0.2
	s0.4-0.5,0.5-0.5c0.2,0,0.5-0.1,0.7,0c0.6-0.6,1.7-0.9,2.4-1.5c0.2,0,0.4-0.1,0.6-0.1c0.1-0.1,0.1-0.2,0.2-0.4
	c0.6-0.1,1-0.5,1.6-0.6c0.1-0.1,0.2-0.2,0.4-0.4c1.2-0.4,2-1.3,3.1-1.8c1.6-1.2,3.4-2.4,5.1-3.7c0.1-0.1,0.1-0.2,0.2-0.4
	c1.8-0.9,2.8-2.4,4.5-3.3c0.2-0.4,0.5-1,1.2-1.1c0.4-0.9,1.1-1.1,1.6-1.8c0.1,0,0.1-0.1,0.4-0.1c1.8-2.2,4.2-4.8,5.4-6.8
	c0.1-0.2,0.2-0.4,0.4-0.5C94.6,30.1,94.9,29.6,94.9,29.3 M6.6,56.6L6.6,56.6z M40.6,60.6L40.6,60.6z M11.1,61.6L11.1,61.6z"/>
<path d="M72.7,48.2c0,0.1,0.1,0.1,0.1,0.1c0,0.1-0.1,0.1-0.1,0.2c-0.2-0.1-0.5,0.1-0.6,0.1C71.9,48.5,72.3,48.2,72.7,48.2"/>
<path class="st0" d="M3.1,93.3c-1.6,0-3.1-0.6-3.1-0.6L0.1,92c0,0,1.3,0.5,2.8,0.5c1.6,0,3.5-0.9,3.5-3.1c0-3.5-6.2-3.8-6.2-7.8
	c0-2.6,2.2-3.4,3.8-3.4c1.5,0,2.7,0.5,2.7,0.5l-0.2,0.6c0,0-1-0.4-2.4-0.4C2.4,79,1,79.8,1,81.7c0,3.5,6.2,3.7,6.2,7.8
	C7.3,92.3,4.9,93.3,3.1,93.3"/>
<path class="st0" d="M18.1,93.3c-3.1,0-5.9-2.6-5.9-7.5c0-4.6,2.9-7.5,6.2-7.5c1.5,0,2.7,0.4,2.7,0.4l-0.2,0.6c0,0-1.1-0.2-2.3-0.2
	c-2.7,0-5.5,2.2-5.5,6.8c0,4.4,2.6,6.8,5.3,6.8c1.2,0,2.6-0.5,2.6-0.5l0.2,0.6C21.2,92.8,19.7,93.3,18.1,93.3"/>
<polyline class="st0" points="37.4,93 36.7,93 36.7,85.8 27.2,85.8 27.2,93 26.3,93 26.3,78.6 27.2,78.6 27.2,85.2 36.7,85.2 
	36.7,78.6 37.4,78.6 37.4,93 "/>
<polyline class="st0" points="57.6,93 56.8,93 52.4,79.9 48,93 47.1,93 42.3,78.6 43.2,78.6 47.5,91.9 52,78.7 52.7,78.7 57.3,91.9 
	61.7,78.6 62.4,78.6 57.6,93 "/>
<path class="st0" d="M70.6,79.6l-3.4,8.6H74L70.6,79.6 M76,93.1l-1.7-4.3h-7.3l-1.7,4.3h-0.7l5.9-14.4h0.7L77,93.1H76"/>
<path class="st0" d="M82.3,79.3v6.2h2.4c2.2,0,3.7-1.1,3.7-3.2c0-1.8-1.2-3.1-3.4-3.1H82.3 M89.4,93.1L87,88.5
	c-0.2-0.5-0.6-1.1-1-1.5c-0.7-0.7-1.3-0.9-2.2-0.9h-1.5V93h-0.7V78.6H85c2.3,0,4.4,1,4.4,3.7c0,2.6-1.8,3.7-3.5,3.8
	c0,0,0.9,0.2,1.8,2l2.7,5L89.4,93.1"/>
<g>
	<g>
		<g>
			<defs>
				<rect id="SVGID_3_" width="104" height="116"/>
			</defs>
			<clipPath id="SVGID_4_">
				<use xlink:href="#SVGID_3_"  style="overflow:visible;"/>
			</clipPath>
			<polyline class="st2" points="104.1,93 94.2,93 94.1,92.4 103,79.3 94.6,79.3 94.6,78.6 103.9,78.6 104,79.3 95.1,92.4 
				104.1,92.4 104.1,93 			"/>
		</g>
	</g>
</g>
<path class="st0" d="M10.3,111.7c-2.9,0-5.3-2.3-5.3-6c0-3.5,2.6-6,5.6-6c1.7,0,2.9,0.5,2.9,0.5l-0.6,1.6c0,0-0.9-0.2-1.8-0.2
	c-2.1,0-3.8,1.6-3.8,4.2c0,2.4,1.6,4,3.4,4c1.2,0,2.2-0.4,2.2-0.4l0.6,1.6C13.6,111,12,111.7,10.3,111.7"/>
<path class="st0" d="M19.1,104.6c-1.2,0-2,1-2,2.7c0,1.7,0.9,2.8,2,2.8c1.2,0,2-1,2-2.7C21,105.7,20.2,104.6,19.1,104.6 M19.1,111.7
	c-2.7,0-4.2-2-4.2-4.4c0-2.4,1.6-4.3,4.2-4.3c2.7,0,4.2,2,4.2,4.4S21.7,111.7,19.1,111.7"/>
<path class="st0" d="M33.8,111.5h-2.1v-6.7h-3.1v6.7h-2.1v-6.7h-1.8v-1.3l1.8-0.1v-0.7c0-0.5,0-2.1,0.9-2.8c0.6-0.6,1.5-0.7,2.2-0.7
	c1.1,0,2.2,0.4,2.2,0.4l-0.5,1.2c0,0-0.5-0.2-1-0.2c-0.5,0-0.9,0.1-1.1,0.4c-0.4,0.4-0.5,0.7-0.5,1.6v1h3.1v-1c0-0.5,0-2,0.9-2.8
	c0.6-0.6,1.5-0.7,2.2-0.7c1.1,0,2.2,0.5,2.2,0.5l-0.5,1.2c0,0-0.5-0.2-1-0.2c-0.4,0-0.9,0.1-1.1,0.4c-0.4,0.4-0.5,0.9-0.5,1.6v1.1
	h2.2v1.5H34v6.7"/>
<path class="st0" d="M41.4,104.6c-1.2,0-1.7,1.3-1.8,2l3.3-0.2C42.8,105.7,42.5,104.6,41.4,104.6 M41.1,111.7
	c-2.2,0-3.8-1.7-3.8-4.2c0-2.2,1.7-4.4,4-4.4c2.7,0,3.3,2.8,3.3,3.9c0,0.2,0,0.2,0,0.2l-0.2,0.2l-4.9,0.1c0,1.1,0.6,2.4,2.3,2.4
	c1,0,2-0.5,2-0.5l0.6,1.1C44.4,110.7,42.9,111.7,41.1,111.7"/>
<path class="st0" d="M50.7,104.6c-1.2,0-1.7,1.3-1.8,2l3.3-0.2C52,105.7,51.8,104.6,50.7,104.6 M50.3,111.7c-2.2,0-3.8-1.7-3.8-4.2
	c0-2.2,1.7-4.4,4-4.4c2.7,0,3.3,2.8,3.3,3.9c0,0.2,0,0.2,0,0.2l-0.2,0.2l-4.9,0.1c0,1.1,0.6,2.4,2.3,2.4c1,0,2-0.5,2-0.5l0.6,1.1
	C53.7,110.7,52.2,111.7,50.3,111.7"/>
<path class="st0" d="M64,111.7c-1.7,0-3.2-0.6-3.2-0.6l0.5-1.6c0,0,1.1,0.4,2.3,0.4c1.2,0,2.3-0.4,2.3-1.6c0-1.1-1.2-1.5-2.3-2.1
	c-1.2-0.6-2.6-1.5-2.6-3.3c0-2.1,1.7-3.2,3.7-3.2c1.7,0,3.1,0.5,3.1,0.5l-0.5,1.6c0,0-0.9-0.2-2-0.2c-1.1,0-2.1,0.5-2.1,1.3
	c0,2.1,4.9,2,4.9,5.4C68.2,110.4,66.7,111.7,64,111.7"/>
<path class="st0" d="M78.1,111.5H76v-5c0-0.9-0.4-1.5-1.2-1.5c-1,0-2.1,0.7-2.1,0.7v5.7h-2.1V98.9h2.1v5.4c0,0,1.6-1.3,2.9-1.3
	c0.7,0,1.3,0.2,1.7,0.7c0.5,0.6,0.7,1.2,0.7,2.3L78.1,111.5"/>
<path class="st0" d="M84.5,104.6c-1.2,0-2,1-2,2.7c0,1.7,0.9,2.8,2,2.8c1.2,0,2-1,2-2.7C86.5,105.7,85.6,104.6,84.5,104.6
	 M84.5,111.7c-2.7,0-4.2-2-4.2-4.4c0-2.4,1.6-4.3,4.2-4.3c2.7,0,4.2,2,4.2,4.4C88.6,109.9,87,111.7,84.5,111.7"/>
<g>
	<g>
		<g>
			<defs>
				<rect id="SVGID_5_" width="104" height="116"/>
			</defs>
			<clipPath id="SVGID_6_">
				<use xlink:href="#SVGID_5_"  style="overflow:visible;"/>
			</clipPath>
			<path class="st3" d="M95.2,105c-0.9,0-2.1,0.7-2.1,0.7v3.8c0,0,0.9,0.4,1.6,0.4c1.3,0,2.2-1.1,2.2-2.7
				C96.9,105.9,96.3,105,95.2,105 M93.1,116H91v-12.7h1.8l0.1,1l0,0c0,0,1.7-1.2,2.9-1.2c1.8,0,3.1,1.8,3.1,4.2
				c0,2.1-1.3,4.4-3.5,4.4c-1.3,0-2.4-0.9-2.4-0.9v5.3"/>
		</g>
	</g>
</g>
</svg>
