<?xml version="1.0" encoding="utf-8"?>
<!-- Generator: Adobe Illustrator 21.0.2, SVG Export Plug-In . SVG Version: 6.00 Build 0)  -->
<svg version="1.1" id="Layer_1" xmlns="http://www.w3.org/2000/svg" xmlns:xlink="http://www.w3.org/1999/xlink" x="0px" y="0px"
	 viewBox="0 0 212 23" style="enable-background:new 0 0 212 23;" xml:space="preserve">
<style type="text/css">
	.st0{fill:#615E5D;}
</style>
<polygon class="st0" points="11,0 9,0 0,21.9 0,22.7 4.2,22.7 10,7.4 15.5,22.7 20,22.7 20,21.9 "/>
<polygon class="st0" points="134.9,0 132.9,0 124,21.9 124,22.7 128.4,22.7 133.9,7.4 139.7,22.7 143.9,22.7 143.9,21.9 "/>
<polygon class="st0" points="203,0 201,0 192,21.9 192,22.7 196.5,22.7 202,7.4 207.8,22.7 212,22.7 212,21.9 "/>
<path class="st0" d="M54.1,0c4,0,8.2,2.6,9,8h-4c-0.7-2.6-2.7-3.7-5-3.7c-3.5,0-5.7,2.8-5.7,7.1c0,4,2.2,7.1,5.7,7.1
	c2.5,0,4.5-1.4,5-4h4c-0.7,6-5,8.5-9.2,8.5c-5.2,0-10-4-10-11.4C44.1,4,48.9,0,54.1,0"/>
<polygon class="st0" points="79.6,22.7 79.6,13.1 72.1,13.1 72.1,22.7 67.8,22.7 67.8,0.3 72.1,0.3 72.1,8.8 79.6,8.8 79.6,0.3 
	83.8,0.3 83.8,22.7 "/>
<polygon class="st0" points="94.8,18.7 94.8,22.7 90.5,22.7 90.5,18.7 90.5,4 90.5,0.3 94.8,0.3 94.8,4 "/>
<polygon class="st0" points="167.1,18.7 167.1,22.7 162.9,22.7 162.9,18.7 162.9,4 162.9,0.3 167.1,0.3 167.1,4 "/>
<polygon class="st0" points="118.7,0.3 120.5,0.3 120.5,22.7 116.2,22.7 116.2,10.5 111.2,17.6 110.7,17.6 105.8,10.5 105.8,22.7 
	101.5,22.7 101.5,0.3 103,0.3 111,10.8 "/>
<polygon class="st0" points="143.4,4.3 143.4,0.3 158.1,0.3 158.1,4.3 152.9,4.3 152.9,22.7 148.6,22.7 148.6,4.3 "/>
<path class="st0" d="M36.2,14.5c2.2-1.1,3.5-3.7,3.5-6.5c0-4-2.5-7.7-7-7.7c-2.7,0-5.5,0-8.5,0v4.3h4.2h4.2c1.7,0,3,1.4,3,3.4
	s-1.2,3.4-3,3.4h-4.2h-4.2v11.4h4.2v-7.4h3.5l4,7.4h4.5v-0.6L36.2,14.5z"/>
<polygon class="st0" points="189.8,0 185.1,0 180.3,9.1 177.1,9.1 177.1,0.3 172.8,0.3 172.8,22.7 177.1,22.7 177.1,13.6 
	180.3,13.6 185.1,22.7 189.8,22.7 189.8,21.9 183.8,11.4 189.8,0.6 "/>
</svg>
