<?xml version="1.0" encoding="utf-8"?>
<!-- Generator: Adobe Illustrator 21.0.2, SVG Export Plug-In . SVG Version: 6.00 Build 0)  -->
<svg version="1.1" id="Layer_1" xmlns="http://www.w3.org/2000/svg" xmlns:xlink="http://www.w3.org/1999/xlink" x="0px" y="0px"
	 viewBox="0 0 160 33" style="enable-background:new 0 0 160 33;" xml:space="preserve">
<style type="text/css">
	.st0{fill:#615E5D;}
</style>
<path class="st0" d="M2.3,14h14.7v19H0V16.5V14V0h2.3V14z M2.3,16.5h12.4v14H2.3C2.3,30.5,2.3,16.5,2.3,16.5z"/>
<polygon class="st0" points="47.9,14 62.6,14 62.6,33 60.2,33 60.2,30.5 60.2,16.5 47.9,16.5 47.9,30.5 47.9,33 45.5,33 45.5,16.5 
	45.5,14 45.5,0 47.9,0 "/>
<path class="st0" d="M120.7,14h16.9v8.2v2.5V33h-16.9v-8.2v-2.5h2.3h12.4v-5.7H123h-2.3V14z M123.1,30.5h12.4v-5.7h-12.4V30.5z"/>
<path class="st0" d="M67.7,14h16.9v19H67.7V14z M70.1,16.5h12.4v14H70.1V16.5z"/>
<polygon class="st0" points="142.9,14 160,14 160,16.5 157.6,16.5 145.3,16.5 145.3,30.5 145.3,33 142.9,33 "/>
<path class="st0" d="M23.3,14h16.9v19H23.3V14z M25.8,16.5h12.4v14H25.8V16.5z"/>
<path class="st0" d="M101,14h14.7v19H98.7V16.5V14V0h2.3V14z M101,16.5h12.4v14H101V16.5z"/>
</svg>
