<?xml version="1.0" encoding="utf-8"?>
<!-- Generator: Adobe Illustrator 21.0.2, SVG Export Plug-In . SVG Version: 6.00 Build 0)  -->
<svg version="1.1" id="Layer_1" xmlns="http://www.w3.org/2000/svg" xmlns:xlink="http://www.w3.org/1999/xlink" x="0px" y="0px"
	 viewBox="0 0 160 40" style="enable-background:new 0 0 160 40;" xml:space="preserve">
<style type="text/css">
	.st0{fill:#615E5D;}
</style>
<path class="st0" d="M14.3,6.7h-0.9c-0.2-1-0.6-2-1.1-3s-1.1-1.6-1.7-1.6c-0.2,0-0.6,0-0.9-0.2C9.2,2,8.8,2,8.5,2h-3v9.7h2.1
	c0.6,0,1.1,0,1.5-0.2c0.4-0.2,0.6-0.4,0.9-0.8c0.2-0.2,0.4-0.6,0.4-1.2c0.2-0.6,0.2-1,0.2-1.6h0.9v9.3h-0.9c0-0.4-0.2-1-0.2-1.8
	c-0.2-0.6-0.4-1-0.6-1.4c-0.2-0.4-0.6-0.8-0.9-0.8c-0.4-0.2-0.8-0.2-1.3-0.2H5.4v8.3c0,0.4,0,0.8,0.2,1C5.8,22.6,6,23,6.2,23.2
	c0.2,0,0.4,0.2,0.8,0.2c0.4,0.2,0.8,0.2,0.9,0.2v1.2H0.2v-1.2c0.2,0,0.6,0,0.9-0.2c0.4,0,0.8-0.2,0.8-0.2c0.2-0.2,0.4-0.4,0.6-0.6
	c0.2-0.2,0.2-0.6,0.2-1V4.4c0-0.4,0-0.8-0.2-1c0-0.2-0.4-0.6-0.6-0.8C1.7,2.4,1.3,2.4,0.9,2.2C0.6,2,0.2,2,0,2V0.8h13.9v5.9
	C13.9,6.7,14.3,6.7,14.3,6.7z"/>
<path class="st0" d="M24,11.3c0-1-0.2-2-0.8-2.6c-0.4-0.6-1.1-1-1.9-1h-1.7v7.7H21c0.9,0,1.5-0.4,2.3-1.2C23.9,13.5,24,12.5,24,11.3
	z M28.9,24.6h-3.6c-0.8-1.6-1.5-3.2-2.1-4.4c-0.6-1.2-1.3-2.6-2.1-3.8h-1.3v5.7c0,0.2,0,0.6,0.2,0.8c0,0.2,0.2,0.4,0.4,0.6
	c0.2,0,0.4,0.2,0.6,0.2c0.4,0,0.6,0,0.8,0v1h-5.6v-1c0.2,0,0.4,0,0.6,0c0.4,0,0.6,0,0.6-0.2c0.2-0.2,0.4-0.2,0.4-0.4
	c0-0.2,0.2-0.4,0.2-0.8V9.3c0-0.2,0-0.6-0.2-0.8c0-0.2-0.2-0.4-0.4-0.6c-0.2,0-0.4-0.2-0.6-0.2c-0.2,0-0.4-0.2-0.6-0.2v-1h6
	c0.6,0,1.1,0,1.5,0.2c0.6,0.2,0.9,0.4,1.3,0.8c0.4,0.4,0.8,0.8,0.9,1.4c0.2,0.6,0.4,1.2,0.4,2c0,0.6,0,1.4-0.2,1.8
	c-0.2,0.6-0.4,1-0.8,1.4c-0.4,0.4-0.6,0.6-0.9,1c-0.4,0.2-0.8,0.6-1.3,0.6c0.8,1.2,1.1,2.2,1.7,3c0.4,0.8,0.9,1.8,1.7,3
	c0.2,0.6,0.6,0.8,0.8,1.2c0.2,0.2,0.4,0.4,0.8,0.6c0.2,0.2,0.4,0.2,0.6,0.2c0.2,0,0.4,0,0.6,0.2v0.8H28.9z"/>
<path class="st0" d="M37.2,17.2l-2.1-6.9l-2.1,6.9H37.2z M42.5,24.6h-5.6v-1c0.6,0,0.9-0.2,1.1-0.2c0.4-0.2,0.6-0.2,0.6-0.4v-0.2
	c0-0.2,0-0.2,0-0.2l-1.1-4h-4.7c-0.2,0.6-0.4,1.2-0.4,1.6c-0.2,0.4-0.2,0.8-0.4,1.2c0,0.4-0.2,0.6-0.2,0.8c0,0.2,0,0.4,0,0.6
	c0,0.4,0.2,0.6,0.6,0.8c0.4,0.2,0.8,0.2,1.3,0.4v1h-5.1v-1c0.2,0,0.4,0,0.6-0.2c0.2,0,0.4-0.2,0.6-0.4c0.2-0.2,0.4-0.4,0.6-0.8
	c0.2-0.2,0.2-0.6,0.4-1c0.8-2.2,1.5-4.8,2.3-7.5c0.8-2.8,1.5-5.3,2.3-7.5h0.8L40.4,22c0.2,0.4,0.2,0.6,0.4,0.8
	c0.2,0.2,0.4,0.4,0.6,0.6c0.2,0.2,0.4,0.2,0.6,0.4c0.2,0,0.4,0.2,0.6,0.2L42.5,24.6L42.5,24.6z"/>
<path class="st0" d="M51.8,16.4c0.4,0.4,0.6,0.8,0.6,1.4c0.2,0.6,0.2,1,0.2,1.8c0,1.6-0.4,3-1.3,4s-1.9,1.6-3.2,1.6
	c-0.6,0-1.1-0.2-1.9-0.4c-0.6-0.2-1.1-0.6-1.5-1l-0.4,1h-0.8l-0.2-6.1h0.8c0.2,0.8,0.4,1.4,0.6,2c0.2,0.6,0.6,1.2,0.8,1.8
	c0.4,0.6,0.8,1,1.1,1.2s0.9,0.4,1.5,0.4c0.4,0,0.8,0,1.1-0.2s0.6-0.4,0.8-0.6c0.2-0.2,0.4-0.6,0.4-1c0.2-0.4,0.2-0.8,0.2-1.4
	c0-0.8-0.2-1.4-0.4-2c-0.4-0.6-0.8-1.2-1.3-1.4c-0.4-0.2-0.9-0.4-1.3-0.8c-0.6-0.2-0.9-0.6-1.3-0.8c-0.8-0.4-1.3-1-1.7-1.8
	c-0.4-0.8-0.6-1.8-0.6-3c0-0.6,0.2-1.4,0.4-2c0.2-0.6,0.6-1.2,0.9-1.6c0.4-0.4,0.8-0.8,1.3-1s0.9-0.4,1.5-0.4c0.6,0,1.1,0.2,1.7,0.4
	c0.6,0.2,0.9,0.6,1.3,0.8l0.4-0.8h0.8v5.9h-0.8c-0.2-0.6-0.4-1.4-0.4-2c-0.2-0.6-0.4-1.2-0.8-1.8c-0.2-0.4-0.6-0.8-0.9-1.2
	c-0.4-0.2-0.9-0.4-1.5-0.4c-0.6,0-1.1,0.2-1.5,0.8c-0.4,0.6-0.6,1.2-0.6,2s0.2,1.4,0.4,2c0.2,0.6,0.8,1,1.1,1.2
	c0.4,0.2,0.9,0.6,1.3,0.8c0.4,0.2,0.9,0.4,1.3,0.6c0.4,0.2,0.8,0.4,1.1,0.8C51.3,15.6,51.5,16,51.8,16.4z"/>
<path class="st0" d="M66.1,19.2l-0.2,5.3H54.9v-1c0.2,0,0.4,0,0.8-0.2c0.4,0,0.6-0.2,0.6-0.2c0.2-0.2,0.4-0.2,0.4-0.4
	s0.2-0.4,0.2-0.8V9.1c0-0.2,0-0.6-0.2-0.8c0-0.2-0.2-0.4-0.4-0.6c-0.2,0.2-0.4,0-0.8,0c-0.4,0-0.6-0.2-0.8-0.2v-1H65v4.4h-0.8
	c-0.2-0.6-0.4-1.4-0.8-2c-0.4-0.8-0.8-1.2-1.1-1.2c-0.2,0-0.4,0-0.8,0c-0.2,0-0.6,0-0.9,0h-2.1v7.1h1.5c0.6,0,0.8,0,1.1-0.2
	c0.2-0.2,0.4-0.4,0.6-0.6c0.2-0.2,0.2-0.6,0.4-1c0.2-0.4,0.2-0.8,0.2-1.2h0.8v6.9h-0.8c0-0.4,0-0.8-0.2-1.2c-0.2-0.4-0.2-0.8-0.4-1
	c-0.2-0.4-0.4-0.6-0.8-0.6c-0.2-0.2-0.6-0.2-0.9-0.2h-1.5v5.3c0,0.6,0,1,0,1.2c0,0.4,0.2,0.6,0.4,0.8c0.2,0.2,0.4,0.2,0.8,0.4
	c0.4,0,0.8,0,1.1,0c0.2,0,0.6,0,0.8,0c0.4,0,0.6,0,0.9,0c0.2,0,0.6,0,0.8-0.2c0.2,0,0.4-0.2,0.6-0.4c0.4-0.4,0.6-1,0.9-1.8
	s0.6-1.4,0.6-1.8L66.1,19.2L66.1,19.2z"/>
<path class="st0" d="M76.1,11.3c0-1-0.2-2-0.8-2.6c-0.4-0.6-1.1-1-1.9-1h-1.7v7.7h1.3c0.9,0,1.5-0.4,2.3-1.2
	C75.7,13.5,76.1,12.5,76.1,11.3z M81,24.6h-3.6c-0.8-1.6-1.5-3.2-2.1-4.4c-0.6-1.2-1.3-2.6-2.1-3.8h-1.3v5.7c0,0.2,0,0.6,0.2,0.8
	c0,0.2,0.2,0.4,0.4,0.6c0.2,0,0.4,0.2,0.6,0.2c0.4,0,0.6,0,0.8,0v1h-5.6v-1c0.2,0,0.4,0,0.6,0c0.4,0,0.6,0,0.6-0.2
	c0.2-0.2,0.4-0.2,0.4-0.4c0-0.2,0.2-0.4,0.2-0.8V9.3c0-0.2,0-0.6-0.2-0.8c0-0.2-0.2-0.4-0.4-0.6c-0.2-0.2-0.4-0.2-0.8-0.2
	c-0.2,0-0.4-0.2-0.6-0.2v-1h6.2c0.6,0,1.1,0,1.5,0.2c0.6,0.2,0.9,0.4,1.3,0.8c0.4,0.4,0.8,0.8,0.9,1.4c0.2,0.6,0.4,1.2,0.4,2
	c0,0.6,0,1.4-0.2,1.8c-0.2,0.6-0.4,1-0.8,1.4c-0.4,0.4-0.6,0.6-0.9,1c-0.4,0.2-0.8,0.4-1.3,0.6c0.8,1.2,1.1,2.2,1.7,3
	c0.4,0.8,0.9,1.8,1.7,3c0.2,0.6,0.6,0.8,0.8,1.2c0.2,0.2,0.4,0.4,0.8,0.6c0.2,0.2,0.4,0.2,0.6,0.2c0.2,0,0.4,0,0.6,0.2v0.8H81z"/>
<path class="st0" d="M98.6,13.7c0.4,0.6,0.6,1.2,0.8,1.8c0.2,0.6,0.2,1.4,0.2,2.4c0,2.2-0.6,3.8-1.7,5.1c-1.1,1.4-2.6,2-4.3,2
	c-0.8,0-1.5-0.2-2.4-0.6c-0.9-0.4-1.5-0.8-2.1-1.2l-0.6,1.2h-0.9l-0.2-8.1h0.9c0.2,1,0.4,2,0.8,2.8c0.2,0.8,0.6,1.6,1.1,2.4
	c0.4,0.6,0.9,1.2,1.5,1.6c0.6,0.4,1.3,0.6,2.1,0.6c0.6,0,1.1-0.2,1.5-0.4c0.4-0.2,0.8-0.4,1.1-0.8c0.2-0.4,0.4-0.8,0.6-1.4
	c0.2-0.6,0.2-1,0.2-1.8c0-1-0.2-1.8-0.6-2.6c-0.4-0.8-0.9-1.4-1.9-1.8c-0.6-0.2-1.1-0.6-1.9-1c-0.8-0.4-1.3-0.6-1.9-1
	c-0.9-0.6-1.7-1.4-2.3-2.4c-0.6-1-0.8-2.2-0.8-3.8c0-1,0.2-1.8,0.4-2.6C88.5,3.4,89,2.6,89.4,2c0.6-0.6,1.1-1,1.7-1.4
	C91.9,0.2,92.4,0,93.2,0s1.5,0.2,2.3,0.6C96,1,96.7,1.4,97.1,1.8l0.6-1.2h0.9l0.2,7.9h-0.9c-0.2-1-0.4-1.8-0.6-2.6
	c-0.2-0.8-0.6-1.6-0.9-2.2c-0.4-0.6-0.8-1.2-1.3-1.6c-0.6-0.4-1.1-0.6-1.9-0.6s-1.5,0.4-2.1,1c-0.6,0.6-0.8,1.6-0.8,2.6
	s0.2,2,0.6,2.6c0.4,0.6,0.9,1.2,1.5,1.6c0.6,0.4,1.1,0.8,1.9,1c0.6,0.2,1.1,0.6,1.7,1c0.6,0.2,0.9,0.6,1.5,1
	C97.9,12.7,98.2,13.1,98.6,13.7z"/>
<path class="st0" d="M115.7,7.5c-0.2,0-0.4,0-0.8,0.2c-0.4,0-0.6,0.2-0.8,0.4c-0.2,0.2-0.4,0.6-0.4,1.2c0,0.6-0.2,1.4-0.2,2.2v7.7
	c0,1-0.2,1.8-0.4,2.6c-0.4,0.8-0.8,1.4-1.1,1.8c-0.6,0.4-0.9,0.8-1.5,1s-1.1,0.4-1.5,0.4c-0.8,0-1.5-0.2-2.1-0.4
	c-0.6-0.2-1.1-0.6-1.5-1.2c-0.4-0.4-0.8-1-0.9-1.6s-0.4-1.2-0.4-2V9.1c0-0.2,0-0.6-0.2-0.8c0-0.2-0.2-0.4-0.4-0.6
	c-0.2-0.2-0.4-0.2-0.6-0.2c-0.2,0-0.4-0.2-0.6-0.2v-1h5.6v1c-0.2,0-0.4,0-0.8,0.2c-0.2,0-0.4,0.2-0.6,0.2c-0.2,0.2-0.4,0.2-0.4,0.6
	c0,0.2-0.2,0.4-0.2,0.8V19c0,0.4,0,1,0.2,1.6c0,0.6,0.2,1,0.4,1.4c0.2,0.4,0.6,0.8,0.9,1.2c0.4,0.4,0.9,0.4,1.7,0.4
	c0.8,0,1.3-0.2,1.7-0.4c0.4-0.2,0.8-0.6,1.1-1.2c0.2-0.4,0.4-1,0.6-1.4c0.2-0.6,0.2-1,0.2-1.6v-7.3c0-1,0-1.8-0.2-2.4
	c-0.2-0.6-0.2-1-0.4-1.2c-0.2-0.2-0.6-0.4-0.9-0.4c-0.4-0.2-0.8-0.2-0.9-0.2v-1h5.4v1C116.1,7.5,115.7,7.5,115.7,7.5z"/>
<path class="st0" d="M123,24.6h-6v-1c0.2,0,0.4,0,0.8,0c0.4,0,0.6,0,0.8-0.2c0.2-0.2,0.4-0.2,0.4-0.4c0.2-0.2,0.2-0.4,0.2-0.8V9.1
	c0-0.2,0-0.6-0.2-0.8c0-0.2-0.2-0.4-0.6-0.6c-0.2-0.2-0.4-0.2-0.8-0.2c-0.4,0-0.6-0.2-0.8-0.2v-1h6v1c-0.2,0-0.4,0-0.8,0
	c-0.2,0-0.6,0.2-0.8,0.2c-0.2,0.2-0.4,0.2-0.6,0.4c0,0.2-0.2,0.4-0.2,0.8v13.1c0,0.2,0,0.6,0.2,0.8s0.2,0.4,0.4,0.6
	c0.2,0,0.4,0.2,0.6,0.2c0.4,0,0.6,0.2,0.8,0.2v1H123z"/>
<path class="st0" d="M136.2,11.5h-0.6c0-0.4-0.2-0.6-0.4-1c-0.2-0.4-0.4-0.8-0.6-1.2c-0.2-0.4-0.4-0.8-0.6-1
	c-0.2-0.2-0.4-0.4-0.6-0.6c-0.2,0-0.4,0-0.8,0c-0.4,0-0.6,0-0.8,0h-0.6V22c0,0.2,0,0.6,0.2,0.8c0,0.2,0.2,0.4,0.4,0.6
	c0.2,0,0.4,0.2,0.8,0.2c0.4,0.2,0.6,0.2,0.8,0.2v1h-6.4v-1c0.2,0,0.4,0,0.8-0.2c0.4,0,0.6-0.2,0.8-0.2c0.2-0.2,0.4-0.2,0.4-0.4
	c0.2-0.2,0.2-0.4,0.2-0.8V7.7h-0.6c-0.2,0-0.4,0-0.8,0c-0.4,0-0.6,0-0.8,0s-0.4,0.2-0.6,0.6c-0.2,0.4-0.4,0.6-0.6,1
	c-0.2,0.4-0.4,0.8-0.6,1.2c-0.2,0.4-0.2,0.8-0.4,1h-0.8v-5H136v5H136.2z"/>
<path class="st0" d="M149,19.2l-0.2,5.3h-11.1v-1c0.2,0,0.4,0,0.8-0.2c0.4,0,0.6-0.2,0.6-0.2c0.2-0.2,0.4-0.2,0.4-0.4
	s0.2-0.4,0.2-0.8V9.1c0-0.2,0-0.6-0.2-0.8c0-0.2-0.2-0.4-0.4-0.6c-0.2-0.2-0.4-0.2-0.8-0.2s-0.6-0.2-0.8-0.2v-1h10.3v4.4h-0.8
	c-0.2-0.6-0.4-1.4-0.8-2c-0.4-0.8-0.8-1.2-1.1-1.2c-0.2,0-0.4,0-0.8,0c-0.2,0-0.6,0-0.9,0h-2.1v7.1h1.5c0.6,0,0.8,0,1.1-0.2
	c0.2-0.2,0.4-0.4,0.6-0.6c0.2-0.2,0.2-0.6,0.4-1c0.2-0.4,0.2-0.8,0.2-1.2h0.8v6.9h-0.8c0-0.4,0-0.8-0.2-1.2c-0.2-0.4-0.2-0.8-0.4-1
	c-0.2-0.4-0.4-0.6-0.8-0.6c-0.2-0.2-0.6-0.2-0.9-0.2h-1.5V21c0,0.6,0,1,0,1.2c0,0.4,0.2,0.6,0.4,0.8c0.2,0.2,0.4,0.2,0.8,0.4
	c0.4,0,0.8,0,1.1,0c0.2,0,0.6,0,0.8,0c0.4,0,0.6,0,0.9,0c0.2,0,0.6,0,0.8-0.2c0.2,0,0.4-0.2,0.6-0.4c0.4-0.4,0.6-1,0.9-1.8
	s0.6-1.4,0.6-1.8C148.2,19.2,149,19.2,149,19.2z"/>
<path class="st0" d="M159.1,16.4c0.4,0.4,0.6,0.8,0.6,1.4c0,0.6,0.2,1,0.2,1.8c0,1.6-0.4,3-1.3,4s-1.9,1.6-3.2,1.6
	c-0.6,0-1.1-0.2-1.9-0.4c-0.6-0.2-1.1-0.6-1.5-1l-0.4,1h-0.8l-0.2-6.1h0.8c0.2,0.8,0.4,1.4,0.6,2c0.2,0.6,0.6,1.2,0.8,1.8
	c0.4,0.6,0.8,1,1.1,1.2c0.4,0.2,0.9,0.4,1.5,0.4c0.4,0,0.8,0,1.1-0.2c0.4-0.2,0.6-0.4,0.8-0.6c0.2-0.2,0.4-0.6,0.4-1
	c0.2-0.4,0.2-0.8,0.2-1.4c0-0.8-0.2-1.4-0.4-2c-0.4-0.6-0.8-1.2-1.3-1.4c-0.4-0.2-0.9-0.4-1.3-0.8c-0.6-0.2-0.9-0.6-1.3-0.8
	c-0.8-0.4-1.3-1-1.7-1.8s-0.6-1.8-0.6-3c0-0.6,0.2-1.4,0.4-2c0.2-0.6,0.6-1.2,0.9-1.6c0.4-0.4,0.8-0.8,1.3-1s0.9-0.4,1.5-0.4
	s1.1,0.2,1.7,0.4c0.6,0.2,0.9,0.6,1.3,0.8l0.4-0.8h0.8v5.9h-0.8c-0.2-0.6-0.4-1.4-0.4-2c-0.2-0.6-0.4-1.2-0.8-1.8
	c-0.2-0.4-0.6-0.8-0.9-1.2c-0.4-0.2-0.9-0.4-1.5-0.4c-0.6,0-1.1,0.2-1.5,0.8c-0.4,0.6-0.6,1.2-0.6,2s0.2,1.4,0.4,2
	c0.2,0.6,0.8,1,1.1,1.2c0.4,0.2,0.9,0.6,1.3,0.8c0.4,0.2,0.9,0.4,1.3,0.6c0.4,0.2,0.8,0.4,1.1,0.8C158.5,15.6,158.9,16,159.1,16.4z"
	/>
<path class="st0" d="M15.6,37.2L15.6,37.2C15.6,37.4,15.6,37.4,15.6,37.2c0,0.4,0,0.4-0.2,0.4c-0.2,0-0.6,0.2-0.9,0.2H0.6l-0.2-0.2
	v-0.2c0-0.2,0.4-0.2,1.1-0.2H15.6z"/>
<path class="st0" d="M26.3,33.3C26.3,33.3,26.5,33.3,26.3,33.3C26.5,33.3,26.5,33.3,26.3,33.3l1.9,5.1l1.3-4.2c0,0,0,0,0-0.2l0,0
	c0,0,0-0.2-0.2-0.2c0,0-0.2,0-0.4-0.2c0,0-0.2,0-0.2-0.2v-0.2c0.2,0,0.4,0,0.6,0c0.2,0,0.4,0,0.6,0c0.2,0,0.4,0,0.6,0
	c0.2,0,0.4,0,0.4,0l0,0l0,0c0,0.2,0,0.2-0.2,0.2s-0.4,0-0.4,0.2c-0.2,0-0.2,0.2-0.2,0.2L28,39.8c0,0,0,0-0.2,0c0,0-0.2,0-0.2-0.2
	l-1.7-4.8l-1.7,5c0,0,0,0-0.2,0c0,0-0.2,0-0.2-0.2l-2.1-5.9c0,0,0-0.2-0.2-0.2c0,0-0.2,0-0.6-0.2c0,0-0.2,0-0.2-0.2c0,0,0,0,0-0.2
	c0,0,0.2,0,0.4,0s0.2,0,0.4,0c0.2,0,0.2,0,0.4,0s0.2,0,0.2,0c0.2,0,0.4,0,0.6,0c0.2,0,0.4,0,0.6,0v0.2c0,0.2,0,0.2-0.2,0.2
	c-0.2,0-0.4,0-0.4,0.2c-0.2,0-0.2,0.2-0.2,0.2s0,0,0,0.2L24,38L26.3,33.3z"/>
<path class="st0" d="M36.3,33.7v2.6h1.5c0.2,0,0.2,0,0.2-0.2s0.2-0.2,0.2-0.4c0,0,0-0.2,0.2-0.2l0,0l0,0c0,0.2,0,0.4,0,0.6
	c0,0.2,0,0.4,0,0.6c0,0.2,0,0.2,0,0.4c0,0.2,0,0.4,0,0.6h-0.2c-0.2,0-0.2,0-0.2-0.2s0-0.4-0.2-0.4c0-0.2-0.2-0.2-0.2-0.2h-1.5v2.4
	c0,0.2,0,0.2,0.2,0.2s0.4,0,0.9,0h0.6c0.2,0,0.4,0,0.6,0c0.2,0,0.2-0.2,0.4-0.2c0.2,0,0.2-0.2,0.4-0.4c0-0.2,0.2-0.2,0.2-0.4
	c0,0,0,0,0.2,0c0,0,0,0,0.2,0c0,0,0,0,0.2,0c0,0.2-0.2,0.2-0.2,0.4c0,0.2,0,0.4-0.2,0.6c0,0.2,0,0.4-0.2,0.4c-0.2,0-0.2,0.2-0.2,0.2
	h-0.2c-0.2,0-0.2,0-0.4,0c-0.2,0-0.2,0-0.4,0c-0.2,0-0.2,0-0.4,0h-2.1c-0.2,0-0.4,0-0.6,0c-0.2,0-0.4,0-0.6,0v-0.2
	c0,0,0-0.2,0.2-0.2c0.2,0,0.4,0,0.6-0.2c0,0,0,0,0-0.2v-5.1c0-0.2,0-0.2-0.2-0.2c0,0-0.2-0.2-0.6-0.2c0,0-0.2,0-0.2-0.2l0,0l0,0
	c0.2,0,0.6,0,0.8,0c0.2,0,0.4,0,0.6,0h1.9c0.4,0,0.6,0,0.8,0s0.4,0,0.4,0s0.2,0,0.2,0.2c0,0.2,0,0.2,0,0.4s0,0.4,0,0.6
	c0,0.2,0,0.4,0.2,0.4h-0.2h-0.2c0-0.2-0.2-0.4-0.2-0.4c0-0.2-0.2-0.2-0.2-0.4c0,0-0.2-0.2-0.4-0.2c-0.2,0-0.4,0-0.6,0h-1.1
	L36.3,33.7L36.3,33.7z"/>
<path class="st0" d="M47.7,34.9C47.7,34.9,47.5,34.9,47.7,34.9c-0.2,0-0.4,0-0.4,0s0,0,0-0.2c-0.2-0.4-0.4-0.6-0.6-0.8
	c-0.2-0.2-0.6-0.2-0.9-0.2c-0.2,0-0.4,0-0.4,0c-0.2,0-0.2,0.2-0.4,0.2c-0.2,0-0.2,0.2-0.2,0.4s0,0.2,0,0.4c0,0.4,0.2,0.6,0.4,0.8
	c0.2,0.2,0.6,0.4,1.1,0.6c0.6,0.2,1.1,0.6,1.3,0.8c0.4,0.4,0.4,0.8,0.4,1.2c0,0.2,0,0.6-0.2,0.8c0,0.2-0.2,0.4-0.4,0.6
	c-0.2,0.2-0.4,0.4-0.8,0.4C46.6,40,46.2,40,45.8,40c-0.4,0-0.8,0-1.1-0.2c-0.4,0-0.6-0.2-0.8-0.4c0-0.2,0-0.6,0-0.8s0-0.6-0.2-0.8
	H44h0.2c0,0,0,0,0.2,0.2c0.2,0.4,0.4,0.8,0.6,1c0.2,0.2,0.6,0.4,1.1,0.4c0.2,0,0.4,0,0.6,0c0.2,0,0.4-0.2,0.4-0.2
	c0.2-0.2,0.2-0.2,0.2-0.4s0-0.2,0-0.4c0-0.4-0.2-0.6-0.4-0.8c-0.2-0.2-0.6-0.4-0.9-0.6c-0.2-0.2-0.6-0.2-0.8-0.4s-0.4-0.2-0.6-0.4
	c-0.2-0.2-0.4-0.4-0.4-0.6c0-0.2-0.2-0.4-0.2-0.8c0-0.2,0-0.4,0.2-0.8c0-0.2,0.2-0.4,0.4-0.6c0.2-0.2,0.4-0.2,0.6-0.4
	c0.2,0,0.6-0.2,0.8-0.2c0.4,0,0.6,0,0.9,0c0.2,0,0.6,0.2,0.9,0.4c0,0.2,0,0.4,0,0.6C47.7,34.5,47.7,34.7,47.7,34.9z"/>
<path class="st0" d="M55.2,33.7V39c0,0.2,0,0.2,0.2,0.4c0.2,0,0.4,0.2,0.6,0.2c0,0,0.2,0,0.2,0.2V40c-0.2,0-0.4,0-0.6,0
	c-0.2,0-0.4,0-0.8,0c-0.2,0-0.4,0-0.8,0c-0.2,0-0.4,0-0.8,0v-0.2c0,0,0-0.2,0.2-0.2c0.4,0,0.6,0,0.6-0.2c0.2,0,0.2-0.2,0.2-0.4v-5.3
	h-0.9c-0.2,0-0.4,0-0.6,0s-0.2,0.2-0.4,0.2c-0.2,0-0.2,0.2-0.2,0.4S52,34.5,52,34.7l0,0l0,0h-0.2c0-0.2,0.2-0.4,0.2-0.6
	c0-0.2,0-0.4,0-0.4c0-0.2,0-0.2,0-0.2s0-0.2,0.2-0.2h0.2h0.2c0,0,0.2,0,0.4,0c0.2,0,0.2,0,0.2,0h3.2h0.2c0.2,0,0.2,0,0.4,0
	c0.2,0,0.2,0,0.2,0h0.2c0,0,0.2,0,0.2,0.2c0,0,0,0.2,0,0.4c0,0.2,0,0.2,0,0.4s0,0.4,0.2,0.6l0,0c0,0,0,0-0.2,0l0,0l0,0
	c0-0.2-0.2-0.4-0.2-0.4c0-0.2-0.2-0.2-0.2-0.4c0,0-0.2-0.2-0.4-0.2s-0.4,0-0.6,0L55.2,33.7L55.2,33.7z"/>
<path class="st0" d="M69.9,36.4c0.2,0,0.4,0,0.6,0.2c0.2,0,0.4,0.2,0.6,0.4c0.2,0.2,0.4,0.2,0.4,0.4c0.2,0.2,0.2,0.4,0.2,0.6
	c0,0.4,0,0.6-0.2,0.8s-0.2,0.4-0.4,0.6c-0.2,0.2-0.4,0.2-0.8,0.4c-0.2,0-0.6,0.2-0.9,0.2h-1.5c-0.2,0-0.2,0-0.4,0
	c-0.2,0-0.2,0-0.4,0c-0.2,0-0.4,0-0.4,0l0,0l0,0l0,0c0,0,0-0.2,0.2-0.2c0.2,0,0.4-0.2,0.6-0.2c0.2,0,0.2-0.2,0.2-0.2v-5.1v-0.2
	c0,0,0,0-0.2-0.2h-0.2c0,0-0.2,0-0.4,0c0,0-0.2,0-0.2-0.2l0,0l0,0c0.2,0,0.4,0,0.6,0c0.2,0,0.4,0,0.6,0h1.3c0.4,0,0.8,0,0.9,0.2
	c0.2,0,0.4,0.2,0.6,0.4c0.2,0.2,0.2,0.4,0.4,0.6c0.2,0.2,0.2,0.4,0.2,0.6c0,0.2,0,0.4,0,0.4c0,0.2-0.2,0.2-0.2,0.4
	c-0.2,0.2-0.2,0.2-0.4,0.4C70.3,36.2,70.1,36.2,69.9,36.4L69.9,36.4z M68.4,39.2L68.4,39.2C68.6,39.4,68.6,39.4,68.4,39.2l0.4,0.2
	h0.2c0.2,0,0.4,0,0.8,0c0.2,0,0.4-0.2,0.6-0.2c0.2-0.2,0.2-0.2,0.4-0.4c0-0.2,0.2-0.4,0.2-0.6c0-0.4-0.2-0.8-0.6-1.2
	c-0.4-0.2-0.8-0.4-1.3-0.4h-0.6C68.4,36.6,68.4,39.2,68.4,39.2z M68.6,36.2c0.6,0,0.9-0.2,1.1-0.4c0.2-0.2,0.4-0.6,0.4-1
	s-0.2-0.8-0.4-1c-0.2-0.2-0.6-0.4-1.1-0.4h-0.2L68.6,36.2L68.6,36.2z"/>
<path class="st0" d="M78.7,37l-0.9-2.6L76.8,37H78.7z M78.9,37.4h-2.1L76.3,39v0.2c0,0.2,0.2,0.2,0.6,0.4l0,0c0,0,0,0,0,0.2
	s0,0,0,0.2c-0.2,0-0.4,0-0.6,0c-0.2,0-0.4,0-0.6,0c-0.2,0-0.2,0-0.4,0c-0.2,0-0.2,0-0.4,0v-0.2c0,0,0,0,0-0.2c0,0,0,0,0.2,0
	s0.4,0,0.4-0.2c0.2,0,0.2-0.2,0.2-0.2l2.3-5.9c0-0.2,0.2-0.2,0.2-0.2s0,0,0.2,0l2.3,6.1l0.2,0.2c0.2,0,0.2,0,0.4,0.2l0,0
	c0,0,0,0,0,0.2c0,0,0,0,0,0.2c-0.2,0-0.4,0-0.6,0c-0.2,0-0.4,0-0.6,0c-0.2,0-0.4,0-0.6,0c-0.2,0-0.4,0-0.6,0v-0.2v-0.2l0,0
	c0.2,0,0.4,0,0.4-0.2c0.2,0,0.2-0.2,0.2-0.2s0,0,0-0.2L78.9,37.4z"/>
<path class="st0" d="M86,37l-1.7-3c0-0.2-0.2-0.2-0.2-0.2c-0.2,0-0.2,0-0.4-0.2l0,0c0,0,0,0,0-0.2l0,0l0,0l0,0c0.2,0,0.4,0,0.6,0
	c0.2,0,0.4,0,0.6,0h0.2c0.2,0,0.2,0,0.4,0c0.2,0,0.2,0,0.4,0c0.2,0,0.2,0,0.2,0l0,0l0,0l0,0c0,0,0,0,0,0.2l0,0c-0.2,0-0.4,0-0.4,0
	s-0.2,0-0.2,0.2v0.2l1.1,2.2l1.1-2.2c0-0.2,0.2-0.2,0.2-0.2s0-0.2-0.2-0.2c0,0-0.2,0-0.4-0.2c0,0-0.2,0-0.2-0.2l0,0l0,0
	c0.2,0,0.4,0,0.6,0c0.2,0,0.4,0,0.6,0c0.2,0,0.4,0,0.4,0c0.2,0,0.4,0,0.6,0l0,0l0,0l0,0c0,0,0,0.2-0.2,0.2s-0.4,0-0.6,0.2l-0.2,0.2
	l-1.5,3V39c0,0.2,0,0.2,0.2,0.4c0.2,0,0.4,0.2,0.6,0.2c0,0,0.2,0,0.2,0.2l0,0l0,0l0,0c-0.2,0-0.4,0-0.4,0c-0.2,0-0.2,0-0.4,0
	c-0.2,0-0.2,0-0.4,0s-0.2,0-0.4,0c-0.2,0-0.2,0-0.4,0s-0.4,0-0.4,0l0,0l0,0l0,0c0,0,0-0.2,0.2-0.2c0.2,0,0.4-0.2,0.6-0.2
	c0.2,0,0.2-0.2,0.2-0.4v-2H86z"/>
<path class="st0" d="M104.8,36.6c0,0.4,0,0.8-0.2,1.2s-0.4,0.8-0.6,1c-0.2,0.4-0.6,0.6-0.9,0.8c-0.4,0.2-0.9,0.2-1.5,0.2h-2.1
	c-0.2,0-0.4,0-0.6,0c-0.2,0-0.4,0-0.6,0v-0.2c0,0,0-0.2,0.2-0.2s0.4-0.2,0.6-0.2c0.2,0,0.2-0.2,0.2-0.2v-5.1c0-0.2,0-0.2-0.2-0.2
	s-0.2-0.2-0.6-0.2l0,0c0,0,0,0,0-0.2c0,0,0,0,0-0.2c0.2,0,0.2,0,0.4,0c0.2,0,0.2,0,0.4,0h0.2h0.2h2.1c0.6,0,0.9,0,1.5,0.2
	c0.4,0.2,0.8,0.4,0.9,0.8c0.2,0.4,0.6,0.6,0.6,1C104.6,35.6,104.8,36.2,104.8,36.6z M103.7,36.8c0-1-0.2-1.8-0.8-2.4
	c-0.6-0.6-1.1-0.8-2.1-0.8h-0.8V39v0.2c0,0,0,0,0.2,0.2c0,0,0.2,0,0.4,0s0.4,0,0.6,0c0.6,0,0.9,0,1.3-0.2c0.4-0.2,0.6-0.4,0.8-0.6
	c0.2-0.2,0.4-0.6,0.4-0.8C103.7,37.6,103.7,37.2,103.7,36.8z"/>
<path class="st0" d="M112.1,39.6c0.4,0,0.6,0,0.8-0.2c0.2-0.2,0.4-0.2,0.6-0.6c0.2-0.2,0.4-0.4,0.4-0.8s0.2-0.6,0.2-1
	c0-0.4,0-1-0.2-1.4c-0.2-0.4-0.2-0.8-0.4-1c-0.2-0.4-0.4-0.6-0.8-0.8c-0.4-0.2-0.6-0.2-1.1-0.2c-0.2,0-0.6,0-0.8,0.2
	c-0.2,0.2-0.4,0.2-0.6,0.4c-0.2,0.2-0.4,0.4-0.4,0.8c-0.2,0.2-0.2,0.6-0.2,1c0,0.6,0,1,0.2,1.4c0.2,0.4,0.2,0.8,0.4,1.2
	c0.2,0.4,0.4,0.6,0.8,0.8C111.4,39.4,111.8,39.6,112.1,39.6z M108.8,36.6c0-0.4,0-1,0.2-1.4c0.2-0.4,0.4-0.8,0.6-1
	c0.2-0.4,0.6-0.6,0.9-0.8s0.8-0.2,1.1-0.2c0.6,0,1.1,0,1.5,0.2c0.4,0.2,0.8,0.4,1.1,0.8c0.2,0.4,0.6,0.6,0.6,1.2
	c0,0.6,0.2,0.8,0.2,1.4c0,0.6,0,1-0.2,1.4c-0.2,0.4-0.4,0.8-0.8,1c-0.4,0.2-0.6,0.6-0.9,0.6c-0.4,0.2-0.8,0.2-1.3,0.2
	c-0.4,0-0.9,0-1.3-0.2c-0.4-0.2-0.8-0.4-0.9-0.8c-0.2-0.4-0.6-0.6-0.6-1C109,37.6,108.8,37.2,108.8,36.6z"/>
<path class="st0" d="M124.7,39.2C124.7,39.4,124.7,39.4,124.7,39.2c0.2,0.2,0.4,0.4,0.8,0.4c0,0,0.2,0,0.2,0.2V40
	c-0.2,0-0.4,0-0.6,0c-0.2,0-0.4,0-0.6,0c-0.2,0-0.4,0-0.6,0c-0.2,0-0.4,0-0.6,0v-0.2c0,0,0-0.2,0.2-0.2c0.2,0,0.4,0,0.6-0.2l0.2-0.2
	v-2.4h-3v2.4c0,0.2,0,0.2,0.2,0.2c0,0,0.2,0.2,0.6,0.2c0,0,0.2,0,0.2,0.2V40c-0.2,0-0.4,0-0.6,0c-0.2,0-0.4,0-0.6,0
	c-0.2,0-0.4,0-0.6,0c-0.2,0-0.4,0-0.6,0v-0.2c0,0,0-0.2,0.2-0.2c0.2,0,0.4,0,0.6-0.2l0.2-0.2v-5.1v-0.2c0,0,0,0,0-0.2
	c0-0.2-0.2,0-0.2,0s-0.2,0-0.4,0c0,0-0.2,0-0.2-0.2v-0.2c0.2,0,0.4,0,0.6,0c0.2,0,0.4,0,0.6,0c0.2,0,0.4,0,0.6,0c0.2,0,0.4,0,0.6,0
	v0.2c0,0,0,0.2-0.2,0.2s-0.4,0-0.6,0.2l-0.2,0.2v2.2h3v-2.2c0-0.2,0-0.2-0.2-0.2c0,0-0.2-0.2-0.6-0.2c0,0-0.2,0-0.2-0.2v-0.2
	c0.2,0,0.4,0,0.6,0c0.2,0,0.4,0,0.6,0c0.2,0,0.4,0,0.6,0c0.2,0,0.4,0,0.6,0v0.2c0,0,0,0.2-0.2,0.2s-0.4,0-0.6,0.2l-0.2,0.2v5.1
	C124.9,39.2,124.7,39.2,124.7,39.2z"/>
<path class="st0" d="M133.2,37l-0.9-2.6l-0.9,2.6H133.2z M133.4,37.4h-2.3l-0.6,1.6v0.2c0,0.2,0.2,0.2,0.6,0.4l0,0c0,0,0,0,0,0.2
	s0,0,0,0.2c-0.2,0-0.4,0-0.6,0c-0.2,0-0.4,0-0.6,0c-0.2,0-0.2,0-0.4,0s-0.2,0-0.4,0v-0.2c0,0,0,0,0-0.2c0,0,0,0,0.2,0
	c0.2,0,0.4,0,0.4-0.2c0.2,0,0.2-0.2,0.2-0.2l2.3-5.9c0-0.2,0.2-0.2,0.2-0.2s0,0,0.2,0l2.3,6.1l0.2,0.2c0.2,0,0.2,0,0.4,0.2l0,0
	c0,0,0,0,0,0.2c0,0,0,0,0,0.2c-0.2,0-0.4,0-0.6,0c-0.2,0-0.4,0-0.6,0c-0.2,0-0.4,0-0.6,0s-0.4,0-0.6,0v-0.2v-0.2l0,0
	c0.2,0,0.4,0,0.4-0.2c0.2,0,0.2-0.2,0.2-0.2s0,0,0-0.2L133.4,37.4z"/>
<path class="st0" d="M159.9,37.2C160,37.2,160,37.2,159.9,37.2C159.9,37.4,159.9,37.4,159.9,37.2c0,0.4,0,0.4-0.2,0.4
	c-0.2,0-0.6,0.2-0.9,0.2h-13.9l-0.2-0.2v-0.2c0-0.2,0.4-0.2,1.1-0.2H159.9z"/>
</svg>
