<?xml version="1.0" encoding="utf-8"?>
<!-- Generator: Adobe Illustrator 21.0.2, SVG Export Plug-In . SVG Version: 6.00 Build 0)  -->
<svg version="1.1" id="Layer_1" xmlns="http://www.w3.org/2000/svg" xmlns:xlink="http://www.w3.org/1999/xlink" x="0px" y="0px"
	 viewBox="0 0 128 126" style="enable-background:new 0 0 128 126;" xml:space="preserve">
<style type="text/css">
	.st0{fill:#414242;}
	.st1{fill:#615E5D;}
	.st2{fill:#5F5F5F;}
</style>
<g>
	<path class="st0" d="M64.3,124.1c-34,0-61.6-27.2-61.6-60.6C2.7,30,30.3,2.8,64.3,2.8s61.6,27.2,61.6,60.6
		C125.9,96.9,98.3,124.1,64.3,124.1z M64.3,4.3C31.2,4.3,4.2,30.8,4.2,63.4s27,59.1,60.1,59.1c33.1,0,60.1-26.5,60.1-59.1
		S97.4,4.3,64.3,4.3z"/>
</g>
<g>
	<path class="st1" d="M52,32c-0.6,0.1-1.4,0.1-2-0.3c0,1.2,1.2,2.1,2.6,2.2c1.4,0,2.6-0.7,2.7-1.9c-0.2-0.1-0.5-0.3-0.6-0.3
		C53.6,31.4,52.9,31.9,52,32z"/>
</g>
<g>
	<path class="st1" d="M52.7,29.5c-1.4,0-2.6,0.7-2.7,1.8c0.3,0.3,0.6,0.4,1.1,0.4c0.9,0.1,1.8-0.3,2.7-0.4c0.5,0,1.2,0,1.5,0.3
		C55.3,30.5,54.1,29.6,52.7,29.5z"/>
</g>
<g>
	<rect x="63" y="4.9" class="st1" width="1.9" height="6.7"/>
</g>
<g>
	
		<rect x="61" y="4.7" transform="matrix(0.9994 -3.521982e-02 3.521982e-02 0.9994 -0.2539 2.1877)" class="st1" width="1.9" height="7.1"/>
</g>
<g>
	<polygon class="st1" points="59.3,12.1 58.8,5 60.7,4.8 61.3,12 	"/>
</g>
<g>
	<polygon class="st1" points="57.5,12.2 56.7,5.2 58.6,4.9 59.4,12 	"/>
</g>
<g>
	<polygon class="st1" points="55.6,12.6 54.6,5.5 56.6,5.2 57.6,12.3 	"/>
</g>
<g>
	<polygon class="st1" points="53.8,12.9 52.5,5.8 54.5,5.5 55.7,12.5 	"/>
</g>
<g>
	<polygon class="st1" points="51.9,13.2 50.4,6.2 52.3,5.8 53.9,12.8 	"/>
</g>
<g>
	<polygon class="st1" points="50.3,13.6 48.6,6.7 50.4,6.2 52.2,13.2 	"/>
</g>
<g>
	<polygon class="st1" points="48.5,14.1 46.5,7.2 48.3,6.7 50.3,13.5 	"/>
</g>
<g>
	<polygon class="st1" points="46.8,14.7 44.6,7.9 46.4,7.3 48.7,14.1 	"/>
</g>
<g>
	<polygon class="st1" points="45.1,15.2 42.6,8.5 44.5,7.9 46.9,14.6 	"/>
</g>
<g>
	<polygon class="st1" points="43.5,16 40.8,9.4 42.6,8.6 45.3,15.3 	"/>
</g>
<g>
	<polygon class="st1" points="41.8,16.7 38.8,10.2 40.6,9.4 43.6,15.9 	"/>
</g>
<g>
	<polygon class="st1" points="40.1,17.6 36.9,11.2 38.7,10.3 41.9,16.7 	"/>
</g>
<g>
	<polygon class="st1" points="38.5,18.2 35.2,12 36.9,11 40.3,17.3 	"/>
</g>
<g>
	<polygon class="st1" points="36.9,19.3 33.3,13.1 35,12.2 38.6,18.3 	"/>
</g>
<g>
	<polygon class="st1" points="35.3,20.1 31.5,14.1 33.1,13.1 37,19.1 	"/>
</g>
<g>
	<polygon class="st1" points="33.8,21.1 29.8,15.2 31.4,14.1 35.4,20 	"/>
</g>
<g>
	<polygon class="st1" points="32.3,22.3 28,16.5 29.6,15.4 33.8,21.2 	"/>
</g>
<g>
	<polygon class="st1" points="30.9,23.4 26.4,17.8 28,16.6 32.4,22.3 	"/>
</g>
<g>
	<polygon class="st1" points="29.5,24.6 24.9,19.1 26.4,17.9 31,23.3 	"/>
</g>
<g>
	<polygon class="st1" points="28.1,25.8 23.4,20.4 24.7,19.1 29.7,24.3 	"/>
</g>
<g>
	<polygon class="st1" points="26.9,26.9 21.9,21.8 23.3,20.5 28.3,25.6 	"/>
</g>
<g>
	<polygon class="st1" points="25.6,28.2 20.4,23.2 21.8,21.9 27,26.8 	"/>
</g>
<g>
	<polygon class="st1" points="24.5,29.7 18.8,24.7 20.5,23.5 25.7,28 	"/>
</g>
<g>
	<polygon class="st1" points="23.1,31.1 17.6,26.5 18.9,25 24.4,29.6 	"/>
</g>
<g>
	<polygon class="st1" points="22,32.5 16.3,28.1 17.5,26.6 23.2,30.9 	"/>
</g>
<g>
	<polygon class="st1" points="21.1,33.8 15.3,29.6 16.5,28.1 22.3,32.2 	"/>
</g>
<g>
	<polygon class="st1" points="19.9,35.2 13.9,31.3 15,29.7 21,33.6 	"/>
</g>
<g>
	<polygon class="st1" points="19,37 12.9,33.2 14,31.6 20.1,35.4 	"/>
</g>
<g>
	<polygon class="st1" points="18.1,38.4 11.9,34.8 12.9,33.1 19.1,36.7 	"/>
</g>
<g>
	<polygon class="st1" points="17.3,40 11,36.7 11.9,35 18.3,38.3 	"/>
</g>
<g>
	<polygon class="st1" points="16.4,41.7 10,38.6 10.8,36.8 17.3,40 	"/>
</g>
<g>
	<polygon class="st1" points="15.8,43.2 9.2,40.4 10,38.6 16.6,41.5 	"/>
</g>
<g>
	<polygon class="st1" points="15.1,44.9 8.4,42.3 9.1,40.5 15.8,43.1 	"/>
</g>
<g>
	<polygon class="st1" points="14.5,46.7 7.7,44.3 8.4,42.5 15.2,44.9 	"/>
</g>
<g>
	<polygon class="st1" points="13.8,48.3 6.9,46.1 7.5,44.2 14.4,46.4 	"/>
</g>
<g>
	<polygon class="st1" points="13.5,50 6.5,48.1 7.1,46.2 14,48.2 	"/>
</g>
<g>
	<polygon class="st1" points="13,51.7 6,50 6.4,48.1 13.4,49.9 	"/>
</g>
<g>
	<polygon class="st1" points="12.6,53.6 5.5,52.1 5.9,50.2 13,51.7 	"/>
</g>
<g>
	<polygon class="st1" points="12.2,55.3 5.1,54.1 5.4,52.1 12.5,53.4 	"/>
</g>
<g>
	<polygon class="st1" points="11.9,57.2 4.8,56.2 5.1,54.3 12.2,55.2 	"/>
</g>
<g>
	<polygon class="st1" points="11.8,58.8 4.6,58.1 4.8,56.1 12,56.9 	"/>
</g>
<g>
	<polygon class="st1" points="11.8,60.6 4.6,60.1 4.7,58.2 11.9,58.7 	"/>
</g>
<g>
	
		<rect x="7.1" y="57.7" transform="matrix(3.457179e-02 -0.9994 0.9994 3.457179e-02 -53.4392 67.3061)" class="st1" width="1.9" height="7.2"/>
</g>
<g>
	<rect x="4.2" y="62.4" class="st1" width="7.4" height="1.9"/>
</g>
<g>
	
		<rect x="4.4" y="64.2" transform="matrix(0.9994 -3.526032e-02 3.526032e-02 0.9994 -2.2924 0.3222)" class="st1" width="7.2" height="1.9"/>
</g>
<g>
	<polygon class="st1" points="4.6,68.3 4.5,66.3 11.7,65.8 11.8,67.8 	"/>
</g>
<g>
	<polygon class="st1" points="4.8,70.3 4.6,68.4 11.8,67.7 12,69.6 	"/>
</g>
<g>
	<polygon class="st1" points="5,72.4 4.7,70.5 11.9,69.5 12.1,71.4 	"/>
</g>
<g>
	<polygon class="st1" points="5.5,74.4 5.2,72.5 12.3,71.3 12.6,73.2 	"/>
</g>
<g>
	<polygon class="st1" points="5.8,76.5 5.4,74.6 12.5,73.1 12.9,75 	"/>
</g>
<g>
	<polygon class="st1" points="6.4,78.4 5.9,76.5 12.9,74.8 13.4,76.7 	"/>
</g>
<g>
	<polygon class="st1" points="7,80.4 6.5,78.5 13.4,76.6 14,78.4 	"/>
</g>
<g>
	<polygon class="st1" points="7.6,82.3 7,80.4 13.8,78.3 14.4,80.1 	"/>
</g>
<g>
	<polygon class="st1" points="8.2,84.2 7.5,82.3 14.3,79.9 15,81.7 	"/>
</g>
<g>
	<polygon class="st1" points="9.1,86.2 8.3,84.4 15,81.8 15.8,83.5 	"/>
</g>
<g>
	<polygon class="st1" points="9.9,87.9 9.1,86.1 15.7,83.3 16.5,85 	"/>
</g>
<g>
	<polygon class="st1" points="10.9,89.8 10.1,88.1 16.5,85 17.4,86.7 	"/>
</g>
<g>
	<polygon class="st1" points="11.9,91.7 11,90 17.4,86.6 18.3,88.4 	"/>
</g>
<g>
	<polygon class="st1" points="12.9,93.4 11.9,91.7 18.2,88.2 19.1,89.9 	"/>
</g>
<g>
	<polygon class="st1" points="14,95.1 13,93.5 19.1,89.7 20.1,91.3 	"/>
</g>
<g>
	<polygon class="st1" points="15.2,96.8 14.1,95.2 20.1,91.2 21.2,92.8 	"/>
</g>
<g>
	<polygon class="st1" points="16.3,98.6 15.2,97 21,92.8 22.2,94.4 	"/>
</g>
<g>
	<polygon class="st1" points="17.6,100.1 16.4,98.6 22.1,94.2 23.3,95.7 	"/>
</g>
<g>
	<polygon class="st1" points="19,101.7 17.7,100.2 23.2,95.6 24.5,97.1 	"/>
</g>
<g>
	<polygon class="st1" points="20.5,103.1 18.8,101.9 24.5,96.9 25.7,98.6 	"/>
</g>
<g>
	<polygon class="st2" points="21.7,104.6 20.3,103.2 25.5,98.3 26.9,99.7 	"/>
</g>
<g>
	<polygon class="st2" points="23.2,106.1 21.8,104.7 26.8,99.6 28.2,101 	"/>
</g>
<g>
	<polygon class="st2" points="25,107.4 23.2,106.3 28.3,100.9 29.6,102.3 	"/>
</g>
<g>
	<polygon class="st2" points="26.5,108.8 25,107.6 29.6,102.1 31.1,103.4 	"/>
</g>
<g>
	<polygon class="st2" points="28,110.1 26.5,108.9 31,103.3 32.5,104.5 	"/>
</g>
<g>
	<polygon class="st2" points="29.7,111.3 28.1,110.2 32.4,104.4 33.9,105.6 	"/>
</g>
<g>
	<polygon class="st2" points="31.4,112.3 29.8,111.3 33.8,105.4 35.5,106.4 	"/>
</g>
<g>
	<polygon class="st2" points="33.1,113.5 31.4,112.5 35.3,106.5 36.9,107.5 	"/>
</g>
<g>
	<polygon class="st2" points="35,114.5 33.3,113.6 36.9,107.4 38.6,108.4 	"/>
</g>
<g>
	<polygon class="st2" points="36.7,115.4 35,114.5 38.4,108.3 40.1,109.2 	"/>
</g>
<g>
	<polygon class="st1" points="38.8,116.3 37,115.5 40.2,109.1 42,109.9 	"/>
</g>
<g>
	<polygon class="st1" points="40.6,117.2 38.8,116.4 41.8,109.9 43.6,110.7 	"/>
</g>
<g>
	<polygon class="st1" points="42.6,117.9 40.8,117.2 43.5,110.6 45.3,111.3 	"/>
</g>
<g>
	<polygon class="st1" points="44.5,118.7 42.6,118 45.1,111.3 46.9,112 	"/>
</g>
<g>
	<polygon class="st1" points="46.4,119.2 44.6,118.6 46.8,111.8 48.7,112.4 	"/>
</g>
<g>
	<polygon class="st1" points="48.4,119.8 46.5,119.3 48.5,112.5 50.4,113 	"/>
</g>
<g>
	<polygon class="st1" points="50.5,120.2 48.6,119.8 50.4,112.8 52.2,113.3 	"/>
</g>
<g>
	<polygon class="st1" points="52.5,120.8 50.6,120.4 52.1,113.5 54,113.9 	"/>
</g>
<g>
	<polygon class="st1" points="54.6,121.2 52.7,120.9 54,113.8 55.9,114.2 	"/>
</g>
<g>
	<polygon class="st1" points="56.6,121.4 54.7,121.1 55.7,114.1 57.6,114.3 	"/>
</g>
<g>
	<polygon class="st1" points="58.6,121.6 56.6,121.4 57.4,114.4 59.3,114.6 	"/>
</g>
<g>
	<polygon class="st1" points="60.6,121.8 58.7,121.6 59.2,114.5 61.1,114.7 	"/>
</g>
<g>
	
		<rect x="58.5" y="117.1" transform="matrix(3.461779e-02 -0.9994 0.9994 3.461779e-02 -58.1746 176.0206)" class="st1" width="7.1" height="1.9"/>
</g>
<g>
	<rect x="63" y="114.7" class="st1" width="1.9" height="7"/>
</g>
<g>
	
		<rect x="64.9" y="114.7" transform="matrix(0.9994 -3.528343e-02 3.528343e-02 0.9994 -4.1328 2.3983)" class="st1" width="1.9" height="7.1"/>
</g>
<g>
	<polygon class="st1" points="67.1,121.8 66.6,114.7 68.6,114.5 69.1,121.6 	"/>
</g>
<g>
	<polygon class="st1" points="69,121.6 68.3,114.5 70.2,114.3 71,121.4 	"/>
</g>
<g>
	<polygon class="st1" points="71.2,121.4 70.1,114.3 72.1,114 73.1,121.1 	"/>
</g>
<g>
	<polygon class="st1" points="73.2,121.1 72,114.1 73.9,113.7 75.2,120.8 	"/>
</g>
<g>
	<polygon class="st1" points="75.3,120.8 73.8,113.8 75.7,113.4 77.2,120.4 	"/>
</g>
<g>
	<polygon class="st1" points="77.2,120.3 75.5,113.4 77.4,113 79.1,119.9 	"/>
</g>
<g>
	<polygon class="st1" points="79.3,119.9 77.4,113.1 79.2,112.5 81.2,119.4 	"/>
</g>
<g>
	<polygon class="st1" points="81.3,119.3 79,112.5 80.9,111.9 83.1,118.7 	"/>
</g>
<g>
	<polygon class="st1" points="83.2,118.7 80.8,112 82.6,111.4 85.1,118.1 	"/>
</g>
<g>
	<polygon class="st1" points="85.3,118 82.6,111.3 84.4,110.6 87.1,117.2 	"/>
</g>
<g>
	<polygon class="st1" points="87.1,117.2 84.2,110.7 85.9,109.9 88.9,116.4 	"/>
</g>
<g>
	<polygon class="st1" points="89,116.5 85.9,110.1 87.6,109.2 90.8,115.6 	"/>
</g>
<g>
	<polygon class="st1" points="91,115.5 87.6,109.2 89.3,108.3 92.7,114.6 	"/>
</g>
<g>
	<polygon class="st1" points="92.7,114.4 89.1,108.3 90.8,107.3 94.4,113.5 	"/>
</g>
<g>
	<polygon class="st1" points="94.5,113.5 90.7,107.5 92.3,106.5 96.2,112.5 	"/>
</g>
<g>
	<polygon class="st1" points="96.3,112.5 92.2,106.5 93.9,105.5 97.9,111.4 	"/>
</g>
<g>
	<polygon class="st1" points="98.1,111.2 93.8,105.4 95.4,104.3 99.7,110.1 	"/>
</g>
<g>
	<polygon class="st1" points="99.7,110 95.2,104.4 96.7,103.2 101.2,108.8 	"/>
</g>
<g>
	<polygon class="st1" points="101.4,108.9 96.7,103.4 98.2,102.2 102.9,107.6 	"/>
</g>
<g>
	<polygon class="st1" points="103,107.5 98.2,102.3 99.6,100.9 104.3,106.2 	"/>
</g>
<g>
	<polygon class="st1" points="104.4,106.1 99.4,101 100.8,99.7 105.8,104.8 	"/>
</g>
<g>
	<polygon class="st1" points="106.1,104.7 100.9,99.7 102.2,98.4 107.4,103.3 	"/>
</g>
<g>
	<polygon class="st1" points="107.4,103.3 102,98.5 103.3,97.1 108.7,101.8 	"/>
</g>
<g>
	<polygon class="st1" points="108.8,101.8 103.3,97.2 104.6,95.7 110.1,100.3 	"/>
</g>
<g>
	<polygon class="st1" points="110.3,100.2 104.6,95.8 105.8,94.3 111.5,98.6 	"/>
</g>
<g>
	<polygon class="st1" points="111.4,98.5 105.5,94.3 106.7,92.7 112.5,96.9 	"/>
</g>
<g>
	<polygon class="st1" points="112.6,97.1 106.6,93.1 107.7,91.5 113.7,95.5 	"/>
</g>
<g>
	<polygon class="st1" points="113.9,95.3 107.8,91.5 108.9,89.9 115,93.7 	"/>
</g>
<g>
	<polygon class="st1" points="114.9,93.6 108.6,90.1 109.6,88.4 115.8,92 	"/>
</g>
<g>
	<polygon class="st1" points="116.1,91.9 109.8,88.6 110.7,86.9 117.1,90.2 	"/>
</g>
<g>
	<polygon class="st1" points="116.9,90 110.4,86.9 111.2,85.2 117.7,88.3 	"/>
</g>
<g>
	<polygon class="st1" points="117.8,88.1 111.2,85.2 112,83.4 118.6,86.3 	"/>
</g>
<g>
	<polygon class="st1" points="118.6,86.3 111.9,83.6 112.6,81.8 119.3,84.5 	"/>
</g>
<g>
	<polygon class="st1" points="119.4,84.6 112.7,82.1 113.3,80.3 120.1,82.8 	"/>
</g>
<g>
	<polygon class="st1" points="120.2,82.5 113.3,80.3 114,78.5 120.8,80.7 	"/>
</g>
<g>
	<polygon class="st1" points="120.9,80.6 113.9,78.6 114.5,76.8 121.4,78.7 	"/>
</g>
<g>
	<polygon class="st1" points="121.3,78.6 114.3,76.9 114.7,75 121.7,76.7 	"/>
</g>
<g>
	<polygon class="st1" points="122,76.7 114.9,75.2 115.3,73.4 122.4,74.8 	"/>
</g>
<g>
	<polygon class="st1" points="122.4,74.6 115.3,73.3 115.6,71.4 122.7,72.7 	"/>
</g>
<g>
	<polygon class="st1" points="122.6,72.7 115.5,71.7 115.7,69.8 122.9,70.8 	"/>
</g>
<g>
	<polygon class="st1" points="122.9,70.6 115.7,69.8 115.9,67.9 123.1,68.6 	"/>
</g>
<g>
	<polygon class="st1" points="123.3,68.6 116.1,68.1 116.2,66.2 123.4,66.7 	"/>
</g>
<g>
	
		<rect x="118.7" y="61.8" transform="matrix(3.450888e-02 -0.9994 0.9994 3.450888e-02 50.2467 182.7496)" class="st1" width="1.9" height="7.2"/>
</g>
<g>
	<rect x="116" y="62.5" class="st1" width="7.4" height="1.9"/>
</g>
<g>
	
		<rect x="116.1" y="60.6" transform="matrix(0.9994 -3.526032e-02 3.526032e-02 0.9994 -2.0975 4.2599)" class="st1" width="7.2" height="1.9"/>
</g>
<g>
	<polygon class="st1" points="116,60.9 115.9,58.9 123.1,58.4 123.2,60.4 	"/>
</g>
<g>
	<polygon class="st1" points="115.9,59.1 115.7,57.1 122.9,56.4 123.1,58.3 	"/>
</g>
<g>
	<polygon class="st1" points="115.7,57.3 115.4,55.3 122.5,54.3 122.8,56.3 	"/>
</g>
<g>
	<polygon class="st1" points="115.6,55.5 115.3,53.6 122.4,52.3 122.7,54.2 	"/>
</g>
<g>
	<polygon class="st1" points="115.2,53.8 114.8,51.9 121.8,50.4 122.2,52.3 	"/>
</g>
<g>
	<polygon class="st1" points="114.8,52 114.3,50.1 121.4,48.4 121.8,50.3 	"/>
</g>
<g>
	<polygon class="st2" points="114.4,50.3 113.9,48.4 120.8,46.5 121.4,48.4 	"/>
</g>
<g>
	<polygon class="st2" points="113.9,48.5 113.3,46.6 120.1,44.4 120.7,46.3 	"/>
</g>
<g>
	<polygon class="st2" points="113.3,46.8 112.7,45 119.4,42.6 120.1,44.4 	"/>
</g>
<g>
	<polygon class="st2" points="112.7,45.1 111.9,43.3 118.6,40.7 119.4,42.5 	"/>
</g>
<g>
	<polygon class="st2" points="112.2,42.1 117.4,39.8 117.6,40.2 112.4,42.5 	"/>
	<polygon class="st2" points="112,43.5 111.2,41.7 117.8,38.8 118.6,40.6 	"/>
</g>
<g>
	<polygon class="st2" points="111.5,40.4 116.6,37.9 116.8,38.3 111.7,40.8 	"/>
	<polygon class="st2" points="111.3,41.8 110.5,40 117,36.9 117.8,38.7 	"/>
</g>
<g>
	<polygon class="st2" points="110.6,38.9 115.7,36.2 115.9,36.6 110.8,39.2 	"/>
	<polygon class="st2" points="110.5,40.2 109.6,38.5 116,35.2 116.9,36.9 	"/>
</g>
<g>
	<polygon class="st2" points="109.7,37.3 114.7,34.5 114.9,34.9 110,37.7 	"/>
	<polygon class="st2" points="109.7,38.7 108.7,37 115,33.5 115.9,35.1 	"/>
</g>
<g>
	<polygon class="st2" points="108.7,37.2 107.7,35.5 113.8,31.8 114.9,33.4 	"/>
</g>
<g>
	<polygon class="st2" points="107.8,35.4 106.7,33.8 112.6,29.9 113.7,31.5 	"/>
</g>
<g>
	<polygon class="st2" points="106.7,33.8 105.5,32.2 111.3,28 112.5,29.6 	"/>
</g>
<g>
	<polygon class="st2" points="105.7,32.4 104.5,30.8 110.2,26.5 111.4,28 	"/>
</g>
<g>
	<polygon class="st2" points="104.5,31 103.2,29.5 108.8,24.9 110,26.4 	"/>
</g>
<g>
	<polygon class="st2" points="103.3,29.7 102.2,28 107.4,23.4 108.8,24.8 	"/>
</g>
<g>
	<polygon class="st2" points="102.1,28.3 100.8,26.9 105.9,22 107.3,23.4 	"/>
</g>
<g>
	<polygon class="st2" points="100.9,27 99.5,25.7 104.5,20.6 105.9,21.9 	"/>
</g>
<g>
	<polygon class="st2" points="99.5,26 98.3,24.2 102.9,19.2 104.6,20.3 	"/>
</g>
<g>
	<polygon class="st2" points="98.3,24.5 96.8,23.2 101.4,17.8 102.9,19 	"/>
</g>
<g>
	<polygon class="st2" points="96.9,23.3 95.3,22.1 99.8,16.5 101.3,17.7 	"/>
</g>
<g>
	<polygon class="st2" points="95.6,22.3 94,21.2 98.2,15.5 99.8,16.6 	"/>
</g>
<g>
	<polygon class="st2" points="93.9,21.2 92.3,20.1 96.4,14.2 98,15.3 	"/>
</g>
<g>
	<polygon class="st2" points="92.4,20.2 90.7,19.2 94.5,13.1 96.2,14.2 	"/>
</g>
<g>
	<polygon class="st2" points="90.7,19.3 89,18.3 92.7,12.2 94.3,13.1 	"/>
</g>
<g>
	<polygon class="st2" points="89.4,18.3 87.7,17.4 91.1,11.1 92.8,12 	"/>
</g>
<g>
	<polygon class="st2" points="87.7,17.5 85.9,16.6 89.1,10.2 90.9,11.1 	"/>
</g>
<g>
	<polygon class="st2" points="86,16.9 84.2,16.1 87.2,9.6 88.9,10.3 	"/>
</g>
<g>
	<polygon class="st1" points="84.5,16 82.7,15.3 85.4,8.7 87.3,9.4 	"/>
</g>
<g>
	<polygon class="st1" points="82.6,15.4 80.8,14.7 83.2,8 85.1,8.7 	"/>
</g>
<g>
	<polygon class="st1" points="81.1,14.7 79.2,14.1 81.5,7.3 83.3,7.9 	"/>
</g>
<g>
	<polygon class="st1" points="79.3,14.1 77.5,13.6 79.5,6.8 81.3,7.3 	"/>
</g>
<g>
	<polygon class="st1" points="77.4,13.6 75.5,13.1 77.3,6.2 79.2,6.6 	"/>
</g>
<g>
	<polygon class="st1" points="75.8,13.2 73.9,12.8 75.4,5.8 77.3,6.2 	"/>
</g>
<g>
	<polygon class="st1" points="74,12.8 72.1,12.4 73.3,5.4 75.2,5.8 	"/>
</g>
<g>
	<polygon class="st1" points="72.1,12.6 70.2,12.3 71.2,5.3 73.1,5.5 	"/>
</g>
<g>
	<polygon class="st1" points="70.3,12.2 68.4,12 69.1,4.9 71,5.1 	"/>
</g>
<g>
	<polygon class="st1" points="68.5,12 66.5,11.9 67,4.8 69,4.9 	"/>
</g>
<g>
	<polygon class="st1" points="66.7,11.8 64.8,11.8 65,4.7 67,4.7 	"/>
</g>
<g>
	<path class="st1" d="M64,2.4C30,2.4,2.4,29.5,2.4,63S30,123.6,64,123.6s61.6-27.1,61.6-60.6C125.7,29.5,98,2.4,64,2.4z M64,126
		C28.8,126,0,97.7,0,63S28.8,0,64,0s64,28.3,64,63C128,97.8,99.4,126,64,126z"/>
</g>
<g>
	<path class="st1" d="M42.6,70c-0.2,0-0.2,0-0.3,0s-0.2,0-0.3,0c0,0.6-0.3,1.2-0.5,1.6c-0.3,0.4-0.5,0.9-0.9,1.2
		c-0.5,0.3-0.8,0.6-1.4,0.7c-0.5,0.1-1.1,0.3-1.7,0.3c-0.5,0-0.8,0-1.2-0.1s-0.6-0.3-0.9-0.4c-0.3-0.1-0.5-0.4-0.6-0.7
		c-0.2-0.3-0.2-0.6-0.2-1s0-0.7,0.2-1.2s0.3-0.7,0.6-1c0.3-0.3,0.5-0.6,0.8-0.7c0.3-0.3,0.6-0.4,1.1-0.4l0,0
		c-0.2-0.1-0.3-0.3-0.5-0.4c-0.2-0.1-0.2-0.3-0.3-0.4c0-0.1-0.2-0.3-0.2-0.4c0-0.1,0-0.3,0-0.4c0-0.4,0.2-0.7,0.3-1
		c0.2-0.3,0.5-0.6,0.6-0.9c0.3-0.3,0.6-0.4,0.9-0.6c0.5-0.1,0.8-0.3,1.2-0.3c0.3,0,0.6,0,0.9,0.1c0.3,0.1,0.5,0.3,0.6,0.4
		s0.3,0.4,0.5,0.6c0.2,0.3,0.2,0.4,0.2,0.7c0,0.1,0,0.4-0.2,0.4c0,0.1-0.2,0.3-0.3,0.4c-0.2,0.1-0.2,0.1-0.3,0.3
		c-0.2,0-0.3,0.1-0.5,0.1c-0.2,0-0.3,0-0.5-0.1c-0.2,0-0.3-0.1-0.5-0.3c0.2-0.1,0.3-0.3,0.5-0.4c0.2-0.1,0.2-0.4,0.2-0.6
		c0-0.3,0-0.4-0.2-0.6c-0.2-0.1-0.3-0.3-0.5-0.3c-0.2,0-0.5,0-0.5,0.1c-0.2,0.1-0.3,0.3-0.5,0.4c-0.2,0.1-0.3,0.4-0.3,0.6
		c0,0.1-0.2,0.4-0.2,0.7c0,0.4,0.2,0.9,0.5,1.2c0.3,0.3,0.6,0.4,1.1,0.6l0,0c-0.3,0-0.6,0.1-0.9,0.4c-0.3,0.1-0.6,0.4-0.8,0.7
		c-0.3,0.3-0.5,0.6-0.5,0.9c-0.2,0.3-0.2,0.7-0.2,1c0,0.4,0.2,0.9,0.5,1c0.3,0.3,0.6,0.4,1.1,0.4c0.3,0,0.6,0,0.9-0.1
		c0.3-0.1,0.6-0.3,0.8-0.4c0.3-0.3,0.5-0.4,0.6-0.7s0.3-0.6,0.5-1c-0.2,0-0.2,0-0.3,0c-0.2,0-0.2,0-0.3,0c-0.3,0.1-0.5,0.1-0.6,0.3
		c-0.2,0.1-0.3,0.3-0.5,0.4l0,0c0-0.1-0.2-0.1-0.2-0.3c0-0.1-0.2-0.1-0.2-0.3c0-0.1,0-0.4,0-0.6c0-0.1,0.2-0.3,0.2-0.4
		c0.2-0.1,0.3-0.3,0.5-0.4c0.2-0.1,0.3-0.1,0.5-0.3c0.2,0,0.3-0.1,0.5-0.1c0.2,0,0.3,0,0.5,0c0.2,0,0.3,0,0.5,0s0.3,0,0.5,0
		c0.2,0,0.3-0.1,0.3-0.1c0.2,0,0.3-0.1,0.3-0.1c0.2,0,0.2-0.1,0.3-0.3c0.2-0.1,0.2-0.1,0.2-0.3l0,0c0.2,0.1,0.2,0.1,0.2,0.3
		c0,0.1,0.2,0.1,0.2,0.3c0,0.1,0,0.4,0,0.6c0,0.1-0.2,0.4-0.3,0.4c-0.2,0.1-0.3,0.3-0.5,0.4C42.8,69.5,42.8,69.8,42.6,70z"/>
</g>
<g>
	<path class="st1" d="M76.3,56.6c0.2,0,0.3,0,0.5,0c0.2,0,0.3,0,0.5-0.1c0.2-0.1,0.3-0.1,0.5-0.3c0.2-0.1,0.2-0.3,0.3-0.4
		c0-0.1,0.2-0.3,0.2-0.4c0-0.3,0-0.4-0.2-0.6c-0.2-0.1-0.3-0.3-0.5-0.4c0.5-0.9,0.9-1.6,1.2-2.4c0.5-0.7,0.6-1.6,0.9-2.4
		c0,0.6,0.2,1.3,0.2,1.8s0.2,0.9,0.2,1.3c0,0.4,0.2,0.7,0.2,1c0,0.3,0,0.6,0,0.7c0,0.1,0,0.4,0,0.6c0,0.1,0,0.4,0,0.6
		c0,0.4,0,0.9-0.2,1.2c-0.2,0.3-0.3,0.6-0.5,0.7c-0.2,0.1-0.5,0.3-0.8,0.4c-0.3,0.1-0.6,0.1-0.9,0.1c-0.6,0-1.1-0.1-1.2-0.4
		c-0.2-0.3-0.5-0.7-0.5-1.3C76,56.5,76.2,56.6,76.3,56.6z M74.5,56.9c0,0.4,0.2,0.7,0.3,1.2s0.5,0.7,0.8,1s0.8,0.6,1.2,0.7
		c0.5,0.1,1.1,0.3,1.7,0.3c0.5,0,0.8,0,1.2-0.1c0.5,0,0.8-0.1,1.2-0.3c0.5-0.1,0.8-0.3,1.1-0.6s0.6-0.4,0.9-0.9
		c0.3-0.3,0.5-0.7,0.6-1.2s0.3-0.9,0.3-1.5c0-0.3,0-0.6,0-0.9c0-0.3,0-0.6,0-0.9c0-0.3,0-0.7-0.2-1.2c0-0.4-0.2-0.9-0.2-1.5
		c0-0.6-0.2-1.3-0.2-2.2c0-0.9-0.2-1.8-0.2-3l-3.9,0.4c-0.5,1.3-0.9,2.5-1.4,3.9c-0.5,1.3-1.2,2.5-1.8,3.9c-0.2,0.1-0.3,0.1-0.5,0.3
		c-0.2,0.1-0.3,0.3-0.5,0.4c-0.2,0.1-0.3,0.4-0.3,0.7C74.7,56.2,74.5,56.6,74.5,56.9z"/>
</g>
<g>
	<path class="st1" d="M68.1,50.1c0.3-0.4,0.5-0.7,0.9-0.9c0.3-0.3,0.6-0.3,0.9-0.3c0.2,0,0.3,0,0.5,0c0.2,0,0.3,0.1,0.5,0.3
		c0.2,0.1,0.3,0.4,0.3,0.6c0.2,0.3,0.2,0.6,0.2,1.2c0,0.4,0,0.9-0.2,1.3c0,0.4-0.2,1-0.3,1.5c-0.2,0.4-0.3,1-0.5,1.5
		c-0.2,0.4-0.5,0.9-0.8,1.3c-0.3,0.4-0.6,0.7-0.9,0.9c-0.5,0.3-0.8,0.3-1.2,0.3c-0.3,0-0.5,0-0.6-0.1s-0.3-0.3-0.3-0.4L68.1,50.1z
		 M65.4,62.7l0.8-3.4c0.2,0.1,0.2,0.3,0.3,0.3c0.2,0.1,0.3,0.3,0.5,0.3C67,60,67.3,60,67.5,60c0.3,0,0.5,0.1,0.9,0.1
		c0.9,0,1.7-0.1,2.3-0.4c0.6-0.3,1.2-0.6,1.7-1.2c0.5-0.4,0.9-1,1.2-1.6c0.3-0.6,0.6-1.3,0.8-1.9c0.2-0.6,0.3-1.3,0.5-2.1
		c0.2-0.6,0.2-1.3,0.2-1.9c0-0.7-0.2-1.3-0.3-1.9c-0.2-0.4-0.5-0.9-0.6-1.3c-0.3-0.3-0.6-0.6-1.1-0.7c-0.5-0.1-0.8-0.1-1.2-0.1
		c-0.6,0-1.2,0.1-1.8,0.3c-0.5,0.3-0.9,0.4-1.4,0.7L69,46h-3.8l-2,9.3c-0.2,0.3-0.2,0.6-0.3,0.9c-0.2,0.3-0.3,0.4-0.5,0.7
		c-0.2,0.1-0.5,0.4-0.6,0.4c-0.3,0.1-0.5,0.1-0.8,0.1c-0.5,0-0.6,0-0.8-0.1s-0.3-0.4-0.3-0.7c0-0.1,0-0.3,0-0.4s0-0.3,0.2-0.4l2-8.7
		h-3.8l-1.8,8.3c-0.2,0.3-0.3,0.6-0.3,0.9c-0.2,0.3-0.3,0.4-0.5,0.7c-0.2,0.1-0.5,0.4-0.6,0.4c-0.3,0.1-0.5,0.1-0.8,0.1
		c-0.3,0-0.5-0.1-0.6-0.3c-0.2-0.3-0.2-0.4-0.2-0.7c0-0.3,0-0.4,0.2-0.7l2-8.7h-3.8l-1.8,8.3c0,0,0,0,0,0.1
		c-0.6,0.7-1.4,1.3-2.1,1.8c-0.9,0.4-1.8,0.7-2.9,0.7c-0.6,0-1.2-0.1-1.5-0.3c-0.5-0.1-0.8-0.4-0.9-0.9c-0.3-0.4-0.5-0.7-0.5-1.3
		c-0.2-0.4-0.2-1-0.2-1.6c0-0.9,0-1.8,0.2-2.7c0.2-0.9,0.3-1.9,0.6-2.8c0.3-0.9,0.5-1.8,0.9-2.5c0.3-0.7,0.8-1.5,1.1-2.1
		c0.5-0.6,0.9-1,1.4-1.5c0.5-0.4,0.9-0.4,1.4-0.4c0.3,0,0.5,0,0.8,0.1c0.2,0.1,0.5,0.1,0.5,0.3c0.2,0.1,0.3,0.3,0.3,0.4
		s0.2,0.4,0.2,0.6c0,0.1,0,0.4-0.2,0.7c0,0.3-0.2,0.4-0.3,0.7c-0.2,0.3-0.3,0.4-0.5,0.6c-0.2,0.1-0.3,0.3-0.5,0.4
		c0.3,0.3,0.5,0.4,0.8,0.6c0.3,0.1,0.5,0.1,0.8,0.1c0.3,0,0.6,0,0.9-0.1c0.3-0.1,0.5-0.3,0.6-0.4c0.2-0.3,0.3-0.4,0.3-0.7
		c0-0.3,0.2-0.6,0.2-0.9c0-0.6-0.2-1.2-0.3-1.6c-0.3-0.4-0.5-0.7-0.9-1c-0.5-0.3-0.9-0.4-1.4-0.6c-0.5-0.1-1.1-0.1-1.7-0.1
		c-0.9,0-1.7,0.1-2.4,0.4c-0.8,0.3-1.4,0.6-2,1c-0.6,0.4-1.2,1-1.5,1.6c-0.5,0.6-0.9,1.3-1.2,1.9c-0.5,0.7-0.6,1.3-0.9,2.2
		c-0.3,0.7-0.5,1.5-0.6,2.2s-0.3,1.5-0.3,2.2c-0.2,0.7-0.2,1.3-0.2,1.9c0,1.2,0.2,2.2,0.3,3c0.3,0.7,0.6,1.5,1.1,1.9
		c0.5,0.4,1.1,0.9,1.8,1c0.8,0.1,1.5,0.3,2.6,0.3c0.6,0,1.4-0.1,2-0.3c0.8-0.1,1.4-0.4,2.1-0.9s1.4-0.9,2-1.5
		c0.2-0.1,0.5-0.4,0.5-0.6c0,0.4,0.2,0.9,0.3,1.3c0.2,0.4,0.3,0.7,0.6,0.9c0.3,0.3,0.6,0.4,0.9,0.6c0.3,0.1,0.8,0.1,1.1,0.1
		c0.3,0,0.6,0,0.9-0.1c0.3,0,0.6-0.1,1.1-0.3c0.3-0.1,0.6-0.4,1.1-0.7c0.3-0.3,0.6-0.7,1.1-1.3c0.2,0.7,0.5,1.5,0.8,1.8
		c0.5,0.4,1.1,0.6,1.8,0.6c0.3,0,0.5,0,0.8,0c0.3,0,0.6-0.1,0.9-0.3c0.3-0.1,0.6-0.3,0.9-0.4c0.3-0.1,0.6-0.4,0.9-0.7L62.5,63
		l-5.7,13.5l0.6-13.6c-0.6-0.3-1.4-0.4-2-0.4c-0.6,0-1.4,0.1-2,0.3c-0.6,0.1-1.4,0.4-2,0.7c-0.6,0.3-1.2,0.7-1.8,1.2
		c-0.5,0.4-1.1,0.9-1.4,1.3c-0.5,0.4-0.8,1-0.9,1.6c-0.3,0.6-0.3,1.2-0.3,1.6s0,0.7,0.2,1s0.3,0.6,0.6,0.7c0.3,0.1,0.5,0.3,0.9,0.4
		c0.5,0.1,0.8,0.1,1.2,0.1v-0.1c0,0-0.2-0.1-0.2-0.3c0-0.1-0.2-0.3-0.2-0.4s0-0.4,0-0.9c0-1.5,0.5-2.7,1.1-3.7c0.8-1,1.8-1.6,3-2.1
		l-6.6,17.8h2.1l4.4-11.7l-0.5,11.7h3.6l5-11.6l-1.7,11.6h3.8L65.4,62.7z"/>
</g>
<g>
	<path class="st1" d="M70.2,63.4c-0.3-0.1-0.5-0.1-0.8-0.1c-0.3,0-0.6,0-0.8,0.1c-0.3,0.1-0.5,0.3-0.6,0.4c-0.2,0.1-0.3,0.4-0.5,0.6
		c-0.2,0.3-0.2,0.4-0.2,0.7c0,0.3,0,0.6,0.2,0.7c0.2,0.3,0.3,0.4,0.5,0.6c0.2,0.1,0.5,0.3,0.6,0.4c0.3,0.1,0.5,0.1,0.8,0.1
		c0.3,0,0.6,0,0.8-0.1c0.3-0.1,0.5-0.3,0.6-0.4c0.2-0.1,0.3-0.4,0.5-0.6c0.2-0.3,0.2-0.4,0.2-0.7c0-0.3,0-0.6-0.2-0.7
		c-0.2-0.3-0.3-0.4-0.5-0.6C70.6,63.7,70.3,63.6,70.2,63.4z"/>
</g>
<g>
	<path class="st1" d="M90.2,78.7c-0.2,0.3-0.3,0.6-0.5,0.7c-0.2,0.1-0.5,0.3-0.8,0.4C88.7,80,88.4,80,88.1,80
		c-0.6,0-1.1-0.1-1.2-0.4c-0.2-0.3-0.3-0.6-0.3-1c0,0,0-0.1,0.2-0.1l0.2,0.1c0.2,0,0.3,0,0.5,0c0.2,0,0.3,0,0.5-0.1
		c0.2-0.1,0.3-0.1,0.5-0.3c0.2-0.1,0.2-0.3,0.3-0.4c0-0.1,0.2-0.3,0.2-0.4c0-0.3,0-0.4-0.2-0.6c-0.2-0.1-0.3-0.3-0.5-0.4
		c0.5-0.9,0.9-1.6,1.2-2.4c0.5-0.7,0.6-1.6,0.9-2.4c0,0.6,0.2,1.3,0.2,1.8s0.2,0.9,0.2,1.3c0,0.4,0.2,0.7,0.2,1c0,0.3,0,0.6,0,0.7
		c0,0.1,0,0.4,0,0.6c0,0.1,0,0.4,0,0.6C90.4,78,90.4,78.3,90.2,78.7z M94.3,76.6c0-0.3,0-0.6,0-0.9c0-0.3,0-0.7-0.2-1.2
		c0-0.4-0.2-0.9-0.2-1.5c0-0.6-0.2-1.3-0.2-2.2s-0.2-1.8-0.2-3l-3.9,0.4c-0.5,1.3-0.9,2.5-1.4,3.9c-0.5,1.3-1.2,2.5-1.8,3.9
		c-0.2,0.1-0.3,0.1-0.5,0.3c-0.2,0.1-0.3,0.3-0.5,0.4c-0.2,0.1-0.3,0.4-0.3,0.7c-0.2,0.3-0.2,0.4-0.2,0.9l0,0c0,0,0,0.1-0.2,0.1
		c-0.2,0.1-0.5,0.4-0.6,0.4c-0.3,0.1-0.5,0.1-0.8,0.1c-0.5,0-0.6,0-0.8-0.1s-0.3-0.4-0.3-0.7c0-0.1,0-0.3,0-0.4c0-0.1,0-0.3,0.2-0.4
		l3-13.9l-3.9,0.4l-2.9,13c-0.2,0.3-0.3,0.6-0.5,0.9c-0.2,0.3-0.3,0.4-0.6,0.7c-0.3,0.3-0.5,0.4-0.6,0.4c-0.3,0.1-0.5,0.1-0.8,0.1
		c-0.5,0-0.6,0-0.8-0.1s-0.3-0.4-0.3-0.7c0-0.1,0-0.3,0-0.4c0-0.1,0-0.3,0.2-0.4l3-13.9l-3.9,0.4l-2.9,13c-0.2,0.3-0.3,0.6-0.5,0.9
		c-0.2,0.3-0.3,0.4-0.6,0.7c-0.3,0.3-0.5,0.4-0.6,0.4s-0.5,0.1-0.8,0.1c-0.5,0-0.6,0-0.8-0.1s-0.3-0.4-0.3-0.7c0-0.1,0-0.3,0-0.4
		c0-0.1,0-0.3,0.2-0.4l2-8.7h-3.8l-1.8,8.3c0,0.3-0.2,0.6-0.2,0.9c0,0.3,0,0.6,0,0.7c0,0.6,0.2,1,0.3,1.3c0.2,0.4,0.3,0.7,0.6,0.9
		c0.3,0.3,0.6,0.4,0.9,0.6c0.3,0.1,0.8,0.1,1.1,0.1c0.3,0,0.5,0,0.8,0s0.6-0.1,0.9-0.3c0.3-0.1,0.6-0.3,1.1-0.4
		c0.3-0.3,0.6-0.4,1.1-0.9c0.2-0.1,0.3-0.4,0.5-0.6c0,0.3,0.2,0.4,0.2,0.6c0.2,0.4,0.3,0.7,0.6,0.9c0.3,0.3,0.6,0.4,0.9,0.6
		c0.3,0.1,0.8,0.1,1.1,0.1s0.5,0,0.8,0c0.3,0,0.6-0.1,0.9-0.3c0.3-0.1,0.6-0.3,1.1-0.4c0.3-0.3,0.6-0.4,1.1-0.9
		c0.2-0.1,0.3-0.4,0.5-0.6c0,0.3,0.2,0.4,0.2,0.6c0.2,0.4,0.3,0.7,0.6,0.9c0.3,0.3,0.6,0.4,0.9,0.6c0.3,0.1,0.8,0.1,1.1,0.1
		s0.5,0,0.8,0c0.3,0,0.6-0.1,0.9-0.3c0.3-0.1,0.6-0.3,1.1-0.4c0.3-0.3,0.6-0.4,1.1-0.9l0.2-0.1c0.2,0.3,0.3,0.6,0.6,0.7
		c0.3,0.3,0.8,0.6,1.2,0.7c0.5,0.1,1.1,0.3,1.7,0.3c0.5,0,0.8,0,1.2-0.1c0.5,0,0.8-0.1,1.2-0.3c0.5-0.1,0.8-0.3,1.1-0.6
		s0.6-0.4,0.9-0.9s0.5-0.7,0.6-1.2s0.3-0.9,0.3-1.5C94.3,77.2,94.3,76.9,94.3,76.6z"/>
</g>
<g>
	<path class="st2" d="M103,84.8l-0.5-0.1c0.2-0.1,7.2-21.6,0.5-38.8l0.5-0.1C110.4,63,103,84.6,103,84.8z"/>
	<path class="st1" d="M103.7,85.8l-2.6-0.9l0.8-0.7c0.5-1.6,6.9-21.7,0.4-38.1l-0.3-0.7l1.9-0.6l0.3,0.7c6.1,15.4,1.3,34-0.4,39.4
		l0,0.1V85.8z"/>
</g>
<g>
	<path class="st2" d="M25.6,83.9c-0.2-0.1-7.4-21.8-0.5-39.1l0.5,0.1c-6.8,17.2,0.5,38.5,0.5,38.8L25.6,83.9z"/>
	<path class="st1" d="M25.4,84.8l-0.3-0.3c-0.6-0.6-7.6-22.4-0.6-39.9l0.3-0.7l1.9,0.6l-0.3,0.7c-5.5,14.1-1.6,31.2,0.4,37.9
		c0.1,0.5,0.2,0.5,0.2,0.7v0.5L25.4,84.8z"/>
</g>
<g>
	<path class="st2" d="M107.4,44c0,0-0.2,0.1-0.5,0.3c0,0.3,0,0.6-0.2,0.9c-0.5,1.3-1.2,2.2-2,2.2c-0.3,1.3,0,2.4,0.8,2.5
		c0.8,0.3,1.7-0.7,2.1-2.2C108.1,46.4,107.4,44,107.4,44z"/>
</g>
<g>
	<path class="st2" d="M108.6,47.3c0,0-0.2,0.1-0.5,0.3c0,0.3-0.2,0.6-0.2,0.9c-0.5,1.3-1.4,2.2-2.1,2.1c-0.3,1.2-0.2,2.4,0.5,2.7
		c0.8,0.3,1.8-0.6,2.3-1.9C109.2,49.7,108.6,47.3,108.6,47.3z"/>
</g>
<g>
	<path class="st2" d="M109.3,50.7c0,0-0.2,0.1-0.5,0.3c0,0.3-0.2,0.6-0.3,0.7c-0.6,1.2-1.7,1.9-2.4,1.8c-0.5,1.2-0.5,2.4,0.2,2.7
		c0.6,0.4,1.8-0.4,2.6-1.6C109.6,53.2,109.3,50.7,109.3,50.7z"/>
</g>
<g>
	<path class="st2" d="M109.9,54c0,0-0.2,0.1-0.5,0.3c0,0.3-0.2,0.6-0.3,0.7c-0.6,1.2-1.7,1.9-2.4,1.8c-0.5,1.2-0.5,2.4,0.2,2.7
		c0.6,0.4,1.8-0.4,2.6-1.6C110.2,56.5,109.9,54,109.9,54z"/>
</g>
<g>
	<path class="st2" d="M110.4,57.4c0,0-0.2,0.1-0.5,0.1c-0.2,0.3-0.2,0.6-0.3,0.7c-0.8,1.2-1.8,1.8-2.4,1.5c-0.6,1.2-0.6,2.4,0,2.7
		c0.6,0.4,1.8-0.1,2.6-1.5C110.4,59.7,110.4,57.4,110.4,57.4z"/>
</g>
<g>
	<path class="st2" d="M110.5,60.8c0,0-0.2,0-0.5,0.1c-0.2,0.3-0.3,0.4-0.5,0.7c-0.8,1-2,1.6-2.6,1.3c-0.6,1-0.8,2.2-0.3,2.7
		c0.6,0.4,1.8,0,2.7-1.2C110.5,63.3,110.5,60.8,110.5,60.8z"/>
</g>
<g>
	<path class="st2" d="M106.6,43.7c0-1.3-0.6-3-0.6-3s-1.8,1.6-2.1,3.1c-0.3,1.5,0,2.8,0.8,3h0.2c0.8,0,1.5-1,1.8-2.4
		C106.6,44.5,106.6,44.2,106.6,43.7z"/>
</g>
<g>
	<path class="st2" d="M102.9,41.4c-0.8-1-2.1-1.9-2.1-1.9s-0.6,2.4-0.2,3.9c0.5,1.3,1.5,2.2,2.3,1.9c0,0,0.2,0,0.2-0.1
		c0.6-0.4,0.8-1.6,0.3-3C103.2,42,103,41.7,102.9,41.4z"/>
</g>
<g>
	<path class="st2" d="M102.6,48.5c-0.6,0.4-1.7,0.3-2.7-0.3c-0.2-0.1-0.3-0.3-0.5-0.4c-0.5,0-0.8,0-0.8,0s1.1,2.2,2.3,3s2.6,0.7,3,0
		c0,0,0-0.1,0.2-0.1C104.1,50,103.5,49.1,102.6,48.5z"/>
</g>
<g>
	<path class="st2" d="M103.3,51.6c-0.6,0.3-1.7,0.1-2.7-0.4c-0.2-0.1-0.3-0.3-0.5-0.4c-0.5,0-0.8,0-0.8,0s0.9,2.4,2.1,3.1
		s2.6,0.9,3,0.1c0,0,0-0.1,0.2-0.1C104.7,53.2,104.2,52.3,103.3,51.6z"/>
</g>
<g>
	<path class="st2" d="M103.8,54.7c-0.6,0.3-1.7,0-2.6-0.7c-0.2-0.1-0.3-0.3-0.5-0.4c-0.5,0-0.8-0.1-0.8-0.1s0.6,2.4,1.7,3.4
		c1.1,0.9,2.4,1.2,2.9,0.6l0.2-0.1C105,56.5,104.5,55.6,103.8,54.7z"/>
</g>
<g>
	<path class="st2" d="M104.2,57.8c-0.6,0.3-1.7,0-2.6-0.7c-0.2-0.1-0.3-0.3-0.5-0.4c-0.5,0-0.8-0.1-0.8-0.1s0.6,2.4,1.7,3.4
		c1.1,0.9,2.4,1.2,2.9,0.6l0.2-0.1C105.3,59.6,105,58.7,104.2,57.8z"/>
</g>
<g>
	<path class="st2" d="M104.4,61.1c-0.6,0.3-1.7-0.1-2.6-1c-0.2-0.1-0.3-0.3-0.5-0.4c-0.5-0.1-0.8-0.1-0.8-0.1s0.5,2.4,1.5,3.4
		c1.1,1,2.4,1.3,2.9,0.7l0.2-0.1C105.4,63,105.1,62,104.4,61.1z"/>
</g>
<g>
	<path class="st2" d="M104.5,64.2c-0.6,0.3-1.7-0.1-2.6-1c-0.2-0.1-0.3-0.3-0.5-0.4c-0.5-0.1-0.8-0.1-0.8-0.1s0.5,2.4,1.5,3.4
		c1.1,1,2.4,1.3,2.9,0.7l0.2-0.1C105.6,66,105.3,64.9,104.5,64.2z"/>
</g>
<g>
	<path class="st2" d="M101.3,45.4c-0.3-0.1-0.5-0.3-0.8-0.3c-1.4-0.3-2.9-0.1-2.9-0.1s0.8,1.6,1.8,2.5c0.2,0.1,0.3,0.3,0.5,0.4
		c1.1,0.6,2.1,0.7,2.7,0.3c0.2-0.1,0.2-0.1,0.3-0.3c0,0,0-0.1,0.2-0.1C103.2,47,102.4,46,101.3,45.4z"/>
</g>
<g>
	<path class="st2" d="M20.6,43.1c0,0,0.2,0.1,0.5,0.3c0,0.3,0,0.6,0.2,0.9c0.5,1.3,1.2,2.2,2,2.2c0.3,1.3,0,2.4-0.8,2.5
		c-0.8,0.3-1.7-0.7-2.1-2.2C19.7,45.5,20.6,43.1,20.6,43.1z"/>
</g>
<g>
	<path class="st2" d="M19.4,46.4c0,0,0.2,0.1,0.5,0.3c0,0.3,0.2,0.6,0.2,0.9c0.5,1.3,1.4,2.2,2.1,2.1c0.3,1.2,0.2,2.4-0.5,2.7
		c-0.8,0.3-1.8-0.6-2.3-1.9C18.8,48.8,19.4,46.4,19.4,46.4z"/>
</g>
<g>
	<path class="st2" d="M18.5,49.8c0,0,0.2,0.1,0.5,0.3c0,0.3,0.2,0.6,0.3,0.7c0.6,1.2,1.7,1.9,2.4,1.8c0.5,1.2,0.5,2.4-0.2,2.7
		c-0.6,0.4-1.8-0.4-2.6-1.6C18.2,52.3,18.5,49.8,18.5,49.8z"/>
</g>
<g>
	<path class="st2" d="M18.1,53.1c0,0,0.2,0.1,0.5,0.3c0,0.3,0.2,0.6,0.3,0.7c0.6,1.2,1.7,1.9,2.4,1.8c0.5,1.2,0.5,2.4-0.2,2.7
		c-0.6,0.4-1.8-0.4-2.6-1.6C17.8,55.6,18.1,53.1,18.1,53.1z"/>
</g>
<g>
	<path class="st2" d="M17.6,56.5c0,0,0.2,0.1,0.5,0.1c0.2,0.3,0.2,0.6,0.3,0.7c0.8,1.2,1.8,1.8,2.4,1.5c0.6,1.2,0.6,2.4,0,2.7
		C20.2,62,19,61.4,18.2,60C17.5,58.8,17.6,56.5,17.6,56.5z"/>
</g>
<g>
	<path class="st2" d="M17.5,59.9c0,0,0.2,0,0.5,0.1c0.2,0.3,0.3,0.4,0.5,0.7c0.8,1,2,1.6,2.6,1.3c0.6,1,0.8,2.2,0.3,2.7
		c-0.6,0.4-1.8,0-2.7-1.2C17.5,62.4,17.5,59.9,17.5,59.9z"/>
</g>
<g>
	<path class="st2" d="M21.2,43c0-1.3,0.6-3,0.6-3s1.8,1.6,2.1,3.1c0.3,1.5,0,2.8-0.8,3H23c-0.8,0-1.5-1-1.8-2.4
		C21.4,43.6,21.2,43.3,21.2,43z"/>
</g>
<g>
	<path class="st2" d="M25.1,40.5c0.8-1,2.1-1.9,2.1-1.9s0.6,2.4,0.2,3.9c-0.5,1.3-1.5,2.2-2.3,1.9c0,0-0.2,0-0.2-0.1
		c-0.6-0.4-0.8-1.6-0.3-3C24.8,41.1,25,40.8,25.1,40.5z"/>
</g>
<g>
	<path class="st2" d="M25.3,47.6c0.6,0.4,1.7,0.3,2.7-0.3c0.2-0.1,0.3-0.3,0.5-0.4c0.5,0,0.8,0,0.8,0s-1.1,2.2-2.3,3
		c-1.2,0.7-2.6,0.7-3,0c0,0,0-0.1-0.2-0.1C23.9,49.2,24.4,48.3,25.3,47.6z"/>
</g>
<g>
	<path class="st2" d="M24.7,50.7c0.6,0.3,1.7,0.1,2.7-0.4c0.2-0.1,0.3-0.3,0.5-0.4c0.5,0,0.8,0,0.8,0s-0.9,2.4-2.1,3.1
		s-2.6,0.9-3,0.1c0,0,0-0.1-0.2-0.1C23.3,52.3,23.8,51.4,24.7,50.7z"/>
</g>
<g>
	<path class="st2" d="M24.2,53.8c0.6,0.3,1.7,0,2.6-0.7c0.2-0.1,0.3-0.3,0.5-0.4c0.5,0,0.8-0.1,0.8-0.1s-0.6,2.4-1.7,3.4
		c-1.1,0.9-2.4,1.2-2.9,0.6l-0.2-0.1C23,55.6,23.5,54.7,24.2,53.8z"/>
</g>
<g>
	<path class="st2" d="M23.8,56.9c0.6,0.3,1.7,0,2.6-0.7c0.2-0.1,0.3-0.3,0.5-0.4c0.5,0,0.8-0.1,0.8-0.1S27,58,25.9,59
		c-1.1,0.9-2.4,1.2-2.9,0.6l-0.2-0.1C22.6,58.8,23,57.8,23.8,56.9z"/>
</g>
<g>
	<path class="st2" d="M23.6,60.2c0.6,0.3,1.7-0.1,2.6-1c0.2-0.1,0.3-0.3,0.5-0.4c0.5-0.1,0.8-0.1,0.8-0.1S27,60.9,25.9,62
		c-1.1,1-2.4,1.3-2.9,0.7l-0.2-0.1C22.6,62.1,22.9,61.1,23.6,60.2z"/>
</g>
<g>
	<path class="st2" d="M23.3,63.3c0.6,0.3,1.7-0.1,2.6-1c0.2-0.1,0.3-0.3,0.5-0.4c0.5-0.1,0.8-0.1,0.8-0.1s-0.5,2.4-1.5,3.4
		s-2.4,1.3-2.9,0.7l-0.2-0.1C22.3,65.1,22.6,64.2,23.3,63.3z"/>
</g>
<g>
	<path class="st2" d="M26.7,44.5c0.3-0.1,0.5-0.3,0.8-0.3c1.4-0.3,2.9-0.1,2.9-0.1s-0.8,1.6-1.8,2.5c-0.2,0.1-0.3,0.3-0.5,0.4
		c-1.1,0.6-2.1,0.7-2.7,0.3c-0.2-0.1-0.2-0.1-0.3-0.3c0,0,0-0.1-0.2-0.1C24.8,46.1,25.6,45.1,26.7,44.5z"/>
</g>
<g>
	<path class="st1" d="M68.5,29.9h-8.3v-0.7h1.7h4.8h1.7L68.5,29.9L68.5,29.9z M61.9,27.4c-0.2-0.3-0.2-0.4-0.2-0.4
		c0.2,0,0.3,0,0.5,0h0.2h0.2h3.9h0.2h0.2c0.2,0,0.3,0,0.5,0c0,0,0,0.1-0.2,0.4l-0.5,1.2h-3.9L61.9,27.4z M68.5,35.1v0.7h-8.3v-0.7
		H68.5z M67.8,30.5v3.9H61v-3.9H67.8z M68.7,28.6h-1.5l0.5-0.9c0.2-0.4,0.3-0.9,0.2-1.2c-0.2-0.3-0.6-0.3-1.1-0.3h-0.2h-0.2h-1.7
		v-0.7h0.8l0.9-0.9h2.4v-1.2c0.3-0.1,0.5-0.4,0.5-0.7c0-0.4-0.3-0.7-0.8-0.7s-0.8,0.3-0.8,0.7c0,0.3,0.2,0.4,0.5,0.6v0.6h-2.1
		l-0.9,0.9h-0.5V24h0.3l0.3-1.2h-1.7L64,24h0.2v0.7h-0.9v0.6h0.9v0.7h-1.5h-0.2h-0.2c-0.5,0-0.8,0-1.1,0.3c-0.2,0.3,0,0.7,0.2,1.2
		l0.5,0.9h-1.5c-0.3,0-0.6,0.3-0.6,0.6v0.9c0,0.3,0.3,0.6,0.6,0.6h0.3v4h-0.3c-0.3,0-0.6,0.3-0.6,0.6V36c0,0.3,0.3,0.6,0.6,0.6H69
		c0.3,0,0.6-0.3,0.6-0.6v-0.9c0-0.3-0.3-0.6-0.6-0.6h-0.5v-4h0.3c0.3,0,0.6-0.3,0.6-0.6v-0.9C69.1,28.8,69,28.6,68.7,28.6z"/>
</g>
<g>
	<ellipse class="st1" cx="64.3" cy="33.5" rx="0.5" ry="0.4"/>
</g>
<g>
	<path class="st1" d="M74.4,32c-0.6,0.1-1.4,0.1-2-0.3c0,1.2,1.2,2.1,2.6,2.2c1.4,0,2.6-0.7,2.7-1.9c-0.2-0.1-0.5-0.3-0.6-0.3
		C76.3,31.4,75.3,31.9,74.4,32z"/>
	<path class="st2" d="M75,34.7c-1.9-0.2-3.3-1.5-3.3-3v-1.5l1.2,0.9c0.4,0.3,1,0.2,1.3,0.2l0.1,0c0.2,0,0.5-0.1,0.7-0.2
		c0.7-0.2,1.5-0.4,2.3-0.1c0.4,0.1,0.7,0.3,1,0.5l0.3,0.3l0,0.4C78.3,33.6,76.8,34.7,75,34.7z M74,32.8c0.3,0.2,0.7,0.3,1.1,0.4
		c0.6,0,1.4-0.3,1.7-0.8c-0.3-0.1-0.9,0-1.4,0.2c-0.3,0.1-0.5,0.1-0.8,0.2C74.3,32.8,74.2,32.8,74,32.8z"/>
</g>
<g>
	<path class="st1" d="M75.3,29.5c-1.4,0-2.6,0.7-2.7,1.8c0.3,0.3,0.6,0.4,1.1,0.4c0.9,0.1,1.8-0.3,2.7-0.4c0.5,0,1.2,0,1.5,0.3
		C77.9,30.5,76.6,29.6,75.3,29.5z"/>
	<path class="st2" d="M78.6,33.4l-1.3-1.3C77.2,32,76.7,32,76.4,32c-0.3,0-0.5,0.1-0.8,0.2c-0.6,0.2-1.3,0.4-2.1,0.3
		c-0.6,0-1.1-0.2-1.5-0.7l-0.3-0.3l0.1-0.4c0.2-1.4,1.7-2.4,3.4-2.4l0.1,0c1.8,0.2,3.2,1.4,3.2,2.8V33.4z M73.5,31c0,0,0.1,0,0.1,0
		l0.1,0c0.4,0.1,0.9-0.1,1.5-0.2c0.3-0.1,0.6-0.2,1-0.2c-0.3-0.1-0.6-0.3-1-0.3C74.5,30.3,73.8,30.6,73.5,31z"/>
</g>
<g>
	<path class="st2" d="M65.5,109.6c-21.4,0-32.4-8.2-36.5-11.3l-1.1-0.8l7.1-9.3l0.9,0.6c3.2,2.2,11.8,8.2,28.7,8.2
		c17.4,0,26.2-6.3,29-8.4l0.6-0.4l0.5,0.5l6.8,8.7l-0.6,0.5c-0.2,0.2-0.5,0.4-0.8,0.6C96,101.8,86.3,109.6,65.5,109.6z M30,97.1
		c4.1,3.1,14.8,11,35.5,11c20.3,0,29.7-7.5,33.7-10.8c0.1-0.1,0.1-0.1,0.2-0.2l-5.4-7c-3.5,2.5-12.5,8.3-29.4,8.3
		c-17,0-25.8-5.9-29.4-8.3L30,97.1z"/>
</g>
<g>
	<polygon class="st1" points="37.7,91.4 35,89.4 35.5,88.1 40.3,88.9 	"/>
</g>
<g>
	<path class="st1" d="M30,96.5l-5.8-7.7l6.8,0.3l0.2-6.9l10.4,7.9l-6.1-0.7L30,96.5z M27.3,90.5l2.7,3.6l4.9-6.2l1.4,0.2l-3.7-2.8
		l-0.1,5.5L27.3,90.5z"/>
</g>
<g>
	<polygon class="st1" points="91.7,91.4 89.3,88.7 94,88.1 94.6,89.4 	"/>
</g>
<g>
	<path class="st1" d="M99.4,96.5l-5.3-7.3l-3.3,0.4l-0.5-1.3l8.4-6v6.9l6.7-0.2L99.4,96.5z M94.8,87.7l4.6,6.4l2.8-3.5l-5,0.1v-5.5
		l-3.7,2.7L94.8,87.7z"/>
</g>
<g>
	<polygon class="st1" points="34.8,95.5 35.1,94.9 36.3,95.5 36,96.2 	"/>
</g>
<g>
	<path class="st1" d="M40.1,97.2c0.2,0,0.2,0,0.2,0l0.2-0.1v-0.1c0-0.1,0-0.1,0-0.3c0,0,0-0.1-0.2-0.1h-0.2V97.2L40.1,97.2z
		 M39.5,99l-1.7-0.7l0.3-0.6l0.3,0.1l0.8-1.8l-0.3-0.1l0.3-0.6l1.7,0.7c0.2,0.1,0.3,0.1,0.5,0.3c0.2,0.1,0.2,0.1,0.3,0.3
		c0,0.1,0.2,0.3,0,0.4c0,0.1,0,0.3-0.2,0.4c-0.2,0.1-0.2,0.3-0.3,0.4c-0.2,0.1-0.3,0.1-0.3,0.1c-0.2,0-0.3,0-0.5,0
		c-0.2,0-0.3-0.1-0.5-0.1l-0.5-0.1l-0.3,0.6l0.5,0.1L39.5,99z"/>
</g>
<g>
	<path class="st1" d="M43.4,98.7c0.2,0,0.2,0,0.2,0l0.2-0.1v-0.1c0-0.1,0-0.1,0-0.3L43.5,98l-0.3-0.1l-0.3,0.6L43.4,98.7z
		 M42.8,99.8l0.3,0.1l-0.3,0.6l-1.7-0.6l0.3-0.6l0.3,0.1l0.8-1.8l-0.3-0.1l0.3-0.6l1.8,0.7c0.2,0,0.3,0.1,0.5,0.3
		c0.2,0.1,0.2,0.1,0.3,0.3c0,0.1,0.2,0.3,0.2,0.4c0,0.1,0,0.3-0.2,0.4c0,0.1-0.2,0.3-0.3,0.4s-0.3,0.1-0.5,0.1l0,0
		c0.3,0.1,0.3,0.3,0.2,0.6l-0.2,0.3l0.2,0.1l-0.3,0.6l-1.2-0.4l0.5-0.9c0-0.1,0-0.1,0-0.1v-0.1c0,0,0-0.1-0.2-0.1c0,0-0.2,0-0.2-0.1
		L42.8,99.8z"/>
</g>
<g>
	<polygon class="st1" points="47.6,99.5 47.1,99.3 47,99.9 47.3,100.1 47.1,100.5 46.8,100.4 46.5,101.1 47,101.2 47.3,100.7 
		48.2,100.9 47.7,102.1 44.9,101.2 45.2,100.7 45.3,100.8 45.9,99 45.8,98.9 45.9,98.1 48.8,99 48.3,100.4 47.4,100.1 	"/>
</g>
<g>
	<polygon class="st1" points="49.2,99.2 51.2,99.8 51.4,101.2 52.3,99.9 54.1,100.4 53.9,100.9 53.8,100.9 53.3,102.7 53.6,102.9 
		53.5,103.5 51.8,103.2 52,102.4 52.1,102.6 52.6,100.9 51,103 50.7,102.9 50.3,100.4 50,102 50.1,102 50,102.7 48.5,102.4 
		48.6,101.7 48.9,101.8 49.4,99.9 49.1,99.9 	"/>
</g>
<g>
	<polygon class="st1" points="54.7,100.5 56.3,100.8 56.2,101.4 56,101.4 55.7,103.3 55.9,103.3 55.7,104.1 54.1,103.8 54.2,103 
		54.4,103 54.8,101.2 54.5,101.1 	"/>
</g>
<g>
	<path class="st1" d="M59.6,103.2c0,0.3-0.2,0.4-0.2,0.6c-0.2,0.1-0.2,0.3-0.3,0.3c-0.2,0.1-0.3,0.1-0.5,0.1c-0.2,0-0.5,0-0.6,0
		s-0.5,0-0.6-0.1c-0.2,0-0.3-0.1-0.5-0.3c-0.2-0.1-0.2-0.3-0.3-0.4c0-0.1,0-0.4,0-0.6l0.2-1.3h-0.3l0.2-0.7l1.7,0.1l-0.2,0.7h-0.2
		l-0.2,1.6c0,0.1,0,0.1,0,0.3l0.2,0.1c0.2,0,0.2,0,0.2,0l0.2-0.1l0.2-1.6h-0.2l0.2-0.7l1.5,0.1l-0.2,0.6h-0.3V103.2z"/>
</g>
<g>
	<polygon class="st1" points="60.5,101.2 62.6,101.2 63.1,102.7 63.5,101.2 65.5,101.2 65.5,102 65.2,102 65.2,103.9 65.5,103.9 
		65.5,104.5 63.7,104.5 63.7,103.8 64,103.8 64,102.1 63.1,104.5 62.6,104.5 61.7,102.1 61.7,103.8 61.9,103.8 61.9,104.5 
		60.4,104.5 60.4,103.8 60.7,103.8 60.7,101.8 60.5,101.8 	"/>
</g>
<g>
	<path class="st1" d="M69.7,103.6c0.2,0,0.2,0,0.2-0.1c0,0,0-0.1,0-0.3V103c0-0.1,0-0.1-0.2-0.1h-0.2h-0.3v0.7L69.7,103.6z
		 M69.6,102.4c0.2,0,0.2,0,0.2-0.1c0,0,0-0.1,0-0.3v-0.1c0-0.1,0-0.1-0.2-0.1h-0.2h-0.3v0.7H69.6L69.6,102.4z M67.8,101.2l2-0.1
		c0.3,0,0.6,0,0.9,0.1c0.3,0.1,0.3,0.3,0.5,0.6c0,0.1,0,0.3,0,0.3c0,0.1-0.2,0.1-0.2,0.3c-0.2,0-0.2,0.1-0.3,0.1
		c-0.2,0-0.2,0-0.2,0.1l0,0c0,0,0.2,0,0.3,0c0.2,0,0.2,0,0.3,0.1c0.2,0,0.2,0.1,0.3,0.1c0,0.1,0.2,0.3,0.2,0.4s0,0.3,0,0.4
		s-0.2,0.1-0.3,0.3c-0.2,0.1-0.3,0.1-0.5,0.1c-0.2,0-0.3,0.1-0.5,0.1l-2,0.1v-0.7h0.3l-0.2-1.9h-0.3L67.8,101.2z"/>
</g>
<g>
	<path class="st1" d="M73.3,102c0.2,0,0.2,0,0.2-0.1c0,0,0-0.1,0-0.3v-0.1c0-0.1,0-0.1-0.2-0.1h-0.2h-0.3L73,102L73.3,102z
		 M73.3,103.2h0.3l0.2,0.7l-1.7,0.3l-0.2-0.7h0.3l-0.3-1.9h-0.3l-0.2-0.7l2-0.3c0.2,0,0.3,0,0.5,0c0.2,0,0.3,0,0.5,0.1
		c0.2,0,0.2,0.1,0.3,0.3c0,0.1,0.2,0.3,0.2,0.4c0,0.1,0,0.3,0,0.4c0,0.1-0.2,0.3-0.3,0.3l0,0c0.3,0,0.5,0.1,0.5,0.4v0.3h0.2l0.2,0.7
		l-1.4,0.1l-0.2-1c0-0.1,0-0.1,0-0.1s0-0.1-0.2-0.1h-0.2c0,0-0.2,0-0.3,0L73.3,103.2z"/>
</g>
<g>
	<polygon class="st1" points="77.3,100.5 76.8,100.7 77,101.2 77.3,101.1 77.4,101.7 77.1,101.7 77.3,102.4 77.7,102.4 77.6,101.7 
		78.6,101.5 78.9,102.9 76,103.5 75.9,102.9 76,102.7 75.6,100.9 75.4,100.9 75.3,100.4 78.2,99.6 78.5,100.9 77.4,101.1 	"/>
</g>
<g>
	<polygon class="st1" points="80.3,102.4 78.9,100.2 78.8,100.2 78.6,99.6 80.3,99 80.4,99.8 80.1,99.8 80.9,101.2 80.9,101.2 
		80.6,99 81.8,98.6 83,100.7 83,100.7 82.7,99 82.4,99 82.2,98.4 83.7,98 83.9,98.7 83.7,98.7 83.9,101.4 82.5,101.8 81.6,100.2 
		81.6,100.2 81.8,102 	"/>
</g>
<g>
	<polygon class="st1" points="86.1,97.7 85.7,97.8 86,98.4 86.3,98.3 86.4,98.9 86.1,99 86.4,99.6 86.9,99.5 86.6,98.9 87.5,98.4 
		88.1,99.8 85.4,100.8 85.1,100.2 85.4,100.1 84.6,98.3 84.3,98.4 84,97.7 86.7,96.6 87.3,97.8 86.4,98.1 	"/>
</g>
<g>
	<path class="st1" d="M90.1,98.1C90.2,98,90.2,98,90.1,98.1c0.2-0.1,0.2-0.3,0.2-0.4l-0.6-1.2c0-0.1-0.2-0.1-0.2-0.1s-0.2,0-0.3,0
		l-0.3,0.1l0.9,1.6H90.1z M87.3,96.5l1.7-0.7c0.2-0.1,0.5-0.1,0.6-0.1s0.5,0,0.6,0c0.2,0,0.5,0.1,0.5,0.3c0.2,0.1,0.3,0.4,0.5,0.6
		c0.2,0.3,0.3,0.4,0.3,0.7s0,0.4-0.2,0.6c0,0.1-0.2,0.3-0.3,0.4c-0.2,0.1-0.3,0.3-0.5,0.3l-1.7,0.7l-0.3-0.6l0.3-0.1l-0.9-1.6
		l-0.3,0.1L87.3,96.5z"/>
</g>
<g>
	<polygon class="st1" points="93.5,95.9 93.2,95.3 94.4,94.6 94.7,95.2 	"/>
</g>
</svg>
