<?xml version="1.0" encoding="utf-8"?>
<!-- Generator: Adobe Illustrator 21.0.2, SVG Export Plug-In . SVG Version: 6.00 Build 0)  -->
<svg version="1.1" id="Layer_1" xmlns="http://www.w3.org/2000/svg" xmlns:xlink="http://www.w3.org/1999/xlink" x="0px" y="0px"
	 viewBox="0 0 126 170" style="enable-background:new 0 0 126 170;" xml:space="preserve">
<style type="text/css">
	.st0{fill:#615E5D;}
	.st1{fill:none;}
</style>
<g>
	<path class="st0" d="M61.8,0c6.2,2.3,6.7,8.8-6.5,18.3c-13.2,9.4-15.4,17.7-12,31.8c0,0-10.8-3.2-10.2-15.5
		c-4.7,1.8-15.5,19.3-1.8,33.8c-9.5,2.9-17.5-6.3-18.8-20.4c-12.7,16-7.3,28.3,4.9,45.7C12.9,95.5,3.6,90.1,1.7,83
		c-5.8,15.5,4.3,28.1,15.8,32.7c11.5,4.5,15.5,19.2,15.5,19.2c8.7,0.1,17.6-9.2,10.1-13.9c-7.5-4.7-11.4-11.6-10.5-16.8
		c1,4.7,9.2,7.2,10.8,6.1c-8.7-9.4-2.7-20.2,0.3-25.5c-2.4,8.1,3.1,12.4,8.1,16.5c5-5.6,5.5-18.2-0.1-30.7
		C65,75.3,69.5,93.4,67.5,99.7c-1.9,6.3-0.4,7.5,4.9,3.1c5.3-4.5,10.1-18,10.1-18s0.1,4.1-2.5,14.8c-2.8,10.5,7.4,6.6,10.8,3.4
		c3.4-3.2,5.8-2.5,4.3,0.3c-1.3,2.8-9.5,17.4-13.8,21.1c0,0,4,0.6,11.5-4c0.9,6.1-12.7,14.8-12.7,14.8s2.5,1,14.2-5.4
		c15.5-7.8,19.2-31.5,20.7-42.2c1.5-10.7,7.4-16.5,11-18.3c-4.7,0-16.9,1.8-24.7,15.2c-3.7-4,0.3-16.7,10.1-28.7c0,0-8.3-4-22.1,9.8
		c-7.8-8.9-2.8-26.2,5.2-36.6c-5.3,0-13.6,3.7-21,11s-12.1,7.2-6.4-10c5.6-16.5,3-29.7-4.6-29.7C62.4,0,62.1,0,61.8,0z"/>
</g>
<g>
	<path class="st0" d="M46.8,144.2l3.6-8.5h5.3v0.4h-0.4c-0.4,0-0.7,0-0.9,0.1c-0.1,0.1-0.3,0.3-0.4,0.4c0,0.1-0.1,0.6-0.1,1.2v8.5
		c0,0.6,0,1,0.1,1.2c0,0.1,0.1,0.3,0.4,0.4c0.1,0.1,0.4,0.1,0.9,0.1h0.4v0.3h-6.8v-0.3h0.4c0.4,0,0.7,0,0.9-0.1
		c0.1-0.1,0.3-0.3,0.4-0.4c0-0.1,0.1-0.6,0.1-1.2v-9.5l-5,11.7h-0.3l-5-11.7v9.1c0,0.6,0,1,0,1.2c0.1,0.3,0.3,0.6,0.6,0.7
		c0.3,0.1,0.7,0.3,1.3,0.3v0.3h-4.4v-0.3h0.1c0.3,0,0.6,0,0.7-0.1c0.3-0.1,0.4-0.3,0.6-0.4c0.1-0.1,0.3-0.4,0.3-0.7c0,0,0-0.4,0-1
		v-8.2c0-0.6,0-1-0.1-1.2c0-0.1-0.1-0.3-0.4-0.4c-0.1-0.1-0.4-0.1-0.9-0.1h-0.4v-0.3h5.3L46.8,144.2z"/>
</g>
<g>
	<path class="st0" d="M63.8,144.2l-1.9-4.4l-1.9,4.4H63.8z M64.1,145h-4.6l-0.6,1.3c-0.1,0.4-0.3,0.7-0.3,1s0.1,0.6,0.4,0.7
		c0.1,0.1,0.6,0.1,1.3,0.3v0.3h-4.3v-0.3c0.4,0,0.9-0.3,1.2-0.6c0.3-0.3,0.7-1,1.2-1.9l4.6-10.2h0.1l4.7,10.5c0.4,1,0.9,1.6,1,1.9
		c0.1,0.1,0.6,0.3,0.9,0.3v0.3h-6.2v-0.3H64c0.4,0,0.9,0,1-0.1c0.1-0.1,0.1-0.3,0.1-0.4s0-0.3,0-0.3s-0.1-0.3-0.3-0.7L64.1,145z"/>
</g>
<g>
	<path class="st0" d="M78.5,141.2l3.6,5.3c0.6,0.9,1,1.5,1.3,1.6s0.6,0.3,0.9,0.3v0.3h-6.4v-0.3c0.4,0,0.9-0.1,1-0.3
		c0.1-0.1,0.1-0.3,0.1-0.4c0-0.1,0-0.1,0-0.3c-0.1-0.1-0.3-0.6-0.7-1l-1.9-2.8l-1.9,2.3c-0.6,0.7-0.9,1.2-0.9,1.5
		c0,0.1,0.1,0.3,0.3,0.4c0.1,0.1,0.4,0.3,0.7,0.3c0.1,0,0.4,0,0.9,0v0.3h-5V148c0.6-0.1,1-0.3,1.3-0.4c0.4-0.3,1-0.9,1.8-1.8
		l2.5-3.1l-3.3-4.8c-0.6-0.7-0.9-1.2-0.9-1.3c-0.1-0.1-0.3-0.3-0.4-0.4c-0.1-0.1-0.4-0.1-0.7-0.1v-0.3h6.5v0.4H77
		c-0.4,0-0.6,0-0.7,0.1s-0.1,0.3-0.1,0.4c0,0.1,0,0.3,0,0.3l0.6,1l1.6,2.5l1.3-1.6c0.7-0.9,1-1.5,1-1.8c0-0.1,0-0.3-0.1-0.4
		c-0.1-0.1-0.3-0.3-0.4-0.3c-0.1-0.1-0.4-0.1-0.9-0.1V136H84v0.1c-0.4,0-0.7,0-0.9,0.1c-0.3,0.1-0.4,0.3-0.7,0.4
		c-0.1,0.1-0.6,0.6-1.2,1.5L78.5,141.2z"/>
</g>
<g>
	<path class="st0" d="M45.5,160.3v4.1v0.4c0,0.3,0.1,0.6,0.3,0.7c0.1,0.1,0.4,0.3,0.7,0.3c0.4,0,1-0.1,1.5-0.3c0.4-0.3,0.7-0.6,1-1
		c0.3-0.4,0.3-0.9,0.3-1.5c0-0.6-0.1-1.2-0.4-1.6s-0.7-0.9-1.2-1C47.1,160.5,46.4,160.3,45.5,160.3z M45.5,159.6
		c0.9,0,1.6-0.1,2.1-0.3c0.4-0.1,0.7-0.4,1-0.9c0.3-0.4,0.3-0.9,0.3-1.5c0-0.6-0.1-1-0.3-1.5c-0.3-0.3-0.6-0.6-1-0.9
		c-0.4-0.1-1-0.3-2.1-0.3V159.6z M48.9,159.9c1.2,0.3,2.1,0.6,2.7,1c0.7,0.6,1,1.3,1,2.2c0,1-0.4,1.8-1.2,2.3
		c-1,0.7-2.4,1.2-4.1,1.2h-6.7v-0.3c0.6,0,1,0,1.2-0.1c0.1-0.1,0.3-0.3,0.4-0.4c0.1-0.1,0.1-0.6,0.1-1.3v-8.3c0-0.7,0-1.2-0.1-1.3
		s-0.3-0.3-0.4-0.4c-0.1-0.1-0.6-0.1-1.2-0.1v-0.3h6.2c1.5,0,2.5,0.1,3.1,0.4c0.6,0.3,1,0.6,1.5,1.2c0.3,0.6,0.6,1,0.6,1.6
		c0,0.6-0.3,1.2-0.7,1.6C50.8,159.2,50.1,159.6,48.9,159.9z"/>
</g>
<g>
	<path class="st0" d="M58.5,160.3v4.1v0.4c0,0.3,0.1,0.6,0.3,0.7c0.1,0.1,0.4,0.3,0.7,0.3c0.4,0,1-0.1,1.5-0.3c0.4-0.3,0.7-0.6,1-1
		c0.3-0.4,0.3-0.9,0.3-1.5c0-0.6-0.1-1.2-0.4-1.6c-0.3-0.4-0.7-0.9-1.2-1C60.3,160.5,59.5,160.3,58.5,160.3z M58.5,159.6
		c0.9,0,1.6-0.1,2.1-0.3c0.4-0.1,0.7-0.4,1-0.9s0.3-0.9,0.3-1.5c0-0.6-0.1-1-0.3-1.5c-0.3-0.3-0.6-0.6-1-0.9c-0.4-0.1-1-0.3-2.1-0.3
		V159.6z M62.1,159.9c1.2,0.3,2.1,0.6,2.7,1c0.7,0.6,1,1.3,1,2.2c0,1-0.4,1.8-1.2,2.3c-1,0.7-2.4,1.2-4.1,1.2h-6.7v-0.3
		c0.6,0,1,0,1.2-0.1s0.3-0.3,0.4-0.4c0.1-0.1,0.1-0.6,0.1-1.3v-8.3c0-0.7,0-1.2-0.1-1.3c-0.1-0.1-0.3-0.3-0.4-0.4s-0.6-0.1-1.2-0.1
		v-0.3H60c1.5,0,2.5,0.1,3.1,0.4c0.6,0.3,1,0.6,1.5,1.2c0.4,0.6,0.6,1,0.6,1.6c0,0.6-0.3,1.2-0.7,1.6
		C64,159.2,63.1,159.6,62.1,159.9z"/>
</g>
<g>
	<path class="st0" d="M74.1,154.3c-1.2,0-2.1,0.6-2.7,1.8c-0.6,1-0.7,2.3-0.7,4.2c0,2.2,0.4,3.8,1.2,4.8c0.6,0.7,1.3,1.2,2.2,1.2
		c1,0,1.8-0.3,2.2-1c0.7-1,1.2-2.6,1.2-4.7c0-2-0.3-3.5-0.7-4.5C76.1,154.9,75.2,154.3,74.1,154.3z M75.8,166.8
		c0.3,0.9,0.7,1.5,1.3,1.9c0.6,0.4,1.3,0.6,2.4,0.6c0.3,0,0.6,0,0.9-0.1v0.6c-1,0.3-1.8,0.3-2.5,0.3c-1.2,0-2.2-0.3-3.3-0.9
		c-0.9-0.6-1.6-1.5-2.1-2.5c-1.6-0.3-2.8-1-3.8-2.3c-0.9-1.2-1.5-2.6-1.5-4.2c0-1.9,0.6-3.5,1.9-4.8c1.3-1.3,3-1.9,5-1.9
		s3.7,0.6,4.9,1.9c1.3,1.3,1.9,2.9,1.9,4.8c0,1.6-0.4,3.1-1.5,4.4C78.5,165.9,77.2,166.6,75.8,166.8z"/>
</g>
<g>
	<line class="st1" x1="22.7" y1="151.1" x2="99.5" y2="151.1"/>
</g>
<g>
	<rect x="22.7" y="150.4" class="st0" width="76.8" height="1.5"/>
</g>
</svg>
