<?xml version="1.0" encoding="utf-8"?>
<!-- Generator: Adobe Illustrator 21.0.2, SVG Export Plug-In . SVG Version: 6.00 Build 0)  -->
<svg version="1.1" id="Layer_1" xmlns="http://www.w3.org/2000/svg" xmlns:xlink="http://www.w3.org/1999/xlink" x="0px" y="0px"
	 viewBox="0 0 23 23" style="enable-background:new 0 0 23 23;" xml:space="preserve">
<g>
	<g>
		<path d="M22.9,6.2l-6.2-6.1C16.6,0,16.4,0,16.3,0H7C6,0,5.2,0.8,5.2,1.8V8H1.4C0.6,8,0,8.6,0,9.3v6.6c0,0.7,0.6,1.3,1.4,1.3h3.8v4
			C5.2,22.2,6,23,7,23h14.1c1,0,1.9-0.8,1.9-1.8V6.5C23,6.4,23,6.3,22.9,6.2z M16.4,1.2l5.1,5h-5.1V1.2z M1.4,16.4
			c-0.3,0-0.5-0.2-0.5-0.4V9.3c0-0.2,0.2-0.4,0.5-0.4h12.7c0.3,0,0.5,0.2,0.5,0.4v6.6c0,0.2-0.2,0.4-0.5,0.4H1.4z M22.1,21.2
			c0,0.5-0.4,0.9-0.9,0.9H7c-0.5,0-0.9-0.4-0.9-0.9v-4h8c0.8,0,1.4-0.6,1.4-1.3V9.3c0-0.7-0.6-1.3-1.4-1.3h-8V1.8
			c0-0.5,0.4-0.9,0.9-0.9h8.4v5.8c0,0.2,0.2,0.4,0.5,0.4h6.1L22.1,21.2L22.1,21.2z"/>
	</g>
</g>
<g>
	<g>
		<path d="M5.6,11.2C5.5,11,5.3,10.9,5,10.9c-0.2,0-0.5-0.1-1-0.1H2.8v3.8h0.8v-1.4h0.5c0.4,0,0.7,0,0.8-0.1c0.1,0,0.3-0.1,0.4-0.2
			c0.1-0.1,0.3-0.2,0.3-0.4s0.1-0.4,0.1-0.6C5.8,11.7,5.8,11.4,5.6,11.2z M4.9,12.3c-0.1,0.1-0.1,0.1-0.3,0.2
			c-0.1,0-0.3,0.1-0.6,0.1H3.6v-1.1H4c0.3,0,0.5,0,0.6,0c0.1,0,0.2,0.1,0.3,0.2C5,11.7,5,11.8,5,12C5,12.1,5,12.2,4.9,12.3z"/>
	</g>
</g>
<g>
	<g>
		<path d="M9.8,11.8c-0.1-0.2-0.2-0.4-0.4-0.6S9,10.9,8.8,10.9c-0.2,0-0.4-0.1-0.8-0.1H6.5v3.8H8c0.3,0,0.5,0,0.7-0.1
			c0.2-0.1,0.4-0.2,0.6-0.3c0.2-0.2,0.3-0.4,0.4-0.7c0.1-0.2,0.1-0.5,0.1-0.8C9.9,12.4,9.8,12.1,9.8,11.8z M9,13.4
			c-0.1,0.2-0.1,0.3-0.2,0.4c-0.1,0.1-0.2,0.1-0.3,0.2c-0.1,0-0.3,0-0.5,0H7.3l0,0v-2.5h0.4c0.3,0,0.6,0,0.7,0
			c0.2,0,0.3,0.1,0.4,0.2C8.8,11.7,8.9,11.9,9,12C9,12.2,9,12.4,9,12.7C9,13,9,13.2,9,13.4z"/>
	</g>
</g>
<g>
	<g>
		<polygon points="13.4,11.4 13.4,10.8 10.6,10.8 10.6,14.6 11.4,14.6 11.4,13 13.1,13 13.1,12.3 11.4,12.3 11.4,11.4 		"/>
	</g>
</g>
</svg>
