<?xml version="1.0" encoding="utf-8"?>
<!-- Generator: Adobe Illustrator 21.0.2, SVG Export Plug-In . SVG Version: 6.00 Build 0)  -->
<svg version="1.1" id="Layer_1" xmlns="http://www.w3.org/2000/svg" xmlns:xlink="http://www.w3.org/1999/xlink" x="0px" y="0px"
	 viewBox="0 0 40 40" style="enable-background:new 0 0 40 40;" xml:space="preserve">
<path d="M32.3,0H7.7C3.5,0,0,3.5,0,7.7v8.2v16.4C0,36.5,3.5,40,7.7,40h24.5c4.3,0,7.7-3.5,7.7-7.7V15.9V7.7C40,3.5,36.5,0,32.3,0z
	 M34.5,4.6l0.9,0v0.9v5.9l-6.8,0l0-6.8L34.5,4.6z M14.3,15.9c1.3-1.8,3.4-2.9,5.7-2.9s4.4,1.2,5.7,2.9c0.8,1.2,1.3,2.6,1.3,4.1
	c0,3.9-3.2,7-7,7c-3.9,0-7-3.2-7-7C13,18.5,13.5,17.1,14.3,15.9z M36.1,32.3c0,2.1-1.7,3.8-3.8,3.8H7.7c-2.1,0-3.8-1.7-3.8-3.8V15.9
	h6c-0.5,1.3-0.8,2.7-0.8,4.1c0,6,4.9,10.9,10.9,10.9c6,0,10.9-4.9,10.9-10.9c0-1.5-0.3-2.8-0.8-4.1h6V32.3z"/>
</svg>
