<?xml version="1.0" encoding="utf-8"?>
<!-- Generator: Adobe Illustrator 21.0.2, SVG Export Plug-In . SVG Version: 6.00 Build 0)  -->
<svg version="1.1" id="Layer_1" xmlns="http://www.w3.org/2000/svg" xmlns:xlink="http://www.w3.org/1999/xlink" x="0px" y="0px"
	 viewBox="0 0 40 33.3" style="enable-background:new 0 0 40 33.3;" xml:space="preserve">
<path d="M20,18.3C16.7,18.3,0,4.8,0,4.8V3.3C0,1.5,1.5,0,3.3,0h33.3C38.5,0,40,1.5,40,3.3L40,5C40,5,23.4,18.3,20,18.3z M20,22.9
	c3.6,0,20-12.9,20-12.9l0,20c0,1.8-1.5,3.3-3.3,3.3H3.3C1.5,33.3,0,31.8,0,30l0-20C0,10,16.7,22.9,20,22.9z"/>
</svg>
