<?xml version="1.0" encoding="utf-8"?>
<!-- Generator: Adobe Illustrator 21.0.2, SVG Export Plug-In . SVG Version: 6.00 Build 0)  -->
<svg version="1.1" id="Layer_1" xmlns:sketch="http://www.bohemiancoding.com/sketch/ns"
	 xmlns="http://www.w3.org/2000/svg" xmlns:xlink="http://www.w3.org/1999/xlink" x="0px" y="0px" viewBox="0 0 30 30"
	 style="enable-background:new 0 0 30 30;" xml:space="preserve">
<style type="text/css">
	.st0{fill:#FFFFFF;}
</style>
<g>
	<circle class="st0" cx="15" cy="15" r="15"/>
	<title></title>
	<g id="black">
		<g id="whatsapp">
			<path d="M15,30c8.3,0,15-6.7,15-15S23.3,0,15,0S0,6.7,0,15S6.7,30,15,30z"/>
			<path class="st0" d="M15,23.1c-1.4,0-2.8-0.4-3.9-1l-4.5,1.4L8,19.2C7.3,18,6.9,16.5,6.9,15c0-4.5,3.7-8.1,8.2-8.1
				c4.5,0,8.2,3.6,8.2,8.1S19.5,23.1,15,23.1z M15,8.2c-3.8,0-6.9,3.1-6.9,6.8c0,1.5,0.5,2.9,1.3,4l-0.9,2.5l2.6-0.8
				c1.1,0.7,2.4,1.1,3.8,1.1c3.8,0,6.9-3.1,6.9-6.8S18.8,8.2,15,8.2L15,8.2z M19.2,16.9c-0.1-0.1-0.2-0.1-0.4-0.2
				c-0.2-0.1-1.2-0.6-1.4-0.6c-0.2-0.1-0.3-0.1-0.5,0.1c-0.1,0.2-0.5,0.6-0.6,0.8c-0.1,0.1-0.2,0.1-0.4,0c-0.2-0.1-0.8-0.3-1.6-1
				c-0.6-0.5-1-1.2-1.1-1.4c-0.1-0.2,0-0.3,0.1-0.4c0.1-0.1,0.2-0.2,0.3-0.3c0.1-0.1,0.1-0.2,0.2-0.3c0.1-0.1,0-0.2,0-0.3
				c-0.1-0.1-0.5-1.1-0.6-1.5c-0.2-0.4-0.3-0.3-0.4-0.3c-0.1,0-0.2,0-0.4,0s-0.4,0-0.5,0.2c-0.2,0.2-0.7,0.7-0.7,1.7
				c0,1,0.7,1.9,0.8,2.1c0.1,0.1,1.4,2.2,3.4,3c2,0.8,2,0.5,2.4,0.5c0.4,0,1.2-0.5,1.3-0.9C19.2,17.4,19.2,17,19.2,16.9L19.2,16.9z"
				/>
		</g>
	</g>
</g>
</svg>
