<?xml version="1.0" encoding="utf-8"?>
<!-- Generator: Adobe Illustrator 21.0.2, SVG Export Plug-In . SVG Version: 6.00 Build 0)  -->
<svg version="1.1" id="Layer_1" xmlns="http://www.w3.org/2000/svg" xmlns:xlink="http://www.w3.org/1999/xlink" x="0px" y="0px"
	 viewBox="0 0 20 20" style="enable-background:new 0 0 20 20;" xml:space="preserve">
<style type="text/css">
	.st0{fill:none;stroke:#000000;stroke-miterlimit:10;}
</style>
<g>
	<path d="M7.7,2c3.2,0,5.8,2.6,5.8,5.8s-2.6,5.8-5.8,5.8S1.9,11,1.9,7.8S4.5,2,7.7,2 M7.7,1C4,1,0.9,4.1,0.9,7.8
		c0,3.7,3,6.8,6.8,6.8c3.7,0,6.8-3,6.8-6.8C14.5,4.1,11.5,1,7.7,1L7.7,1z"/>
	<line class="st0" x1="12.5" y1="12.5" x2="20" y2="20"/>
	<line class="st0" x1="7.7" y1="9.6" x2="7.7" y2="6.1"/>
	<line class="st0" x1="9.5" y1="7.8" x2="5.9" y2="7.8"/>
</g>
</svg>
